<svg xmlns="http://www.w3.org/2000/svg" xmlns:xlink="http://www.w3.org/1999/xlink" viewBox="0 0 56.01 51.368" height="194.148" width="211.693"><defs><linearGradient id="e" spreadMethod="pad" gradientTransform="matrix(230.432 0 0 -230.432 481.187 2764.72)" gradientUnits="userSpaceOnUse" y2="0" x2="1" y1="0" x1="0"><stop offset="0" stop-color="#ef373b"/><stop offset="1" stop-color="#b91d24"/></linearGradient><linearGradient id="g" spreadMethod="pad" gradientTransform="matrix(230.432 0 0 -230.432 481.187 2764.72)" gradientUnits="userSpaceOnUse" y2="0" x2="1" y1="0" x1="0"><stop offset="0" stop-color="#de2526"/><stop offset="1" stop-color="#b91d24"/></linearGradient><linearGradient id="i" spreadMethod="pad" gradientTransform="scale(1491.35) rotate(-90 1.583 .87)" gradientUnits="userSpaceOnUse" y2="0" x2="1" y1="0" x1="0"><stop offset="0" stop-color="#ef373b"/><stop offset="1" stop-color="#b91d24"/></linearGradient><linearGradient id="k" spreadMethod="pad" gradientTransform="matrix(170.891 0 0 -170.891 962.078 3196.46)" gradientUnits="userSpaceOnUse" y2="0" x2="1" y1="0" x1="0"><stop offset="0" stop-color="#a02c1f"/><stop offset="1" stop-color="#651317"/></linearGradient><linearGradient id="m" spreadMethod="pad" gradientTransform="matrix(95.0917 0 0 -95.0917 1192.26 3217.45)" gradientUnits="userSpaceOnUse" y2="0" x2="1" y1="0" x1="0"><stop offset="0" stop-color="#a02c1f"/><stop offset="1" stop-color="#651317"/></linearGradient><linearGradient id="p" spreadMethod="pad" gradientTransform="scale(1491.35) rotate(-90 1.583 .87)" gradientUnits="userSpaceOnUse" y2="0" x2="1" y1="0" x1="0"><stop offset="0" stop-color="#c21e25"/><stop offset="1" stop-color="#b91d24"/></linearGradient><linearGradient id="r" spreadMethod="pad" gradientTransform="scale(1491.35) rotate(-90 1.583 .87)" gradientUnits="userSpaceOnUse" y2="0" x2="1" y1="0" x1="0"><stop offset="0" stop-color="#de2526"/><stop offset="1" stop-color="#b91d24"/></linearGradient><linearGradient id="a" spreadMethod="pad" gradientTransform="scale(1491.35) rotate(-90 1.583 .87)" gradientUnits="userSpaceOnUse" y2="0" x2="1" y1="0" x1="0"><stop offset="0" stop-color="#f57780"/><stop offset="1" stop-color="#d35c68"/></linearGradient><linearGradient id="y" spreadMethod="pad" gradientTransform="scale(1491.35) rotate(-90 1.583 .87)" gradientUnits="userSpaceOnUse" y2="0" x2="1" y1="0" x1="0"><stop offset="0" stop-color="#f25861"/><stop offset="1" stop-color="#c93b44"/></linearGradient><linearGradient id="A" spreadMethod="pad" gradientTransform="scale(1086.04) rotate(-90 2.84 .223)" gradientUnits="userSpaceOnUse" y2="0" x2="1" y1="0" x1="0"><stop offset="0" stop-color="#c2e124"/><stop offset="1" stop-color="#89a023"/></linearGradient><linearGradient id="C" spreadMethod="pad" gradientTransform="scale(140.666 -140.666) rotate(5.536 228.094 183.643)" gradientUnits="userSpaceOnUse" y2="0" x2="1" y1="0" x1="0"><stop offset="0" stop-color="#a02c1f"/><stop offset="1" stop-color="#651317"/></linearGradient><linearGradient id="E" spreadMethod="pad" gradientTransform="rotate(172.365 1424.045 1573.085) scale(140.6661)" gradientUnits="userSpaceOnUse" y2="0" x2="1" y1="0" x1="0"><stop offset="0" stop-color="#a02c1f"/><stop offset="1" stop-color="#651317"/></linearGradient><linearGradient id="b" spreadMethod="pad" gradientTransform="scale(1086.04) rotate(-90 2.84 .223)" gradientUnits="userSpaceOnUse" y2="0" x2="1" y1="0" x1="0"><stop offset="0" stop-color="#d7ea5d"/><stop offset="1" stop-color="#b6c95e"/></linearGradient><linearGradient id="K" spreadMethod="pad" gradientTransform="matrix(0 1283.04 1283.04 0 1215.88 542.01)" gradientUnits="userSpaceOnUse" y2="0" x2="1" y1="0" x1="0"><stop offset="0" stop-color="#349e7c"/><stop offset="1" stop-color="#42be93"/></linearGradient><linearGradient id="M" spreadMethod="pad" gradientTransform="matrix(147.316 0 0 -147.316 1300.73 1299.12)" gradientUnits="userSpaceOnUse" y2="0" x2="1" y1="0" x1="0"><stop offset="0" stop-color="#a02c1f"/><stop offset="1" stop-color="#651317"/></linearGradient><linearGradient id="O" spreadMethod="pad" gradientTransform="scale(129.6846 -129.6846) rotate(6.783 90.65 58.664)" gradientUnits="userSpaceOnUse" y2="0" x2="1" y1="0" x1="0"><stop offset="0" stop-color="#a02c1f"/><stop offset="1" stop-color="#651317"/></linearGradient><linearGradient id="Q" spreadMethod="pad" gradientTransform="matrix(463.534 0 0 -463.534 1636.94 1341.17)" gradientUnits="userSpaceOnUse" y2="0" x2="1" y1="0" x1="0"><stop offset="0" stop-color="#349e7c"/><stop offset="1" stop-color="#42be93"/></linearGradient><linearGradient id="c" spreadMethod="pad" gradientTransform="matrix(0 1283.04 1283.04 0 1215.88 542.01)" gradientUnits="userSpaceOnUse" y2="0" x2="1" y1="0" x1="0"><stop offset="0" stop-color="#6accad"/><stop offset="1" stop-color="#73cfb5"/></linearGradient><linearGradient id="W" spreadMethod="pad" gradientTransform="scale(1205.104 -1205.104) rotate(74 2.128 .878)" gradientUnits="userSpaceOnUse" y2="0" x2="1" y1="0" x1="0"><stop offset="0" stop-color="#8a1876"/><stop offset="1" stop-color="#621857"/></linearGradient><linearGradient id="Y" spreadMethod="pad" gradientTransform="matrix(-128.224 -13.2838 8.58465 -143.096 3146.89 1439.54)" gradientUnits="userSpaceOnUse" y2="0" x2="1" y1="0" x1="0"><stop offset="0" stop-color="#a02c1f"/><stop offset="1" stop-color="#651317"/></linearGradient><linearGradient id="aa" spreadMethod="pad" gradientTransform="matrix(-101.847 -27.9724 22.3899 -133.328 2931.36 1422.04)" gradientUnits="userSpaceOnUse" y2="0" x2="1" y1="0" x1="0"><stop offset="0" stop-color="#a02c1f"/><stop offset="1" stop-color="#651317"/></linearGradient><linearGradient id="ac" spreadMethod="pad" gradientTransform="scale(1205.104 -1205.104) rotate(74 2.128 .878)" gradientUnits="userSpaceOnUse" y2="0" x2="1" y1="0" x1="0"><stop offset="0" stop-color="#a5409a"/><stop offset="1" stop-color="#883b85"/></linearGradient><linearGradient spreadMethod="pad" y2="0" x2="1" y1="0" x1="0" gradientTransform="scale(1491.35) rotate(-90 1.583 .87)" gradientUnits="userSpaceOnUse" id="t" xlink:href="#a"/><linearGradient spreadMethod="pad" y2="0" x2="1" y1="0" x1="0" gradientTransform="scale(1491.35) rotate(-90 1.583 .87)" gradientUnits="userSpaceOnUse" id="v" xlink:href="#a"/><linearGradient spreadMethod="pad" y2="0" x2="1" y1="0" x1="0" gradientTransform="scale(1086.04) rotate(-90 2.84 .223)" gradientUnits="userSpaceOnUse" id="G" xlink:href="#b"/><linearGradient spreadMethod="pad" y2="0" x2="1" y1="0" x1="0" gradientTransform="scale(1086.04) rotate(-90 2.84 .223)" gradientUnits="userSpaceOnUse" id="I" xlink:href="#b"/><linearGradient spreadMethod="pad" y2="0" x2="1" y1="0" x1="0" gradientTransform="matrix(0 1283.04 1283.04 0 1215.88 542.01)" gradientUnits="userSpaceOnUse" id="S" xlink:href="#c"/><linearGradient spreadMethod="pad" y2="0" x2="1" y1="0" x1="0" gradientTransform="matrix(0 1283.04 1283.04 0 1215.88 542.01)" gradientUnits="userSpaceOnUse" id="U" xlink:href="#c"/><clipPath id="d" clipPathUnits="userSpaceOnUse"><path d="M508.695 2575.45c-6.386 0-11.515 13.92-5.394 49.48 6.187 35.93 12.074 47.71 12.074 47.71s-8.539-10.31-15.02-23.27c-6.199-12.4-9.703-36.67-15.671-36.67-.27 0-.543.05-.821.15-6.48 2.36-1.644 44.94 19.496 77.32 39.567 60.62 48.047 67.19 63.75 89.97 14.106 20.45 95.832 144.36 112.368 169.43 4.644-16.39 9.164-33.01 13.445-50.17l-113.66-168.35c-.528-.62-.821-1.05-.86-1.27-.882-5.01 17.672-39.76 22.969-54.19 5.305-14.44 11.488-37.11 5.895-39.76-.821-.39-1.629-.58-2.43-.58-4.652 0-8.813 6.34-10.828 15.89-2.195 10.44-14.125 23.18-17.875 23.18-.27 0-.5-.07-.68-.21-2.644-2.06-3.828-30.92-5.004-43.88-1.152-12.69-.047-39.8-6.09-39.8-.125 0-.257.02-.39.04-6.481 1.18-7.364 19.14-9.129 33.28-1.77 14.14-1.469 36.82-1.469 36.82s-3.242-27.1-5.598-39.76c-2.359-12.67-.589-43.59-8.246-43.89h-.25c-7.418 0-8.004 13.02-8.589 44.77-.586 32.1 5.011 44.17 5.011 44.17s-9.133-17.08-15.316-42.7c-6.184-25.62-5.008-47.41-11.488-47.71h-.2m189 260.67l7.825 6.97c.011-.08.023-.14.039-.22-2.145-1.84-4.793-4.12-7.864-6.75"/></clipPath><clipPath id="f" clipPathUnits="userSpaceOnUse"><path d="M579.262 2731.05l113.66 168.35c4.504-18.05 8.746-36.7 12.598-56.31l-7.825-6.97c-32.132-27.64-109.41-94.42-118.433-105.07"/></clipPath><clipPath id="h" clipPathUnits="userSpaceOnUse"><path d="M1363.87 2220.21h-.02c.01.02.02.03.02.03l-38.44 2.66c1.22 3.29 64.45 175.45-3.97 234.53-26.58 22.95-60.6 28.7-100 28.7-19.8 0-40.96-1.45-63.21-2.91-22.25-1.45-45.6-2.9-69.78-2.9-28.57 0-58.31 2.03-88.763 8.49-133.164 28.27-201.305 395.82-304.977 572.44-100.367 171.05-54 395.07-50.98 409.02-24.559-53.99-33.68-114.47-33.68-174.1 0 23.35 1.399 46.82 4.575 69.99 2.566 18.73 6.3 37.27 11.394 55.37 4.695 16.68 10.547 32.98 17.711 48.74v.19l.184.47c10.398 22.72 23.531 44.29 39.875 64.18 42.769 52.02 107.523 92.41 202.711 111.3 20.828 4.15 43.07 7.26 66.914 9.23 9.14.76 18.468 1.42 28.086 1.8 11.984.53 23.79.78 35.37.78 76.61 0 144.2-11.12 200.41-26.76 46.3-12.88 84.87-28.82 114.42-44.14 33.07-17.14 54.83-33.51 63.44-43.92 2.26-2.73 3.67-5.09 4.05-6.88 5.46-23.56 3.2-58.52-15.74-127.6-18.85-69.08-3.87-188.12 73.04-298.47 77-110.27 59.75-155.13 47.12-266.62-12.53-111.49-40.81-229.3-43.92-365.95-3.2-136.65-95.84-257.67-95.84-257.67m-230.9 495.21s40.37-68.9 105.24-72.65c2.47-.14 4.93-.21 7.33-.21 114.09 0 145.63 157.41 146.87 163.84 6.08 21.64 6.8 37.43 6.8 37.43s-11.78-94.25-102.18-128.41c-30.13-11.39-58.4-15.18-82.71-15.18-48.61 0-81.35 15.18-81.35 15.18s22.39-14.22 55.83-23.02c-37.91 5.36-55.83 23.02-55.83 23.02m37.7 5.11s22.23-5.15 51.92-5.15c38.8 0 90.35 8.79 121.64 49.34 53.9 69.83 31.86 147.83 31.86 147.83s5.06-73.43-49.92-133.91c-51-56.1-141.2-58.12-153.98-58.12-.99 0-1.52.01-1.52.01m203.24 232.23h-.12c-2.81-.23-4.43-8.57-3.62-18.62.8-9.92 3.66-17.81 6.43-17.81.04 0 .08 0 .12.01 2.82.22 4.43 8.56 3.62 18.62-.8 9.92-3.66 17.8-6.43 17.8m-357.02 705.46c-11.58 0-23.386-.25-35.37-.78-9.618-.38-18.946-1.04-28.086-1.8-23.844-1.97-46.086-5.08-66.914-9.23l-82.653-29.69s92.36-70.77 273.683-91.41c33.92-3.85 67.13-5.42 98.72-5.42 97.45 0 179.46 14.9 218.89 23.51-25.64 31-167.93 114.82-378.27 114.82m373.97-857.07a183.7 183.7 0 011.49 5.04c-.19-.76-.65-2.5-1.49-5.04"/></clipPath><clipPath id="j" clipPathUnits="userSpaceOnUse"><path d="M1132.97 3196.46c0-64.27-38.26-116.36-85.45-116.36-47.19 0-85.446 52.09-85.446 116.36 0 64.26 38.256 116.36 85.446 116.36s85.45-52.1 85.45-116.36z"/></clipPath><clipPath id="l" clipPathUnits="userSpaceOnUse"><path d="M1287.35 3217.45c0-35.77-21.29-64.75-47.55-64.75-26.26 0-47.54 28.98-47.54 64.75 0 35.76 21.28 64.74 47.54 64.74 26.26 0 47.55-28.98 47.55-64.74z"/></clipPath><clipPath id="n" clipPathUnits="userSpaceOnUse"><path d="M800.098 2166.88s-74.024 155.52-74 428.51c0 2.7.004 5.4.019 8.12.02 3.12.028 6.22.028 9.29.011 94.71-8.293 167.44-20.625 230.29-3.852 19.61-8.094 38.26-12.598 56.31-22.328 89.48-51.109 164.28-70.473 269-7.406 40.16-12.379 83.73-12.379 127.77 0 59.63 9.121 120.11 33.68 174.1-3.02-13.95-49.387-237.97 50.98-409.02 103.672-176.62 171.813-544.17 304.977-572.44 30.453-6.46 60.193-8.49 88.763-8.49 24.18 0 47.53 1.45 69.78 2.9 22.25 1.46 43.41 2.91 63.21 2.91 39.4 0 73.42-5.75 100-28.7 68.42-59.08 5.19-231.24 3.97-234.53h-.01-.01c-1.05 15.86-8.81 98.41-52.58 160.73-16.97 24.1-54.81 33.49-99.01 33.49-82.51 0-187.207-32.68-219.914-63.36-50.129-47.03-130.011-173.82-130.34-174.35h-.031l-5.449-2.93-17.988-9.6"/></clipPath><clipPath id="o" clipPathUnits="userSpaceOnUse"><path d="M594.363 2166.88h795.516v1303.39H594.363z"/></clipPath><clipPath id="q" clipPathUnits="userSpaceOnUse"><path d="M1245.54 2642.56c-2.4 0-4.86.07-7.33.21-64.87 3.75-105.24 72.65-105.24 72.65s17.92-17.66 55.83-23.02c14.97-3.94 32.15-6.79 50.53-6.79 21.57 0 44.78 3.93 67.99 14.62 50.41 23.24 73.25 67.62 83.54 100.92.84 2.54 1.3 4.28 1.49 5.04l.06.21c-1.24-6.43-32.78-163.84-146.87-163.84"/></clipPath><clipPath id="s" clipPathUnits="userSpaceOnUse"><path d="M1222.59 2715.38c-29.69 0-51.92 5.15-51.92 5.15s.53-.01 1.52-.01c12.78 0 102.98 2.02 153.98 58.12 54.98 60.48 49.92 133.91 49.92 133.91s22.04-78-31.86-147.83c-31.29-40.55-82.84-49.34-121.64-49.34"/></clipPath><clipPath id="u" clipPathUnits="userSpaceOnUse"><path d="M1376.6 2916.33c-2.77 0-5.63 7.89-6.43 17.81-.81 10.05.81 18.39 3.62 18.62h.12c2.77 0 5.63-7.88 6.43-17.8.81-10.06-.8-18.4-3.62-18.62-.04-.01-.08-.01-.12-.01"/></clipPath><clipPath id="w" clipPathUnits="userSpaceOnUse"><path d="M1176.27 3519.89c-31.59 0-64.8 1.57-98.72 5.42-181.323 20.64-273.683 91.41-273.683 91.41l82.653 29.69c20.828 4.15 43.07 7.26 66.914 9.23 9.14.76 18.468 1.42 28.086 1.8 11.984.53 23.79.78 35.37.78 210.34 0 352.63-83.82 378.27-114.82-39.43-8.61-121.44-23.51-218.89-23.51"/></clipPath><clipPath id="x" clipPathUnits="userSpaceOnUse"><path d="M803.867 3519.89h591.293v138.332H803.867z"/></clipPath><clipPath id="z" clipPathUnits="userSpaceOnUse"><path d="M3167.24 2241.2s-13.11 10.39-35.47 25.48c-54.65 36.89-164.53 101.89-273.14 111.92-8.17.75-16.13 1.11-23.84 1.11-136.87 0-201.22-112.32-201.22-112.32l-27.13.38s-116.59 166.15-135.43 439.46c-18.85 273.3-12.91 460.57 5.93 475.93 9.71 7.91 54.66 47.97 127.61 83.79l1.22.65c64.37 31.53 150.38 59.63 252.85 59.63 6.6 0 13.26-.11 19.99-.35 230.9-8.29 336.93-170.77 347.57-204.98 10.56-34.21-73.5-452.37-66.44-603.16 5.6-119.42 24.02-217.38 31.44-252.97 1.95-9.36 3.15-14.4 3.15-14.4l-27.09-10.17m-8.96 581.65c-10.46 0-36.2-112.51-36.2-215.28 0-104.84 5.89-203.01 14.14-203.01 12.38 0 .14 113.23 5.43 217.49 5.3 104.25 27.35 195.9 17.25 200.66-.2.09-.41.14-.62.14m20.64 98.76c-3.98 0-10.55-17.07-14.86-38.76-4.4-22.18-4.77-40.79-.83-41.58.09-.01.18-.02.26-.02 3.99 0 10.56 17.06 14.87 38.76 4.4 22.18 4.77 40.79.82 41.57-.09.02-.17.03-.26.03"/></clipPath><clipPath id="B" clipPathUnits="userSpaceOnUse"><path d="M2781.59 2961.08c-5.11-52.65-40.58-92.29-79.25-88.55-38.66 3.75-65.87 49.47-60.76 102.12 5.1 52.65 40.58 92.3 79.24 88.55 38.66-3.74 65.87-49.47 60.77-102.12z"/></clipPath><clipPath id="D" clipPathUnits="userSpaceOnUse"><path d="M2905.05 2961.71c-7.03-52.43 18.49-99.12 56.98-104.28 38.5-5.16 75.41 33.16 82.44 85.59 7.02 52.43-18.48 99.11-56.99 104.28-38.5 5.16-75.4-33.16-82.43-85.59z"/></clipPath><clipPath id="F" clipPathUnits="userSpaceOnUse"><path d="M3136.22 2404.56c-8.25 0-14.14 98.17-14.14 203.01 0 102.77 25.74 215.28 36.2 215.28.21 0 .42-.05.62-.14 10.1-4.76-11.95-96.41-17.25-200.66-5.29-104.26 6.95-217.49-5.43-217.49"/></clipPath><clipPath id="H" clipPathUnits="userSpaceOnUse"><path d="M3163.49 2841.25c-.08 0-.17.01-.26.02-3.94.79-3.57 19.4.83 41.58 4.31 21.69 10.88 38.76 14.86 38.76.09 0 .17-.01.26-.03 3.95-.78 3.58-19.39-.82-41.57-4.31-21.7-10.88-38.76-14.87-38.76"/></clipPath><clipPath id="J" clipPathUnits="userSpaceOnUse"><path d="M1625.52 542.012c-40.65 0-75.73 8.187-75.73 8.187s-59.56 127.321-107.34 155.5c-17.95 10.539-139.16 26-257.66 36.031-69.89 5.911-138.84 9.93-185.11 9.93-24.043 0-41.953-1.09-50.696-3.551-10.523-3-22.609-7.961-35.132-13.929-47.043-22.43-100.297-59.11-100.297-59.11s-5.067-.488-13.856-.488c-11.98 0-30.886.91-53.336 5.207-34.683 6.59-61.261 23.551-61.261 23.551s-.18 4.832-.457 13.512c-1.442 45.589-5.481 197.597.457 316.348 4.738 94.76 103.714 311.31 194.144 465.05.008.02 0 0 .008.01 44.461 75.59 86.859 136.01 114.969 159.31 8.897 7.33 19.357 15.18 31.037 23.31 18.63 12.96 40.39 26.65 63.96 40.2 15.37 8.84 31.5 17.63 48.03 26.14-6.16-70.23 30.58-139.15 30.58-139.15s39.97 71.46 132.9 111.23c52.25 22.35 102.93 27.24 137.3 27.24 26.75 0 43.62-2.97 43.62-2.97s.01.03.02.09c24.04-29.84 49.57-67.25 74.92-110.96 0-.01-.01-.01-.01-.01l-.29-.67c-1.46-3.84-8.75-23.74-8.76-50.91 0-14.86 2.17-31.89 8.67-49.65 30.08-82.35 99.68-116.32 101.74-117.31 24.66-67.51 46-140.96 61.49-218.38 37.73-188.67 33.79-360.809 22.69-477.141-8.99-94.309-22.69-151.938-22.69-151.938-24.56-19.332-61.05-24.679-93.91-24.679m73.54 113.636c-3.9 0-7.07-14.148-7.07-31.609 0-17.449 3.17-31.609 7.07-31.609 3.9 0 7.07 14.16 7.07 31.609 0 17.461-3.17 31.609-7.07 31.609m.18 427.662c-3.32 0-6.65-2.25-6.84-6.47-1.94-44.11-4.27-117.301-3.55-203.711.63-76.5 2.7-149.899 4.48-201.348.15-4.312 3.48-6.543 6.8-6.543 3.07 0 6.13 1.903 6.68 5.844 7.79 56.008 17.56 135.387 20.91 202.047 3.79 75.332-10.94 156.561-21.94 204.931-.81 3.56-3.67 5.25-6.54 5.25"/></clipPath><clipPath id="L" clipPathUnits="userSpaceOnUse"><path d="M1448.05 1329.1c-5.94-17.43-13.95-33.36-23.47-47.3-18.66-27.34-43.07-47.03-69.27-55.79-13.29-4.44-27.05-6.04-40.71-4.34-18.1 23.37-18.95 63.05.19 99.04l.56 1.05c4.81 8.76 10.37 16.77 16.68 23.65 25.45 28.55 60.89 40.05 87.55 25.54 15.18-8.2 24.89-23.47 28.47-41.85z"/></clipPath><clipPath id="N" clipPathUnits="userSpaceOnUse"><path d="M1113.1 1349.62c-7.25-16.7-16.13-31.68-26.1-44.54-19.54-25.21-43.21-42.23-67.14-48.21-12.14-3.01-24.356-3.17-36.106-.06-13.055 25.08-9.109 64.58 11.867 98.34l.613.96c5.236 8.21 11.046 15.58 17.376 21.76 25.62 25.7 57.95 33.44 79.55 16.26 12.3-9.73 18.98-25.89 19.94-44.51z"/></clipPath><clipPath id="P" clipPathUnits="userSpaceOnUse"><path d="M1657.66 1286.91s199.48 82.46 216.76 104.46c17.28 21.99 22.38 59.25 33.63 90.64 11.19 31.22-1.63 48.36 1.99 52.85 6.55 8.12 19.9-2.58 24.62-23.79 4.71-21.2-2.52-42.73-2.52-42.73s95.98 60.61 106.58 54.12c10.6-6.47-53.56-60.6-53.56-60.6s93.02 28.21 100.68 18.19c7.66-10.01-76.53-45.88-76.53-45.88s82.74 4.26 90.67-2.81c7.92-7.07-80.9-27.88-80.9-27.88s53.02-9.38 49.48-19.68c-1.92-5.61-68.98-5.29-78.4-6.47-9.42-1.18-89.82-11.48-89.82-11.48L1693 1144.77s-37.24 9.57-52.06 62.6c-14.92 53.41 16.72 79.54 16.72 79.54z"/></clipPath><clipPath id="R" clipPathUnits="userSpaceOnUse"><path d="M1700.13 665.238c-3.32 0-6.65 2.231-6.8 6.543-1.78 51.449-3.85 124.848-4.48 201.348-.72 86.41 1.61 159.601 3.55 203.711.19 4.22 3.52 6.47 6.84 6.47 2.87 0 5.73-1.69 6.54-5.25 11-48.37 25.73-129.599 21.94-204.931-3.35-66.66-13.12-146.039-20.91-202.047-.55-3.941-3.61-5.844-6.68-5.844"/></clipPath><clipPath id="T" clipPathUnits="userSpaceOnUse"><path d="M1699.06 592.43c-3.9 0-7.07 14.16-7.07 31.609 0 17.461 3.17 31.609 7.07 31.609 3.9 0 7.07-14.148 7.07-31.609 0-17.449-3.17-31.609-7.07-31.609"/></clipPath><clipPath id="V" clipPathUnits="userSpaceOnUse"><path d="M2838.47 571.969h-29.5s-1.08 3.332-2.97 9.679c-10.49 35.321-45.83 164.071-57.82 333.184-1.97 28.047-3.58 60.547-4.85 95.778-.28 7.86-.55 15.87-.8 23.99-2.43 78.67-3.32 168.36-3.02 251.74.18 89.12 1.67 171.16 3.9 224.96 1.36 32.78 2.99 55.08 4.77 62.11 2.29 9.01 19.85 24.93 45.87 43.67l4.99.32s-10.51-22.18-11.77-35.8c0 0 26.1 19.78 52.54 27 31.17 8.53 58.58 9.11 65.43 9.11 1.07 0 1.64-.01 1.64-.01l-14.44 8.28s5.45 2.16 12.33 11.83c5.35 7.51 13.75 32.54 13.75 32.54s-11.25 0-58.83-10.67c62.16 37.13 136.07 73.96 182.35 86.76 10.65 3.01 19.79 4.71 27.04 4.81.37.01.74.01 1.11.01 45.9 0 118.69-49.72 168.4-92.99-49.71 43.27-122.5 92.99-168.4 92.99-.37 0-.74 0-1.11-.01-7.25-.1-16.39-1.8-27.04-4.81 0 0 45.58-28.32 94.01-79.04-6.59 1.8-13.6 3.33-21.04 4.49-47.29 7.42-89.21 13.1-89.21 13.1s12.22-29.15 19.99-37.91c9.99-11.26 17.92-13.78 17.92-13.78l-20.99-9.66s58.55-3.79 97.49-10.57c19.92-3.48 39.45-11.63 53.77-18.76 24.49-38.21 44.36-82.71 52.09-132.48 27.15-174.74-10.55-648.31-48.25-702.498-37.69-54.191-302.8-64.852-326.37-84.82-23.55-19.981-32.98-102.543-32.98-102.543m14.42 637.771s31.49-88.11 98.36-106.42c10.93-2.99 21.48-4.25 31.48-4.25 51.16 0 87.9 32.8 87.9 32.8s-38.8-21.94-82.67-21.94c-14.66 0-29.89 2.45-44.43 9-57.25 25.76-90.64 90.81-90.64 90.81m370.75-551.72c-8.13 3.859-44.27 5.57-90.23 5.57-30.23 0-64.7-.738-98.25-2.09-16.57-.66-32.91-1.469-48.4-2.422 46.86 2.863 101.56 4.512 146.75 4.512 45.91 0 82.02-1.699 90.13-5.57"/></clipPath><clipPath id="X" clipPathUnits="userSpaceOnUse"><path d="M3018.66 1426.26c3.23-53.81 34.55-94.46 69.96-90.79 35.41 3.66 61.5 50.26 58.26 104.07-3.22 53.82-34.55 94.46-69.95 90.79-35.41-3.66-61.49-50.26-58.27-104.07z"/></clipPath><clipPath id="Z" clipPathUnits="userSpaceOnUse"><path d="M2829.51 1394.07c8.42-50.13 38.05-84.52 66.17-76.79 28.13 7.72 44.1 54.62 35.68 104.76-8.42 50.14-38.05 84.52-66.16 76.8-28.13-7.73-44.11-54.63-35.69-104.77z"/></clipPath><clipPath id="ab" clipPathUnits="userSpaceOnUse"><path d="M2982.73 1099.07c-10 0-20.55 1.26-31.48 4.25-66.87 18.31-98.36 106.42-98.36 106.42s33.39-65.05 90.64-90.81c14.54-6.55 29.77-9 44.43-9 43.87 0 82.67 21.94 82.67 21.94s-36.74-32.8-87.9-32.8"/></clipPath></defs><path d="M20.778-71.676l-1.663 4.289-.678 1.749s-1.766-1.267-2.743-3.301c-.974-2.032-1.473-5.772-.529-5.879l.01-.003c.958-.083 1.6 1.6 2.826 2.41 1.227.812 2.777.735 2.777.735" fill="#f9b147"/><path d="M18.335-65.716c-.39-.303-1.804-1.482-2.641-3.223-.61-1.272-1.033-3.213-1.033-4.514 0-.777.151-1.325.504-1.365.153.692.685 2.84 1.895 4.894.746 1.27 1.306 1.921 1.676 2.255-.18.639-.311 1.293-.401 1.953" fill="#e79b40"/><path d="M43.878-74.711c-.047.272-.09.509-.133.711a9.752 9.752 0 01-.203.802c-.097.315-.16.415-.16.415l-4.964-1.323s.183-.133.456-.353c.538-.432 1.426-1.203 1.911-1.941.44-.665.842-1.423 1.274-1.909.286-.322.585-.525.918-.502.834.057 1.163 2.55.9 4.1" fill="#f9b147"/><path d="M43.631-73.518c-1.042-.54-2.403-1.102-4.036-1.557.432-.395.889-.866 1.19-1.325.44-.665.842-1.423 1.274-1.909.033.383.123 1.094.35 2.178.265 1.273.973 1.892 1.336 2.131-.04.186-.078.346-.114.482" fill="#e79b40"/><path d="M49.027-54.96s3.513 5.33 4.067 6.134c.554.804.853 1.036 2.249 3.174.745 1.143.916 2.644.687 2.728-.228.083-.353-.832-.581-1.289-.229-.457-.53-.82-.53-.82s.208.415.426 1.683c.218 1.267.031 1.756-.198 1.745-.228-.01-.187-.779-.405-1.683-.218-.904-.54-1.507-.54-1.507s.197.427.176 1.559c-.02 1.132-.041 1.59-.311 1.58-.27-.011-.208-1.102-.291-1.549-.083-.447-.197-1.403-.197-1.403s.01.8-.052 1.299c-.063.499-.094 1.132-.322 1.174-.229.042-.188-.945-.229-1.403-.042-.456-.083-1.475-.177-1.548-.093-.072-.571.416-.654.811-.083.395-.27.634-.468.54-.197-.093.02-.893.208-1.402.187-.51.842-1.735.81-1.912-.03-.177-4.7-4.173-4.7-4.173s.179-3.276 1.032-3.737" fill="#b81d24"/><g clip-path="url(#d)" transform="matrix(.03528 0 0 -.03528 -3.349 53.035)"><path d="M508.695 2575.45c-6.386 0-11.515 13.92-5.394 49.48 6.187 35.93 12.074 47.71 12.074 47.71s-8.539-10.31-15.02-23.27c-6.199-12.4-9.703-36.67-15.671-36.67-.27 0-.543.05-.821.15-6.48 2.36-1.644 44.94 19.496 77.32 39.567 60.62 48.047 67.19 63.75 89.97 14.106 20.45 95.832 144.36 112.368 169.43 4.644-16.39 9.164-33.01 13.445-50.17l-113.66-168.35c-.528-.62-.821-1.05-.86-1.27-.882-5.01 17.672-39.76 22.969-54.19 5.305-14.44 11.488-37.11 5.895-39.76-.821-.39-1.629-.58-2.43-.58-4.652 0-8.813 6.34-10.828 15.89-2.195 10.44-14.125 23.18-17.875 23.18-.27 0-.5-.07-.68-.21-2.644-2.06-3.828-30.92-5.004-43.88-1.152-12.69-.047-39.8-6.09-39.8-.125 0-.257.02-.39.04-6.481 1.18-7.364 19.14-9.129 33.28-1.77 14.14-1.469 36.82-1.469 36.82s-3.242-27.1-5.598-39.76c-2.359-12.67-.589-43.59-8.246-43.89h-.25c-7.418 0-8.004 13.02-8.589 44.77-.586 32.1 5.011 44.17 5.011 44.17s-9.133-17.08-15.316-42.7c-6.184-25.62-5.008-47.41-11.488-47.71h-.2m189 260.67l7.825 6.97c.011-.08.023-.14.039-.22-2.145-1.84-4.793-4.12-7.864-6.75" fill="url(#e)"/></g><path d="M17.056-43.266l.03-.044c.319-.376 3.045-2.732 4.178-3.707l-4.208 3.751" fill="#d96b76"/><g clip-path="url(#f)" transform="matrix(.03528 0 0 -.03528 -3.349 53.035)"><path d="M579.262 2731.05l113.66 168.35c4.504-18.05 8.746-36.7 12.598-56.31l-7.825-6.97c-32.132-27.64-109.41-94.42-118.433-105.07" fill="url(#g)"/></g><g clip-path="url(#h)" transform="matrix(.03528 0 0 -.03528 -3.349 53.035)"><path d="M1363.87 2220.21h-.02c.01.02.02.03.02.03l-38.44 2.66c1.22 3.29 64.45 175.45-3.97 234.53-26.58 22.95-60.6 28.7-100 28.7-19.8 0-40.96-1.45-63.21-2.91-22.25-1.45-45.6-2.9-69.78-2.9-28.57 0-58.31 2.03-88.763 8.49-133.164 28.27-201.305 395.82-304.977 572.44-100.367 171.05-54 395.07-50.98 409.02-24.559-53.99-33.68-114.47-33.68-174.1 0 23.35 1.399 46.82 4.575 69.99 2.566 18.73 6.3 37.27 11.394 55.37 4.695 16.68 10.547 32.98 17.711 48.74v.19l.184.47c10.398 22.72 23.531 44.29 39.875 64.18 42.769 52.02 107.523 92.41 202.711 111.3 20.828 4.15 43.07 7.26 66.914 9.23 9.14.76 18.468 1.42 28.086 1.8 11.984.53 23.79.78 35.37.78 76.61 0 144.2-11.12 200.41-26.76 46.3-12.88 84.87-28.82 114.42-44.14 33.07-17.14 54.83-33.51 63.44-43.92 2.26-2.73 3.67-5.09 4.05-6.88 5.46-23.56 3.2-58.52-15.74-127.6-18.85-69.08-3.87-188.12 73.04-298.47 77-110.27 59.75-155.13 47.12-266.62-12.53-111.49-40.81-229.3-43.92-365.95-3.2-136.65-95.84-257.67-95.84-257.67m-230.9 495.21s40.37-68.9 105.24-72.65c2.47-.14 4.93-.21 7.33-.21 114.09 0 145.63 157.41 146.87 163.84 6.08 21.64 6.8 37.43 6.8 37.43s-11.78-94.25-102.18-128.41c-30.13-11.39-58.4-15.18-82.71-15.18-48.61 0-81.35 15.18-81.35 15.18s22.39-14.22 55.83-23.02c-37.91 5.36-55.83 23.02-55.83 23.02m37.7 5.11s22.23-5.15 51.92-5.15c38.8 0 90.35 8.79 121.64 49.34 53.9 69.83 31.86 147.83 31.86 147.83s5.06-73.43-49.92-133.91c-51-56.1-141.2-58.12-153.98-58.12-.99 0-1.52.01-1.52.01m203.24 232.23h-.12c-2.81-.23-4.43-8.57-3.62-18.62.8-9.92 3.66-17.81 6.43-17.81.04 0 .08 0 .12.01 2.82.22 4.43 8.56 3.62 18.62-.8 9.92-3.66 17.8-6.43 17.8m-357.02 705.46c-11.58 0-23.386-.25-35.37-.78-9.618-.38-18.946-1.04-28.086-1.8-23.844-1.97-46.086-5.08-66.914-9.23l-82.653-29.69s92.36-70.77 273.683-91.41c33.92-3.85 67.13-5.42 98.72-5.42 97.45 0 179.46 14.9 218.89 23.51-25.64 31-167.93 114.82-378.27 114.82m373.97-857.07a183.7 183.7 0 011.49 5.04c-.19-.76-.65-2.5-1.49-5.04" fill="url(#i)"/></g><path d="M24.878-23.406c-.033.942 2.994 2.57 3.357 2.351.364-.218-1.444-1.465-1.444-1.465s2.722.686 3.127.488c.406-.197-1.766-1.225-1.766-1.225s2.837.01 2.94-.447c.104-.457-5.388-.146-5.388-.146l-.826.444M43.41-25.384s-4.234.288-4.297.62c-.062.333 3.418.111 3.418.111s-2.67.831-2.378 1.247c.29.415 3.357-.722 3.357-.722s-1.26 1.733-.719 1.9c.54.165 1.975-3.062 1.975-3.062l-1.357-.094M37.274-59.729c0 4.653-2.804 8.426-6.263 8.426-3.46 0-6.263-3.773-6.263-8.426 0-4.654 2.804-8.426 6.263-8.426s6.263 3.772 6.263 8.426M45.354-61.5c0 1.462-.462 2.778-1.199 3.698a3.99 3.99 0 01-.36.393c-.197.017-.414.038-.645.065-.061.008-.122.014-.187.021h-.003c-.326.042-.68.093-1.056.159-.343.059-.649.114-.928.165-.176.031-.339.062-.492.09-.102.017-.197.034-.285.052a3.196 3.196 0 01-.455-.307c-1.097-.876-1.834-2.488-1.834-4.335 0-2.778 1.667-5.032 3.722-5.032 2.055 0 3.722 2.254 3.722 5.032" fill="#b81d24"/><path d="M36.853-59.729c0 4.193-2.496 7.591-5.575 7.591s-5.574-3.398-5.574-7.591c0-4.192 2.495-7.591 5.574-7.591 3.079 0 5.575 3.399 5.575 7.591" fill="#bfe9ea"/><path d="M36.853-59.729c0 3.994-2.378 7.231-5.31 7.231-2.933 0-5.31-3.237-5.31-7.231 0-3.994 2.377-7.231 5.31-7.231 2.932 0 5.31 3.237 5.31 7.231" fill="#fff"/><g clip-path="url(#j)" transform="matrix(.03528 0 0 -.03528 -3.349 53.035)"><path d="M1132.97 3196.46c0-64.27-38.26-116.36-85.45-116.36-47.19 0-85.446 52.09-85.446 116.36 0 64.26 38.256 116.36 85.446 116.36s85.45-52.1 85.45-116.36" fill="url(#k)"/></g><path d="M36.233-59.729c0 1.622-.965 2.937-2.157 2.937-1.19 0-2.156-1.315-2.156-2.937 0-1.622.965-2.937 2.156-2.937 1.192 0 2.157 1.315 2.157 2.937" fill="#4c0e13"/><path d="M32.464-59.729a1.704 1.704 0 11-3.408 0 1.704 1.704 0 013.408 0M34.076-58.918a.623.623 0 11-1.246 0 .623.623 0 011.246 0" fill="#fff"/><path d="M44.51-60.92c0 .349-.034.688-.094 1.01-.14.798-.448 1.506-.87 2.052-.153.2-.323.379-.506.532l-.183.02h-.003c-.32.04-.665.09-1.034.153-.336.056-.635.11-.908.16l-.482.086a2.744 2.744 0 01-.562-.343c-.934-.728-1.562-2.101-1.562-3.67 0-2.334 1.386-4.226 3.102-4.226 1.452 0 2.67 1.36 3.005 3.198.063.326.097.672.097 1.028" fill="#bfe9ea"/><path d="M44.51-60.92c0 .349-.034.688-.094 1.01-.153.808-.485 1.513-.934 2.042-.19.219-.399.409-.625.562h-.003c-.32.04-.665.09-1.034.153-.336.056-.635.11-.908.16a2.408 2.408 0 01-.774-.396c-.702-.522-1.23-1.42-1.44-2.494a5.222 5.222 0 01-.08-.572v-.003a5.27 5.27 0 01-.02-.462c0-2.221 1.323-4.023 2.956-4.023 1.37 0 2.523 1.27 2.86 2.995.062.326.096.672.096 1.028" fill="#fff"/><g clip-path="url(#l)" transform="matrix(.03528 0 0 -.03528 -3.349 53.035)"><path d="M1287.35 3217.45c0-35.77-21.29-64.75-47.55-64.75-26.26 0-47.54 28.98-47.54 64.75 0 35.76 21.28 64.74 47.54 64.74 26.26 0 47.55-28.98 47.55-64.74" fill="url(#m)"/></g><path d="M41.275-60.373c0 .903-.537 1.635-1.2 1.635-.663 0-1.2-.732-1.2-1.635 0-.902.537-1.634 1.2-1.634.663 0 1.2.732 1.2 1.634" fill="#4c0e13"/><path d="M40.217-60.277a.81.81 0 11-1.618 0 .81.81 0 011.618 0M41.192-59.815a.347.347 0 11-.694 0 .347.347 0 01.694 0" fill="#fff"/><path d="M38.304-65.222s.574-1.932 3.102-3.802 4.211-2.307 4.211-2.307l-1.309 1.434 2.203-.52s-.139 1.452-1.053 2.529c-1.011 1.19-4.183 1.7-5.902 2.912-.672.474-1.129.918-1.129.918l.624-1.507-.747.343M36.717-63.913s-2.258-1.487-4.606-1.896c-2.348-.41-5.878-.639-5.878-.639l1.265-.581s-.478-.153-1.08-.832c-.47-.528-1.206-2.286-1.206-2.286s2.528.343 5.379.79c3.97.622 5.904 2.972 5.904 2.972l-.81-.042s.921 1.559 1.032 2.514" fill="#4c0e13"/><g clip-path="url(#n)" transform="matrix(.03528 0 0 -.03528 -3.349 53.035)"><g clip-path="url(#o)"><path d="M800 2166v1h-1v2h-1v2h-1v2h-1v3h-1v2h-1v3h-1v2h-1v3h-1v2h-1v3h-1v3h-1v2h-1v3h-1v3h-1v3h-1v3h-1v3h-1v3h-1v3h-1v3h-1v3h-1v3h-1v3h-1v3h-1v4h-1v3h-1v3h-1v4h-1v3h-1v3h-1v4h-1v4h-1v4h-1v3h-1v4h-1v4h-1v4h-1v4h-1v4h-1v4h-1v4h-1v5h-1v4h-1v4h-1v5h-1v5h-1v5h-1v4h-1v5h-1v5h-1v5h-1v6h-1v5h-1v6h-1v6h-1v5h-1v6h-1v7h-1v7h-1v7h-1v7h-1v6h-1v8h-1v9h-1v9h-1v9h-1v8h-1v12h-1v12h-1v12h-1v15h-1v20h-1v20h-1v87h-1v39h-1v21h-1v17h-1v13h-1v12h-1v11h-1v9h-1v9h-1v9h-1v7h-1v8h-1v7h-1v6h-1v7h-1v6h-1v6h-1v6h-1v5h-1v6h-1v5h-1v5h-1v5h-1v5h-1v4h-1v5h-1v5h-1v4h-1v5h-1v4h-1v4h-1v4h-1v5h-1v4h-1v4h-1v4h-1v3h-1v4h-1v4h-1v4h-1v3h-1v4h-1v4h-1v3h-1v4h-1v3h-1v4h-1v4h-1v3h-1v4h-1v3h-1v4h-1v3h-1v4h-1v3h-1v3h-1v4h-1v3h-1v4h-1v3h-1v3h-1v4h-1v3h-1v4h-1v3h-1v4h-1v3h-1v3h-1v4h-1v3h-1v4h-1v3h-1v4h-1v3h-1v4h-1v3h-1v4h-1v4h-1v3h-1v4h-1v4h-1v3h-1v4h-1v4h-1v4h-1v4h-1v4h-1v3h-1v4h-1v5h-1v4h-1v4h-1v4h-1v5h-1v4h-1v4h-1v5h-1v4h-1v5h-1v5h-1v5h-1v5h-1v5h-1v5h-1v5h-1v6h-1v6h-1v6h-1v7h-1v7h-1v8h-1v8h-1v8h-1v11h-1v12h-1v13h-1v65h1v16h1v9h1v9h1v8h1v6h1v6h1v6h1v5h1v5h1v4h1v5h1v4h1v4h1v4h1v3h1v4h1v4h1v3h1v3h1v3h1v3h1v3h1v3h1v2h1v3h1v3h1v2h1v3h1v2h1v3h1v2h1v2h1v2h1v-5h-1v-5h-1v-6h-1v-5h-1v-7h-1v-7h-1v-7h-1v-8h-1v-8h-1v-10h-1v-11h-1v-14h-1v-20h-1v-55h1v-19h1v-13h1v-11h1v-9h1v-8h1v-7h1v-7h1v-6h1v-6h1v-6h1v-5h1v-5h1v-5h1v-4h1v-5h1v-4h1v-4h1v-4h1v-4h1v-4h1v-3h1v-4h1v-3h1v-3h1v-4h1v-3h1v-3h1v-3h1v-3h1v-3h1v-3h1v-2h1v-3h1v-3h1v-2h1v-3h1v-2h1v-3h1v-2h1v-3h1v-2h1v-2h1v-3h1v-2h1v-2h1v-2h1v-2h1v-2h1v-2h1v-3h1v-2h1v-2h1v-2h1v-2h1v-2h1v-1h1v-2h1v-2h1v-2h1v-2h1v-2h1v-1h1v-2h1v-2h1v-1h1v-2h1v-2h1v-2h1v-2h1v-1h1v-2h1v-2h1v-2h1v-2h1v-2h1v-1h1v-2h1v-2h1v-2h1v-2h1v-2h1v-2h1v-2h1v-2h1v-2h1v-2h1v-2h1v-2h1v-2h1v-2h1v-2h1v-2h1v-3h1v-2h1v-2h1v-2h1v-2h1v-3h1v-2h1v-2h1v-2h1v-2h1v-3h1v-2h1v-2h1v-3h1v-2h1v-2h1v-2h1v-3h1v-2h1v-3h1v-2h1v-2h1v-3h1v-2h1v-3h1v-2h1v-2h1v-3h1v-2h1v-3h1v-2h1v-3h1v-2h1v-3h1v-2h1v-3h1v-2h1v-3h1v-2h1v-3h1v-3h1v-2h1v-3h1v-2h1v-3h1v-2h1v-3h1v-3h1v-2h1v-3h1v-3h1v-2h1v-3h1v-2h1v-3h1v-3h1v-2h1v-3h1v-3h1v-2h1v-3h1v-3h1v-2h1v-3h1v-3h1v-2h1v-3h1v-3h1v-3h1v-2h1v-3h1v-3h1v-2h1v-3h1v-3h1v-2h1v-3h1v-3h1v-2h1v-3h1v-3h1v-2h1v-3h1v-3h1v-3h1v-2h1v-3h1v-3h1v-2h1v-3h1v-3h1v-2h1v-3h1v-2h1v-3h1v-3h1v-2h1v-3h1v-3h1v-2h1v-3h1v-2h1v-3h1v-3h1v-2h1v-3h1v-2h1v-3h1v-2h1v-3h1v-3h1v-2h1v-3h1v-2h1v-3h1v-2h1v-3h1v-2h1v-3h1v-2h1v-3h1v-2h1v-2h1v-3h1v-2h1v-3h1v-2h1v-2h1v-3h1v-2h1v-3h1v-2h1v-2h1v-2h1v-3h1v-2h1v-2h1v-3h1v-2h1v-2h1v-2h1v-2h1v-3h1v-2h1v-2h1v-2h1v-2h1v-2h1v-3h1v-2h1v-2h1v-2h1v-2h1v-2h1v-2h1v-2h1v-2h1v-2h1v-2h1v-2h1v-2h1v-2h1v-2h1v-2h1v-2h1v-1h1v-2h1v-2h1v-2h1v-2h1v-2h1v-1h1v-2h1v-2h1v-2h1v-1h1v-2h1v-2h1v-1h1v-2h1v-2h1v-1h1v-2h1v-2h1v-1h1v-2h1v-1h1v-2h1v-1h1v-2h1v-1h1v-2h1v-1h1v-2h1v-1h1v-2h1v-1h1v-2h1v-1h1v-1h1v-1h1v-2h1v-1h1v-1h1v-2h1v-1h1v-1h1v-2h1v-1h1v-1h1v-1h1v-1h1v-1h1v-1h1v-1h1v-2h1v-1h1v-1h1v-1h1v-1h1v-1h1v-1h1v-1h1v-1h1v-1h1v-1h1v-1h1v-1h1v-1h1v-1h2v-1h1v-1h1v-1h1v-1h2v-1h1v-1h1v-1h1v-1h2v-1h1v-1h2v-1h2v-1h1v-1h2v-1h1v-1h2v-1h2v-1h2v-1h2v-1h3v-1h2v-1h2v-1h3v-1h3v-1h4v-1h5v-1h6v-1h5v-1h6v-1h8v-1h9v-1h10v-1h15v-1h54v1h20v1h17v1h16v1h17v1h23v1h20v-1h19v-1h8v-1h7v-1h5v-1h5v-1h4v-1h3v-1h3v-1h4v-1h2v-1h3v-1h2v-1h2v-1h3v-1h2v-1h1v-1h2v-1h2v-1h2v-1h1v-1h2v-1h1v-1h2v-1h1v-1h1v-1h2v-1h1v-1h1v-1h1v-1h2v-1h1v-1h1v-1h1v-2h1v-1h1v-1h1v-1h1v-1h1v-1h1v-2h1v-1h1v-2h1v-2h1v-2h1v-1h1v-2h1v-2h1v-1h1v-3h1v-3h1v-2h1v-3h1v-3h1v-2h1v-5h1v-4h1v-5h1v-5h1v-9h1v-17h1v-15h-1v-16h-1v-9h-1v-9h-1v-7h-1v-6h-1v-5h-1v-6h-1v-5h-1v-4h-1v-5h-1v-5h-1v-4h-1v-4h-1v-4h-1v-4h-1v-3h-1v-4h-1v-4h-1v-3h-1v-3h-1v-4h-1v-3h-1v-3h-1v-3h-1v-3h-1v-3h-1v-3h-1v-2h-1v6h-1v9h-1v8h-1v6h-1v6h-1v6h-1v5h-1v5h-1v4h-1v5h-1v4h-1v4h-1v3h-1v4h-1v3h-1v4h-1v3h-1v3h-1v3h-1v3h-1v3h-1v3h-1v3h-1v2h-1v3h-1v2h-1v3h-1v2h-1v2h-1v3h-1v2h-1v2h-1v2h-1v2h-1v2h-1v2h-1v2h-1v2h-1v2h-1v2h-1v2h-1v1h-1v2h-1v2h-1v2h-1v1h-1v2h-1v1h-1v2h-1v1h-1v2h-1v1h-1v2h-1v1h-1v2h-1v1h-1v1h-1v1h-1v1h-1v1h-1v1h-1v1h-2v1h-1v1h-1v1h-1v1h-2v1h-1v1h-2v1h-2v1h-2v1h-1v1h-2v1h-2v1h-3v1h-3v1h-2v1h-3v1h-3v1h-4v1h-4v1h-4v1h-6v1h-6v1h-10v1h-16v1h-14v-1h-19v-1h-12v-1h-9v-1h-7v-1h-7v-1h-6v-1h-6v-1h-5v-1h-6v-1h-4v-1h-5v-1h-5v-1h-4v-1h-4v-1h-4v-1h-4v-1h-3v-1h-4v-1h-4v-1h-3v-1h-3v-1h-4v-1h-3v-1h-3v-1h-3v-1h-3v-1h-3v-1h-3v-1h-2v-1h-3v-1h-3v-1h-2v-1h-3v-1h-2v-1h-3v-1h-2v-1h-2v-1h-3v-1h-2v-1h-2v-1h-2v-1h-2v-1h-2v-1h-2v-1h-2v-1h-2v-1h-2v-1h-2v-1h-1v-1h-2v-1h-2v-1h-2v-1h-1v-1h-2v-1h-1v-1h-1v-1h-2v-1h-1v-1h-2v-1h-1v-1h-1v-1h-1v-1h-1v-1h-1v-1h-1v-1h-2v-2h-1v-1h-1v-1h-1v-1h-1v-1h-1v-1h-1v-1h-1v-1h-1v-1h-1v-1h-1v-1h-1v-1h-1v-1h-1v-1h-1v-1h-1v-2h-1v-1h-1v-1h-1v-1h-1v-1h-1v-1h-1v-2h-1v-1h-1v-1h-1v-1h-1v-1h-1v-1h-1v-2h-1v-1h-1v-1h-1v-1h-1v-2h-1v-1h-1v-1h-1v-1h-1v-2h-1v-1h-1v-1h-1v-1h-1v-2h-1v-1h-1v-1h-1v-2h-1v-1h-1v-1h-1v-1h-1v-2h-1v-1h-1v-1h-1v-2h-1v-1h-1v-1h-1v-2h-1v-1h-1v-1h-1v-2h-1v-1h-1v-1h-1v-2h-1v-1h-1v-1h-1v-2h-1v-1h-1v-2h-1v-1h-1v-1h-1v-2h-1v-1h-1v-1h-1v-2h-1v-1h-1v-2h-1v-1h-1v-2h-1v-1h-1v-1h-1v-2h-1v-1h-1v-2h-1v-1h-1v-1h-1v-2h-1v-1h-1v-2h-1v-1h-1v-2h-1v-1h-1v-2h-1v-1h-1v-1h-1v-2h-1v-1h-1v-2h-1v-1h-1v-2h-1v-1h-1v-2h-1v-1h-1v-2h-1v-1h-1v-2h-1v-1h-1v-2h-1v-1h-1v-2h-1v-1h-1v-2h-1v-1h-1v-2h-1v-1h-1v-2h-1v-1h-1v-2h-1v-1h-1v-2h-1v-1h-1v-2h-1v-1h-1v-2h-1v-1h-1v-2h-1v-2h-1v-1h-1v-2h-1v-1h-1v-2h-1v-1h-1v-1h-1v-1h-2v-1h-1v-1h-2v-1h-2v-1h-2v-1h-2v-1h-2v-1h-2v-1h-2v-1h-1v-1h-2v-1h-2v-1" fill="url(#p)"/></g></g><path d="M25.511-23.746l.193-.104-.193.104M43.409-25.382v-.002.002" fill="#b81d24"/><g clip-path="url(#q)" transform="matrix(.03528 0 0 -.03528 -3.349 53.035)"><path d="M1245.54 2642.56c-2.4 0-4.86.07-7.33.21-64.87 3.75-105.24 72.65-105.24 72.65s17.92-17.66 55.83-23.02c14.97-3.94 32.15-6.79 50.53-6.79 21.57 0 44.78 3.93 67.99 14.62 50.41 23.24 73.25 67.62 83.54 100.92.84 2.54 1.3 4.28 1.49 5.04l.06.21c-1.24-6.43-32.78-163.84-146.87-163.84" fill="url(#r)"/></g><path d="M36.62-42.759s2.599 1.205 5.788 0 3.604-4.53 3.604-4.53-.166 3.648-3.241 5.066c-3.076 1.417-6.151-.536-6.151-.536" fill="#4e1613"/><g clip-path="url(#s)" transform="matrix(.03528 0 0 -.03528 -3.349 53.035)"><path d="M1222.59 2715.38c-29.69 0-51.92 5.15-51.92 5.15s.53-.01 1.52-.01c12.78 0 102.98 2.02 153.98 58.12 54.98 60.48 49.92 133.91 49.92 133.91s22.04-78-31.86-147.83c-31.29-40.55-82.84-49.34-121.64-49.34" fill="url(#t)"/></g><g clip-path="url(#u)" transform="matrix(.03528 0 0 -.03528 -3.349 53.035)"><path d="M1376.6 2916.33c-2.77 0-5.63 7.89-6.43 17.81-.81 10.05.81 18.39 3.62 18.62h.12c2.77 0 5.63-7.88 6.43-17.8.81-10.06-.8-18.4-3.62-18.62-.04-.01-.08-.01-.12-.01" fill="url(#v)"/></g><path d="M37.274-54.55l.205-2.7 1.52 2.027zM45.86-56.324l.665-1.861.606 2.113z" fill="#fff"/><path d="M30.303-50.198s4.847-4.184 10.195-5.458 6.816-.333 6.816-.333l-2.133 3.99 1.068-2.96s-1.234-.642-5.584.162c-4.287.791-10.362 4.599-10.362 4.599" fill="#4c0e13"/><path d="M39.166-66.375s.777-.98 1.662-1.787c1.07-.977 2.493-1.642 2.493-1.642l-.481.71 2.064-.47s-1.573.602-3.062 1.586c-1.406.929-2.285 2.126-2.285 2.126l.124-.637-.515.114M35.373-67.03s-1.146-1.153-3.453-1.8-5.094-.845-5.094-.845l1.911.79-2.327-.416s1.205.761 3.546 1.26c2.342.499 5.251 1.852 5.251 1.852l-.568-1.048.734.208" fill="#86181c"/><path d="M45.125-57.453s-.546-.013-1.453.064c-.193.016-.406.036-.632.063l-.183.02h-.003c-.32.04-.665.09-1.034.153-.336.056-.635.11-.908.16l-.482.086a46.422 46.422 0 00-1.423.273s.243-.243.698-.52c.05-.03.103-.063.163-.096a5.567 5.567 0 011.785-.629c.622-.106 1.267-.072 1.83.01l.062.01c.17.027.33.057.48.09.654.14 1.1.316 1.1.316" fill="#b81d24"/><path d="M23.133-54.09c.182 1.276-.084 2.37-.595 2.443-.511.074-1.074-.902-1.257-2.18-.182-1.276.084-2.37.595-2.444.511-.073 1.074.903 1.257 2.18" fill="#f14857"/><path d="M23.34-54.12c.182 1.276-.084 2.37-.596 2.444-.51.073-1.073-.903-1.256-2.18-.183-1.277.084-2.371.595-2.444.511-.073 1.074.902 1.256 2.18" fill="#86171c"/><path d="M24.603-43.34c.121.846-.055 1.572-.394 1.62-.34.049-.712-.598-.833-1.445-.122-.846.055-1.572.394-1.62.339-.049.712.598.833 1.445" fill="#f14857"/><path d="M24.766-43.35c.12.847-.056 1.573-.395 1.621-.339.049-.711-.598-.833-1.445-.12-.846.056-1.571.395-1.62.339-.048.712.598.833 1.445" fill="#86171c"/><path d="M24.329-37.909c.12.847-.056 1.572-.394 1.62-.34.05-.712-.598-.833-1.444-.121-.847.055-1.572.394-1.62.34-.05.712.598.833 1.444" fill="#f14857"/><path d="M24.489-37.909c.12.847-.056 1.572-.395 1.62-.338.05-.711-.598-.832-1.444-.122-.847.055-1.572.394-1.62.339-.05.712.598.833 1.444" fill="#86171c"/><path d="M26.022-40.248c.082.572-.038 1.062-.267 1.095-.229.033-.48-.404-.562-.976-.082-.572.037-1.063.266-1.095.229-.033.481.404.563.976" fill="#f14857"/><path d="M26.13-40.248c.082.572-.038 1.062-.267 1.095-.229.033-.48-.404-.563-.976-.081-.572.038-1.063.267-1.095.229-.033.481.404.563.976" fill="#86171c"/><path d="M20.15-65.241c-.071.573-.315 1.015-.545.986-.23-.029-.357-.517-.286-1.09.072-.573.316-1.015.546-.986.23.028.357.517.286 1.09" fill="#f14857"/><path d="M20.255-65.213c-.072.574-.316 1.015-.546.986-.23-.029-.357-.516-.286-1.09.072-.573.317-1.015.546-.986.23.029.358.517.286 1.09" fill="#86171c"/><path d="M26.388-48.619c.272 1.901-.124 3.531-.886 3.64-.76.109-1.599-1.344-1.87-3.246-.273-1.901.124-3.531.885-3.64.762-.109 1.6 1.344 1.871 3.246" fill="#f14857"/><path d="M26.704-48.664c.272 1.901-.125 3.531-.886 3.64-.761.109-1.6-1.344-1.871-3.246-.272-1.902.124-3.531.886-3.64.761-.11 1.599 1.344 1.87 3.246" fill="#86171c"/><path d="M21.296-60.407c.192 1.338-.088 2.485-.623 2.561-.536.077-1.125-.945-1.317-2.284-.191-1.338.088-2.485.623-2.561.536-.077 1.126.946 1.317 2.284" fill="#f14857"/><path d="M21.518-60.416c.191 1.338-.088 2.485-.624 2.562-.535.076-1.125-.946-1.316-2.285-.192-1.338.088-2.485.623-2.561.536-.077 1.125.946 1.317 2.284" fill="#86171c"/><g clip-path="url(#w)" transform="matrix(.03528 0 0 -.03528 -3.349 53.035)"><g clip-path="url(#x)"><path d="M1160 3519v1h-28v1h-16v1h-13v1h-13v1h-10v1h-9v1h-8v1h-7v1h-7v1h-6v1h-6v1h-6v1h-5v1h-6v1h-6v1h-5v1h-4v1h-5v1h-4v1h-5v1h-5v1h-4v1h-4v1h-4v1h-3v1h-4v1h-4v1h-4v1h-4v1h-3v1h-3v1h-4v1h-3v1h-3v1h-4v1h-3v1h-3v1h-3v1h-3v1h-3v1h-2v1h-3v1h-3v1h-3v1h-3v1h-2v1h-3v1h-3v1h-2v1h-3v1h-2v1h-3v1h-2v1h-3v1h-2v1h-2v1h-3v1h-2v1h-2v1h-2v1h-3v1h-2v1h-2v1h-2v1h-2v1h-2v1h-2v1h-2v1h-2v1h-2v1h-2v1h-2v1h-2v1h-2v1h-2v1h-2v1h-2v1h-2v1h-1v1h-2v1h-2v1h-2v1h-1v1h-2v1h-2v1h-1v1h-2v1h-2v1h-1v1h-2v1h-1v1h-2v1h-1v1h-2v1h-1v1h-2v1h-1v1h1v1h3v1h3v1h2v1h3v1h3v1h3v1h3v1h2v1h3v1h3v1h3v1h3v1h2v1h3v1h3v1h3v1h2v1h3v1h3v1h3v1h3v1h2v1h3v1h3v1h3v1h3v1h2v1h3v1h3v1h4v1h6v1h6v1h6v1h6v1h7v1h8v1h9v1h9v1h12v1h15v1h27v1h34v-1h26v-1h13v-1h14v-1h11v-1h8v-1h8v-1h8v-1h8v-1h6v-1h6v-1h6v-1h6v-1h5v-1h6v-1h4v-1h5v-1h4v-1h5v-1h5v-1h4v-1h4v-1h4v-1h4v-1h4v-1h4v-1h3v-1h4v-1h4v-1h3v-1h3v-1h4v-1h3v-1h3v-1h3v-1h4v-1h3v-1h3v-1h3v-1h2v-1h3v-1h3v-1h3v-1h3v-1h2v-1h3v-1h3v-1h2v-1h3v-1h2v-1h3v-1h2v-1h3v-1h2v-1h3v-1h2v-1h2v-1h2v-1h3v-1h2v-1h2v-1h2v-1h2v-1h3v-1h2v-1h2v-1h2v-1h2v-1h2v-1h2v-1h2v-1h2v-1h2v-1h2v-1h1v-1h2v-1h2v-1h2v-1h2v-1h1v-1h2v-1h2v-1h2v-1h1v-1h2v-1h2v-1h1v-1h2v-1h1v-1h2v-1h1v-1h2v-1h1v-1h2v-1h1v-1h2v-1h1v-1h1v-1h2v-1h1v-1h2v-1h1v-1h1v-1h1v-1h2v-1h1v-1h1v-1h1v-1h1v-1h1v-1h1v-1h1v-1h1v-1h1v-1h1v-1h1v-1h-2v-1h-5v-1h-5v-1h-5v-1h-5v-1h-5v-1h-6v-1h-5v-1h-6v-1h-6v-1h-6v-1h-6v-1h-8v-1h-7v-1h-7v-1h-8v-1h-8v-1h-9v-1h-9v-1h-12v-1h-12v-1h-14v-1h-19v-1h-31v-1" fill="url(#y)"/></g></g><path d="M23.13-73.758s1.83-3.56 5.427-5.67c4.676-2.743 7.676-2.313 7.676-2.313l-3.489 1.784s.797-.222 2.38-.35c2.306-.188 3.096.207 3.096.207l-5.257 1.746s.68-.134 2.41-.042c1.642.087 2.217.34 2.217.34l-3.848 2.063s-7.479.424-10.612 2.235" fill="#4c0e13"/><g><g clip-path="url(#z)" transform="matrix(.03528 0 0 -.03528 -7.885 67.398)"><path d="M3167.24 2241.2s-13.11 10.39-35.47 25.48c-54.65 36.89-164.53 101.89-273.14 111.92-8.17.75-16.13 1.11-23.84 1.11-136.87 0-201.22-112.32-201.22-112.32l-27.13.38s-116.59 166.15-135.43 439.46c-18.85 273.3-12.91 460.57 5.93 475.93 9.71 7.91 54.66 47.97 127.61 83.79l1.22.65c64.37 31.53 150.38 59.63 252.85 59.63 6.6 0 13.26-.11 19.99-.35 230.9-8.29 336.93-170.77 347.57-204.98 10.56-34.21-73.5-452.37-66.44-603.16 5.6-119.42 24.02-217.38 31.44-252.97 1.95-9.36 3.15-14.4 3.15-14.4l-27.09-10.17m-8.96 581.65c-10.46 0-36.2-112.51-36.2-215.28 0-104.84 5.89-203.01 14.14-203.01 12.38 0 .14 113.23 5.43 217.49 5.3 104.25 27.35 195.9 17.25 200.66-.2.09-.41.14-.62.14m20.64 98.76c-3.98 0-10.55-17.07-14.86-38.76-4.4-22.18-4.77-40.79-.83-41.58.09-.01.18-.02.26-.02 3.99 0 10.56 17.06 14.87 38.76 4.4 22.18 4.77 40.79.82 41.57-.09.02-.17.03-.26.03" fill="url(#A)"/></g><path d="M98.793-28.107l-.249.97s-2.118 1.703-5.25 2.558l-.006.003c-1.66.452-3.608.668-5.672.266-4.11-.801-5.108-3.59-5.33-5.24l-.003-.043c-.09-.718-.037-1.21-.037-1.21l.423-.878s3.304 2.64 7.896 3.574c4.624.94 8.228 0 8.228 0M104.957-44.216s2.756-6.166 3.546-6.125c.79.042-1.648 5.206-1.648 5.206s7.3-4.167 8.38-2.505c1.08 1.663-8.27 3.424-8.27 3.424s4.447.815 4.198 1.647c-.25.83-5.237-.167-5.237-.167l-.969-1.48M94.789-45.41s2.223.41 4.446 1.698c2.224 1.288 2.91 2.576 2.91 2.576l-.25-1.018.894.395.997-1.164s-1.526-2.014-3.789-3.367c-2.327-1.391-5.042-1.828-5.042-1.828l-.104 1.023s.581.193 1.314.463c.612.225 1.224.655 1.224.655l-2.517-.652-.083 1.22M90.737-45.991s-2.224.408-4.447 1.697c-2.224 1.289-2.972 2.279-2.972 2.279l-.014-.776-.568.45-.997-1.164s1.526-2.014 3.789-3.367c2.327-1.391 5.042-1.827 5.042-1.827l.104 1.023s-.582.193-1.314.462c-.611.225-.883.437-.883.437l2.176-.433.084 1.219" fill="#4c0e13"/><path d="M102.453-36.12c-.322 3.328-2.653 5.825-5.206 5.578-2.553-.247-4.36-3.146-4.038-6.473.323-3.328 2.653-5.825 5.206-5.578 2.553.248 4.36 3.146 4.038 6.473M91.694-36.862c-.323 3.328-2.654 5.825-5.206 5.578-2.553-.247-4.361-3.146-4.039-6.474.323-3.327 2.654-5.825 5.206-5.577 2.554.247 4.362 3.145 4.04 6.473" fill="#8aa123"/><path d="M91.36-36.894c-.286 2.958-2.28 5.185-4.451 4.974-2.172-.21-3.7-2.779-3.413-5.736.286-2.958 2.28-5.185 4.45-4.974 2.173.21 3.701 2.779 3.414 5.736" fill="#bfe9ea"/><path d="M91.36-36.894c-.272 2.817-2.171 4.939-4.24 4.738-2.069-.2-3.525-2.647-3.251-5.464.272-2.817 2.171-4.939 4.24-4.738 2.069.2 3.525 2.647 3.251 5.464" fill="#fff"/><g clip-path="url(#B)" transform="matrix(.03528 0 0 -.03528 -7.885 67.398)"><path d="M2781.59 2961.08c-5.11-52.65-40.58-92.29-79.25-88.55-38.66 3.75-65.87 49.47-60.76 102.12 5.1 52.65 40.58 92.3 79.24 88.55 38.66-3.74 65.87-49.47 60.77-102.12" fill="url(#C)"/></g><path d="M89.541-37.093c-.129 1.329-1.024 2.33-2 2.235-.976-.095-1.662-1.249-1.534-2.578.13-1.328 1.024-2.33 2-2.235.976.095 1.663 1.25 1.534 2.578" fill="#4c0e13"/><path d="M91.208-37.487a1.403 1.403 0 11-2.793-.27 1.403 1.403 0 012.793.27M88.095-36.6a.513.513 0 11-1.021-.1.513.513 0 011.021.1" fill="#fff"/><path d="M93.473-37.175c-.395 2.945 1.039 5.568 3.202 5.858 2.162.29 4.235-1.863 4.63-4.808.395-2.945-1.038-5.568-3.201-5.858-2.162-.29-4.236 1.863-4.63 4.808" fill="#bfe9ea"/><path d="M93.473-37.175c-.376 2.806.99 5.304 3.05 5.58 2.06.276 4.035-1.774 4.41-4.58.376-2.805-.989-5.303-3.049-5.58-2.06-.276-4.034 1.775-4.41 4.58" fill="#fff"/><g clip-path="url(#D)" transform="matrix(.03528 0 0 -.03528 -7.885 67.398)"><path d="M2905.05 2961.71c-7.03-52.43 18.49-99.12 56.98-104.28 38.5-5.16 75.41 33.16 82.44 85.59 7.02 52.43-18.48 99.11-56.99 104.28-38.5 5.16-75.4-33.16-82.43-85.59" fill="url(#E)"/></g><path d="M95.29-36.954c-.177 1.323.467 2.502 1.439 2.632.971.13 1.903-.837 2.08-2.16.177-1.324-.466-2.502-1.438-2.632-.972-.13-1.903.836-2.08 2.16" fill="#4c0e13"/><path d="M97.99-36.63a1.402 1.402 0 102.78.373 1.402 1.402 0 00-2.78-.373M96.586-36.145a.512.512 0 101.015.137.512.512 0 00-1.015-.137" fill="#fff"/><path d="M93.294-24.58l-.006.004c-1.66.452-3.608.668-5.672.266-4.11-.801-5.108-3.59-5.33-5.24l-.003-.043s4.235 1.32 7.354 3.002c3.115 1.686 3.657 2.012 3.657 2.012" fill="#83142e"/><path d="M82.246-30.803l-.175 1.117s-.199 3.912 3.713 5.389c6.054 2.285 12.135-1.94 12.135-1.981 0-.042.625-.858.625-.858s-6.983 4.709-12.538 2.368c-4.518-1.904-3.76-6.035-3.76-6.035" fill="#c2e124"/><path d="M103.849-11.666s-5.488-4.349-10.887-4.848c-5.406-.498-7.94 3.924-7.94 3.924l-.957-.014s-4.113-5.861-4.778-15.503c-.665-9.641-.455-16.248.21-16.79.342-.279 1.928-1.692 4.501-2.955-.416.246-3.743 2.52-3.797 12.288-.056 10.423 2.52 16.627 7.385 17.514 4.86.888 5.695-.11 10.958 2.384 5.183 2.457 5.386 4.358 5.305 4" fill="#8aa123"/><path d="M80.506-45.606s-1.967-5.65-3.255-5.774c-1.289-.125 1.87 5.486 1.87 5.486s-8.312-3.45-9.102-1.662c-.79 1.787 8.312 2.576 8.312 2.576s-6.15.374-6.15 1.372c0 .997 6.969-.23 6.969-.23l1.356-1.768" fill="#4c0e13"/><path d="M104.638-33.482s2.244 10.307 2.41 10.861c.167.554 1.08.914 1.788.956.706.041 1.62-.094 1.652.125.03.218-1.032.346-1.666.325-.634-.02-1.008-.29-1.008-.29s.342.427.966.56c.78.167 1.676-.107 1.79-.003.115.104-.633.605-1.61.582-.71-.018-1.112-.236-1.112-.236s.299.416.974.54c.675.125 1.219-.097 1.426.09.208.187-.758.624-1.475.52-.717-.104-2.036-1.34-2.036-1.34s.644.862.706 1.225c.063.364-.332.634-.332.634s-.156-.644-.54-1.163c-.385-.52-.115-2.047-.146-2.276-.031-.228-2.48-5.984-2.48-5.984s.333-4.821.693-5.126" fill="#9dd520"/><path d="M79.302-33.482s-2.244 10.307-2.41 10.861c-.167.554-1.081.914-1.787.956-.707.041-1.621-.094-1.652.125-.031.218 1.031.346 1.665.325.634-.02 1.008-.29 1.008-.29s-.342.427-.966.56c-.78.167-1.676-.107-1.79-.003-.115.104.633.605 1.61.582.71-.018 1.112-.236 1.112-.236s-.299.416-.974.54c-.675.125-1.219-.097-1.427.09-.207.187.76.624 1.476.52.717-.104 2.036-1.34 2.036-1.34s-.644.862-.706 1.225c-.062.364.332.634.332.634s.156-.644.54-1.163c.385-.52.115-2.047.146-2.276.031-.228 2.48-5.984 2.48-5.984s-.333-4.821-.693-5.126M84.065-12.604s-3.697.439-3.476.827c.222.388 2.868-.416 2.868-.416s-3.053 1.136-2.877 1.468c.176.333 3.38-1.233 3.38-1.233s-2.148 1.538-1.677 1.788c.47.25 2.739-2.42 2.739-2.42l-.957-.014M104.804-12.025s2.814-.389 2.883-.112c.07.278-2.287.36-2.287.36s2.48.18 2.59.581c.111.402-2.908-.249-2.908-.249s1.911.748 1.717 1.067c-.194.318-2.95-1.288-2.95-1.288l.955-.36" fill="#8aa123"/><path d="M98.093-27.838l-.515.748-1.53 2.208-.695-2.258-.08-.256-.412.223-1.353.731-1.443-1.043-.076-.057-.11.027-.781.202-.765-.505-.276-.183-.661-.076-1.297-.15-.167-.342-.056-.117-.379-.046-1.679-.203-.293-.622-.083-.18-.159.067-2.507 1.05.216-2.184.04-.395s1.234 1.217 5.386 2.596c5.276 1.756 9.675.765 9.675.765" fill="#fff"/><path d="M98.093-27.838l-.515.748a30.68 30.68 0 01-2.225-.05l-.08-.256-.412.223a35.635 35.635 0 01-2.796-.312l-.076-.057-.11.027c-.166-.027-.336-.054-.508-.084a14.112 14.112 0 01-1.038-.219l-.276-.183-.661-.076a24.306 24.306 0 01-1.464-.492l-.056-.117-.379-.046a35.773 35.773 0 01-1.972-.825l-.083-.18-.159.067c-1.36-.622-2.29-1.134-2.29-1.134l.039-.395s1.234 1.217 5.386 2.596c5.276 1.756 9.675.765 9.675.765" fill="#bfe9ea"/><path d="M83.159-27.086l1.278-.955-.14 2.278s-.853-.813-1.138-1.323M90.512-24.168l.73-1.867.674 1.656s-.753.218-1.404.21" fill="#fff"/><path d="M95.274-25.432l-.187 1.334.875-1.065-.154-.5-.534.231" fill="#8aa123"/><g clip-path="url(#F)" transform="matrix(.03528 0 0 -.03528 -7.885 67.398)"><path d="M3136.22 2404.56c-8.25 0-14.14 98.17-14.14 203.01 0 102.77 25.74 215.28 36.2 215.28.21 0 .42-.05.62-.14 10.1-4.76-11.95-96.41-17.25-200.66-5.29-104.26 6.95-217.49-5.43-217.49" fill="url(#G)"/></g><g clip-path="url(#H)" transform="matrix(.03528 0 0 -.03528 -7.885 67.398)"><path d="M3163.49 2841.25c-.08 0-.17.01-.26.02-3.94.79-3.57 19.4.83 41.58 4.31 21.69 10.88 38.76 14.86 38.76.09 0 .17-.01.26-.03 3.95-.78 3.58-19.39-.82-41.57-4.31-21.7-10.88-38.76-14.87-38.76" fill="url(#I)"/></g><path d="M83.08-22.264c.272 1.112.132 2.102-.314 2.21-.445.11-1.026-.704-1.298-1.816-.27-1.112-.13-2.102.315-2.21.445-.11 1.026.704 1.298 1.816" fill="#c2e124"/><path d="M83.265-22.309c.271 1.113.13 2.102-.315 2.21-.444.11-1.026-.704-1.297-1.816-.272-1.112-.13-2.102.314-2.21.446-.11 1.027.704 1.298 1.816" fill="#667522"/><path d="M100.196-24.09c-.078.914.156 1.68.522 1.711.366.031.725-.684.802-1.598.078-.913-.155-1.679-.521-1.71-.366-.031-.725.684-.803 1.598" fill="#c2e124"/><path d="M100.044-24.102c-.077.913.157 1.679.522 1.71.366.031.725-.684.803-1.598.078-.913-.156-1.679-.522-1.71-.365-.031-.725.684-.803 1.598" fill="#667522"/><path d="M101.044-20.998c-.051.606.104 1.113.347 1.134.242.02.48-.454.532-1.06.051-.605-.104-1.113-.346-1.134-.243-.02-.481.454-.533 1.06" fill="#c2e124"/><path d="M100.944-21.007c-.051.606.103 1.114.346 1.134.242.02.48-.453.532-1.06.052-.605-.103-1.113-.346-1.133-.242-.02-.48.454-.532 1.059" fill="#667522"/><path d="M84.408-19.193c.14.574.068 1.084-.162 1.14-.23.057-.53-.363-.67-.937-.14-.574-.067-1.085.163-1.141.23-.056.53.364.67.938" fill="#c2e124"/><path d="M84.504-19.216c.14.573.067 1.084-.163 1.14-.23.056-.529-.363-.67-.937-.14-.574-.067-1.085.163-1.141.23-.056.53.363.67.938" fill="#667522"/><path d="M82.816-18.547c.1.41.048.774-.116.815-.164.04-.379-.26-.479-.67-.1-.41-.048-.775.116-.816.164-.04.379.26.479.67" fill="#c2e124"/><path d="M82.884-18.564c.1.41.048.775-.116.815-.164.04-.378-.26-.479-.67-.1-.41-.048-.775.116-.815.164-.04.379.26.479.67" fill="#667522"/><path d="M80.537-25.41c.026.434-.094.794-.268.805-.173.01-.335-.334-.362-.768-.025-.434.095-.795.269-.805.173-.01.335.333.361.768" fill="#c2e124"/><path d="M80.61-25.415c.025.435-.095.795-.268.805-.174.011-.336-.333-.363-.767-.025-.434.095-.795.268-.806.174-.01.336.334.362.768" fill="#667522"/><path d="M98.544-29.738s.008.99 0 2.092c-.008 1.101-.257 2.544-.257 2.544s.914-1.193.977-2.44c.061-1.247-.72-2.196-.72-2.196M83.798-33.194s-1.005 1.302-1.435 2.147c-.43.845-.97 2.383-.97 2.383s-.22-2.074.457-3.18c.655-1.07 1.948-1.35 1.948-1.35M83.159-24.328s1.278 1.524 3.913 2.022c2.981.565 4.844-.083 4.844-.083s-2.103 1.177-5.259.665c-2.22-.36-3.498-2.604-3.498-2.604" fill="#8aa123"/></g><g><path d="M18.018 12.597c-1.077 2.949-3.59 4.14-3.59 4.14s-.39-.227-.981-.66a17.095 17.095 0 01-2.7-2.496 13.367 13.367 0 01-1.765-2.587c-.18-.352-.346-.718-.493-1.1a12.37 12.37 0 01-.631-2.244 11.756 11.756 0 01-.183-2.448l.003-.089C7.774 2.61 8.665.821 9.14.501c.485-.322.897 1.101 3.175 3.598.296.322.621.661.98 1.02.582.572 1.254 1.19 2.035 1.846a38.443 38.443 0 002.281 1.775c.13.096.26.193.392.286a5.283 5.283 0 01.013 3.57" fill="#f79021"/><path d="M13.297 5.12c-.452.458-1.187 1.057-2.27 1.549-1.208.548-2.391.838-3.17.98a11.756 11.756 0 01-.182-2.447l.003-.089c.615.003 1.672-.03 2.723-.273a7.115 7.115 0 001.915-.741c.296.322.621.661.98 1.02M16.761 8.109a11.981 11.981 0 01-2.869 3.504c-1.107.924-2.297 1.572-3.145 1.968a13.367 13.367 0 01-1.765-2.587c.598-.169 1.585-.525 3.002-1.29 1.881-1.02 2.932-2.2 3.348-2.74.439.37.914.752 1.43 1.145" fill="#f0373b"/><path d="M12.928 15.677" fill="#e5d6d5"/><path d="M12.928 15.677c-.418-.337-.893-.75-1.381-1.237a15.8 15.8 0 01-.8-.86c.849-.395 2.038-1.043 3.145-1.967a12.066 12.066 0 001.932-2.037 6.131 6.131 0 001.789-.836c.13.096.259.193.392.286 0 0 .031.074.074.208-.412.287-.781.564-1.095.823-.992.822-2.487 2.953-4.056 5.62" fill="#eb801a"/><path d="M8.49 9.894a11.955 11.955 0 01-.632-2.244c.13.721.336 1.472.632 2.244" fill="#e5d6d5"/><path d="M8.984 10.994a11.245 11.245 0 01-.495-1.1 12.37 12.37 0 01-.631-2.244c.343-.064.765-.155 1.233-.285a7.443 7.443 0 003.268 2.128c-.121.07-.246.141-.375.211-1.415.764-2.402 1.12-3 1.29" fill="#eb801a"/><path d="M7.858 7.65a11.782 11.782 0 01-.184-2.448 8.833 8.833 0 001.417 2.163c-.469.13-.89.221-1.234.285M10.748 13.58a13.332 13.332 0 01-1.764-2.586c.598-.17 1.585-.526 3-1.29.129-.07.254-.14.375-.211a6.19 6.19 0 001.887.301c.582 0 1.111-.087 1.578-.218a12.066 12.066 0 01-1.932 2.037c-1.107.924-2.296 1.572-3.144 1.968" fill="#ec3033"/><path d="M10.61 44.718s1.323.498 1.323.768-1.87-.145-1.87-.145.083 1.039-.873.977c-.956-.063-1.184-.935-1.184-.935s-1.933.727-2.722.25c-.79-.48.893-.811.893-.811s-2.223-.104-2.348-.499 2.251-.603 2.251-.603l4.53.998M36.585 49.123s-1.649-.214-1.898.288c-.25.502 2.244.585 2.244.585s1.122 1.33 2.285 1.371c1.164.042 1.173-1.33 1.173-1.33s2.9 1.08 3.94.706c1.038-.373-.688-1.332-.688-1.332s2.017.537 2.017 0c0-.538-3.089-.87-3.089-.87l-5.984.582" fill="#382f4c"/><path d="M12.482 23.57s-5.794-4.942-6.134-5.868c-.34-.926-.145-2.042-.024-3.212.179-1.738.533-1.694.532-1.897-.001-.368-.747-.41-1.136.25-.39.66-.47 1.648-.47 1.648s-2.276-2.79-2.702-2.688c-.427.102.853 2.328.853 2.328S1.03 12.617.664 12.87c-.366.252 1.625 1.926 1.625 1.926S.383 14.021.04 14.172c-.342.15 1.612 1.35 1.612 1.35s-1.48.08-1.473.465c.003.209 1.83.783 2.132.925.304.142 2.89 1.364 2.89 1.364l4.546 9.678 2.735-4.385" fill="#349e7c"/><g clip-path="url(#J)" transform="matrix(.03528 0 0 -.03528 -18.09 68.532)"><path d="M1625.52 542.012c-40.65 0-75.73 8.187-75.73 8.187s-59.56 127.321-107.34 155.5c-17.95 10.539-139.16 26-257.66 36.031-69.89 5.911-138.84 9.93-185.11 9.93-24.043 0-41.953-1.09-50.696-3.551-10.523-3-22.609-7.961-35.132-13.929-47.043-22.43-100.297-59.11-100.297-59.11s-5.067-.488-13.856-.488c-11.98 0-30.886.91-53.336 5.207-34.683 6.59-61.261 23.551-61.261 23.551s-.18 4.832-.457 13.512c-1.442 45.589-5.481 197.597.457 316.348 4.738 94.76 103.714 311.31 194.144 465.05.008.02 0 0 .008.01 44.461 75.59 86.859 136.01 114.969 159.31 8.897 7.33 19.357 15.18 31.037 23.31 18.63 12.96 40.39 26.65 63.96 40.2 15.37 8.84 31.5 17.63 48.03 26.14-6.16-70.23 30.58-139.15 30.58-139.15s39.97 71.46 132.9 111.23c52.25 22.35 102.93 27.24 137.3 27.24 26.75 0 43.62-2.97 43.62-2.97s.01.03.02.09c24.04-29.84 49.57-67.25 74.92-110.96 0-.01-.01-.01-.01-.01l-.29-.67c-1.46-3.84-8.75-23.74-8.76-50.91 0-14.86 2.17-31.89 8.67-49.65 30.08-82.35 99.68-116.32 101.74-117.31 24.66-67.51 46-140.96 61.49-218.38 37.73-188.67 33.79-360.809 22.69-477.141-8.99-94.309-22.69-151.938-22.69-151.938-24.56-19.332-61.05-24.679-93.91-24.679m73.54 113.636c-3.9 0-7.07-14.148-7.07-31.609 0-17.449 3.17-31.609 7.07-31.609 3.9 0 7.07 14.16 7.07 31.609 0 17.461-3.17 31.609-7.07 31.609m.18 427.662c-3.32 0-6.65-2.25-6.84-6.47-1.94-44.11-4.27-117.301-3.55-203.711.63-76.5 2.7-149.899 4.48-201.348.15-4.312 3.48-6.543 6.8-6.543 3.07 0 6.13 1.903 6.68 5.844 7.79 56.008 17.56 135.387 20.91 202.047 3.79 75.332-10.94 156.561-21.94 204.931-.81 3.56-3.67 5.25-6.54 5.25" fill="url(#K)"/></g><path d="M34.192 20.803c-.634 3.419-3.275 5.797-5.898 5.31-2.624-.487-4.235-3.653-3.601-7.073.634-3.419 3.274-5.797 5.898-5.31 2.623.487 4.235 3.653 3.6 7.073" fill="#349e7c"/><path d="M33.23 20.82a7.323 7.323 0 01-.236.824 6.919 6.919 0 01-.828 1.669c-.658.964-1.52 1.66-2.444 1.968a3.248 3.248 0 01-1.725.103c-2.214-.495-3.461-3.344-2.786-6.36.675-3.015 3.015-5.06 5.23-4.564 2.217.495 3.464 3.34 2.79 6.36" fill="#bfe9ea"/><path d="M25.21 19.025c-.643 2.873.546 5.584 2.656 6.056 2.11.472 4.341-1.475 4.984-4.348.643-2.873-.547-5.585-2.657-6.057-2.11-.471-4.34 1.475-4.984 4.349" fill="#fff"/><g clip-path="url(#L)" transform="matrix(.03528 0 0 -.03528 -18.09 68.532)"><path d="M1448.05 1329.1c-5.94-17.43-13.95-33.36-23.47-47.3-18.66-27.34-43.07-47.03-69.27-55.79-13.29-4.44-27.05-6.04-40.71-4.34-18.1 23.37-18.95 63.05.19 99.04l.56 1.05c4.81 8.76 10.37 16.77 16.68 23.65 25.45 28.55 60.89 40.05 87.55 25.54 15.18-8.2 24.89-23.47 28.47-41.85" fill="url(#M)"/></g><path d="M32.166 23.313c-.658.964-1.52 1.66-2.444 1.968a1.242 1.242 0 01-.432-.14c-.838-.451-1.014-1.744-.395-2.882.615-1.137 1.795-1.696 2.63-1.24.694.376.934 1.33.641 2.294" fill="#4c0e13"/><path d="M29.468 22.464a.763.763 0 101.474.396.763.763 0 00-1.474-.396M28.046 21.341a.534.534 0 101.032.277.534.534 0 00-1.032-.277" fill="#fff"/><path d="M21.567 20.012c-.958 3.33-3.547 5.416-5.783 4.66-2.235-.756-3.27-4.068-2.312-7.397.958-3.33 3.547-5.416 5.782-4.66 2.236.756 3.271 4.067 2.313 7.397" fill="#349e7c"/><path d="M21.482 20.126c-.089.274-.191.54-.304.794a7.331 7.331 0 01-.92 1.572c-.69.89-1.525 1.49-2.37 1.7a2.545 2.545 0 01-1.52-.077c-1.877-.722-2.63-3.681-1.685-6.605.947-2.924 3.234-4.711 5.111-3.99 1.88.723 2.634 3.679 1.688 6.606" fill="#bfe9ea"/><path d="M14.682 17.51c-.9 2.786-.181 5.603 1.607 6.29 1.789.688 3.97-1.012 4.87-3.799.902-2.786.182-5.602-1.606-6.29-1.789-.689-3.97 1.013-4.87 3.799" fill="#fff"/><g clip-path="url(#N)" transform="matrix(.03528 0 0 -.03528 -18.09 68.532)"><path d="M1113.1 1349.62c-7.25-16.7-16.13-31.68-26.1-44.54-19.54-25.21-43.21-42.23-67.14-48.21-12.14-3.01-24.356-3.17-36.106-.06-13.055 25.08-9.109 64.58 11.867 98.34l.613.96c5.236 8.21 11.046 15.58 17.376 21.76 25.62 25.7 57.95 33.44 79.55 16.26 12.3-9.73 18.98-25.89 19.94-44.51" fill="url(#O)"/></g><path d="M20.257 22.492c-.69.89-1.524 1.49-2.368 1.7a1.012 1.012 0 01-.362-.183c-.679-.537-.68-1.839-.005-2.904.672-1.065 1.77-1.497 2.445-.958.563.445.66 1.418.29 2.345" fill="#4c0e13"/><path d="M17.999 21.368c-.143.393.018.834.36.984.344.151.738-.045.881-.438.144-.392-.017-.833-.36-.984-.343-.15-.737.045-.881.438M16.889 20.106c-.1.274.012.583.252.688.24.106.516-.032.616-.306.1-.275-.012-.584-.252-.69-.24-.104-.516.033-.616.308" fill="#fff"/><path d="M29.166 35.662c-.046-.153-.541-1.437-4.485-2.836-4.206-1.493-8.105-1.207-8.105-1.207s.063-.821.309-1.899c.542-2.353 1.972-5.93 5.595-4.79 3.967 1.25 5.752 6.696 6.39 9.322.173.705.263 1.204.29 1.37l.007.04" fill="#4c0e13"/><path d="M29.166 35.662c-.046-.153-.541-1.437-4.485-2.836-4.206-1.493-8.105-1.207-8.105-1.207l.112-.88s2.96-1.13 6.183-.344c3.577.872 6 3.857 6 3.857l.289 1.37.007.04" fill="#83142e"/><path d="M25.72 27.659l-.639.488-1.33 1.021-.342-3.112-.043-.406-.519.094-1.103.196-.29-.556-.043-.08-.11.074-.844.562-.166-.43-.127-.318-.252.458-1.59 2.883v-2.038s.845-1.593 2.717-1.593c1.396 0 2.49.569 3.268 1.19l.007.007c.213.17.402.342.565.509a5.91 5.91 0 01.841 1.05M16.162 31.579l-.707-4.322 3.81 4.53zM24.172 32.583l5.58-3.414-2.078 5.527z" fill="#fff"/><path d="M14.417 32.205l1.695-.932s2.391-.555 6.138.285c7.321 1.642 7.98 6.172 7.98 6.172s-1.83-4.239-8.375-5.3c-3.974-.642-6.088.271-6.088.271l-1.35-.496" fill="#4c0e13"/><path d="M25.72 27.659l-.639.488c-.132-.352-.604-1.386-1.672-2.09l-.043-.407-.519.094a4.083 4.083 0 00-1.393-.36l-.043-.08-.11.074a3.23 3.23 0 00-1.01.133l-.127-.32-.252.46c-1.061.471-1.59 1.386-1.59 1.386v-.542s.845-1.593 2.717-1.593c1.396 0 2.49.569 3.268 1.19l.007.007c.193.166.386.34.565.509a5.91 5.91 0 01.841 1.05" fill="#87d4d9"/><path d="M17.017 29.114l-.31-.37s.767-4.552 4.286-4.552c4.761 0 7.016 5.994 7.016 5.994l-.395.29s-2.586-5.966-6.589-5.76c-3.3.171-4.008 4.398-4.008 4.398" fill="#2f8f72"/><path d="M34.927 13.67s-.719-1.483-2.27-2.809c-1.551-1.326-2.353-1.48-2.353-1.48l2.102-.02-.67-.765s1.91.103 2.967 1.424c1.057 1.321.98 3.332.98 3.332l-.629-.807-.127 1.124" fill="#4c0e13"/><path d="M47.113 8.467l-.02.213a11.926 11.926 0 01-1.23 4.18 13 13 0 01-1.457 2.237c-1.852 2.304-4.006 3.548-4.006 3.548s-2.514-1.19-3.59-4.14c-.649-1.772-.077-3.337.002-3.547l.01-.024c.097-.066.19-.136.283-.203.366-.262.712-.521 1.044-.777.379-.29.738-.575 1.077-.855a33.185 33.185 0 002.617-2.384c.316-.322.601-.631.861-.924 2.108-2.364 2.514-3.693 2.982-3.381.452.299 1.277 1.915 1.443 4.206.04.578.04 1.197-.017 1.851" fill="#f79021"/><g clip-path="url(#P)" transform="matrix(.03528 0 0 -.03528 -18.09 68.532)"><path d="M1657.66 1286.91s199.48 82.46 216.76 104.46c17.28 21.99 22.38 59.25 33.63 90.64 11.19 31.22-1.63 48.36 1.99 52.85 6.55 8.12 19.9-2.58 24.62-23.79 4.71-21.2-2.52-42.73-2.52-42.73s95.98 60.61 106.58 54.12c10.6-6.47-53.56-60.6-53.56-60.6s93.02 28.21 100.68 18.19c7.66-10.01-76.53-45.88-76.53-45.88s82.74 4.26 90.67-2.81c7.92-7.07-80.9-27.88-80.9-27.88s53.02-9.38 49.48-19.68c-1.92-5.61-68.98-5.29-78.4-6.47-9.42-1.18-89.82-11.48-89.82-11.48L1693 1144.77s-37.24 9.57-52.06 62.6c-14.92 53.41 16.72 79.54 16.72 79.54" fill="url(#Q)"/></g><path d="M36.583 49.122s-2.1-4.491-3.786-5.485c-1.201-.705-15.5-2.035-17.409-1.497-1.765.502-4.777 2.577-4.777 2.577s-.998.097-2.37-.166c-1.224-.233-2.162-.831-2.162-.831s-.25-6.65 0-11.637 7.896-19.533 10.905-22.026c.815-.672 1.998-1.463 3.351-2.24l2.537-.63.236 4.615s-4.08-.658-6.403.436c-2.32 1.093-6.011 8.644-6.178 16.567-.166 7.926 3.013 10.253 9.762 11.194 6.752.941 11.407 1.496 13.455 2.883 2.052 1.383 2.84 6.24 2.84 6.24" fill="#2f8f72"/><path d="M22.863 7.842s-1.462.505-2.847 1.1c-1.139.49-2.396 1.33-2.396 1.33l.596-.913-.744.139s.547-1.28 1.92-1.996c1.698-.882 3.717-.757 3.717-.757l-1.105.742.859.355" fill="#4c0e13"/><path d="M34.18 7.023s-3.105-.546-6.383.856c-3.278 1.403-4.688 3.924-4.688 3.924s-2.316-4.345-.238-7.337c1.062-1.528 2.59-1.473 2.59-1.473l-2.68-.852s2.192-1.33 4.945-.707c1.684.382 2.14 1.018 2.14 1.018L28.562 0s3.863.294 5.335 2.535c1.06 1.614.282 4.488.282 4.488" fill="#382f4c"/><path d="M23.286 9.038s-.14-1.579.748-2.913c.994-1.493 2.307-1.742 2.307-1.742l-2.348.229s1.232-1.13 3.852-1.13c.304 0 .627.015.968.05 3.243.321 4.6 2.451 4.6 2.451l-1.15-.56.52.913s-1.26-.497-3.115-.497c-.584 0-1.226.05-1.907.179-2.847.54-4.475 3.02-4.475 3.02" fill="#594b72"/><g clip-path="url(#R)" transform="matrix(.03528 0 0 -.03528 -18.09 68.532)"><path d="M1700.13 665.238c-3.32 0-6.65 2.231-6.8 6.543-1.78 51.449-3.85 124.848-4.48 201.348-.72 86.41 1.61 159.601 3.55 203.711.19 4.22 3.52 6.47 6.84 6.47 2.87 0 5.73-1.69 6.54-5.25 11-48.37 25.73-129.599 21.94-204.931-3.35-66.66-13.12-146.039-20.91-202.047-.55-3.941-3.61-5.844-6.68-5.844" fill="url(#S)"/></g><g clip-path="url(#T)" transform="matrix(.03528 0 0 -.03528 -18.09 68.532)"><path d="M1699.06 592.43c-3.9 0-7.07 14.16-7.07 31.609 0 17.461 3.17 31.609 7.07 31.609 3.9 0 7.07-14.148 7.07-31.609 0-17.449-3.17-31.609-7.07-31.609" fill="url(#U)"/></g><path d="M17.667 34.07s2.1-.612 5.065.341c2.965.954 3.643 1.876 3.643 1.876l-8.708-2.217" fill="#2f8f72"/><path d="M45.863 12.86a13 13 0 01-1.457 2.237c-.505-.12-1.685-.522-3.43-1.862-2.381-1.829-2.827-3.281-2.827-3.281.38-.29.738-.575 1.078-.855.429.579 1.465 1.846 2.942 2.703 1.39.812 2.919 1.011 3.694 1.058M47.113 8.467c-.625.084-1.533.094-2.617-.22-1.33-.385-2.197-1.073-2.653-1.532.316-.322.602-.631.861-.924.426.23 1.077.499 2.041.712 1.028.226 1.82.21 2.385.113.04.578.04 1.197-.017 1.851" fill="#f0373b"/><path d="M40.4 18.645l-.001-.001c-.073-.035-2.528-1.233-3.59-4.138a5.081 5.081 0 01-.305-1.752c0-.959.257-1.66.309-1.796l.293-.226s.443.109 1.145.214c-.026.132.078.274.22.274a.238.238 0 00.1-.022l.228-.109c.423.573 1.103 1.321 2.177 2.146 1.744 1.339 2.924 1.742 3.43 1.862-1.831 2.278-3.958 3.52-4.005 3.547" fill="#eb801a"/><path d="M45.125 14.118c.263-.395.512-.815.738-1.258a11.927 11.927 0 001.23-4.18 11.926 11.926 0 01-1.968 5.438" fill="#e5d6d5"/><path d="M45.863 12.86c-.775-.047-2.305-.246-3.694-1.058a8.424 8.424 0 01-.99-.678c1.014-.035 2.088-.19 3.055-.569 1.393-.545 2.297-1.26 2.859-1.875a11.926 11.926 0 01-1.23 4.18" fill="#eb801a"/><path d="M44.405 15.097c-.506-.12-1.686-.523-3.43-1.862-1.073-.825-1.753-1.573-2.177-2.146l.117-.057a16.348 16.348 0 002.263.092c.303.24.634.471.99.678 1.39.812 2.92 1.011 3.695 1.058-.226.443-.475.863-.738 1.258-.231.345-.473.671-.72.979" fill="#ec3033"/><path d="M38.742 11.012a18.797 18.797 0 01-.491-.066.224.224 0 01.086-.134l.178-.138c.065.103.14.216.227.338m1.489-.74a11.05 11.05 0 01-.524-.571 26.467 26.467 0 002.622-2.554c.193.153.42.311.68.464-.293.384-.626.78-1.003 1.178a10.288 10.288 0 01-1.775 1.482m3.68-3.988a7.849 7.849 0 01-.63-.223c.268-.318.51-.614.723-.88a.217.217 0 01.172-.088c.15 0 .293.159.206.332a12.99 12.99 0 01-.471.86" fill="#fcd69a"/><path d="M38.915 11.032a48.53 48.53 0 01-.173-.02 6.584 6.584 0 01-.227-.338c.363-.284.77-.612 1.192-.973.152.177.327.37.524.57a12.44 12.44 0 01-1.316.76M43.01 7.611a6.041 6.041 0 01-.681-.464c.344-.38.663-.745.951-1.087.186.075.395.15.63.223-.247.415-.545.863-.9 1.328" fill="#f9a8ae"/><path d="M38.471 11.22c-.142 0-.247-.142-.22-.274.152.022.316.044.49.066.02.025.038.05.057.077l-.227.109a.238.238 0 01-.1.022" fill="#f5cf9a"/><path d="M38.798 11.09l-.056-.078.173.02-.117.057" fill="#f7a8ac"/><path d="M14.223 8.14c-.51-.318-1.05-.706-1.59-1.175a7.243 7.243 0 01-.742-.75c.28-.168.526-.34.741-.507a25.566 25.566 0 002.081 1.963 9.935 9.935 0 01-.49.47m-3.367-3.422a11.643 11.643 0 01-.53-1.072c-.08-.183.07-.34.227-.34.068 0 .138.03.19.102.237.325.51.684.815 1.06a7.257 7.257 0 01-.702.25" fill="#fcd69a"/><path d="M11.891 6.215a9.296 9.296 0 01-1.035-1.496c.256-.076.49-.161.702-.25.325.402.686.822 1.074 1.239a7.618 7.618 0 01-.74.507M15.344 8.738a.25.25 0 01-.113-.028 12.845 12.845 0 01-1.008-.57c.184-.164.347-.322.49-.47.272.23.532.44.774.631.195.154.062.437-.143.437" fill="#f9a8ae"/></g><g><path d="M91.603 47.084s8.596 6.112 9.091 6.41c.496.298 1.415-.05 1.965-.495.551-.445.865-.873 1.035-.733.17.14-.259.664-.741 1.075-.483.411-.942.463-.942.463s.542.086 1.093-.235c.688-.402 1.167-1.208 1.321-1.208.155 0-.061.874-.799 1.514-.537.465-.982.575-.982.575s.501.107 1.085-.256c.583-.362.836-.892 1.115-.894.28-.001-.301.948-.988 1.381-.613.387-1.704.362-1.704.362s.6.218.89.445c.291.227.18.692.18.692s-.548-.371-1.182-.497c-.634-.125-1.462-1.437-1.639-1.585-.177-.148-5.862-2.757-5.862-2.757s-2.998-3.79-2.936-4.257M88.76 47.25s-8.596 6.113-9.092 6.41c-.496.299-1.414-.05-1.965-.495-.55-.445-.827-.829-.996-.688-.17.14.22.619.703 1.03.483.411.941.463.941.463s-.541.086-1.092-.235c-.688-.401-1.167-1.208-1.322-1.208-.154 0 .062.875.8 1.515.536.465.982.573.982.573s-.502.108-1.085-.255c-.583-.362-.836-.892-1.116-.893-.279-.002.316.866.88 1.321.628.507 1.907.437 1.907.437s-.694.202-.985.43c-.29.226-.18.692-.18.692s.549-.372 1.183-.498c.634-.125 1.462-1.436 1.639-1.585.177-.148 5.861-2.757 5.861-2.757s2.999-3.79 2.938-4.257" fill="#58154c"/><path d="M75.741 30.617l.023.146a8.269 8.269 0 001.027 2.835 8.98 8.98 0 001.1 1.484c1.377 1.513 2.918 2.28 2.918 2.28s1.686-.928 2.305-3.01a3.658 3.658 0 00-.153-2.45l-.007-.016c-.07-.042-.137-.086-.204-.128-.264-.166-.514-.331-.754-.494a26.447 26.447 0 01-.78-.544 23.01 23.01 0 01-1.909-1.536 17.68 17.68 0 01-.634-.602c-1.556-1.544-1.892-2.445-2.203-2.21-.3.226-.8 1.377-.819 2.967-.003.401.023.828.09 1.278" fill="#f4711f"/><path d="M76.79 33.598a8.98 8.98 0 001.101 1.484c.344-.104 1.143-.432 2.291-1.431 1.568-1.364 1.814-2.387 1.814-2.387a26.447 26.447 0 01-.78-.544c-.272.418-.935 1.336-1.918 1.991-.926.62-1.974.822-2.507.887M75.741 30.617c.436.031 1.063 0 1.798-.262a4.26 4.26 0 001.768-1.171 17.68 17.68 0 01-.634-.602c-.284.177-.723.39-1.38.578-.7.2-1.247.221-1.642.179-.003.401.023.828.09 1.278" fill="#f6f57a"/><path d="M77.371 34.46a8.216 8.216 0 01-1.607-3.697 8.269 8.269 0 001.027 2.835c.18.306.375.593.58.861" fill="#e5d6d5"/><path d="M79.825 36.761a11.389 11.389 0 01-1.933-1.68c.345-.104 1.143-.431 2.29-1.43.707-.615 1.146-1.161 1.413-1.575l.162.065a.163.163 0 00.061.012c.103 0 .174-.107.15-.2.48-.101.782-.195.782-.195l.141.096c-1.12.493-1.43 1.185-1.43 1.185l.15-.01c-.917.662-1.536 1.223-1.617 1.541-.063.248-.12 1.035-.169 2.191m-3.034-3.163a8.269 8.269 0 01-1.027-2.835c.414.402 1.07.857 2.055 1.175.61.196 1.27.266 1.905.266.077 0 .153 0 .23-.003-.2.179-.419.352-.656.51-.926.62-1.974.822-2.507.887" fill="#ef6618"/><path d="M77.892 35.082a9.602 9.602 0 01-.52-.623 8.556 8.556 0 01-.581-.861c.533-.065 1.581-.268 2.507-.887.237-.158.456-.331.655-.51.57-.014 1.11-.082 1.56-.16l.082.035c-.267.414-.706.96-1.413 1.575-1.147.999-1.945 1.326-2.29 1.43" fill="#e1d36b"/><path d="M81.631 32.02a4.66 4.66 0 00.143-.243l.128.088a.154.154 0 01.066.089c-.105.022-.217.044-.337.066m-1.06-.448a7.098 7.098 0 01-1.288-.949c-.278-.259-.524-.518-.743-.771.173-.117.323-.236.45-.35a18.455 18.455 0 001.919 1.653c-.098.13-.21.27-.337.417m-2.712-2.599a9.035 9.035 0 01-.361-.574c-.07-.12.03-.238.137-.238.04 0 .08.016.114.054.158.174.338.369.537.577-.125.06-.266.12-.427.181" fill="#fbc795"/><path d="M81.513 32.041a8.575 8.575 0 01-.941-.47c.127-.146.24-.287.337-.415.307.231.602.44.865.621-.04.074-.088.156-.143.243a4.847 4.847 0 01-.118.021M78.54 29.852a9.835 9.835 0 01-.68-.879c.16-.06.302-.121.427-.18.213.223.45.462.703.71a4.191 4.191 0 01-.45.349" fill="#fbfbd0"/><path d="M81.818 32.153a.164.164 0 01-.06-.012c-.053-.02-.107-.042-.163-.065l.036-.056c.12-.022.232-.044.337-.066.024.092-.047.2-.15.2" fill="#f6c397"/><path d="M81.595 32.076a7.1 7.1 0 01-.082-.035l.118-.021a2.863 2.863 0 01-.036.056" fill="#f4efc5"/><g clip-path="url(#V)" transform="matrix(.03528 0 0 -.03528 -16.956 90.077)"><path d="M2838.47 571.969h-29.5s-1.08 3.332-2.97 9.679c-10.49 35.321-45.83 164.071-57.82 333.184-1.97 28.047-3.58 60.547-4.85 95.778-.28 7.86-.55 15.87-.8 23.99-2.43 78.67-3.32 168.36-3.02 251.74.18 89.12 1.67 171.16 3.9 224.96 1.36 32.78 2.99 55.08 4.77 62.11 2.29 9.01 19.85 24.93 45.87 43.67l4.99.32s-10.51-22.18-11.77-35.8c0 0 26.1 19.78 52.54 27 31.17 8.53 58.58 9.11 65.43 9.11 1.07 0 1.64-.01 1.64-.01l-14.44 8.28s5.45 2.16 12.33 11.83c5.35 7.51 13.75 32.54 13.75 32.54s-11.25 0-58.83-10.67c62.16 37.13 136.07 73.96 182.35 86.76 10.65 3.01 19.79 4.71 27.04 4.81.37.01.74.01 1.11.01 45.9 0 118.69-49.72 168.4-92.99-49.71 43.27-122.5 92.99-168.4 92.99-.37 0-.74 0-1.11-.01-7.25-.1-16.39-1.8-27.04-4.81 0 0 45.58-28.32 94.01-79.04-6.59 1.8-13.6 3.33-21.04 4.49-47.29 7.42-89.21 13.1-89.21 13.1s12.22-29.15 19.99-37.91c9.99-11.26 17.92-13.78 17.92-13.78l-20.99-9.66s58.55-3.79 97.49-10.57c19.92-3.48 39.45-11.63 53.77-18.76 24.49-38.21 44.36-82.71 52.09-132.48 27.15-174.74-10.55-648.31-48.25-702.498-37.69-54.191-302.8-64.852-326.37-84.82-23.55-19.981-32.98-102.543-32.98-102.543m14.42 637.771s31.49-88.11 98.36-106.42c10.93-2.99 21.48-4.25 31.48-4.25 51.16 0 87.9 32.8 87.9 32.8s-38.8-21.94-82.67-21.94c-14.66 0-29.89 2.45-44.43 9-57.25 25.76-90.64 90.81-90.64 90.81m370.75-551.72c-8.13 3.859-44.27 5.57-90.23 5.57-30.23 0-64.7-.738-98.25-2.09-16.57-.66-32.91-1.469-48.4-2.422 46.86 2.863 101.56 4.512 146.75 4.512 45.91 0 82.02-1.699 90.13-5.57" fill="url(#W)"/></g><path d="M82.918 59.46c.183 1.276-.084 2.371-.595 2.444-.51.073-1.073-.903-1.256-2.18-.183-1.276.083-2.37.595-2.444.51-.073 1.074.903 1.256 2.18" fill="#58154c"/><path d="M83.125 59.43c.182 1.277-.084 2.372-.595 2.445-.511.073-1.074-.903-1.257-2.18-.182-1.277.084-2.371.595-2.444.512-.074 1.074.902 1.257 2.18" fill="#f4711f"/><path d="M81.408 54.515c.08.558-.045 1.037-.278 1.07-.234.034-.488-.391-.567-.949-.08-.557.045-1.036.278-1.07.233-.033.487.392.567.95" fill="#58154c"/><path d="M81.502 54.502c.08.558-.045 1.037-.278 1.07-.233.033-.487-.391-.567-.95-.08-.557.045-1.036.278-1.07.233-.033.487.392.567.95" fill="#f4711f"/><path d="M82.779 52.742c.08.558-.045 1.037-.278 1.07-.234.033-.488-.391-.567-.95-.08-.557.044-1.036.278-1.07.233-.033.486.392.567.95" fill="#58154c"/><path d="M82.873 52.728c.08.558-.045 1.037-.278 1.07-.233.034-.487-.39-.567-.949-.08-.557.045-1.036.278-1.07.233-.033.487.392.567.95" fill="#f4711f"/><path d="M81.325 46.035c.073.506-.04.94-.251.97-.212.03-.442-.355-.514-.86-.073-.506.04-.94.252-.97.211-.03.442.355.513.86" fill="#58154c"/><path d="M81.411 46.023c.072.506-.04.94-.252.97-.212.03-.442-.355-.514-.86-.072-.506.04-.94.252-.97.212-.03.442.354.514.86" fill="#f4711f"/><path d="M81.027 48.446c.036.246-.02.457-.122.472-.103.015-.215-.173-.25-.418-.035-.247.02-.458.123-.472.102-.015.214.173.25.418" fill="#58154c"/><path d="M81.069 48.44c.035.246-.02.457-.122.472-.103.015-.216-.173-.25-.418-.036-.246.02-.458.122-.472.103-.015.215.173.25.418" fill="#f4711f"/><path d="M83.119 56.058c.062.44-.036.817-.22.844-.184.026-.384-.31-.446-.749-.064-.44.035-.818.219-.844.184-.026.384.309.447.749" fill="#58154c"/><path d="M83.193 56.047c.063.44-.035.817-.219.844-.184.026-.384-.309-.447-.748-.063-.44.035-.818.22-.845.183-.026.383.31.446.749" fill="#f4711f"/><path d="M96.452 39.579c0 3.428-2.015 6.207-4.5 6.207-2.484 0-4.498-2.78-4.498-6.207 0-3.428 2.014-6.207 4.499-6.207 2.484 0 4.499 2.78 4.499 6.207M86.965 40.107c.265 3.418-1.068 6.309-2.977 6.457-1.91.148-3.673-2.503-3.938-5.92-.265-3.418 1.068-6.308 2.978-6.457 1.91-.148 3.672 2.503 3.937 5.92" fill="#58154c"/><path d="M88.043 39.896c.181 3.023 1.94 5.306 3.93 5.1 1.989-.206 3.454-2.823 3.273-5.846-.182-3.023-1.94-5.306-3.93-5.1-1.99.206-3.455 2.823-3.273 5.846" fill="#bfe9ea"/><path d="M88.043 39.896c.173 2.88 1.849 5.054 3.743 4.858 1.895-.196 3.29-2.69 3.118-5.57-.173-2.878-1.849-5.053-3.743-4.857-1.895.196-3.29 2.69-3.118 5.57" fill="#fff"/><g clip-path="url(#X)" transform="matrix(.03528 0 0 -.03528 -16.956 90.077)"><path d="M3018.66 1426.26c3.23-53.81 34.55-94.46 69.96-90.79 35.41 3.66 61.5 50.26 58.26 104.07-3.22 53.82-34.55 94.46-69.95 90.79-35.41-3.66-61.49-50.26-58.27-104.07" fill="url(#Y)"/></g><path d="M90.178 39.733c.082 1.358.872 2.384 1.766 2.291.894-.092 1.552-1.268 1.47-2.626-.08-1.359-.871-2.384-1.765-2.292-.894.092-1.552 1.269-1.47 2.627" fill="#4c0e13"/><path d="M92.246 38.64c.047.788.658 1.367 1.364 1.294.706-.073 1.24-.771 1.193-1.56-.047-.787-.658-1.367-1.364-1.294-.706.073-1.24.772-1.193 1.56M91.485 40.242c.017.289.24.5.499.474.258-.027.454-.283.436-.57-.017-.289-.24-.501-.499-.474-.258.027-.454.282-.436.57" fill="#fff"/><path d="M80.963 41.27c.473 2.817 2.137 4.749 3.717 4.315 1.58-.434 2.477-3.07 2.004-5.886-.473-2.816-2.137-4.748-3.717-4.313-1.58.433-2.477 3.068-2.004 5.885" fill="#bfe9ea"/><path d="M80.963 41.27c.45 2.684 2.036 4.524 3.54 4.11 1.505-.413 2.36-2.923 1.91-5.606-.451-2.683-2.036-4.523-3.54-4.11-1.506.414-2.36 2.924-1.91 5.607" fill="#fff"/><g clip-path="url(#Z)" transform="matrix(.03528 0 0 -.03528 -16.956 90.077)"><path d="M2829.51 1394.07c8.42-50.13 38.05-84.52 66.17-76.79 28.13 7.72 44.1 54.62 35.68 104.76-8.42 50.14-38.05 84.52-66.16 76.8-28.13-7.73-44.11-54.63-35.69-104.77" fill="url(#aa)"/></g><path d="M83.378 40.793c.212 1.265.96 2.133 1.67 1.938.71-.195 1.113-1.379.9-2.644-.212-1.266-.96-2.134-1.67-1.939-.71.195-1.113 1.38-.9 2.645" fill="#4c0e13"/><path d="M84.323 39.934c.123.734.678 1.205 1.239 1.05.56-.153.915-.873.792-1.608-.124-.734-.678-1.204-1.239-1.05-.56.154-.915.874-.792 1.608M83.787 41.33c.045.27.248.442.453.385.205-.056.335-.32.29-.588-.045-.269-.248-.441-.453-.385-.205.057-.335.32-.29.589" fill="#fff"/><path d="M100.092 69.44l-.997.748s-1.453-2.909-2.328-3.325c-.87-.415-10.885-.123-11.969.416-1.077.538-1.619 2.62-1.619 2.62s.333-2.913 1.163-3.618c.832-.704 10.184-1.08 11.514-2.992s2.66-18.618 1.702-24.782c-.957-6.164-7.198-10.04-7.198-10.04.376-.107.699-.167.954-.17 2.421-.044 7.036 3.946 7.78 5.153.752 1.207.709 26.056.998 29.59.292 3.534 0 6.4 0 6.4" fill="#58154c"/><path d="M104.498 30.313l-.022.146a8.262 8.262 0 01-1.027 2.835 9.009 9.009 0 01-1.1 1.484c-1.378 1.513-2.918 2.28-2.918 2.28s-1.686-.928-2.305-3.01a3.665 3.665 0 01.152-2.451l.008-.015c.07-.042.137-.087.204-.129.264-.166.513-.33.754-.493.274-.184.534-.366.78-.544.76-.551 1.386-1.066 1.908-1.536.232-.21.443-.411.634-.603 1.557-1.543 1.893-2.444 2.204-2.209.299.226.8 1.377.818 2.966a8.22 8.22 0 01-.09 1.279" fill="#f4711f"/><path d="M103.45 33.294a9.009 9.009 0 01-1.101 1.484c-.345-.104-1.143-.432-2.292-1.432-1.567-1.364-1.813-2.386-1.813-2.386.274-.184.534-.366.78-.544.272.417.935 1.336 1.918 1.991.926.62 1.974.822 2.507.887M104.498 30.313c-.435.031-1.062 0-1.798-.262a4.264 4.264 0 01-1.767-1.171c.231-.21.442-.411.633-.603.284.177.724.39 1.38.579.7.199 1.248.221 1.642.178a8.22 8.22 0 01-.09 1.279" fill="#f6f57a"/><path d="M99.43100000000001 37.059" fill="#571141"/><path d="M102.899 34.115c.194-.257.38-.53.55-.821a8.262 8.262 0 001.027-2.835 8.262 8.262 0 01-1.577 3.656" fill="#e5d6d5"/><path d="M99.43 37.059s-1.685-.93-2.304-3.012a3.487 3.487 0 01-.144-1c0-.776.25-1.349.296-1.45l.212-.144s.301.095.782.197c-.024.092.046.199.15.199.019 0 .04-.004.06-.012.053-.02.107-.042.162-.065.268.413.706.96 1.413 1.574 1.148.999 1.946 1.327 2.29 1.431-1.36 1.497-2.882 2.264-2.916 2.281m4.018-3.764c-.533-.065-1.581-.268-2.507-.887a5.82 5.82 0 01-.655-.51c.075.002.152.003.229.003.634 0 1.295-.07 1.905-.267.986-.317 1.64-.773 2.055-1.174a8.262 8.262 0 01-1.027 2.835" fill="#ef6618"/><path d="M102.348 34.777c-.345-.104-1.143-.432-2.291-1.43-.707-.616-1.145-1.162-1.413-1.575l.083-.035c.45.078.99.145 1.56.16.199.178.418.352.655.51.926.62 1.974.822 2.507.887-.17.29-.356.564-.55.82a9.46 9.46 0 01-.551.663" fill="#e1d36b"/><path d="M98.609 31.716c-.12-.022-.233-.045-.337-.066a.156.156 0 01.065-.09l.129-.087c.04.074.088.155.143.243m1.06-.449a7.978 7.978 0 01-.338-.415 18.3 18.3 0 001.919-1.653c.127.113.277.232.45.349-.219.252-.466.512-.743.77a7.098 7.098 0 01-1.289.95m2.711-2.6a5.423 5.423 0 01-.426-.18c.199-.208.379-.403.537-.578a.152.152 0 01.114-.053c.108 0 .207.119.137.238a9.134 9.134 0 01-.362.574" fill="#fbc795"/><path d="M98.727 31.737l-.118-.021a4.423 4.423 0 01-.143-.243c.263-.18.557-.39.865-.621.097.128.21.269.337.415-.328.19-.648.346-.941.47M101.7 29.548a4.195 4.195 0 01-.45-.35c.254-.247.49-.487.703-.71.125.06.266.12.426.18a9.706 9.706 0 01-.679.88" fill="#fbfbd0"/><path d="M98.421 31.849c-.103 0-.173-.107-.15-.2.105.022.218.045.338.067l.035.056-.162.065a.162.162 0 01-.06.012" fill="#f6c397"/><path d="M98.644 31.772l-.035-.056.118.021-.083.035" fill="#f4efc5"/><path d="M100.092 69.44s3.23-2.355 3.673-2.216c.443.138-1.837 2.216-1.837 2.216s2.886-1.21 3.222-.914c.394.347-2.845 1.751-2.845 1.751s2.578.156 2.387.673c-.145.395-4.47-.173-5.01-.394-.463-.188-.587-.368-.587-.368l.997-.748M82.138 69.899s-4.362.04-4.237.497 3.27.278 3.27.278-2.383 1.107-2.3 1.523c.083.415 3.083-.751 3.083-.751s-.813 2.121-.286 2.205c.526.082 1.511-3.752 1.511-3.752h-1.04" fill="#58154c"/><path d="M89.763 28.654s-3.48-4.236-3.038-4.597c.444-.36 3.574 3.99 3.574 3.99s-1.634-6.206-.886-6.51c.748-.305 2.078 6.32 2.078 6.32s.72-6.32 2.272-6.487c1.551-.166-1.358 6.151-1.358 6.151s2.66-1.58 3.436-1.164c.776.416-2.972 2.297-2.972 2.297h-3.106" fill="#300c12"/><path d="M95.443 58.178c-.117.816.054 1.516.38 1.563.327.047.687-.577.804-1.394.117-.817-.054-1.516-.38-1.563-.327-.047-.687.577-.804 1.394" fill="#58154c"/><path d="M95.311 58.159c-.117.816.054 1.516.38 1.563.327.047.687-.577.804-1.394.117-.817-.054-1.516-.38-1.563-.327-.047-.687.577-.804 1.394" fill="#f4711f"/><path d="M94.39 55.747c-.058.411.027.764.192.787.165.023.346-.29.404-.701.059-.412-.027-.764-.191-.788-.165-.023-.346.29-.404.702" fill="#58154c"/><path d="M94.324 55.737c-.059.412.027.764.191.787.165.024.346-.29.405-.701.059-.411-.027-.764-.192-.787-.164-.024-.346.29-.404.701" fill="#f4711f"/><path d="M95.74 54.325c-.046.802.177 1.466.498 1.484.32.018.617-.617.663-1.418.045-.801-.178-1.466-.499-1.484-.32-.018-.617.617-.663 1.418" fill="#58154c"/><path d="M95.61 54.318c-.046.8.177 1.465.498 1.484.321.018.618-.617.663-1.418.046-.801-.177-1.466-.498-1.484-.321-.018-.618.617-.664 1.418" fill="#f4711f"/><path d="M96.476 49.946c-.023.395.087.723.245.732.16.01.306-.304.328-.7.023-.395-.088-.723-.246-.732-.159-.009-.305.304-.327.7" fill="#58154c"/><path d="M96.411 49.942c-.022.396.088.724.247.733.158.009.305-.305.327-.7.023-.396-.088-.724-.246-.733-.158-.009-.305.305-.328.7" fill="#f4711f"/><path d="M96.704 45.358c-.023.396.088.724.246.733.158.009.305-.305.327-.7.023-.396-.087-.724-.246-.732-.158-.01-.305.304-.327.7" fill="#58154c"/><path d="M96.64 45.355c-.023.395.087.723.246.732.158.009.305-.304.327-.7.022-.395-.087-.723-.246-.732-.158-.009-.305.304-.327.7" fill="#f4711f"/><path d="M95.504 45.29c-.018.301.067.55.187.558.12.007.232-.232.25-.533.016-.301-.068-.55-.188-.558-.121-.006-.232.232-.25.533" fill="#58154c"/><path d="M95.455 45.287c-.017.302.067.551.187.558.12.007.232-.232.25-.533.017-.3-.067-.55-.188-.557-.12-.007-.232.231-.249.532" fill="#f4711f"/><path d="M96.519 34.281s-1.321-.87-2.695-1.11c-1.374-.239-3.44-.373-3.44-.373l.74-.34s-.279-.09-.631-.487c-.274-.309-.705-1.337-.705-1.337s1.478.2 3.147.462c2.323.364 3.454 1.738 3.454 1.738l-.474-.024s.539.912.604 1.471" fill="#300c12"/><path d="M95.635 32.95s-.952-.928-3.071-1.084c-1.59-.118-2.075-.738-2.075-.738l1.361.244-.888-.367s1.4.02 2.75.4c1.35.378 2.02 1.052 2.02 1.052l-.429-.12.332.612" fill="#641217"/><path d="M81.373 34.281s.92-.697 1.853-.952c1.272-.348 2.366-.321 2.366-.321l-.51-.292s.193-.076.436-.418c.189-.265.485-1.148.485-1.148s-.41 0-2.165.397c-1.9.43-2.376 1.492-2.376 1.492l.326-.02s-.37.782-.415 1.262" fill="#300c12"/><path d="M81.98 33.205l.229-.526-.295.104s.46-.58 1.39-.904c.927-.325 2.05-.425 2.05-.425l-.77.397.936-.21s-.485.384-1.427.634c-.942.25-2.113.93-2.113.93" fill="#641217"/><g clip-path="url(#ab)" transform="matrix(.03528 0 0 -.03528 -16.956 90.077)"><path d="M2982.73 1099.07c-10 0-20.55 1.26-31.48 4.25-66.87 18.31-98.36 106.42-98.36 106.42s33.39-65.05 90.64-90.81c14.54-6.55 29.77-9 44.43-9 43.87 0 82.67 21.94 82.67 21.94s-36.74-32.8-87.9-32.8" fill="url(#ac)"/></g><path d="M95.36 46.707l-.708 2.13.461 1.694-2.136-.142.176.537s-1.255 1.08-3.052 1.547c-1.782.464-3.759.132-3.759.132l-1.896-2.002-1.926-1.019.353-2.8s1.812 5.361 5.343 5.127c4.19-.279 7.144-5.204 7.144-5.204" fill="#58154c"/><path d="M83.22 47.986l-.817 1.866 1.593-.443zM84.53 50.053l-.534 1.101 1.157-.27zM86.317 51.632V52.9l1.137-.832zM89.06 51.985l1.33.81.166-1.163zM93.153 49.47l1.96 1.06-.692-2.544zM91.657 50.78l1.496.146-.353-1.074z" fill="#fff"/><path d="M82.998 46.721s1.622 5.098 5.279 5.015c3.657-.083 7.037-5.153 7.037-5.153l.139.034S92.35 52.36 88.29 52.36c-4.142 0-5.418-5.447-5.418-5.447l.125-.19" fill="#4c0e13"/><path d="M93.818 45.904s.748.263 1.538.956c.79.692 1.053 1.343 1.053 1.343s-.19-1.218-.857-1.898c-.667-.678-1.734-.401-1.734-.401M83.9 46.084s-.616.516-1.029.985c-.412.47-.759 1.647-.759 1.647s-.124-1.08.311-1.798c.495-.816 1.476-.834 1.476-.834" fill="#58154c"/></g></svg>