<svg xmlns="http://www.w3.org/2000/svg" xmlns:xlink="http://www.w3.org/1999/xlink" viewBox="0 0 42.498 60.731" height="229.533" width="160.624"><defs><linearGradient id="e" spreadMethod="pad" gradientTransform="matrix(230.432 0 0 -230.432 481.187 2764.72)" gradientUnits="userSpaceOnUse" y2="0" x2="1" y1="0" x1="0"><stop offset="0" stop-color="#ef373b"/><stop offset="1" stop-color="#b91d24"/></linearGradient><linearGradient id="g" spreadMethod="pad" gradientTransform="matrix(230.432 0 0 -230.432 481.187 2764.72)" gradientUnits="userSpaceOnUse" y2="0" x2="1" y1="0" x1="0"><stop offset="0" stop-color="#de2526"/><stop offset="1" stop-color="#b91d24"/></linearGradient><linearGradient id="i" spreadMethod="pad" gradientTransform="scale(1491.35) rotate(-90 1.583 .87)" gradientUnits="userSpaceOnUse" y2="0" x2="1" y1="0" x1="0"><stop offset="0" stop-color="#ef373b"/><stop offset="1" stop-color="#b91d24"/></linearGradient><linearGradient id="k" spreadMethod="pad" gradientTransform="matrix(170.891 0 0 -170.891 962.078 3196.46)" gradientUnits="userSpaceOnUse" y2="0" x2="1" y1="0" x1="0"><stop offset="0" stop-color="#a02c1f"/><stop offset="1" stop-color="#651317"/></linearGradient><linearGradient id="m" spreadMethod="pad" gradientTransform="matrix(95.0917 0 0 -95.0917 1192.26 3217.45)" gradientUnits="userSpaceOnUse" y2="0" x2="1" y1="0" x1="0"><stop offset="0" stop-color="#a02c1f"/><stop offset="1" stop-color="#651317"/></linearGradient><linearGradient id="p" spreadMethod="pad" gradientTransform="scale(1491.35) rotate(-90 1.583 .87)" gradientUnits="userSpaceOnUse" y2="0" x2="1" y1="0" x1="0"><stop offset="0" stop-color="#c21e25"/><stop offset="1" stop-color="#b91d24"/></linearGradient><linearGradient id="r" spreadMethod="pad" gradientTransform="scale(1491.35) rotate(-90 1.583 .87)" gradientUnits="userSpaceOnUse" y2="0" x2="1" y1="0" x1="0"><stop offset="0" stop-color="#de2526"/><stop offset="1" stop-color="#b91d24"/></linearGradient><linearGradient id="a" spreadMethod="pad" gradientTransform="scale(1491.35) rotate(-90 1.583 .87)" gradientUnits="userSpaceOnUse" y2="0" x2="1" y1="0" x1="0"><stop offset="0" stop-color="#f57780"/><stop offset="1" stop-color="#d35c68"/></linearGradient><linearGradient id="y" spreadMethod="pad" gradientTransform="scale(1491.35) rotate(-90 1.583 .87)" gradientUnits="userSpaceOnUse" y2="0" x2="1" y1="0" x1="0"><stop offset="0" stop-color="#f25861"/><stop offset="1" stop-color="#c93b44"/></linearGradient><linearGradient id="A" spreadMethod="pad" gradientTransform="scale(1086.04) rotate(-90 2.84 .223)" gradientUnits="userSpaceOnUse" y2="0" x2="1" y1="0" x1="0"><stop offset="0" stop-color="#c2e124"/><stop offset="1" stop-color="#89a023"/></linearGradient><linearGradient id="C" spreadMethod="pad" gradientTransform="scale(140.666 -140.666) rotate(5.536 228.094 183.643)" gradientUnits="userSpaceOnUse" y2="0" x2="1" y1="0" x1="0"><stop offset="0" stop-color="#a02c1f"/><stop offset="1" stop-color="#651317"/></linearGradient><linearGradient id="E" spreadMethod="pad" gradientTransform="rotate(172.365 1424.045 1573.085) scale(140.6661)" gradientUnits="userSpaceOnUse" y2="0" x2="1" y1="0" x1="0"><stop offset="0" stop-color="#a02c1f"/><stop offset="1" stop-color="#651317"/></linearGradient><linearGradient id="b" spreadMethod="pad" gradientTransform="scale(1086.04) rotate(-90 2.84 .223)" gradientUnits="userSpaceOnUse" y2="0" x2="1" y1="0" x1="0"><stop offset="0" stop-color="#d7ea5d"/><stop offset="1" stop-color="#b6c95e"/></linearGradient><linearGradient id="K" spreadMethod="pad" gradientTransform="matrix(0 1283.04 1283.04 0 1215.88 542.01)" gradientUnits="userSpaceOnUse" y2="0" x2="1" y1="0" x1="0"><stop offset="0" stop-color="#349e7c"/><stop offset="1" stop-color="#42be93"/></linearGradient><linearGradient id="M" spreadMethod="pad" gradientTransform="matrix(147.316 0 0 -147.316 1300.73 1299.12)" gradientUnits="userSpaceOnUse" y2="0" x2="1" y1="0" x1="0"><stop offset="0" stop-color="#a02c1f"/><stop offset="1" stop-color="#651317"/></linearGradient><linearGradient id="O" spreadMethod="pad" gradientTransform="scale(129.6846 -129.6846) rotate(6.783 90.65 58.664)" gradientUnits="userSpaceOnUse" y2="0" x2="1" y1="0" x1="0"><stop offset="0" stop-color="#a02c1f"/><stop offset="1" stop-color="#651317"/></linearGradient><linearGradient id="Q" spreadMethod="pad" gradientTransform="matrix(463.534 0 0 -463.534 1636.94 1341.17)" gradientUnits="userSpaceOnUse" y2="0" x2="1" y1="0" x1="0"><stop offset="0" stop-color="#349e7c"/><stop offset="1" stop-color="#42be93"/></linearGradient><linearGradient id="c" spreadMethod="pad" gradientTransform="matrix(0 1283.04 1283.04 0 1215.88 542.01)" gradientUnits="userSpaceOnUse" y2="0" x2="1" y1="0" x1="0"><stop offset="0" stop-color="#6accad"/><stop offset="1" stop-color="#73cfb5"/></linearGradient><linearGradient id="W" spreadMethod="pad" gradientTransform="scale(1205.104 -1205.104) rotate(74 2.128 .878)" gradientUnits="userSpaceOnUse" y2="0" x2="1" y1="0" x1="0"><stop offset="0" stop-color="#8a1876"/><stop offset="1" stop-color="#621857"/></linearGradient><linearGradient id="Y" spreadMethod="pad" gradientTransform="matrix(-128.224 -13.2838 8.58465 -143.096 3146.89 1439.54)" gradientUnits="userSpaceOnUse" y2="0" x2="1" y1="0" x1="0"><stop offset="0" stop-color="#a02c1f"/><stop offset="1" stop-color="#651317"/></linearGradient><linearGradient id="aa" spreadMethod="pad" gradientTransform="matrix(-101.847 -27.9724 22.3899 -133.328 2931.36 1422.04)" gradientUnits="userSpaceOnUse" y2="0" x2="1" y1="0" x1="0"><stop offset="0" stop-color="#a02c1f"/><stop offset="1" stop-color="#651317"/></linearGradient><linearGradient id="ac" spreadMethod="pad" gradientTransform="scale(1205.104 -1205.104) rotate(74 2.128 .878)" gradientUnits="userSpaceOnUse" y2="0" x2="1" y1="0" x1="0"><stop offset="0" stop-color="#a5409a"/><stop offset="1" stop-color="#883b85"/></linearGradient><linearGradient spreadMethod="pad" y2="0" x2="1" y1="0" x1="0" gradientTransform="scale(1491.35) rotate(-90 1.583 .87)" gradientUnits="userSpaceOnUse" id="t" xlink:href="#a"/><linearGradient spreadMethod="pad" y2="0" x2="1" y1="0" x1="0" gradientTransform="scale(1491.35) rotate(-90 1.583 .87)" gradientUnits="userSpaceOnUse" id="v" xlink:href="#a"/><linearGradient spreadMethod="pad" y2="0" x2="1" y1="0" x1="0" gradientTransform="scale(1086.04) rotate(-90 2.84 .223)" gradientUnits="userSpaceOnUse" id="G" xlink:href="#b"/><linearGradient spreadMethod="pad" y2="0" x2="1" y1="0" x1="0" gradientTransform="scale(1086.04) rotate(-90 2.84 .223)" gradientUnits="userSpaceOnUse" id="I" xlink:href="#b"/><linearGradient spreadMethod="pad" y2="0" x2="1" y1="0" x1="0" gradientTransform="matrix(0 1283.04 1283.04 0 1215.88 542.01)" gradientUnits="userSpaceOnUse" id="S" xlink:href="#c"/><linearGradient spreadMethod="pad" y2="0" x2="1" y1="0" x1="0" gradientTransform="matrix(0 1283.04 1283.04 0 1215.88 542.01)" gradientUnits="userSpaceOnUse" id="U" xlink:href="#c"/><clipPath id="d" clipPathUnits="userSpaceOnUse"><path d="M508.695 2575.45c-6.386 0-11.515 13.92-5.394 49.48 6.187 35.93 12.074 47.71 12.074 47.71s-8.539-10.31-15.02-23.27c-6.199-12.4-9.703-36.67-15.671-36.67-.27 0-.543.05-.821.15-6.48 2.36-1.644 44.94 19.496 77.32 39.567 60.62 48.047 67.19 63.75 89.97 14.106 20.45 95.832 144.36 112.368 169.43 4.644-16.39 9.164-33.01 13.445-50.17l-113.66-168.35c-.528-.62-.821-1.05-.86-1.27-.882-5.01 17.672-39.76 22.969-54.19 5.305-14.44 11.488-37.11 5.895-39.76-.821-.39-1.629-.58-2.43-.58-4.652 0-8.813 6.34-10.828 15.89-2.195 10.44-14.125 23.18-17.875 23.18-.27 0-.5-.07-.68-.21-2.644-2.06-3.828-30.92-5.004-43.88-1.152-12.69-.047-39.8-6.09-39.8-.125 0-.257.02-.39.04-6.481 1.18-7.364 19.14-9.129 33.28-1.77 14.14-1.469 36.82-1.469 36.82s-3.242-27.1-5.598-39.76c-2.359-12.67-.589-43.59-8.246-43.89h-.25c-7.418 0-8.004 13.02-8.589 44.77-.586 32.1 5.011 44.17 5.011 44.17s-9.133-17.08-15.316-42.7c-6.184-25.62-5.008-47.41-11.488-47.71h-.2m189 260.67l7.825 6.97c.011-.08.023-.14.039-.22-2.145-1.84-4.793-4.12-7.864-6.75"/></clipPath><clipPath id="f" clipPathUnits="userSpaceOnUse"><path d="M579.262 2731.05l113.66 168.35c4.504-18.05 8.746-36.7 12.598-56.31l-7.825-6.97c-32.132-27.64-109.41-94.42-118.433-105.07"/></clipPath><clipPath id="h" clipPathUnits="userSpaceOnUse"><path d="M1363.87 2220.21h-.02c.01.02.02.03.02.03l-38.44 2.66c1.22 3.29 64.45 175.45-3.97 234.53-26.58 22.95-60.6 28.7-100 28.7-19.8 0-40.96-1.45-63.21-2.91-22.25-1.45-45.6-2.9-69.78-2.9-28.57 0-58.31 2.03-88.763 8.49-133.164 28.27-201.305 395.82-304.977 572.44-100.367 171.05-54 395.07-50.98 409.02-24.559-53.99-33.68-114.47-33.68-174.1 0 23.35 1.399 46.82 4.575 69.99 2.566 18.73 6.3 37.27 11.394 55.37 4.695 16.68 10.547 32.98 17.711 48.74v.19l.184.47c10.398 22.72 23.531 44.29 39.875 64.18 42.769 52.02 107.523 92.41 202.711 111.3 20.828 4.15 43.07 7.26 66.914 9.23 9.14.76 18.468 1.42 28.086 1.8 11.984.53 23.79.78 35.37.78 76.61 0 144.2-11.12 200.41-26.76 46.3-12.88 84.87-28.82 114.42-44.14 33.07-17.14 54.83-33.51 63.44-43.92 2.26-2.73 3.67-5.09 4.05-6.88 5.46-23.56 3.2-58.52-15.74-127.6-18.85-69.08-3.87-188.12 73.04-298.47 77-110.27 59.75-155.13 47.12-266.62-12.53-111.49-40.81-229.3-43.92-365.95-3.2-136.65-95.84-257.67-95.84-257.67m-230.9 495.21s40.37-68.9 105.24-72.65c2.47-.14 4.93-.21 7.33-.21 114.09 0 145.63 157.41 146.87 163.84 6.08 21.64 6.8 37.43 6.8 37.43s-11.78-94.25-102.18-128.41c-30.13-11.39-58.4-15.18-82.71-15.18-48.61 0-81.35 15.18-81.35 15.18s22.39-14.22 55.83-23.02c-37.91 5.36-55.83 23.02-55.83 23.02m37.7 5.11s22.23-5.15 51.92-5.15c38.8 0 90.35 8.79 121.64 49.34 53.9 69.83 31.86 147.83 31.86 147.83s5.06-73.43-49.92-133.91c-51-56.1-141.2-58.12-153.98-58.12-.99 0-1.52.01-1.52.01m203.24 232.23h-.12c-2.81-.23-4.43-8.57-3.62-18.62.8-9.92 3.66-17.81 6.43-17.81.04 0 .08 0 .12.01 2.82.22 4.43 8.56 3.62 18.62-.8 9.92-3.66 17.8-6.43 17.8m-357.02 705.46c-11.58 0-23.386-.25-35.37-.78-9.618-.38-18.946-1.04-28.086-1.8-23.844-1.97-46.086-5.08-66.914-9.23l-82.653-29.69s92.36-70.77 273.683-91.41c33.92-3.85 67.13-5.42 98.72-5.42 97.45 0 179.46 14.9 218.89 23.51-25.64 31-167.93 114.82-378.27 114.82m373.97-857.07a183.7 183.7 0 011.49 5.04c-.19-.76-.65-2.5-1.49-5.04"/></clipPath><clipPath id="j" clipPathUnits="userSpaceOnUse"><path d="M1132.97 3196.46c0-64.27-38.26-116.36-85.45-116.36-47.19 0-85.446 52.09-85.446 116.36 0 64.26 38.256 116.36 85.446 116.36s85.45-52.1 85.45-116.36z"/></clipPath><clipPath id="l" clipPathUnits="userSpaceOnUse"><path d="M1287.35 3217.45c0-35.77-21.29-64.75-47.55-64.75-26.26 0-47.54 28.98-47.54 64.75 0 35.76 21.28 64.74 47.54 64.74 26.26 0 47.55-28.98 47.55-64.74z"/></clipPath><clipPath id="n" clipPathUnits="userSpaceOnUse"><path d="M800.098 2166.88s-74.024 155.52-74 428.51c0 2.7.004 5.4.019 8.12.02 3.12.028 6.22.028 9.29.011 94.71-8.293 167.44-20.625 230.29-3.852 19.61-8.094 38.26-12.598 56.31-22.328 89.48-51.109 164.28-70.473 269-7.406 40.16-12.379 83.73-12.379 127.77 0 59.63 9.121 120.11 33.68 174.1-3.02-13.95-49.387-237.97 50.98-409.02 103.672-176.62 171.813-544.17 304.977-572.44 30.453-6.46 60.193-8.49 88.763-8.49 24.18 0 47.53 1.45 69.78 2.9 22.25 1.46 43.41 2.91 63.21 2.91 39.4 0 73.42-5.75 100-28.7 68.42-59.08 5.19-231.24 3.97-234.53h-.01-.01c-1.05 15.86-8.81 98.41-52.58 160.73-16.97 24.1-54.81 33.49-99.01 33.49-82.51 0-187.207-32.68-219.914-63.36-50.129-47.03-130.011-173.82-130.34-174.35h-.031l-5.449-2.93-17.988-9.6"/></clipPath><clipPath id="o" clipPathUnits="userSpaceOnUse"><path d="M594.363 2166.88h795.516v1303.39H594.363z"/></clipPath><clipPath id="q" clipPathUnits="userSpaceOnUse"><path d="M1245.54 2642.56c-2.4 0-4.86.07-7.33.21-64.87 3.75-105.24 72.65-105.24 72.65s17.92-17.66 55.83-23.02c14.97-3.94 32.15-6.79 50.53-6.79 21.57 0 44.78 3.93 67.99 14.62 50.41 23.24 73.25 67.62 83.54 100.92.84 2.54 1.3 4.28 1.49 5.04l.06.21c-1.24-6.43-32.78-163.84-146.87-163.84"/></clipPath><clipPath id="s" clipPathUnits="userSpaceOnUse"><path d="M1222.59 2715.38c-29.69 0-51.92 5.15-51.92 5.15s.53-.01 1.52-.01c12.78 0 102.98 2.02 153.98 58.12 54.98 60.48 49.92 133.91 49.92 133.91s22.04-78-31.86-147.83c-31.29-40.55-82.84-49.34-121.64-49.34"/></clipPath><clipPath id="u" clipPathUnits="userSpaceOnUse"><path d="M1376.6 2916.33c-2.77 0-5.63 7.89-6.43 17.81-.81 10.05.81 18.39 3.62 18.62h.12c2.77 0 5.63-7.88 6.43-17.8.81-10.06-.8-18.4-3.62-18.62-.04-.01-.08-.01-.12-.01"/></clipPath><clipPath id="w" clipPathUnits="userSpaceOnUse"><path d="M1176.27 3519.89c-31.59 0-64.8 1.57-98.72 5.42-181.323 20.64-273.683 91.41-273.683 91.41l82.653 29.69c20.828 4.15 43.07 7.26 66.914 9.23 9.14.76 18.468 1.42 28.086 1.8 11.984.53 23.79.78 35.37.78 210.34 0 352.63-83.82 378.27-114.82-39.43-8.61-121.44-23.51-218.89-23.51"/></clipPath><clipPath id="x" clipPathUnits="userSpaceOnUse"><path d="M803.867 3519.89h591.293v138.332H803.867z"/></clipPath><clipPath id="z" clipPathUnits="userSpaceOnUse"><path d="M3167.24 2241.2s-13.11 10.39-35.47 25.48c-54.65 36.89-164.53 101.89-273.14 111.92-8.17.75-16.13 1.11-23.84 1.11-136.87 0-201.22-112.32-201.22-112.32l-27.13.38s-116.59 166.15-135.43 439.46c-18.85 273.3-12.91 460.57 5.93 475.93 9.71 7.91 54.66 47.97 127.61 83.79l1.22.65c64.37 31.53 150.38 59.63 252.85 59.63 6.6 0 13.26-.11 19.99-.35 230.9-8.29 336.93-170.77 347.57-204.98 10.56-34.21-73.5-452.37-66.44-603.16 5.6-119.42 24.02-217.38 31.44-252.97 1.95-9.36 3.15-14.4 3.15-14.4l-27.09-10.17m-8.96 581.65c-10.46 0-36.2-112.51-36.2-215.28 0-104.84 5.89-203.01 14.14-203.01 12.38 0 .14 113.23 5.43 217.49 5.3 104.25 27.35 195.9 17.25 200.66-.2.09-.41.14-.62.14m20.64 98.76c-3.98 0-10.55-17.07-14.86-38.76-4.4-22.18-4.77-40.79-.83-41.58.09-.01.18-.02.26-.02 3.99 0 10.56 17.06 14.87 38.76 4.4 22.18 4.77 40.79.82 41.57-.09.02-.17.03-.26.03"/></clipPath><clipPath id="B" clipPathUnits="userSpaceOnUse"><path d="M2781.59 2961.08c-5.11-52.65-40.58-92.29-79.25-88.55-38.66 3.75-65.87 49.47-60.76 102.12 5.1 52.65 40.58 92.3 79.24 88.55 38.66-3.74 65.87-49.47 60.77-102.12z"/></clipPath><clipPath id="D" clipPathUnits="userSpaceOnUse"><path d="M2905.05 2961.71c-7.03-52.43 18.49-99.12 56.98-104.28 38.5-5.16 75.41 33.16 82.44 85.59 7.02 52.43-18.48 99.11-56.99 104.28-38.5 5.16-75.4-33.16-82.43-85.59z"/></clipPath><clipPath id="F" clipPathUnits="userSpaceOnUse"><path d="M3136.22 2404.56c-8.25 0-14.14 98.17-14.14 203.01 0 102.77 25.74 215.28 36.2 215.28.21 0 .42-.05.62-.14 10.1-4.76-11.95-96.41-17.25-200.66-5.29-104.26 6.95-217.49-5.43-217.49"/></clipPath><clipPath id="H" clipPathUnits="userSpaceOnUse"><path d="M3163.49 2841.25c-.08 0-.17.01-.26.02-3.94.79-3.57 19.4.83 41.58 4.31 21.69 10.88 38.76 14.86 38.76.09 0 .17-.01.26-.03 3.95-.78 3.58-19.39-.82-41.57-4.31-21.7-10.88-38.76-14.87-38.76"/></clipPath><clipPath id="J" clipPathUnits="userSpaceOnUse"><path d="M1625.52 542.012c-40.65 0-75.73 8.187-75.73 8.187s-59.56 127.321-107.34 155.5c-17.95 10.539-139.16 26-257.66 36.031-69.89 5.911-138.84 9.93-185.11 9.93-24.043 0-41.953-1.09-50.696-3.551-10.523-3-22.609-7.961-35.132-13.929-47.043-22.43-100.297-59.11-100.297-59.11s-5.067-.488-13.856-.488c-11.98 0-30.886.91-53.336 5.207-34.683 6.59-61.261 23.551-61.261 23.551s-.18 4.832-.457 13.512c-1.442 45.589-5.481 197.597.457 316.348 4.738 94.76 103.714 311.31 194.144 465.05.008.02 0 0 .008.01 44.461 75.59 86.859 136.01 114.969 159.31 8.897 7.33 19.357 15.18 31.037 23.31 18.63 12.96 40.39 26.65 63.96 40.2 15.37 8.84 31.5 17.63 48.03 26.14-6.16-70.23 30.58-139.15 30.58-139.15s39.97 71.46 132.9 111.23c52.25 22.35 102.93 27.24 137.3 27.24 26.75 0 43.62-2.97 43.62-2.97s.01.03.02.09c24.04-29.84 49.57-67.25 74.92-110.96 0-.01-.01-.01-.01-.01l-.29-.67c-1.46-3.84-8.75-23.74-8.76-50.91 0-14.86 2.17-31.89 8.67-49.65 30.08-82.35 99.68-116.32 101.74-117.31 24.66-67.51 46-140.96 61.49-218.38 37.73-188.67 33.79-360.809 22.69-477.141-8.99-94.309-22.69-151.938-22.69-151.938-24.56-19.332-61.05-24.679-93.91-24.679m73.54 113.636c-3.9 0-7.07-14.148-7.07-31.609 0-17.449 3.17-31.609 7.07-31.609 3.9 0 7.07 14.16 7.07 31.609 0 17.461-3.17 31.609-7.07 31.609m.18 427.662c-3.32 0-6.65-2.25-6.84-6.47-1.94-44.11-4.27-117.301-3.55-203.711.63-76.5 2.7-149.899 4.48-201.348.15-4.312 3.48-6.543 6.8-6.543 3.07 0 6.13 1.903 6.68 5.844 7.79 56.008 17.56 135.387 20.91 202.047 3.79 75.332-10.94 156.561-21.94 204.931-.81 3.56-3.67 5.25-6.54 5.25"/></clipPath><clipPath id="L" clipPathUnits="userSpaceOnUse"><path d="M1448.05 1329.1c-5.94-17.43-13.95-33.36-23.47-47.3-18.66-27.34-43.07-47.03-69.27-55.79-13.29-4.44-27.05-6.04-40.71-4.34-18.1 23.37-18.95 63.05.19 99.04l.56 1.05c4.81 8.76 10.37 16.77 16.68 23.65 25.45 28.55 60.89 40.05 87.55 25.54 15.18-8.2 24.89-23.47 28.47-41.85z"/></clipPath><clipPath id="N" clipPathUnits="userSpaceOnUse"><path d="M1113.1 1349.62c-7.25-16.7-16.13-31.68-26.1-44.54-19.54-25.21-43.21-42.23-67.14-48.21-12.14-3.01-24.356-3.17-36.106-.06-13.055 25.08-9.109 64.58 11.867 98.34l.613.96c5.236 8.21 11.046 15.58 17.376 21.76 25.62 25.7 57.95 33.44 79.55 16.26 12.3-9.73 18.98-25.89 19.94-44.51z"/></clipPath><clipPath id="P" clipPathUnits="userSpaceOnUse"><path d="M1657.66 1286.91s199.48 82.46 216.76 104.46c17.28 21.99 22.38 59.25 33.63 90.64 11.19 31.22-1.63 48.36 1.99 52.85 6.55 8.12 19.9-2.58 24.62-23.79 4.71-21.2-2.52-42.73-2.52-42.73s95.98 60.61 106.58 54.12c10.6-6.47-53.56-60.6-53.56-60.6s93.02 28.21 100.68 18.19c7.66-10.01-76.53-45.88-76.53-45.88s82.74 4.26 90.67-2.81c7.92-7.07-80.9-27.88-80.9-27.88s53.02-9.38 49.48-19.68c-1.92-5.61-68.98-5.29-78.4-6.47-9.42-1.18-89.82-11.48-89.82-11.48L1693 1144.77s-37.24 9.57-52.06 62.6c-14.92 53.41 16.72 79.54 16.72 79.54z"/></clipPath><clipPath id="R" clipPathUnits="userSpaceOnUse"><path d="M1700.13 665.238c-3.32 0-6.65 2.231-6.8 6.543-1.78 51.449-3.85 124.848-4.48 201.348-.72 86.41 1.61 159.601 3.55 203.711.19 4.22 3.52 6.47 6.84 6.47 2.87 0 5.73-1.69 6.54-5.25 11-48.37 25.73-129.599 21.94-204.931-3.35-66.66-13.12-146.039-20.91-202.047-.55-3.941-3.61-5.844-6.68-5.844"/></clipPath><clipPath id="T" clipPathUnits="userSpaceOnUse"><path d="M1699.06 592.43c-3.9 0-7.07 14.16-7.07 31.609 0 17.461 3.17 31.609 7.07 31.609 3.9 0 7.07-14.148 7.07-31.609 0-17.449-3.17-31.609-7.07-31.609"/></clipPath><clipPath id="V" clipPathUnits="userSpaceOnUse"><path d="M2838.47 571.969h-29.5s-1.08 3.332-2.97 9.679c-10.49 35.321-45.83 164.071-57.82 333.184-1.97 28.047-3.58 60.547-4.85 95.778-.28 7.86-.55 15.87-.8 23.99-2.43 78.67-3.32 168.36-3.02 251.74.18 89.12 1.67 171.16 3.9 224.96 1.36 32.78 2.99 55.08 4.77 62.11 2.29 9.01 19.85 24.93 45.87 43.67l4.99.32s-10.51-22.18-11.77-35.8c0 0 26.1 19.78 52.54 27 31.17 8.53 58.58 9.11 65.43 9.11 1.07 0 1.64-.01 1.64-.01l-14.44 8.28s5.45 2.16 12.33 11.83c5.35 7.51 13.75 32.54 13.75 32.54s-11.25 0-58.83-10.67c62.16 37.13 136.07 73.96 182.35 86.76 10.65 3.01 19.79 4.71 27.04 4.81.37.01.74.01 1.11.01 45.9 0 118.69-49.72 168.4-92.99-49.71 43.27-122.5 92.99-168.4 92.99-.37 0-.74 0-1.11-.01-7.25-.1-16.39-1.8-27.04-4.81 0 0 45.58-28.32 94.01-79.04-6.59 1.8-13.6 3.33-21.04 4.49-47.29 7.42-89.21 13.1-89.21 13.1s12.22-29.15 19.99-37.91c9.99-11.26 17.92-13.78 17.92-13.78l-20.99-9.66s58.55-3.79 97.49-10.57c19.92-3.48 39.45-11.63 53.77-18.76 24.49-38.21 44.36-82.71 52.09-132.48 27.15-174.74-10.55-648.31-48.25-702.498-37.69-54.191-302.8-64.852-326.37-84.82-23.55-19.981-32.98-102.543-32.98-102.543m14.42 637.771s31.49-88.11 98.36-106.42c10.93-2.99 21.48-4.25 31.48-4.25 51.16 0 87.9 32.8 87.9 32.8s-38.8-21.94-82.67-21.94c-14.66 0-29.89 2.45-44.43 9-57.25 25.76-90.64 90.81-90.64 90.81m370.75-551.72c-8.13 3.859-44.27 5.57-90.23 5.57-30.23 0-64.7-.738-98.25-2.09-16.57-.66-32.91-1.469-48.4-2.422 46.86 2.863 101.56 4.512 146.75 4.512 45.91 0 82.02-1.699 90.13-5.57"/></clipPath><clipPath id="X" clipPathUnits="userSpaceOnUse"><path d="M3018.66 1426.26c3.23-53.81 34.55-94.46 69.96-90.79 35.41 3.66 61.5 50.26 58.26 104.07-3.22 53.82-34.55 94.46-69.95 90.79-35.41-3.66-61.49-50.26-58.27-104.07z"/></clipPath><clipPath id="Z" clipPathUnits="userSpaceOnUse"><path d="M2829.51 1394.07c8.42-50.13 38.05-84.52 66.17-76.79 28.13 7.72 44.1 54.62 35.68 104.76-8.42 50.14-38.05 84.52-66.16 76.8-28.13-7.73-44.11-54.63-35.69-104.77z"/></clipPath><clipPath id="ab" clipPathUnits="userSpaceOnUse"><path d="M2982.73 1099.07c-10 0-20.55 1.26-31.48 4.25-66.87 18.31-98.36 106.42-98.36 106.42s33.39-65.05 90.64-90.81c14.54-6.55 29.77-9 44.43-9 43.87 0 82.67 21.94 82.67 21.94s-36.74-32.8-87.9-32.8"/></clipPath></defs><path d="M7.151 10.09L5.49 14.379l-.678 1.749s-1.766-1.267-2.743-3.302c-.975-2.031-1.473-5.771-.53-5.878l.011-.003c.957-.083 1.6 1.599 2.826 2.41 1.227.811 2.776.735 2.776.735" fill="#f9b147"/><path d="M4.708 16.05c-.39-.304-1.804-1.483-2.64-3.224-.61-1.271-1.034-3.213-1.034-4.513 0-.777.152-1.325.505-1.365.153.692.685 2.84 1.895 4.894.746 1.27 1.306 1.921 1.676 2.255-.18.638-.311 1.292-.402 1.953" fill="#e79b40"/><path d="M30.252 7.055c-.047.272-.09.508-.134.71a9.752 9.752 0 01-.203.802c-.096.316-.16.416-.16.416L24.793 7.66s.183-.133.456-.353c.538-.432 1.426-1.203 1.911-1.941.44-.665.841-1.423 1.274-1.909.286-.322.585-.525.917-.502.835.057 1.164 2.55.902 4.1" fill="#f9b147"/><path d="M30.005 8.248c-1.043-.54-2.403-1.103-4.037-1.557.433-.395.89-.867 1.191-1.325.44-.665.841-1.423 1.274-1.909.033.382.123 1.094.349 2.178.266 1.273.974 1.892 1.336 2.13-.04.187-.078.347-.113.483" fill="#e79b40"/><path d="M35.4 26.807s3.513 5.33 4.067 6.133c.554.804.853 1.035 2.25 3.174.745 1.142.916 2.644.687 2.727-.229.084-.353-.83-.582-1.288-.228-.457-.53-.821-.53-.821s.208.416.426 1.683c.219 1.268.032 1.756-.197 1.746-.229-.01-.187-.78-.405-1.683-.218-.904-.54-1.507-.54-1.507s.197.426.176 1.558c-.02 1.133-.041 1.59-.312 1.58-.27-.01-.207-1.102-.29-1.548-.084-.447-.198-1.403-.198-1.403s.01.8-.052 1.299c-.062.499-.093 1.132-.322 1.174-.228.041-.187-.946-.228-1.403-.042-.457-.084-1.475-.177-1.548-.094-.072-.572.416-.655.81-.083.396-.27.634-.467.541-.198-.094.02-.894.207-1.403s.842-1.735.81-1.911c-.03-.177-4.699-4.174-4.699-4.174s.179-3.276 1.031-3.736" fill="#b81d24"/><g clip-path="url(#d)" transform="matrix(.03528 0 0 -.03528 -16.975 134.8)"><path d="M508.695 2575.45c-6.386 0-11.515 13.92-5.394 49.48 6.187 35.93 12.074 47.71 12.074 47.71s-8.539-10.31-15.02-23.27c-6.199-12.4-9.703-36.67-15.671-36.67-.27 0-.543.05-.821.15-6.48 2.36-1.644 44.94 19.496 77.32 39.567 60.62 48.047 67.19 63.75 89.97 14.106 20.45 95.832 144.36 112.368 169.43 4.644-16.39 9.164-33.01 13.445-50.17l-113.66-168.35c-.528-.62-.821-1.05-.86-1.27-.882-5.01 17.672-39.76 22.969-54.19 5.305-14.44 11.488-37.11 5.895-39.76-.821-.39-1.629-.58-2.43-.58-4.652 0-8.813 6.34-10.828 15.89-2.195 10.44-14.125 23.18-17.875 23.18-.27 0-.5-.07-.68-.21-2.644-2.06-3.828-30.92-5.004-43.88-1.152-12.69-.047-39.8-6.09-39.8-.125 0-.257.02-.39.04-6.481 1.18-7.364 19.14-9.129 33.28-1.77 14.14-1.469 36.82-1.469 36.82s-3.242-27.1-5.598-39.76c-2.359-12.67-.589-43.59-8.246-43.89h-.25c-7.418 0-8.004 13.02-8.589 44.77-.586 32.1 5.011 44.17 5.011 44.17s-9.133-17.08-15.316-42.7c-6.184-25.62-5.008-47.41-11.488-47.71h-.2m189 260.67l7.825 6.97c.011-.08.023-.14.039-.22-2.145-1.84-4.793-4.12-7.864-6.75" fill="url(#e)"/></g><path d="M3.43 38.5l.03-.045c.318-.375 3.044-2.731 4.178-3.706L3.429 38.5" fill="#d96b76"/><g clip-path="url(#f)" transform="matrix(.03528 0 0 -.03528 -16.975 134.8)"><path d="M579.262 2731.05l113.66 168.35c4.504-18.05 8.746-36.7 12.598-56.31l-7.825-6.97c-32.132-27.64-109.41-94.42-118.433-105.07" fill="url(#g)"/></g><g clip-path="url(#h)" transform="matrix(.03528 0 0 -.03528 -16.975 134.8)"><path d="M1363.87 2220.21h-.02c.01.02.02.03.02.03l-38.44 2.66c1.22 3.29 64.45 175.45-3.97 234.53-26.58 22.95-60.6 28.7-100 28.7-19.8 0-40.96-1.45-63.21-2.91-22.25-1.45-45.6-2.9-69.78-2.9-28.57 0-58.31 2.03-88.763 8.49-133.164 28.27-201.305 395.82-304.977 572.44-100.367 171.05-54 395.07-50.98 409.02-24.559-53.99-33.68-114.47-33.68-174.1 0 23.35 1.399 46.82 4.575 69.99 2.566 18.73 6.3 37.27 11.394 55.37 4.695 16.68 10.547 32.98 17.711 48.74v.19l.184.47c10.398 22.72 23.531 44.29 39.875 64.18 42.769 52.02 107.523 92.41 202.711 111.3 20.828 4.15 43.07 7.26 66.914 9.23 9.14.76 18.468 1.42 28.086 1.8 11.984.53 23.79.78 35.37.78 76.61 0 144.2-11.12 200.41-26.76 46.3-12.88 84.87-28.82 114.42-44.14 33.07-17.14 54.83-33.51 63.44-43.92 2.26-2.73 3.67-5.09 4.05-6.88 5.46-23.56 3.2-58.52-15.74-127.6-18.85-69.08-3.87-188.12 73.04-298.47 77-110.27 59.75-155.13 47.12-266.62-12.53-111.49-40.81-229.3-43.92-365.95-3.2-136.65-95.84-257.67-95.84-257.67m-230.9 495.21s40.37-68.9 105.24-72.65c2.47-.14 4.93-.21 7.33-.21 114.09 0 145.63 157.41 146.87 163.84 6.08 21.64 6.8 37.43 6.8 37.43s-11.78-94.25-102.18-128.41c-30.13-11.39-58.4-15.18-82.71-15.18-48.61 0-81.35 15.18-81.35 15.18s22.39-14.22 55.83-23.02c-37.91 5.36-55.83 23.02-55.83 23.02m37.7 5.11s22.23-5.15 51.92-5.15c38.8 0 90.35 8.79 121.64 49.34 53.9 69.83 31.86 147.83 31.86 147.83s5.06-73.43-49.92-133.91c-51-56.1-141.2-58.12-153.98-58.12-.99 0-1.52.01-1.52.01m203.24 232.23h-.12c-2.81-.23-4.43-8.57-3.62-18.62.8-9.92 3.66-17.81 6.43-17.81.04 0 .08 0 .12.01 2.82.22 4.43 8.56 3.62 18.62-.8 9.92-3.66 17.8-6.43 17.8m-357.02 705.46c-11.58 0-23.386-.25-35.37-.78-9.618-.38-18.946-1.04-28.086-1.8-23.844-1.97-46.086-5.08-66.914-9.23l-82.653-29.69s92.36-70.77 273.683-91.41c33.92-3.85 67.13-5.42 98.72-5.42 97.45 0 179.46 14.9 218.89 23.51-25.64 31-167.93 114.82-378.27 114.82m373.97-857.07a183.7 183.7 0 011.49 5.04c-.19-.76-.65-2.5-1.49-5.04" fill="url(#i)"/></g><path d="M11.252 58.36c-.034.941 2.993 2.57 3.357 2.35.364-.217-1.444-1.464-1.444-1.464s2.722.686 3.127.488c.405-.197-1.766-1.226-1.766-1.226s2.836.01 2.94-.446c.104-.458-5.389-.146-5.389-.146l-.825.443M29.783 56.382s-4.234.287-4.296.62c-.063.332 3.418.11 3.418.11s-2.67.832-2.379 1.247c.29.416 3.357-.722 3.357-.722s-1.259 1.734-.718 1.9c.54.166 1.974-3.061 1.974-3.061l-1.356-.094M23.648 22.037c0 4.653-2.804 8.426-6.263 8.426-3.46 0-6.264-3.773-6.264-8.426 0-4.654 2.804-8.426 6.264-8.426 3.459 0 6.263 3.772 6.263 8.426M31.728 20.266c0 1.461-.462 2.778-1.2 3.698a3.99 3.99 0 01-.359.393c-.197.017-.415.038-.645.065l-.187.021h-.003c-.327.041-.68.093-1.057.159-.343.058-.648.113-.927.165-.176.03-.34.062-.492.09-.102.017-.197.034-.285.051a3.196 3.196 0 01-.456-.306c-1.097-.876-1.833-2.489-1.833-4.336 0-2.777 1.667-5.031 3.722-5.031 2.054 0 3.722 2.254 3.722 5.031" fill="#b81d24"/><path d="M23.226 22.037c0 4.192-2.496 7.591-5.574 7.591-3.079 0-5.575-3.399-5.575-7.591 0-4.193 2.496-7.592 5.575-7.592 3.078 0 5.574 3.4 5.574 7.592" fill="#bfe9ea"/><path d="M23.226 22.037c0 3.994-2.377 7.231-5.31 7.231-2.932 0-5.31-3.237-5.31-7.231 0-3.994 2.378-7.232 5.31-7.232 2.933 0 5.31 3.238 5.31 7.232" fill="#fff"/><g clip-path="url(#j)" transform="matrix(.03528 0 0 -.03528 -16.975 134.8)"><path d="M1132.97 3196.46c0-64.27-38.26-116.36-85.45-116.36-47.19 0-85.446 52.09-85.446 116.36 0 64.26 38.256 116.36 85.446 116.36s85.45-52.1 85.45-116.36" fill="url(#k)"/></g><path d="M22.607 22.037c0 1.622-.966 2.937-2.157 2.937s-2.157-1.315-2.157-2.937c0-1.622.966-2.937 2.157-2.937s2.157 1.315 2.157 2.937" fill="#4c0e13"/><path d="M18.838 22.037a1.704 1.704 0 11-3.408 0 1.704 1.704 0 013.408 0M20.45 22.847a.623.623 0 11-1.247 0 .623.623 0 011.247 0" fill="#fff"/><path d="M30.883 20.845c0 .35-.033.689-.093 1.011-.14.798-.449 1.506-.871 2.052-.153.2-.323.378-.505.532l-.183.02h-.003c-.32.04-.665.09-1.034.152-.336.057-.635.11-.908.16l-.482.086a2.744 2.744 0 01-.562-.342c-.934-.728-1.563-2.101-1.563-3.67 0-2.335 1.387-4.227 3.102-4.227 1.453 0 2.67 1.36 3.006 3.2.063.325.096.67.096 1.026" fill="#bfe9ea"/><path d="M30.883 20.845c0 .35-.033.689-.093 1.011-.153.808-.486 1.513-.934 2.042-.19.219-.4.409-.625.562h-.003c-.32.04-.665.09-1.034.152-.336.057-.635.11-.908.16a2.408 2.408 0 01-.775-.396c-.701-.522-1.23-1.42-1.44-2.493a5.222 5.222 0 01-.08-.572v-.003a5.27 5.27 0 01-.02-.463c0-2.22 1.324-4.022 2.957-4.022 1.37 0 2.523 1.27 2.859 2.995.063.326.096.672.096 1.027" fill="#fff"/><g clip-path="url(#l)" transform="matrix(.03528 0 0 -.03528 -16.975 134.8)"><path d="M1287.35 3217.45c0-35.77-21.29-64.75-47.55-64.75-26.26 0-47.54 28.98-47.54 64.75 0 35.76 21.28 64.74 47.54 64.74 26.26 0 47.55-28.98 47.55-64.74" fill="url(#m)"/></g><path d="M27.649 21.393c0 .903-.538 1.634-1.2 1.634-.663 0-1.2-.731-1.2-1.634 0-.902.537-1.634 1.2-1.634.662 0 1.2.732 1.2 1.634" fill="#4c0e13"/><path d="M26.59 21.489a.81.81 0 11-1.618 0 .81.81 0 011.619 0M27.565 21.951a.347.347 0 11-.693 0 .347.347 0 01.693 0" fill="#fff"/><path d="M24.678 16.544s.574-1.933 3.102-3.803c2.528-1.87 4.211-2.306 4.211-2.306l-1.31 1.434 2.203-.52s-.138 1.451-1.052 2.528c-1.012 1.192-4.183 1.7-5.902 2.913-.672.474-1.129.918-1.129.918l.623-1.507-.746.343M23.09 17.853s-2.258-1.487-4.606-1.897c-2.348-.41-5.878-.638-5.878-.638l1.265-.582s-.478-.152-1.08-.83c-.469-.529-1.206-2.287-1.206-2.287s2.529.343 5.38.79c3.97.622 5.904 2.972 5.904 2.972l-.81-.042s.92 1.558 1.031 2.514" fill="#4c0e13"/><g clip-path="url(#n)" transform="matrix(.03528 0 0 -.03528 -16.975 134.8)"><g clip-path="url(#o)"><path d="M800 2166v1h-1v2h-1v2h-1v2h-1v3h-1v2h-1v3h-1v2h-1v3h-1v2h-1v3h-1v3h-1v2h-1v3h-1v3h-1v3h-1v3h-1v3h-1v3h-1v3h-1v3h-1v3h-1v3h-1v3h-1v3h-1v4h-1v3h-1v3h-1v4h-1v3h-1v3h-1v4h-1v4h-1v4h-1v3h-1v4h-1v4h-1v4h-1v4h-1v4h-1v4h-1v4h-1v5h-1v4h-1v4h-1v5h-1v5h-1v5h-1v4h-1v5h-1v5h-1v5h-1v6h-1v5h-1v6h-1v6h-1v5h-1v6h-1v7h-1v7h-1v7h-1v7h-1v6h-1v8h-1v9h-1v9h-1v9h-1v8h-1v12h-1v12h-1v12h-1v15h-1v20h-1v20h-1v87h-1v39h-1v21h-1v17h-1v13h-1v12h-1v11h-1v9h-1v9h-1v9h-1v7h-1v8h-1v7h-1v6h-1v7h-1v6h-1v6h-1v6h-1v5h-1v6h-1v5h-1v5h-1v5h-1v5h-1v4h-1v5h-1v5h-1v4h-1v5h-1v4h-1v4h-1v4h-1v5h-1v4h-1v4h-1v4h-1v3h-1v4h-1v4h-1v4h-1v3h-1v4h-1v4h-1v3h-1v4h-1v3h-1v4h-1v4h-1v3h-1v4h-1v3h-1v4h-1v3h-1v4h-1v3h-1v3h-1v4h-1v3h-1v4h-1v3h-1v3h-1v4h-1v3h-1v4h-1v3h-1v4h-1v3h-1v3h-1v4h-1v3h-1v4h-1v3h-1v4h-1v3h-1v4h-1v3h-1v4h-1v4h-1v3h-1v4h-1v4h-1v3h-1v4h-1v4h-1v4h-1v4h-1v4h-1v3h-1v4h-1v5h-1v4h-1v4h-1v4h-1v5h-1v4h-1v4h-1v5h-1v4h-1v5h-1v5h-1v5h-1v5h-1v5h-1v5h-1v5h-1v6h-1v6h-1v6h-1v7h-1v7h-1v8h-1v8h-1v8h-1v11h-1v12h-1v13h-1v65h1v16h1v9h1v9h1v8h1v6h1v6h1v6h1v5h1v5h1v4h1v5h1v4h1v4h1v4h1v3h1v4h1v4h1v3h1v3h1v3h1v3h1v3h1v3h1v2h1v3h1v3h1v2h1v3h1v2h1v3h1v2h1v2h1v2h1v-5h-1v-5h-1v-6h-1v-5h-1v-7h-1v-7h-1v-7h-1v-8h-1v-8h-1v-10h-1v-11h-1v-14h-1v-20h-1v-55h1v-19h1v-13h1v-11h1v-9h1v-8h1v-7h1v-7h1v-6h1v-6h1v-6h1v-5h1v-5h1v-5h1v-4h1v-5h1v-4h1v-4h1v-4h1v-4h1v-4h1v-3h1v-4h1v-3h1v-3h1v-4h1v-3h1v-3h1v-3h1v-3h1v-3h1v-3h1v-2h1v-3h1v-3h1v-2h1v-3h1v-2h1v-3h1v-2h1v-3h1v-2h1v-2h1v-3h1v-2h1v-2h1v-2h1v-2h1v-2h1v-2h1v-3h1v-2h1v-2h1v-2h1v-2h1v-2h1v-1h1v-2h1v-2h1v-2h1v-2h1v-2h1v-1h1v-2h1v-2h1v-1h1v-2h1v-2h1v-2h1v-2h1v-1h1v-2h1v-2h1v-2h1v-2h1v-2h1v-1h1v-2h1v-2h1v-2h1v-2h1v-2h1v-2h1v-2h1v-2h1v-2h1v-2h1v-2h1v-2h1v-2h1v-2h1v-2h1v-2h1v-3h1v-2h1v-2h1v-2h1v-2h1v-3h1v-2h1v-2h1v-2h1v-2h1v-3h1v-2h1v-2h1v-3h1v-2h1v-2h1v-2h1v-3h1v-2h1v-3h1v-2h1v-2h1v-3h1v-2h1v-3h1v-2h1v-2h1v-3h1v-2h1v-3h1v-2h1v-3h1v-2h1v-3h1v-2h1v-3h1v-2h1v-3h1v-2h1v-3h1v-3h1v-2h1v-3h1v-2h1v-3h1v-2h1v-3h1v-3h1v-2h1v-3h1v-3h1v-2h1v-3h1v-2h1v-3h1v-3h1v-2h1v-3h1v-3h1v-2h1v-3h1v-3h1v-2h1v-3h1v-3h1v-2h1v-3h1v-3h1v-3h1v-2h1v-3h1v-3h1v-2h1v-3h1v-3h1v-2h1v-3h1v-3h1v-2h1v-3h1v-3h1v-2h1v-3h1v-3h1v-3h1v-2h1v-3h1v-3h1v-2h1v-3h1v-3h1v-2h1v-3h1v-2h1v-3h1v-3h1v-2h1v-3h1v-3h1v-2h1v-3h1v-2h1v-3h1v-3h1v-2h1v-3h1v-2h1v-3h1v-2h1v-3h1v-3h1v-2h1v-3h1v-2h1v-3h1v-2h1v-3h1v-2h1v-3h1v-2h1v-3h1v-2h1v-2h1v-3h1v-2h1v-3h1v-2h1v-2h1v-3h1v-2h1v-3h1v-2h1v-2h1v-2h1v-3h1v-2h1v-2h1v-3h1v-2h1v-2h1v-2h1v-2h1v-3h1v-2h1v-2h1v-2h1v-2h1v-2h1v-3h1v-2h1v-2h1v-2h1v-2h1v-2h1v-2h1v-2h1v-2h1v-2h1v-2h1v-2h1v-2h1v-2h1v-2h1v-2h1v-2h1v-1h1v-2h1v-2h1v-2h1v-2h1v-2h1v-1h1v-2h1v-2h1v-2h1v-1h1v-2h1v-2h1v-1h1v-2h1v-2h1v-1h1v-2h1v-2h1v-1h1v-2h1v-1h1v-2h1v-1h1v-2h1v-1h1v-2h1v-1h1v-2h1v-1h1v-2h1v-1h1v-2h1v-1h1v-1h1v-1h1v-2h1v-1h1v-1h1v-2h1v-1h1v-1h1v-2h1v-1h1v-1h1v-1h1v-1h1v-1h1v-1h1v-1h1v-2h1v-1h1v-1h1v-1h1v-1h1v-1h1v-1h1v-1h1v-1h1v-1h1v-1h1v-1h1v-1h1v-1h1v-1h2v-1h1v-1h1v-1h1v-1h2v-1h1v-1h1v-1h1v-1h2v-1h1v-1h2v-1h2v-1h1v-1h2v-1h1v-1h2v-1h2v-1h2v-1h2v-1h3v-1h2v-1h2v-1h3v-1h3v-1h4v-1h5v-1h6v-1h5v-1h6v-1h8v-1h9v-1h10v-1h15v-1h54v1h20v1h17v1h16v1h17v1h23v1h20v-1h19v-1h8v-1h7v-1h5v-1h5v-1h4v-1h3v-1h3v-1h4v-1h2v-1h3v-1h2v-1h2v-1h3v-1h2v-1h1v-1h2v-1h2v-1h2v-1h1v-1h2v-1h1v-1h2v-1h1v-1h1v-1h2v-1h1v-1h1v-1h1v-1h2v-1h1v-1h1v-1h1v-2h1v-1h1v-1h1v-1h1v-1h1v-1h1v-2h1v-1h1v-2h1v-2h1v-2h1v-1h1v-2h1v-2h1v-1h1v-3h1v-3h1v-2h1v-3h1v-3h1v-2h1v-5h1v-4h1v-5h1v-5h1v-9h1v-17h1v-15h-1v-16h-1v-9h-1v-9h-1v-7h-1v-6h-1v-5h-1v-6h-1v-5h-1v-4h-1v-5h-1v-5h-1v-4h-1v-4h-1v-4h-1v-4h-1v-3h-1v-4h-1v-4h-1v-3h-1v-3h-1v-4h-1v-3h-1v-3h-1v-3h-1v-3h-1v-3h-1v-3h-1v-2h-1v6h-1v9h-1v8h-1v6h-1v6h-1v6h-1v5h-1v5h-1v4h-1v5h-1v4h-1v4h-1v3h-1v4h-1v3h-1v4h-1v3h-1v3h-1v3h-1v3h-1v3h-1v3h-1v3h-1v2h-1v3h-1v2h-1v3h-1v2h-1v2h-1v3h-1v2h-1v2h-1v2h-1v2h-1v2h-1v2h-1v2h-1v2h-1v2h-1v2h-1v2h-1v1h-1v2h-1v2h-1v2h-1v1h-1v2h-1v1h-1v2h-1v1h-1v2h-1v1h-1v2h-1v1h-1v2h-1v1h-1v1h-1v1h-1v1h-1v1h-1v1h-1v1h-2v1h-1v1h-1v1h-1v1h-2v1h-1v1h-2v1h-2v1h-2v1h-1v1h-2v1h-2v1h-3v1h-3v1h-2v1h-3v1h-3v1h-4v1h-4v1h-4v1h-6v1h-6v1h-10v1h-16v1h-14v-1h-19v-1h-12v-1h-9v-1h-7v-1h-7v-1h-6v-1h-6v-1h-5v-1h-6v-1h-4v-1h-5v-1h-5v-1h-4v-1h-4v-1h-4v-1h-4v-1h-3v-1h-4v-1h-4v-1h-3v-1h-3v-1h-4v-1h-3v-1h-3v-1h-3v-1h-3v-1h-3v-1h-3v-1h-2v-1h-3v-1h-3v-1h-2v-1h-3v-1h-2v-1h-3v-1h-2v-1h-2v-1h-3v-1h-2v-1h-2v-1h-2v-1h-2v-1h-2v-1h-2v-1h-2v-1h-2v-1h-2v-1h-2v-1h-1v-1h-2v-1h-2v-1h-2v-1h-1v-1h-2v-1h-1v-1h-1v-1h-2v-1h-1v-1h-2v-1h-1v-1h-1v-1h-1v-1h-1v-1h-1v-1h-1v-1h-2v-2h-1v-1h-1v-1h-1v-1h-1v-1h-1v-1h-1v-1h-1v-1h-1v-1h-1v-1h-1v-1h-1v-1h-1v-1h-1v-1h-1v-1h-1v-2h-1v-1h-1v-1h-1v-1h-1v-1h-1v-1h-1v-2h-1v-1h-1v-1h-1v-1h-1v-1h-1v-1h-1v-2h-1v-1h-1v-1h-1v-1h-1v-2h-1v-1h-1v-1h-1v-1h-1v-2h-1v-1h-1v-1h-1v-1h-1v-2h-1v-1h-1v-1h-1v-2h-1v-1h-1v-1h-1v-1h-1v-2h-1v-1h-1v-1h-1v-2h-1v-1h-1v-1h-1v-2h-1v-1h-1v-1h-1v-2h-1v-1h-1v-1h-1v-2h-1v-1h-1v-1h-1v-2h-1v-1h-1v-2h-1v-1h-1v-1h-1v-2h-1v-1h-1v-1h-1v-2h-1v-1h-1v-2h-1v-1h-1v-2h-1v-1h-1v-1h-1v-2h-1v-1h-1v-2h-1v-1h-1v-1h-1v-2h-1v-1h-1v-2h-1v-1h-1v-2h-1v-1h-1v-2h-1v-1h-1v-1h-1v-2h-1v-1h-1v-2h-1v-1h-1v-2h-1v-1h-1v-2h-1v-1h-1v-2h-1v-1h-1v-2h-1v-1h-1v-2h-1v-1h-1v-2h-1v-1h-1v-2h-1v-1h-1v-2h-1v-1h-1v-2h-1v-1h-1v-2h-1v-1h-1v-2h-1v-1h-1v-2h-1v-1h-1v-2h-1v-1h-1v-2h-1v-2h-1v-1h-1v-2h-1v-1h-1v-2h-1v-1h-1v-1h-1v-1h-2v-1h-1v-1h-2v-1h-2v-1h-2v-1h-2v-1h-2v-1h-2v-1h-2v-1h-1v-1h-2v-1h-2v-1" fill="url(#p)"/></g></g><path d="M11.885 58.02l.192-.104h.001l-.193.103M29.782 56.384v-.002h.001v.002" fill="#b81d24"/><g clip-path="url(#q)" transform="matrix(.03528 0 0 -.03528 -16.975 134.8)"><path d="M1245.54 2642.56c-2.4 0-4.86.07-7.33.21-64.87 3.75-105.24 72.65-105.24 72.65s17.92-17.66 55.83-23.02c14.97-3.94 32.15-6.79 50.53-6.79 21.57 0 44.78 3.93 67.99 14.62 50.41 23.24 73.25 67.62 83.54 100.92.84 2.54 1.3 4.28 1.49 5.04l.06.21c-1.24-6.43-32.78-163.84-146.87-163.84" fill="url(#r)"/></g><path d="M22.993 39.007s2.6 1.205 5.788 0c3.19-1.205 3.605-4.53 3.605-4.53s-.166 3.648-3.242 5.066c-3.075 1.417-6.15-.536-6.15-.536" fill="#4e1613"/><g clip-path="url(#s)" transform="matrix(.03528 0 0 -.03528 -16.975 134.8)"><path d="M1222.59 2715.38c-29.69 0-51.92 5.15-51.92 5.15s.53-.01 1.52-.01c12.78 0 102.98 2.02 153.98 58.12 54.98 60.48 49.92 133.91 49.92 133.91s22.04-78-31.86-147.83c-31.29-40.55-82.84-49.34-121.64-49.34" fill="url(#t)"/></g><g clip-path="url(#u)" transform="matrix(.03528 0 0 -.03528 -16.975 134.8)"><path d="M1376.6 2916.33c-2.77 0-5.63 7.89-6.43 17.81-.81 10.05.81 18.39 3.62 18.62h.12c2.77 0 5.63-7.88 6.43-17.8.81-10.06-.8-18.4-3.62-18.62-.04-.01-.08-.01-.12-.01" fill="url(#v)"/></g><path d="M23.648 27.215l.204-2.699 1.52 2.027zM32.233 25.442l.665-1.862.606 2.114z" fill="#fff"/><path d="M16.676 31.568s4.848-4.184 10.196-5.458c5.348-1.275 6.816-.333 6.816-.333l-2.133 3.99 1.068-2.96s-1.234-.642-5.585.162c-4.286.791-10.362 4.599-10.362 4.599" fill="#4c0e13"/><path d="M25.54 15.39s.777-.979 1.661-1.786c1.07-.977 2.494-1.642 2.494-1.642l-.482.71 2.064-.471s-1.572.603-3.061 1.586c-1.407.93-2.286 2.127-2.286 2.127l.125-.638-.516.115M21.747 14.736s-1.147-1.154-3.454-1.8c-2.306-.648-5.094-.845-5.094-.845l1.912.789-2.327-.416s1.205.762 3.546 1.26c2.341.5 5.25 1.853 5.25 1.853l-.567-1.048.734.207" fill="#86181c"/><path d="M31.498 24.313s-.545-.013-1.453.063c-.193.017-.406.037-.631.064l-.183.02h-.003c-.32.04-.665.09-1.034.152-.336.057-.635.11-.908.16l-.482.086-.28.05c-.788.146-1.143.223-1.143.223s.242-.243.698-.519c.05-.03.103-.063.163-.096a5.567 5.567 0 011.785-.629c.622-.106 1.267-.073 1.829.01l.063.01c.17.027.33.057.479.09.655.14 1.1.316 1.1.316" fill="#b81d24"/><path d="M9.506 27.675c.183 1.277-.083 2.37-.595 2.444-.51.073-1.073-.903-1.256-2.18-.183-1.276.084-2.371.595-2.444.511-.073 1.074.903 1.256 2.18" fill="#f14857"/><path d="M9.713 27.645c.182 1.277-.084 2.372-.595 2.445-.511.073-1.074-.903-1.257-2.18-.182-1.277.084-2.371.595-2.445.512-.073 1.074.903 1.257 2.18" fill="#86171c"/><path d="M10.977 38.425c.12.847-.056 1.572-.395 1.62-.339.05-.712-.598-.833-1.444-.12-.847.056-1.572.395-1.62.338-.049.711.598.833 1.444" fill="#f14857"/><path d="M11.14 38.417c.12.846-.056 1.572-.395 1.62-.339.049-.712-.598-.833-1.445-.121-.846.055-1.572.395-1.62.338-.049.711.598.832 1.445" fill="#86171c"/><path d="M10.703 43.857c.12.846-.056 1.572-.395 1.62-.339.05-.711-.598-.833-1.445-.12-.846.056-1.572.395-1.62.339-.049.711.598.833 1.445" fill="#f14857"/><path d="M10.862 43.857c.121.846-.055 1.572-.394 1.62-.339.05-.712-.598-.833-1.445-.121-.846.056-1.572.394-1.62.34-.049.712.598.833 1.445" fill="#86171c"/><path d="M12.395 41.518c.082.572-.037 1.062-.266 1.095-.229.032-.481-.404-.563-.977-.082-.571.037-1.062.267-1.095.229-.032.48.405.562.977" fill="#f14857"/><path d="M12.503 41.518c.082.572-.037 1.062-.266 1.095-.23.032-.481-.404-.563-.977-.082-.571.038-1.062.266-1.095.23-.032.482.405.563.977" fill="#86171c"/><path d="M6.524 16.525c-.071.573-.316 1.015-.545.986-.23-.029-.358-.517-.286-1.09.072-.574.316-1.015.546-.987.23.03.357.517.285 1.09" fill="#f14857"/><path d="M6.628 16.553c-.071.573-.316 1.015-.545.986-.23-.029-.358-.517-.286-1.09.072-.574.316-1.015.546-.986.23.029.357.517.285 1.09" fill="#86171c"/><path d="M12.762 33.147c.272 1.901-.125 3.531-.886 3.64-.761.109-1.599-1.344-1.871-3.246s.125-3.531.886-3.64c.761-.11 1.599 1.344 1.871 3.246" fill="#f14857"/><path d="M13.077 33.102c.272 1.901-.124 3.53-.885 3.64-.762.109-1.6-1.345-1.872-3.246-.272-1.902.125-3.532.886-3.64.762-.11 1.6 1.344 1.871 3.246" fill="#86171c"/><path d="M7.67 21.359c.191 1.338-.088 2.485-.624 2.561-.535.077-1.125-.946-1.316-2.284-.192-1.338.087-2.485.623-2.562.536-.076 1.125.947 1.317 2.285" fill="#f14857"/><path d="M7.891 21.35c.192 1.338-.087 2.485-.623 2.561-.536.077-1.125-.946-1.316-2.284-.192-1.338.087-2.485.623-2.561.536-.077 1.125.945 1.316 2.284" fill="#86171c"/><g clip-path="url(#w)" transform="matrix(.03528 0 0 -.03528 -16.975 134.8)"><g clip-path="url(#x)"><path d="M1160 3519v1h-28v1h-16v1h-13v1h-13v1h-10v1h-9v1h-8v1h-7v1h-7v1h-6v1h-6v1h-6v1h-5v1h-6v1h-6v1h-5v1h-4v1h-5v1h-4v1h-5v1h-5v1h-4v1h-4v1h-4v1h-3v1h-4v1h-4v1h-4v1h-4v1h-3v1h-3v1h-4v1h-3v1h-3v1h-4v1h-3v1h-3v1h-3v1h-3v1h-3v1h-2v1h-3v1h-3v1h-3v1h-3v1h-2v1h-3v1h-3v1h-2v1h-3v1h-2v1h-3v1h-2v1h-3v1h-2v1h-2v1h-3v1h-2v1h-2v1h-2v1h-3v1h-2v1h-2v1h-2v1h-2v1h-2v1h-2v1h-2v1h-2v1h-2v1h-2v1h-2v1h-2v1h-2v1h-2v1h-2v1h-2v1h-2v1h-1v1h-2v1h-2v1h-2v1h-1v1h-2v1h-2v1h-1v1h-2v1h-2v1h-1v1h-2v1h-1v1h-2v1h-1v1h-2v1h-1v1h-2v1h-1v1h1v1h3v1h3v1h2v1h3v1h3v1h3v1h3v1h2v1h3v1h3v1h3v1h3v1h2v1h3v1h3v1h3v1h2v1h3v1h3v1h3v1h3v1h2v1h3v1h3v1h3v1h3v1h2v1h3v1h3v1h4v1h6v1h6v1h6v1h6v1h7v1h8v1h9v1h9v1h12v1h15v1h27v1h34v-1h26v-1h13v-1h14v-1h11v-1h8v-1h8v-1h8v-1h8v-1h6v-1h6v-1h6v-1h6v-1h5v-1h6v-1h4v-1h5v-1h4v-1h5v-1h5v-1h4v-1h4v-1h4v-1h4v-1h4v-1h4v-1h3v-1h4v-1h4v-1h3v-1h3v-1h4v-1h3v-1h3v-1h3v-1h4v-1h3v-1h3v-1h3v-1h2v-1h3v-1h3v-1h3v-1h3v-1h2v-1h3v-1h3v-1h2v-1h3v-1h2v-1h3v-1h2v-1h3v-1h2v-1h3v-1h2v-1h2v-1h2v-1h3v-1h2v-1h2v-1h2v-1h2v-1h3v-1h2v-1h2v-1h2v-1h2v-1h2v-1h2v-1h2v-1h2v-1h2v-1h2v-1h1v-1h2v-1h2v-1h2v-1h2v-1h1v-1h2v-1h2v-1h2v-1h1v-1h2v-1h2v-1h1v-1h2v-1h1v-1h2v-1h1v-1h2v-1h1v-1h2v-1h1v-1h2v-1h1v-1h1v-1h2v-1h1v-1h2v-1h1v-1h1v-1h1v-1h2v-1h1v-1h1v-1h1v-1h1v-1h1v-1h1v-1h1v-1h1v-1h1v-1h1v-1h1v-1h-2v-1h-5v-1h-5v-1h-5v-1h-5v-1h-5v-1h-6v-1h-5v-1h-6v-1h-6v-1h-6v-1h-6v-1h-8v-1h-7v-1h-7v-1h-8v-1h-8v-1h-9v-1h-9v-1h-12v-1h-12v-1h-14v-1h-19v-1h-31v-1" fill="url(#y)"/></g></g><path d="M9.503 8.007s1.831-3.56 5.428-5.67C19.606-.404 22.607.025 22.607.025l-3.49 1.785s.797-.222 2.38-.35c2.307-.188 3.097.207 3.097.207L19.336 3.41s.681-.133 2.41-.041c1.642.087 2.217.34 2.217.34l-3.847 2.063s-7.479.424-10.613 2.234" fill="#4c0e13"/><g><g clip-path="url(#z)" transform="matrix(.03528 0 0 -.03528 -21.51 149.164)"><path d="M3167.24 2241.2s-13.11 10.39-35.47 25.48c-54.65 36.89-164.53 101.89-273.14 111.92-8.17.75-16.13 1.11-23.84 1.11-136.87 0-201.22-112.32-201.22-112.32l-27.13.38s-116.59 166.15-135.43 439.46c-18.85 273.3-12.91 460.57 5.93 475.93 9.71 7.91 54.66 47.97 127.61 83.79l1.22.65c64.37 31.53 150.38 59.63 252.85 59.63 6.6 0 13.26-.11 19.99-.35 230.9-8.29 336.93-170.77 347.57-204.98 10.56-34.21-73.5-452.37-66.44-603.16 5.6-119.42 24.02-217.38 31.44-252.97 1.95-9.36 3.15-14.4 3.15-14.4l-27.09-10.17m-8.96 581.65c-10.46 0-36.2-112.51-36.2-215.28 0-104.84 5.89-203.01 14.14-203.01 12.38 0 .14 113.23 5.43 217.49 5.3 104.25 27.35 195.9 17.25 200.66-.2.09-.41.14-.62.14m20.64 98.76c-3.98 0-10.55-17.07-14.86-38.76-4.4-22.18-4.77-40.79-.83-41.58.09-.01.18-.02.26-.02 3.99 0 10.56 17.06 14.87 38.76 4.4 22.18 4.77 40.79.82 41.57-.09.02-.17.03-.26.03" fill="url(#A)"/></g><path d="M85.167 53.659l-.25.97s-2.117 1.703-5.25 2.558l-.006.003c-1.659.452-3.607.668-5.672.266-4.11-.801-5.107-3.59-5.33-5.24l-.003-.043c-.09-.718-.036-1.21-.036-1.21l.422-.878s3.305 2.64 7.896 3.574c4.625.94 8.229 0 8.229 0M91.331 37.55s2.756-6.167 3.545-6.125c.79.042-1.648 5.206-1.648 5.206s7.3-4.167 8.381-2.505c1.08 1.662-8.27 3.424-8.27 3.424s4.447.815 4.197 1.646c-.249.831-5.236-.166-5.236-.166l-.969-1.48M81.162 36.356s2.224.409 4.447 1.697c2.223 1.289 2.91 2.577 2.91 2.577l-.25-1.018.894.395.997-1.164s-1.526-2.015-3.789-3.367c-2.327-1.391-5.043-1.828-5.043-1.828l-.104 1.023s.582.193 1.315.463c.611.225 1.224.654 1.224.654l-2.518-.65-.083 1.218M77.11 35.775s-2.223.408-4.447 1.697c-2.223 1.288-2.971 2.279-2.971 2.279l-.014-.776-.568.45-.997-1.164s1.525-2.014 3.788-3.367c2.328-1.392 5.043-1.828 5.043-1.828l.104 1.023s-.582.193-1.315.463c-.61.225-.882.436-.882.436l2.176-.432.083 1.219" fill="#4c0e13"/><path d="M88.827 45.646c-.323 3.328-2.654 5.825-5.206 5.578-2.553-.248-4.361-3.146-4.039-6.474.323-3.327 2.654-5.825 5.207-5.577 2.552.247 4.36 3.145 4.038 6.473M78.068 44.904c-.323 3.328-2.654 5.825-5.207 5.578-2.553-.248-4.36-3.146-4.038-6.474.323-3.328 2.653-5.825 5.206-5.577 2.553.247 4.361 3.145 4.039 6.473" fill="#8aa123"/><path d="M77.734 44.872c-.287 2.957-2.28 5.185-4.451 4.974-2.172-.21-3.7-2.779-3.414-5.737.287-2.957 2.28-5.184 4.451-4.974 2.173.21 3.7 2.78 3.414 5.737" fill="#bfe9ea"/><path d="M77.734 44.872c-.273 2.817-2.171 4.939-4.24 4.738-2.07-.2-3.525-2.647-3.252-5.464.273-2.818 2.172-4.94 4.24-4.738 2.07.2 3.525 2.647 3.252 5.464" fill="#fff"/><g clip-path="url(#B)" transform="matrix(.03528 0 0 -.03528 -21.51 149.164)"><path d="M2781.59 2961.08c-5.11-52.65-40.58-92.29-79.25-88.55-38.66 3.75-65.87 49.47-60.76 102.12 5.1 52.65 40.58 92.3 79.24 88.55 38.66-3.74 65.87-49.47 60.77-102.12" fill="url(#C)"/></g><path d="M75.915 44.673c-.13 1.328-1.024 2.33-2 2.235-.976-.095-1.663-1.249-1.534-2.578.129-1.329 1.024-2.33 2-2.235.976.095 1.662 1.249 1.534 2.578" fill="#4c0e13"/><path d="M77.581 44.279a1.403 1.403 0 11-2.792-.27 1.403 1.403 0 012.792.27M74.469 45.165a.513.513 0 11-1.022-.099.513.513 0 011.022.1" fill="#fff"/><path d="M79.847 44.591c-.395 2.945 1.038 5.568 3.201 5.857 2.163.29 4.236-1.862 4.63-4.807.395-2.946-1.038-5.568-3.2-5.858-2.163-.29-4.236 1.863-4.631 4.808" fill="#bfe9ea"/><path d="M79.847 44.591c-.376 2.805.989 5.303 3.05 5.58 2.06.276 4.034-1.775 4.41-4.58.376-2.806-.989-5.304-3.05-5.58-2.059-.276-4.034 1.775-4.41 4.58" fill="#fff"/><g clip-path="url(#D)" transform="matrix(.03528 0 0 -.03528 -21.51 149.164)"><path d="M2905.05 2961.71c-7.03-52.43 18.49-99.12 56.98-104.28 38.5-5.16 75.41 33.16 82.44 85.59 7.02 52.43-18.48 99.11-56.99 104.28-38.5 5.16-75.4-33.16-82.43-85.59" fill="url(#E)"/></g><path d="M81.664 44.811c-.177 1.324.467 2.502 1.438 2.633.972.13 1.904-.837 2.08-2.16.178-1.324-.466-2.502-1.437-2.633-.972-.13-1.904.837-2.08 2.16" fill="#4c0e13"/><path d="M84.363 45.136a1.402 1.402 0 102.78.373 1.402 1.402 0 00-2.78-.373M82.96 45.62a.512.512 0 101.015.138.512.512 0 00-1.016-.137" fill="#fff"/><path d="M79.668 57.187l-.007.003c-1.659.452-3.607.668-5.672.266-4.11-.801-5.107-3.59-5.33-5.24l-.003-.043s4.236 1.32 7.354 3.002c3.116 1.686 3.658 2.012 3.658 2.012" fill="#83142e"/><path d="M68.62 50.962l-.175 1.118s-.2 3.911 3.713 5.388c6.054 2.286 12.135-1.939 12.135-1.98 0-.042.625-.858.625-.858s-6.983 4.708-12.539 2.367c-4.517-1.903-3.76-6.035-3.76-6.035" fill="#c2e124"/><path d="M90.222 70.1s-5.488-4.35-10.887-4.848c-5.406-.498-7.94 3.923-7.94 3.923l-.957-.013s-4.113-5.861-4.777-15.503c-.665-9.642-.456-16.248.209-16.79.343-.279 1.928-1.692 4.502-2.956-.416.246-3.744 2.52-3.797 12.288-.057 10.424 2.52 16.628 7.384 17.515 4.86.888 5.695-.11 10.959 2.384 5.183 2.457 5.386 4.358 5.304 4" fill="#8aa123"/><path d="M66.88 36.16s-1.968-5.65-3.256-5.774c-1.288-.125 1.87 5.486 1.87 5.486s-8.311-3.45-9.101-1.663c-.79 1.787 8.312 2.577 8.312 2.577s-6.15.374-6.15 1.371c0 .998 6.969-.23 6.969-.23l1.355-1.767" fill="#4c0e13"/><path d="M91.012 48.284s2.244 10.307 2.41 10.86c.166.555 1.08.915 1.787.956.706.042 1.62-.093 1.652.125.031.218-1.032.347-1.666.326-.634-.02-1.007-.29-1.007-.29s.342.427.966.56c.779.166 1.676-.107 1.79-.004.115.104-.634.606-1.61.582-.71-.017-1.113-.236-1.113-.236s.3.417.974.541c.676.125 1.22-.097 1.427.09.208.187-.758.624-1.475.52-.717-.104-2.037-1.34-2.037-1.34s.644.862.707 1.225c.062.364-.333.634-.333.634s-.156-.644-.54-1.164c-.384-.519-.114-2.047-.145-2.275-.032-.228-2.48-5.985-2.48-5.985s.332-4.82.693-5.125" fill="#9dd520"/><path d="M65.676 48.284s-2.245 10.307-2.41 10.86c-.167.555-1.081.915-1.788.956-.706.042-1.62-.093-1.652.125-.03.218 1.032.347 1.666.326.634-.02 1.008-.29 1.008-.29s-.343.427-.967.56c-.779.166-1.676-.107-1.79-.004-.114.104.634.606 1.61.582.71-.017 1.113-.236 1.113-.236s-.3.417-.974.541c-.676.125-1.22-.097-1.427.09-.208.187.759.624 1.476.52.716-.104 2.036-1.34 2.036-1.34s-.644.862-.707 1.225c-.062.364.333.634.333.634s.156-.644.54-1.164c.385-.519.114-2.047.145-2.275.032-.228 2.48-5.985 2.48-5.985s-.332-4.82-.692-5.125M70.438 69.162s-3.697.438-3.475.827c.222.388 2.868-.416 2.868-.416s-3.053 1.136-2.877 1.468c.175.333 3.379-1.233 3.379-1.233s-2.148 1.538-1.677 1.787c.471.25 2.74-2.42 2.74-2.42l-.958-.013M91.178 69.74s2.814-.388 2.883-.111c.07.277-2.287.36-2.287.36s2.48.18 2.59.581c.111.402-2.909-.25-2.909-.25s1.912.75 1.718 1.068c-.194.318-2.95-1.289-2.95-1.289l.955-.358" fill="#8aa123"/><path d="M84.466 53.928l-.515.748-1.53 2.208-.694-2.258-.08-.256-.412.223-1.353.731-1.443-1.044-.077-.056-.11.026-.78.203-.765-.505-.276-.183-.662-.077-1.297-.15-.166-.342-.056-.116-.38-.047-1.678-.202-.293-.622-.083-.18-.16.067-2.507 1.05.217-2.184.04-.395s1.233 1.216 5.385 2.596c5.277 1.756 9.675.765 9.675.765" fill="#fff"/><path d="M84.466 53.928l-.515.748a30.68 30.68 0 01-2.224-.05l-.08-.256-.412.223a35.635 35.635 0 01-2.796-.313l-.077-.056-.11.026c-.166-.026-.335-.053-.508-.083a14.112 14.112 0 01-1.037-.22l-.276-.182-.662-.077a24.306 24.306 0 01-1.463-.492l-.056-.116-.38-.047a35.773 35.773 0 01-1.971-.824l-.083-.18-.16.067c-1.36-.622-2.29-1.134-2.29-1.134l.04-.395s1.233 1.216 5.385 2.596c5.277 1.756 9.675.765 9.675.765" fill="#bfe9ea"/><path d="M69.532 54.68l1.279-.955-.14 2.278s-.853-.814-1.139-1.324M76.885 57.598l.73-1.868.675 1.657s-.753.218-1.405.21" fill="#fff"/><path d="M81.647 56.334l-.187 1.334.875-1.065-.153-.5-.535.23" fill="#8aa123"/><g clip-path="url(#F)" transform="matrix(.03528 0 0 -.03528 -21.51 149.164)"><path d="M3136.22 2404.56c-8.25 0-14.14 98.17-14.14 203.01 0 102.77 25.74 215.28 36.2 215.28.21 0 .42-.05.62-.14 10.1-4.76-11.95-96.41-17.25-200.66-5.29-104.26 6.95-217.49-5.43-217.49" fill="url(#G)"/></g><g clip-path="url(#H)" transform="matrix(.03528 0 0 -.03528 -21.51 149.164)"><path d="M3163.49 2841.25c-.08 0-.17.01-.26.02-3.94.79-3.57 19.4.83 41.58 4.31 21.69 10.88 38.76 14.86 38.76.09 0 .17-.01.26-.03 3.95-.78 3.58-19.39-.82-41.57-4.31-21.7-10.88-38.76-14.87-38.76" fill="url(#I)"/></g><path d="M69.454 59.502c.272 1.112.131 2.102-.314 2.21-.446.11-1.026-.704-1.298-1.816-.271-1.112-.13-2.102.315-2.211.445-.109 1.026.705 1.297 1.817" fill="#c2e124"/><path d="M69.639 59.457c.271 1.112.13 2.102-.315 2.21-.445.11-1.026-.704-1.297-1.816-.272-1.113-.131-2.102.314-2.21.445-.11 1.026.704 1.298 1.816" fill="#667522"/><path d="M86.57 57.677c-.078.913.156 1.678.521 1.71.366.03.725-.685.803-1.598.078-.913-.156-1.68-.521-1.71-.366-.031-.726.684-.803 1.598" fill="#c2e124"/><path d="M86.418 57.664c-.077.913.156 1.679.522 1.71.365.03.725-.684.802-1.598.078-.913-.155-1.68-.521-1.71-.366-.031-.725.684-.803 1.598" fill="#667522"/><path d="M87.418 60.768c-.051.605.103 1.113.346 1.133.242.021.48-.453.532-1.059.052-.606-.103-1.113-.346-1.134-.242-.02-.48.454-.532 1.06" fill="#c2e124"/><path d="M87.317 60.759c-.05.606.104 1.114.347 1.134.242.02.48-.454.532-1.06.051-.605-.103-1.113-.346-1.134-.243-.02-.48.454-.533 1.06" fill="#667522"/><path d="M70.782 62.572c.14.574.068 1.085-.162 1.141-.23.056-.53-.363-.67-.937-.14-.574-.067-1.085.163-1.141.23-.056.529.363.67.937" fill="#c2e124"/><path d="M70.878 62.55c.14.573.067 1.084-.163 1.14-.23.056-.53-.364-.67-.938s-.067-1.084.162-1.14c.23-.057.53.363.67.937" fill="#667522"/><path d="M69.19 63.218c.1.41.047.775-.117.815-.164.04-.378-.26-.478-.67-.1-.41-.048-.775.116-.815.164-.04.378.26.478.67" fill="#c2e124"/><path d="M69.257 63.201c.1.41.049.775-.116.816-.164.04-.378-.26-.478-.67-.1-.41-.048-.775.116-.816.164-.04.378.26.478.67" fill="#667522"/><path d="M66.911 56.355c.026.435-.094.795-.268.805-.174.011-.336-.333-.362-.767-.026-.434.094-.795.268-.805.174-.01.336.333.362.767" fill="#c2e124"/><path d="M66.983 56.351c.026.434-.094.795-.268.805-.174.01-.336-.333-.362-.767-.026-.435.094-.795.268-.806.174-.01.336.334.362.768" fill="#667522"/><path d="M84.918 52.028s.007.99 0 2.092c-.009 1.101-.258 2.544-.258 2.544s.915-1.193.977-2.44c.062-1.247-.72-2.196-.72-2.196M70.171 48.572s-1.004 1.302-1.434 2.147c-.43.845-.97 2.383-.97 2.383s-.22-2.075.457-3.18c.655-1.07 1.947-1.35 1.947-1.35M69.532 57.438s1.279 1.523 3.913 2.022c2.982.565 4.845-.083 4.845-.083s-2.103 1.177-5.26.665c-2.22-.36-3.498-2.604-3.498-2.604" fill="#8aa123"/></g><g><path d="M4.392 94.362C3.314 97.312.8 98.502.8 98.502s-.389-.226-.98-.658a17.095 17.095 0 01-2.7-2.497 13.367 13.367 0 01-1.766-2.587c-.18-.352-.346-.718-.492-1.1a12.37 12.37 0 01-.632-2.245 11.756 11.756 0 01-.183-2.447l.003-.09c.097-2.503.988-4.291 1.463-4.611.486-.322.898 1.1 3.175 3.598.296.322.622.661.981 1.02.582.572 1.253 1.19 2.035 1.846a38.443 38.443 0 002.28 1.775c.13.096.26.193.393.286a5.283 5.283 0 01.013 3.57" fill="#f79021"/><path d="M-.33 86.885c-.452.46-1.186 1.058-2.27 1.55-1.207.548-2.39.838-3.169.98a11.756 11.756 0 01-.183-2.447l.003-.09c.615.004 1.673-.03 2.723-.272a7.115 7.115 0 001.915-.741c.296.322.622.661.981 1.02M3.135 89.874a11.981 11.981 0 01-2.87 3.504c-1.106.925-2.297 1.573-3.144 1.969a13.367 13.367 0 01-1.766-2.587c.598-.17 1.586-.525 3.002-1.29 1.882-1.02 2.933-2.2 3.348-2.74.44.37.915.752 1.43 1.144" fill="#f0373b"/><path d="M-.698 97.443" fill="#e5d6d5"/><path d="M-.698 97.442c-.419-.336-.894-.75-1.382-1.237a15.8 15.8 0 01-.799-.859c.848-.396 2.038-1.044 3.145-1.968a12.066 12.066 0 001.931-2.036 6.131 6.131 0 001.79-.836c.129.096.258.193.391.286 0 0 .032.074.075.208-.412.287-.781.564-1.095.822-.992.822-2.488 2.954-4.056 5.62" fill="#eb801a"/><path d="M-5.137 91.66a11.955 11.955 0 01-.631-2.245c.13.722.335 1.473.631 2.244" fill="#e5d6d5"/><path d="M-4.643 92.76a11.245 11.245 0 01-.494-1.1 12.37 12.37 0 01-.632-2.245c.343-.063.765-.154 1.234-.284a7.443 7.443 0 003.267 2.127c-.12.072-.246.142-.375.212-1.414.764-2.401 1.12-3 1.29" fill="#eb801a"/><path d="M-5.769 89.415a11.782 11.782 0 01-.183-2.447 8.833 8.833 0 001.416 2.163c-.468.13-.89.221-1.233.284M-2.878 95.346a13.332 13.332 0 01-1.765-2.586c.599-.17 1.586-.526 3-1.29.13-.07.254-.14.375-.212a6.19 6.19 0 001.887.302c.583 0 1.112-.087 1.578-.218a12.066 12.066 0 01-1.931 2.036c-1.107.924-2.297 1.572-3.144 1.968" fill="#ec3033"/><path d="M-3.016 126.483s1.323.499 1.323.77c0 .27-1.87-.146-1.87-.146s.083 1.039-.873.976c-.956-.062-1.185-.934-1.185-.934s-1.932.727-2.722.249c-.79-.479.894-.81.894-.81s-2.224-.105-2.348-.5c-.125-.394 2.251-.602 2.251-.602l4.53.997M22.958 130.889s-1.648-.214-1.898.288 2.244.584 2.244.584 1.123 1.33 2.286 1.372c1.164.042 1.172-1.33 1.172-1.33s2.9 1.08 3.94.706c1.039-.373-.688-1.332-.688-1.332s2.018.537 2.018 0c0-.538-3.09-.87-3.09-.87l-5.984.582" fill="#382f4c"/><path d="M-1.144 105.335s-5.794-4.94-6.134-5.867c-.34-.926-.145-2.042-.025-3.212.18-1.738.533-1.694.533-1.898-.001-.367-.747-.41-1.136.25-.39.66-.47 1.649-.47 1.649s-2.276-2.79-2.703-2.688c-.426.102.853 2.327.853 2.327s-2.37-1.513-2.737-1.26c-.366.252 1.625 1.926 1.625 1.926s-1.905-.775-2.248-.624c-.343.15 1.612 1.35 1.612 1.35s-1.48.08-1.474.465c.003.208 1.83.782 2.133.925l2.889 1.364 4.547 9.678 2.735-4.385" fill="#349e7c"/><g clip-path="url(#J)" transform="matrix(.03528 0 0 -.03528 -31.716 150.298)"><path d="M1625.52 542.012c-40.65 0-75.73 8.187-75.73 8.187s-59.56 127.321-107.34 155.5c-17.95 10.539-139.16 26-257.66 36.031-69.89 5.911-138.84 9.93-185.11 9.93-24.043 0-41.953-1.09-50.696-3.551-10.523-3-22.609-7.961-35.132-13.929-47.043-22.43-100.297-59.11-100.297-59.11s-5.067-.488-13.856-.488c-11.98 0-30.886.91-53.336 5.207-34.683 6.59-61.261 23.551-61.261 23.551s-.18 4.832-.457 13.512c-1.442 45.589-5.481 197.597.457 316.348 4.738 94.76 103.714 311.31 194.144 465.05.008.02 0 0 .008.01 44.461 75.59 86.859 136.01 114.969 159.31 8.897 7.33 19.357 15.18 31.037 23.31 18.63 12.96 40.39 26.65 63.96 40.2 15.37 8.84 31.5 17.63 48.03 26.14-6.16-70.23 30.58-139.15 30.58-139.15s39.97 71.46 132.9 111.23c52.25 22.35 102.93 27.24 137.3 27.24 26.75 0 43.62-2.97 43.62-2.97s.01.03.02.09c24.04-29.84 49.57-67.25 74.92-110.96 0-.01-.01-.01-.01-.01l-.29-.67c-1.46-3.84-8.75-23.74-8.76-50.91 0-14.86 2.17-31.89 8.67-49.65 30.08-82.35 99.68-116.32 101.74-117.31 24.66-67.51 46-140.96 61.49-218.38 37.73-188.67 33.79-360.809 22.69-477.141-8.99-94.309-22.69-151.938-22.69-151.938-24.56-19.332-61.05-24.679-93.91-24.679m73.54 113.636c-3.9 0-7.07-14.148-7.07-31.609 0-17.449 3.17-31.609 7.07-31.609 3.9 0 7.07 14.16 7.07 31.609 0 17.461-3.17 31.609-7.07 31.609m.18 427.662c-3.32 0-6.65-2.25-6.84-6.47-1.94-44.11-4.27-117.301-3.55-203.711.63-76.5 2.7-149.899 4.48-201.348.15-4.312 3.48-6.543 6.8-6.543 3.07 0 6.13 1.903 6.68 5.844 7.79 56.008 17.56 135.387 20.91 202.047 3.79 75.332-10.94 156.561-21.94 204.931-.81 3.56-3.67 5.25-6.54 5.25" fill="url(#K)"/></g><path d="M20.565 102.568c-.634 3.42-3.274 5.798-5.898 5.31-2.623-.486-4.235-3.652-3.6-7.072.633-3.419 3.274-5.797 5.897-5.31 2.623.486 4.236 3.653 3.601 7.072" fill="#349e7c"/><path d="M19.604 102.585a7.323 7.323 0 01-.236.825 6.919 6.919 0 01-.828 1.669c-.659.964-1.52 1.659-2.444 1.968a3.248 3.248 0 01-1.725.103c-2.215-.495-3.461-3.344-2.787-6.36.675-3.016 3.016-5.06 5.23-4.565 2.218.496 3.465 3.342 2.79 6.36" fill="#bfe9ea"/><path d="M11.583 100.79c-.642 2.874.547 5.585 2.657 6.057 2.11.472 4.341-1.475 4.984-4.348.643-2.873-.547-5.585-2.657-6.057-2.11-.472-4.341 1.475-4.984 4.348" fill="#fff"/><g clip-path="url(#L)" transform="matrix(.03528 0 0 -.03528 -31.716 150.298)"><path d="M1448.05 1329.1c-5.94-17.43-13.95-33.36-23.47-47.3-18.66-27.34-43.07-47.03-69.27-55.79-13.29-4.44-27.05-6.04-40.71-4.34-18.1 23.37-18.95 63.05.19 99.04l.56 1.05c4.81 8.76 10.37 16.77 16.68 23.65 25.45 28.55 60.89 40.05 87.55 25.54 15.18-8.2 24.89-23.47 28.47-41.85" fill="url(#M)"/></g><path d="M18.54 105.079c-.659.964-1.52 1.659-2.444 1.968a1.242 1.242 0 01-.432-.14c-.838-.451-1.014-1.745-.396-2.882.615-1.137 1.795-1.696 2.63-1.24.695.376.935 1.33.642 2.294" fill="#4c0e13"/><path d="M15.842 104.23a.763.763 0 101.474.395.763.763 0 00-1.474-.395M14.42 103.107a.534.534 0 101.031.277.534.534 0 00-1.031-.277" fill="#fff"/><path d="M7.94 101.778c-.958 3.33-3.547 5.416-5.782 4.66-2.235-.756-3.271-4.068-2.313-7.397.958-3.33 3.548-5.416 5.783-4.66 2.236.755 3.271 4.067 2.313 7.397" fill="#349e7c"/><path d="M7.855 101.892c-.088.274-.19.54-.304.794a7.331 7.331 0 01-.92 1.571c-.69.89-1.525 1.49-2.369 1.701a2.545 2.545 0 01-1.52-.077C.863 105.159.11 102.2 1.056 99.276c.946-2.925 3.234-4.711 5.11-3.99 1.88.723 2.635 3.678 1.688 6.606" fill="#bfe9ea"/><path d="M1.056 99.276c-.901 2.786-.182 5.602 1.607 6.29 1.789.688 3.97-1.013 4.87-3.799.901-2.786.182-5.603-1.607-6.29-1.788-.689-3.969 1.012-4.87 3.799" fill="#fff"/><g clip-path="url(#N)" transform="matrix(.03528 0 0 -.03528 -31.716 150.298)"><path d="M1113.1 1349.62c-7.25-16.7-16.13-31.68-26.1-44.54-19.54-25.21-43.21-42.23-67.14-48.21-12.14-3.01-24.356-3.17-36.106-.06-13.055 25.08-9.109 64.58 11.867 98.34l.613.96c5.236 8.21 11.046 15.58 17.376 21.76 25.62 25.7 57.95 33.44 79.55 16.26 12.3-9.73 18.98-25.89 19.94-44.51" fill="url(#O)"/></g><path d="M6.63 104.257c-.689.89-1.524 1.49-2.368 1.701a1.012 1.012 0 01-.361-.184c-.68-.536-.68-1.838-.005-2.903.672-1.065 1.769-1.498 2.445-.958.563.445.66 1.417.29 2.344" fill="#4c0e13"/><path d="M4.373 103.134c-.144.393.018.833.36.984.343.15.738-.045.881-.438.144-.393-.018-.833-.36-.984-.343-.15-.738.045-.881.438M3.262 101.872c-.1.274.013.582.253.688.24.105.515-.032.616-.306.1-.276-.013-.584-.253-.69-.24-.104-.516.032-.616.308" fill="#fff"/><path d="M15.54 117.427c-.047-.152-.542-1.436-4.485-2.836-4.206-1.492-8.106-1.206-8.106-1.206s.064-.821.31-1.899c.541-2.354 1.971-5.931 5.595-4.79 3.967 1.25 5.752 6.696 6.39 9.322.173.704.263 1.203.29 1.37l.006.04" fill="#4c0e13"/><path d="M15.54 117.427c-.047-.152-.542-1.436-4.485-2.836-4.206-1.492-8.106-1.206-8.106-1.206l.112-.88s2.96-1.131 6.184-.345c3.576.873 6 3.858 6 3.858l.288 1.37.007.04" fill="#83142e"/><path d="M12.093 109.425l-.638.488-1.33 1.02-.342-3.111-.043-.406-.52.093-1.103.196-.289-.555-.043-.08-.11.074-.845.561-.166-.428-.126-.32-.253.46-1.589 2.882v-2.038s.845-1.593 2.716-1.593c1.397 0 2.49.569 3.269 1.19l.007.007c.212.17.402.342.565.509a5.91 5.91 0 01.84 1.05M2.535 113.345l-.706-4.322 3.81 4.53zM10.546 114.348l5.58-3.414-2.079 5.528z" fill="#fff"/><path d="M.79 113.971l1.695-.932s2.392-.555 6.139.285c7.321 1.642 7.979 6.172 7.979 6.172s-1.828-4.24-8.374-5.3c-3.975-.643-6.088.271-6.088.271l-1.35-.496" fill="#4c0e13"/><path d="M12.093 109.425l-.638.488c-.133-.353-.605-1.386-1.672-2.091l-.043-.406-.52.093a4.083 4.083 0 00-1.392-.359l-.043-.08-.11.074a3.23 3.23 0 00-1.01.133l-.127-.32-.253.46c-1.06.471-1.589 1.386-1.589 1.386v-.542s.845-1.593 2.716-1.593c1.397 0 2.49.569 3.269 1.19l.007.007c.192.166.385.34.565.509a5.91 5.91 0 01.84 1.05" fill="#87d4d9"/><path d="M3.39 110.88l-.31-.37s.768-4.552 4.287-4.552c4.761 0 7.016 5.994 7.016 5.994l-.396.29s-2.586-5.967-6.588-5.76c-3.3.171-4.009 4.397-4.009 4.397" fill="#2f8f72"/><path d="M21.3 95.435s-.718-1.482-2.27-2.808c-1.55-1.327-2.353-1.48-2.353-1.48l2.103-.02-.67-.765s1.91.103 2.967 1.424c1.057 1.321.98 3.332.98 3.332l-.63-.807-.126 1.124" fill="#4c0e13"/><path d="M33.486 90.233l-.02.213a11.926 11.926 0 01-1.23 4.18 13 13 0 01-1.456 2.237c-1.852 2.304-4.006 3.547-4.006 3.547s-2.514-1.19-3.591-4.139c-.648-1.772-.077-3.338.003-3.547l.01-.024c.096-.066.19-.136.283-.203.366-.262.711-.522 1.044-.778.378-.289.738-.575 1.077-.854a33.185 33.185 0 002.617-2.384c.315-.323.601-.632.86-.924 2.109-2.364 2.514-3.694 2.983-3.381.452.299 1.276 1.915 1.443 4.205.04.579.04 1.197-.017 1.852" fill="#f79021"/><g clip-path="url(#P)" transform="matrix(.03528 0 0 -.03528 -31.716 150.298)"><path d="M1657.66 1286.91s199.48 82.46 216.76 104.46c17.28 21.99 22.38 59.25 33.63 90.64 11.19 31.22-1.63 48.36 1.99 52.85 6.55 8.12 19.9-2.58 24.62-23.79 4.71-21.2-2.52-42.73-2.52-42.73s95.98 60.61 106.58 54.12c10.6-6.47-53.56-60.6-53.56-60.6s93.02 28.21 100.68 18.19c7.66-10.01-76.53-45.88-76.53-45.88s82.74 4.26 90.67-2.81c7.92-7.07-80.9-27.88-80.9-27.88s53.02-9.38 49.48-19.68c-1.92-5.61-68.98-5.29-78.4-6.47-9.42-1.18-89.82-11.48-89.82-11.48L1693 1144.77s-37.24 9.57-52.06 62.6c-14.92 53.41 16.72 79.54 16.72 79.54" fill="url(#Q)"/></g><path d="M22.957 130.888s-2.101-4.492-3.787-5.486c-1.2-.705-15.5-2.035-17.408-1.496-1.766.502-4.778 2.577-4.778 2.577s-.997.096-2.37-.167c-1.224-.232-2.161-.83-2.161-.83s-.25-6.65 0-11.637c.249-4.987 7.896-19.533 10.905-22.027.814-.671 1.998-1.462 3.351-2.24l2.537-.629.236 4.615s-4.08-.658-6.404.436c-2.32 1.093-6.01 8.644-6.177 16.567-.166 7.926 3.012 10.253 9.761 11.194 6.753.941 11.407 1.496 13.456 2.883 2.051 1.382 2.839 6.24 2.839 6.24" fill="#2f8f72"/><path d="M9.237 89.608s-1.462.505-2.847 1.1c-1.14.49-2.397 1.33-2.397 1.33l.596-.913-.743.139s.547-1.281 1.92-1.996c1.697-.883 3.716-.757 3.716-.757l-1.105.742.86.355" fill="#4c0e13"/><path d="M20.553 88.788s-3.104-.546-6.382.857c-3.279 1.403-4.689 3.924-4.689 3.924s-2.316-4.345-.237-7.337c1.061-1.528 2.59-1.474 2.59-1.474l-2.681-.852s2.193-1.33 4.945-.706c1.684.381 2.14 1.018 2.14 1.018l-1.304-2.452s3.864.294 5.336 2.535c1.06 1.614.282 4.487.282 4.487" fill="#382f4c"/><path d="M9.66 90.804s-.14-1.58.748-2.913c.993-1.493 2.306-1.742 2.306-1.742l-2.348.229s1.233-1.13 3.853-1.13c.304 0 .626.015.968.05 3.243.32 4.6 2.45 4.6 2.45l-1.15-.56.519.914s-1.259-.497-3.115-.497c-.583 0-1.226.05-1.907.178-2.847.54-4.474 3.02-4.474 3.02" fill="#594b72"/><g clip-path="url(#R)" transform="matrix(.03528 0 0 -.03528 -31.716 150.298)"><path d="M1700.13 665.238c-3.32 0-6.65 2.231-6.8 6.543-1.78 51.449-3.85 124.848-4.48 201.348-.72 86.41 1.61 159.601 3.55 203.711.19 4.22 3.52 6.47 6.84 6.47 2.87 0 5.73-1.69 6.54-5.25 11-48.37 25.73-129.599 21.94-204.931-3.35-66.66-13.12-146.039-20.91-202.047-.55-3.941-3.61-5.844-6.68-5.844" fill="url(#S)"/></g><g clip-path="url(#T)" transform="matrix(.03528 0 0 -.03528 -31.716 150.298)"><path d="M1699.06 592.43c-3.9 0-7.07 14.16-7.07 31.609 0 17.461 3.17 31.609 7.07 31.609 3.9 0 7.07-14.148 7.07-31.609 0-17.449-3.17-31.609-7.07-31.609" fill="url(#U)"/></g><path d="M4.04 115.836s2.101-.612 5.065.341c2.965.954 3.644 1.876 3.644 1.876l-8.708-2.217" fill="#2f8f72"/><path d="M32.236 94.626a13 13 0 01-1.456 2.237c-.505-.12-1.686-.522-3.431-1.862-2.38-1.829-2.826-3.282-2.826-3.282.379-.289.738-.575 1.077-.854.43.578 1.466 1.845 2.942 2.703 1.39.811 2.92 1.011 3.694 1.058M33.486 90.233c-.625.084-1.533.093-2.616-.22-1.33-.385-2.198-1.073-2.653-1.532.316-.323.601-.632.86-.924.426.23 1.078.498 2.042.711 1.027.227 1.819.21 2.384.113.04.579.04 1.197-.017 1.852" fill="#f0373b"/><path d="M26.774 100.41h-.001c-.073-.035-2.528-1.234-3.59-4.139a5.081 5.081 0 01-.305-1.751c0-.959.257-1.66.309-1.796l.292-.227s.443.11 1.146.214c-.027.132.078.275.22.275a.238.238 0 00.1-.023c.074-.034.15-.07.227-.108.424.573 1.103 1.321 2.177 2.146 1.744 1.339 2.924 1.742 3.43 1.862-1.83 2.278-3.957 3.52-4.004 3.547h-.001" fill="#eb801a"/><path d="M31.498 95.884c.264-.395.513-.815.738-1.258a11.927 11.927 0 001.23-4.18 11.926 11.926 0 01-1.968 5.438" fill="#e5d6d5"/><path d="M32.236 94.626c-.774-.047-2.304-.247-3.694-1.058a8.424 8.424 0 01-.99-.678c1.014-.036 2.088-.19 3.055-.569 1.393-.545 2.297-1.26 2.86-1.875a11.926 11.926 0 01-1.23 4.18" fill="#eb801a"/><path d="M30.779 96.863c-.506-.12-1.686-.523-3.43-1.862-1.074-.825-1.754-1.573-2.177-2.146l.116-.058a16.348 16.348 0 002.264.093c.303.24.634.47.99.678 1.39.811 2.92 1.011 3.694 1.058-.225.443-.474.863-.738 1.258-.23.345-.472.671-.719.978" fill="#ec3033"/><path d="M25.116 92.777a18.797 18.797 0 01-.492-.066.224.224 0 01.086-.133l.178-.138c.065.103.14.216.227.337m1.49-.74a11.05 11.05 0 01-.524-.57 26.467 26.467 0 002.622-2.554c.193.152.42.31.68.464-.293.384-.626.78-1.003 1.178a10.288 10.288 0 01-1.776 1.482m3.68-3.988a7.849 7.849 0 01-.63-.223c.268-.318.51-.614.724-.88a.217.217 0 01.172-.088c.15 0 .293.158.206.332a12.99 12.99 0 01-.472.86" fill="#fcd69a"/><path d="M25.288 92.797a48.53 48.53 0 01-.172-.02 6.584 6.584 0 01-.228-.337c.364-.284.77-.612 1.193-.973.151.177.326.37.523.57a12.44 12.44 0 01-1.316.76M29.383 89.377a6.041 6.041 0 01-.68-.464c.344-.38.662-.746.951-1.087.185.075.394.15.63.223-.248.415-.545.863-.9 1.328" fill="#f9a8ae"/><path d="M24.845 92.986c-.143 0-.247-.143-.22-.275.151.023.316.045.49.066l.057.078c-.077.038-.154.074-.228.108a.238.238 0 01-.1.023" fill="#f5cf9a"/><path d="M25.172 92.855l-.056-.078.172.02-.116.058" fill="#f7a8ac"/><path d="M.596 89.906c-.509-.318-1.05-.707-1.59-1.175a7.243 7.243 0 01-.741-.75c.279-.169.525-.34.74-.508.12.127.24.254.364.38.578.587 1.17 1.121 1.718 1.584a9.935 9.935 0 01-.49.47m-3.367-3.422a11.643 11.643 0 01-.53-1.072c-.08-.183.07-.34.227-.34.068 0 .138.03.19.101.237.326.51.685.815 1.061a7.257 7.257 0 01-.702.25" fill="#fcd69a"/><path d="M-1.735 87.98a9.296 9.296 0 01-1.035-1.495c.256-.076.49-.162.702-.25.325.402.685.822 1.074 1.238a7.618 7.618 0 01-.741.507M1.718 90.504a.25.25 0 01-.114-.029 12.845 12.845 0 01-1.008-.569c.184-.165.348-.322.491-.47.272.23.532.44.773.631.196.154.063.437-.142.437" fill="#f9a8ae"/></g><g><path d="M77.976 128.85s8.596 6.112 9.092 6.41c.496.298 1.415-.051 1.965-.496.55-.444.865-.873 1.035-.733.17.141-.259.665-.742 1.076-.482.41-.941.463-.941.463s.541.086 1.092-.235c.688-.402 1.167-1.208 1.322-1.208.154 0-.062.874-.8 1.514-.536.465-.981.574-.981.574s.501.107 1.085-.255c.583-.362.836-.893 1.115-.894.28-.001-.302.948-.989 1.381-.612.387-1.704.362-1.704.362s.6.218.89.445c.292.227.181.692.181.692s-.549-.371-1.182-.497c-.634-.125-1.462-1.437-1.64-1.585-.176-.148-5.86-2.758-5.86-2.758s-3-3.789-2.938-4.257M75.134 129.016s-8.596 6.112-9.092 6.41c-.496.298-1.415-.05-1.965-.495s-.827-.83-.997-.689c-.17.14.221.62.704 1.031.483.411.94.463.94.463s-.54.086-1.091-.235c-.689-.401-1.167-1.208-1.322-1.208-.154 0 .061.874.8 1.515.536.465.981.573.981.573s-.501.107-1.085-.255c-.583-.363-.835-.892-1.115-.893-.28-.002.316.866.88 1.32.628.508 1.907.437 1.907.437s-.694.203-.985.43c-.29.227-.18.693-.18.693s.548-.372 1.182-.498c.634-.125 1.462-1.437 1.64-1.585.176-.148 5.861-2.757 5.861-2.757s2.999-3.79 2.937-4.257" fill="#58154c"/><path d="M62.115 112.383l.023.146a8.269 8.269 0 001.026 2.835 8.98 8.98 0 001.1 1.484c1.378 1.513 2.919 2.28 2.919 2.28s1.686-.928 2.305-3.01a3.658 3.658 0 00-.153-2.45l-.008-.017c-.069-.041-.136-.086-.203-.128-.264-.165-.514-.33-.755-.493a26.447 26.447 0 01-.78-.545 23.01 23.01 0 01-1.908-1.535 17.68 17.68 0 01-.634-.602c-1.556-1.544-1.893-2.446-2.203-2.21-.3.226-.801 1.377-.82 2.966-.002.402.024.829.09 1.279" fill="#f4711f"/><path d="M63.164 115.364a8.98 8.98 0 001.1 1.484c.345-.105 1.143-.432 2.292-1.431 1.567-1.365 1.813-2.387 1.813-2.387a26.447 26.447 0 01-.78-.545c-.272.418-.935 1.337-1.918 1.992-.925.619-1.973.822-2.507.887M62.115 112.383c.435.03 1.063 0 1.798-.262a4.26 4.26 0 001.768-1.171 17.68 17.68 0 01-.634-.602c-.284.176-.723.39-1.38.577-.7.2-1.248.222-1.642.18-.003.4.023.828.09 1.278" fill="#f6f57a"/><path d="M63.745 116.225a8.216 8.216 0 01-1.607-3.696 8.269 8.269 0 001.026 2.835c.18.305.375.592.58.86" fill="#e5d6d5"/><path d="M66.2 118.527a11.389 11.389 0 01-1.935-1.68c.345-.104 1.143-.432 2.291-1.43.707-.616 1.145-1.161 1.413-1.575l.162.065a.163.163 0 00.06.012c.104 0 .175-.107.15-.2.481-.102.783-.196.783-.196l.141.096c-1.12.493-1.43 1.186-1.43 1.186l.15-.01c-.917.662-1.537 1.223-1.618 1.541-.062.248-.12 1.035-.168 2.191m-3.035-3.163a8.269 8.269 0 01-1.027-2.835c.415.401 1.07.857 2.055 1.174.61.197 1.271.267 1.905.267.077 0 .154-.001.23-.003-.2.178-.418.352-.656.51-.925.619-1.973.822-2.507.887" fill="#ef6618"/><path d="M64.265 116.848a9.602 9.602 0 01-.52-.623 8.556 8.556 0 01-.58-.861c.533-.065 1.58-.268 2.506-.887.238-.158.456-.332.656-.51.57-.015 1.109-.082 1.56-.16l.082.035c-.268.414-.706.96-1.413 1.575-1.148.998-1.946 1.326-2.29 1.43" fill="#e1d36b"/><path d="M68.005 113.786a4.66 4.66 0 00.142-.243l.129.088a.154.154 0 01.065.088c-.104.023-.216.045-.336.067m-1.06-.449a7.098 7.098 0 01-1.289-.948c-.277-.26-.524-.518-.743-.771.174-.117.323-.236.45-.35a18.455 18.455 0 001.919 1.653c-.097.13-.21.27-.337.416m-2.71-2.598a9.035 9.035 0 01-.363-.574c-.07-.12.03-.238.137-.238.04 0 .08.016.114.053.159.175.339.37.537.578-.124.06-.266.12-.426.18" fill="#fbc795"/><path d="M67.886 113.807a8.575 8.575 0 01-.94-.47c.127-.146.24-.287.336-.416.308.232.602.441.865.622-.04.074-.087.155-.142.243a4.847 4.847 0 01-.119.02M64.913 111.618a9.835 9.835 0 01-.679-.88c.16-.06.302-.12.426-.18.214.224.45.463.704.71a4.191 4.191 0 01-.45.35" fill="#fbfbd0"/><path d="M68.192 113.92a.164.164 0 01-.061-.013c-.053-.02-.107-.043-.162-.065l.036-.056c.12-.022.232-.044.336-.067.025.093-.046.2-.15.2" fill="#f6c397"/><path d="M67.969 113.842a7.1 7.1 0 01-.083-.035l.119-.021a2.863 2.863 0 01-.036.056" fill="#f4efc5"/><g clip-path="url(#V)" transform="matrix(.03528 0 0 -.03528 -30.582 171.842)"><path d="M2838.47 571.969h-29.5s-1.08 3.332-2.97 9.679c-10.49 35.321-45.83 164.071-57.82 333.184-1.97 28.047-3.58 60.547-4.85 95.778-.28 7.86-.55 15.87-.8 23.99-2.43 78.67-3.32 168.36-3.02 251.74.18 89.12 1.67 171.16 3.9 224.96 1.36 32.78 2.99 55.08 4.77 62.11 2.29 9.01 19.85 24.93 45.87 43.67l4.99.32s-10.51-22.18-11.77-35.8c0 0 26.1 19.78 52.54 27 31.17 8.53 58.58 9.11 65.43 9.11 1.07 0 1.64-.01 1.64-.01l-14.44 8.28s5.45 2.16 12.33 11.83c5.35 7.51 13.75 32.54 13.75 32.54s-11.25 0-58.83-10.67c62.16 37.13 136.07 73.96 182.35 86.76 10.65 3.01 19.79 4.71 27.04 4.81.37.01.74.01 1.11.01 45.9 0 118.69-49.72 168.4-92.99-49.71 43.27-122.5 92.99-168.4 92.99-.37 0-.74 0-1.11-.01-7.25-.1-16.39-1.8-27.04-4.81 0 0 45.58-28.32 94.01-79.04-6.59 1.8-13.6 3.33-21.04 4.49-47.29 7.42-89.21 13.1-89.21 13.1s12.22-29.15 19.99-37.91c9.99-11.26 17.92-13.78 17.92-13.78l-20.99-9.66s58.55-3.79 97.49-10.57c19.92-3.48 39.45-11.63 53.77-18.76 24.49-38.21 44.36-82.71 52.09-132.48 27.15-174.74-10.55-648.31-48.25-702.498-37.69-54.191-302.8-64.852-326.37-84.82-23.55-19.981-32.98-102.543-32.98-102.543m14.42 637.771s31.49-88.11 98.36-106.42c10.93-2.99 21.48-4.25 31.48-4.25 51.16 0 87.9 32.8 87.9 32.8s-38.8-21.94-82.67-21.94c-14.66 0-29.89 2.45-44.43 9-57.25 25.76-90.64 90.81-90.64 90.81m370.75-551.72c-8.13 3.859-44.27 5.57-90.23 5.57-30.23 0-64.7-.738-98.25-2.09-16.57-.66-32.91-1.469-48.4-2.422 46.86 2.863 101.56 4.512 146.75 4.512 45.91 0 82.02-1.699 90.13-5.57" fill="url(#W)"/></g><path d="M69.292 141.226c.183 1.276-.084 2.37-.595 2.444-.511.073-1.074-.903-1.257-2.18-.182-1.277.084-2.37.595-2.444.511-.073 1.074.903 1.257 2.18" fill="#58154c"/><path d="M69.498 141.196c.183 1.277-.083 2.371-.595 2.445-.51.073-1.073-.903-1.256-2.18-.183-1.277.084-2.372.595-2.445.511-.073 1.074.903 1.256 2.18" fill="#f4711f"/><path d="M67.781 136.281c.08.558-.045 1.037-.278 1.07-.233.033-.487-.391-.566-.949-.08-.557.044-1.036.277-1.07.234-.033.488.392.567.949" fill="#58154c"/><path d="M67.876 136.268c.08.557-.045 1.036-.278 1.07-.234.033-.487-.392-.567-.95-.08-.557.044-1.036.278-1.07.233-.033.487.392.567.95" fill="#f4711f"/><path d="M69.152 134.508c.08.557-.045 1.036-.278 1.07-.233.033-.487-.392-.567-.95-.08-.557.045-1.036.278-1.07.234-.033.487.392.567.95" fill="#58154c"/><path d="M69.246 134.494c.08.558-.044 1.037-.278 1.07-.233.034-.486-.391-.567-.949-.08-.557.045-1.037.278-1.07.234-.033.488.392.567.95" fill="#f4711f"/><path d="M67.7 127.8c.071.506-.041.94-.253.971-.211.03-.441-.355-.514-.86-.072-.506.04-.94.252-.97.212-.03.442.354.514.86" fill="#58154c"/><path d="M67.785 127.789c.072.505-.04.94-.252.97-.212.03-.442-.355-.514-.86-.073-.506.04-.94.252-.97.211-.031.441.354.514.86" fill="#f4711f"/><path d="M67.401 130.212c.035.246-.02.457-.123.471-.102.015-.214-.172-.25-.418-.034-.246.02-.457.123-.471.103-.015.215.172.25.418" fill="#58154c"/><path d="M67.442 130.206c.036.246-.02.457-.122.472-.103.014-.215-.173-.25-.419-.035-.245.02-.457.122-.472.103-.014.215.173.25.42" fill="#f4711f"/><path d="M69.493 137.823c.062.44-.036.818-.22.845-.184.026-.384-.31-.447-.749-.063-.44.035-.818.22-.844.183-.026.383.309.447.748" fill="#58154c"/><path d="M69.567 137.813c.062.44-.036.817-.22.844-.184.026-.384-.309-.447-.749s.036-.817.22-.844c.184-.026.384.31.447.749" fill="#f4711f"/><path d="M82.825 121.345c0 3.428-2.014 6.207-4.499 6.207-2.484 0-4.498-2.78-4.498-6.207 0-3.428 2.014-6.207 4.498-6.207 2.485 0 4.5 2.78 4.5 6.207M73.339 121.873c.265 3.418-1.068 6.309-2.978 6.457-1.91.148-3.672-2.503-3.937-5.92-.266-3.418 1.068-6.309 2.977-6.457 1.91-.148 3.673 2.503 3.938 5.92" fill="#58154c"/><path d="M74.417 121.662c.18 3.022 1.94 5.306 3.93 5.1 1.988-.206 3.454-2.824 3.272-5.846-.181-3.024-1.94-5.307-3.93-5.1-1.989.205-3.454 2.823-3.272 5.846" fill="#bfe9ea"/><path d="M74.417 121.662c.172 2.88 1.848 5.054 3.743 4.858 1.894-.196 3.29-2.69 3.117-5.57-.172-2.879-1.848-5.054-3.742-4.857-1.895.196-3.291 2.69-3.118 5.569" fill="#fff"/><g clip-path="url(#X)" transform="matrix(.03528 0 0 -.03528 -30.582 171.842)"><path d="M3018.66 1426.26c3.23-53.81 34.55-94.46 69.96-90.79 35.41 3.66 61.5 50.26 58.26 104.07-3.22 53.82-34.55 94.46-69.95 90.79-35.41-3.66-61.49-50.26-58.27-104.07" fill="url(#Y)"/></g><path d="M76.552 121.499c.082 1.358.872 2.384 1.766 2.291.894-.093 1.552-1.269 1.47-2.627-.081-1.358-.872-2.384-1.766-2.29-.893.091-1.551 1.267-1.47 2.626" fill="#4c0e13"/><path d="M78.62 120.405c.047.788.658 1.368 1.364 1.295.706-.073 1.24-.772 1.193-1.56-.048-.787-.658-1.367-1.364-1.294-.707.073-1.24.772-1.193 1.56M77.859 122.008c.017.289.24.5.499.473.258-.026.453-.282.436-.57-.017-.288-.241-.5-.5-.473-.257.026-.453.282-.435.57" fill="#fff"/><path d="M67.336 123.036c.473 2.817 2.138 4.748 3.718 4.314 1.58-.433 2.476-3.068 2.003-5.885-.473-2.816-2.136-4.748-3.716-4.314-1.58.434-2.477 3.07-2.005 5.885" fill="#bfe9ea"/><path d="M67.336 123.036c.45 2.684 2.036 4.523 3.541 4.11 1.505-.413 2.36-2.923 1.91-5.607-.451-2.682-2.037-4.522-3.541-4.109-1.505.414-2.36 2.924-1.91 5.606" fill="#fff"/><g clip-path="url(#Z)" transform="matrix(.03528 0 0 -.03528 -30.582 171.842)"><path d="M2829.51 1394.07c8.42-50.13 38.05-84.52 66.17-76.79 28.13 7.72 44.1 54.62 35.68 104.76-8.42 50.14-38.05 84.52-66.16 76.8-28.13-7.73-44.11-54.63-35.69-104.77" fill="url(#aa)"/></g><path d="M69.751 122.558c.213 1.266.96 2.134 1.67 1.938.71-.194 1.113-1.378.9-2.644-.212-1.265-.96-2.133-1.67-1.938-.71.195-1.112 1.379-.9 2.644" fill="#4c0e13"/><path d="M70.697 121.7c.122.734.677 1.204 1.238 1.05.56-.154.916-.874.793-1.608-.124-.734-.678-1.204-1.24-1.05-.56.153-.915.874-.791 1.608M70.16 123.097c.046.268.248.44.454.384.205-.056.335-.32.29-.588-.045-.27-.248-.441-.454-.385-.205.057-.335.32-.29.589" fill="#fff"/><path d="M86.465 151.206l-.997.748s-1.453-2.91-2.327-3.325c-.871-.415-10.885-.123-11.97.416-1.077.538-1.618 2.62-1.618 2.62s.332-2.913 1.163-3.618c.832-.704 10.184-1.08 11.514-2.992s2.66-18.618 1.702-24.783c-.957-6.163-7.198-10.04-7.198-10.04.376-.106.698-.166.954-.17 2.42-.043 7.035 3.947 7.78 5.154.752 1.206.708 26.056.997 29.59.293 3.534 0 6.4 0 6.4" fill="#58154c"/><path d="M90.872 112.079l-.023.146a8.262 8.262 0 01-1.026 2.835 9.009 9.009 0 01-1.1 1.483c-1.378 1.513-2.919 2.281-2.919 2.281s-1.686-.928-2.305-3.01a3.665 3.665 0 01.153-2.452l.008-.015c.069-.042.136-.086.203-.128a27.636 27.636 0 001.535-1.038c.76-.55 1.386-1.065 1.908-1.536.232-.209.442-.41.634-.602 1.556-1.544 1.893-2.445 2.203-2.209.3.226.8 1.377.819 2.966a8.22 8.22 0 01-.09 1.279" fill="#f4711f"/><path d="M89.823 115.06a9.009 9.009 0 01-1.1 1.483c-.345-.104-1.143-.432-2.292-1.431-1.567-1.364-1.813-2.386-1.813-2.386.273-.184.533-.366.78-.545.272.418.934 1.337 1.918 1.992.925.619 1.973.821 2.507.887M90.872 112.079c-.435.03-1.063 0-1.798-.262a4.264 4.264 0 01-1.768-1.172c.232-.209.442-.41.634-.602.284.177.723.39 1.38.578.7.2 1.248.222 1.642.18a8.22 8.22 0 01-.09 1.278" fill="#f6f57a"/><path d="M85.804 118.824h.001" fill="#571141"/><path d="M89.272 115.88c.195-.256.38-.53.55-.82a8.262 8.262 0 001.027-2.835 8.262 8.262 0 01-1.577 3.656" fill="#e5d6d5"/><path d="M85.804 118.824s-1.686-.928-2.305-3.01a3.487 3.487 0 01-.144-1.001c.001-.777.25-1.349.297-1.45l.211-.144s.302.094.782.196c-.024.093.047.2.15.2.02 0 .04-.004.061-.012.053-.02.107-.043.162-.066.268.414.706.96 1.413 1.575 1.148.999 1.946 1.327 2.29 1.431-1.36 1.497-2.882 2.264-2.916 2.281m4.018-3.764c-.534-.066-1.582-.268-2.507-.887a5.82 5.82 0 01-.656-.51c.076.002.153.003.23.003.634 0 1.295-.07 1.905-.267.985-.317 1.64-.773 2.054-1.174a8.262 8.262 0 01-1.026 2.835" fill="#ef6618"/><path d="M88.721 116.543c-.344-.104-1.142-.432-2.29-1.431-.707-.615-1.145-1.16-1.413-1.575l.083-.034c.45.078.99.145 1.56.16.198.178.417.352.655.51.925.619 1.973.821 2.507.887-.17.29-.356.564-.55.82a9.46 9.46 0 01-.552.663" fill="#e1d36b"/><path d="M84.982 113.482c-.12-.022-.232-.045-.337-.067a.156.156 0 01.066-.089l.128-.087c.04.074.088.155.143.243m1.06-.45a7.978 7.978 0 01-.338-.415 18.3 18.3 0 001.92-1.653c.127.113.276.233.45.35-.22.252-.466.511-.743.77a7.098 7.098 0 01-1.29.949m2.712-2.599a5.423 5.423 0 01-.426-.18c.198-.209.378-.403.537-.578a.152.152 0 01.113-.054c.108 0 .207.12.138.24a9.134 9.134 0 01-.362.572" fill="#fbc795"/><path d="M85.1 113.503l-.118-.021a4.423 4.423 0 01-.143-.243c.264-.181.558-.39.865-.622.098.129.21.27.338.416-.328.19-.649.345-.941.47M88.074 111.314a4.195 4.195 0 01-.45-.35c.253-.247.489-.487.703-.71.124.059.266.12.426.18a9.706 9.706 0 01-.68.88" fill="#fbfbd0"/><path d="M84.795 113.615c-.103 0-.174-.107-.15-.2.105.022.217.045.337.067l.036.055-.162.066a.162.162 0 01-.061.012" fill="#f6c397"/><path d="M85.018 113.537l-.036-.055.119.02-.083.035" fill="#f4efc5"/><path d="M86.465 151.206s3.23-2.355 3.673-2.217c.443.139-1.836 2.217-1.836 2.217s2.886-1.21 3.222-.914c.394.346-2.845 1.75-2.845 1.75s2.578.157 2.387.674c-.145.395-4.47-.173-5.011-.394-.463-.189-.587-.368-.587-.368l.997-.748M68.512 151.665s-4.362.04-4.237.497c.124.457 3.27.278 3.27.278s-2.384 1.107-2.3 1.523c.082.415 3.083-.752 3.083-.752s-.813 2.122-.287 2.205c.527.083 1.512-3.751 1.512-3.751h-1.041" fill="#58154c"/><path d="M76.137 110.42s-3.481-4.237-3.038-4.597c.443-.36 3.574 3.99 3.574 3.99s-1.635-6.206-.887-6.51c.749-.306 2.078 6.32 2.078 6.32s.72-6.32 2.273-6.487c1.55-.166-1.358 6.15-1.358 6.15s2.66-1.579 3.435-1.163c.776.416-2.971 2.297-2.971 2.297h-3.106" fill="#300c12"/><path d="M81.817 139.944c-.117.816.053 1.516.38 1.563.327.046.687-.577.804-1.394.117-.817-.054-1.517-.38-1.564-.328-.046-.688.578-.804 1.395" fill="#58154c"/><path d="M81.685 139.924c-.118.817.053 1.517.38 1.564.327.047.687-.577.804-1.394.116-.817-.054-1.517-.38-1.563-.328-.047-.688.577-.804 1.393" fill="#f4711f"/><path d="M80.764 137.513c-.059.41.027.763.191.787.165.023.346-.29.405-.702.059-.411-.027-.763-.192-.787-.164-.023-.345.29-.404.702" fill="#58154c"/><path d="M80.698 137.503c-.06.411.027.763.19.787.165.024.347-.29.405-.702.06-.41-.026-.763-.191-.786-.165-.024-.346.29-.404.701" fill="#f4711f"/><path d="M82.113 136.09c-.046.802.178 1.467.498 1.485.321.018.618-.617.664-1.418.045-.802-.178-1.466-.499-1.484-.32-.018-.618.617-.663 1.418" fill="#58154c"/><path d="M81.983 136.084c-.045.8.178 1.465.499 1.483.32.019.617-.616.663-1.418.045-.8-.178-1.465-.499-1.483-.32-.019-.617.616-.663 1.418" fill="#f4711f"/><path d="M82.85 131.711c-.023.396.087.724.245.733.159.009.305-.304.327-.7.023-.395-.087-.723-.246-.732-.158-.01-.304.304-.327.7" fill="#58154c"/><path d="M82.785 131.708c-.022.395.088.723.246.733.159.008.305-.305.328-.7.022-.396-.088-.724-.247-.733-.158-.009-.305.304-.327.7" fill="#f4711f"/><path d="M83.077 127.124c-.022.395.088.723.247.732.158.01.304-.304.327-.7.022-.395-.088-.723-.246-.732-.159-.01-.305.304-.328.7" fill="#58154c"/><path d="M83.014 127.12c-.023.396.087.724.245.733.159.009.305-.305.328-.7.022-.396-.088-.723-.246-.732-.159-.01-.305.304-.327.7" fill="#f4711f"/><path d="M81.877 127.056c-.017.3.067.55.188.558.12.006.232-.232.249-.533.017-.301-.067-.55-.188-.558-.12-.007-.232.232-.249.533" fill="#58154c"/><path d="M81.829 127.053c-.017.301.066.551.187.557.12.008.232-.231.25-.532.016-.301-.068-.55-.188-.558-.12-.006-.233.232-.25.533" fill="#f4711f"/><path d="M82.892 116.047s-1.32-.87-2.695-1.11c-1.373-.24-3.439-.373-3.439-.373l.74-.34s-.28-.09-.632-.487c-.274-.309-.705-1.337-.705-1.337s1.479.2 3.147.462c2.323.364 3.455 1.738 3.455 1.738l-.474-.024s.539.912.603 1.471" fill="#300c12"/><path d="M82.009 114.715s-.952-.927-3.072-1.083c-1.59-.118-2.075-.738-2.075-.738l1.362.243-.888-.366s1.4.02 2.75.399c1.35.378 2.02 1.053 2.02 1.053l-.43-.121.333.613" fill="#641217"/><path d="M67.746 116.047s.921-.698 1.854-.952c1.272-.349 2.366-.321 2.366-.321l-.51-.293s.193-.076.435-.417c.19-.265.486-1.148.486-1.148s-.411 0-2.165.397c-1.9.43-2.377 1.492-2.377 1.492l.327-.02s-.371.782-.416 1.262" fill="#300c12"/><path d="M68.354 114.97l.228-.526-.295.105s.461-.58 1.39-.905c.928-.325 2.05-.424 2.05-.424l-.77.396.937-.208s-.485.382-1.427.633c-.942.25-2.113.93-2.113.93" fill="#641217"/><g clip-path="url(#ab)" transform="matrix(.03528 0 0 -.03528 -30.582 171.842)"><path d="M2982.73 1099.07c-10 0-20.55 1.26-31.48 4.25-66.87 18.31-98.36 106.42-98.36 106.42s33.39-65.05 90.64-90.81c14.54-6.55 29.77-9 44.43-9 43.87 0 82.67 21.94 82.67 21.94s-36.74-32.8-87.9-32.8" fill="url(#ac)"/></g><path d="M81.733 128.473l-.707 2.13.461 1.693-2.137-.141.177.536s-1.255 1.08-3.052 1.547c-1.782.464-3.76.133-3.76.133l-1.896-2.002-1.925-1.02.353-2.8s1.811 5.362 5.343 5.127c4.189-.278 7.143-5.203 7.143-5.203" fill="#58154c"/><path d="M69.594 129.751l-.817 1.867 1.593-.443zM70.903 131.819l-.533 1.1 1.156-.27zM72.69 133.398v1.267l1.138-.83zM75.433 133.75l1.33.811.166-1.163zM79.527 131.237l1.96 1.06-.692-2.546zM78.03 132.546l1.497.145-.353-1.073z" fill="#fff"/><path d="M69.371 128.487s1.622 5.098 5.28 5.014c3.657-.082 7.037-5.153 7.037-5.153l.138.035s-3.103 5.742-7.162 5.742c-4.142 0-5.417-5.447-5.417-5.447l.124-.19" fill="#4c0e13"/><path d="M80.192 127.67s.748.263 1.537.955c.79.693 1.053 1.344 1.053 1.344s-.189-1.219-.856-1.898c-.668-.679-1.734-.402-1.734-.402M70.273 127.85s-.615.516-1.028.985c-.413.47-.76 1.647-.76 1.647s-.124-1.08.312-1.798c.495-.817 1.476-.834 1.476-.834" fill="#58154c"/></g></svg>