<svg xmlns="http://www.w3.org/2000/svg" xmlns:xlink="http://www.w3.org/1999/xlink" viewBox="0 0 29.736 52.285" height="197.613" width="112.388"><defs><linearGradient id="e" spreadMethod="pad" gradientTransform="matrix(230.432 0 0 -230.432 481.187 2764.72)" gradientUnits="userSpaceOnUse" y2="0" x2="1" y1="0" x1="0"><stop offset="0" stop-color="#ef373b"/><stop offset="1" stop-color="#b91d24"/></linearGradient><linearGradient id="g" spreadMethod="pad" gradientTransform="matrix(230.432 0 0 -230.432 481.187 2764.72)" gradientUnits="userSpaceOnUse" y2="0" x2="1" y1="0" x1="0"><stop offset="0" stop-color="#de2526"/><stop offset="1" stop-color="#b91d24"/></linearGradient><linearGradient id="i" spreadMethod="pad" gradientTransform="scale(1491.35) rotate(-90 1.583 .87)" gradientUnits="userSpaceOnUse" y2="0" x2="1" y1="0" x1="0"><stop offset="0" stop-color="#ef373b"/><stop offset="1" stop-color="#b91d24"/></linearGradient><linearGradient id="k" spreadMethod="pad" gradientTransform="matrix(170.891 0 0 -170.891 962.078 3196.46)" gradientUnits="userSpaceOnUse" y2="0" x2="1" y1="0" x1="0"><stop offset="0" stop-color="#a02c1f"/><stop offset="1" stop-color="#651317"/></linearGradient><linearGradient id="m" spreadMethod="pad" gradientTransform="matrix(95.0917 0 0 -95.0917 1192.26 3217.45)" gradientUnits="userSpaceOnUse" y2="0" x2="1" y1="0" x1="0"><stop offset="0" stop-color="#a02c1f"/><stop offset="1" stop-color="#651317"/></linearGradient><linearGradient id="p" spreadMethod="pad" gradientTransform="scale(1491.35) rotate(-90 1.583 .87)" gradientUnits="userSpaceOnUse" y2="0" x2="1" y1="0" x1="0"><stop offset="0" stop-color="#c21e25"/><stop offset="1" stop-color="#b91d24"/></linearGradient><linearGradient id="r" spreadMethod="pad" gradientTransform="scale(1491.35) rotate(-90 1.583 .87)" gradientUnits="userSpaceOnUse" y2="0" x2="1" y1="0" x1="0"><stop offset="0" stop-color="#de2526"/><stop offset="1" stop-color="#b91d24"/></linearGradient><linearGradient id="a" spreadMethod="pad" gradientTransform="scale(1491.35) rotate(-90 1.583 .87)" gradientUnits="userSpaceOnUse" y2="0" x2="1" y1="0" x1="0"><stop offset="0" stop-color="#f57780"/><stop offset="1" stop-color="#d35c68"/></linearGradient><linearGradient id="y" spreadMethod="pad" gradientTransform="scale(1491.35) rotate(-90 1.583 .87)" gradientUnits="userSpaceOnUse" y2="0" x2="1" y1="0" x1="0"><stop offset="0" stop-color="#f25861"/><stop offset="1" stop-color="#c93b44"/></linearGradient><linearGradient id="A" spreadMethod="pad" gradientTransform="scale(1086.04) rotate(-90 2.84 .223)" gradientUnits="userSpaceOnUse" y2="0" x2="1" y1="0" x1="0"><stop offset="0" stop-color="#c2e124"/><stop offset="1" stop-color="#89a023"/></linearGradient><linearGradient id="C" spreadMethod="pad" gradientTransform="scale(140.666 -140.666) rotate(5.536 228.094 183.643)" gradientUnits="userSpaceOnUse" y2="0" x2="1" y1="0" x1="0"><stop offset="0" stop-color="#a02c1f"/><stop offset="1" stop-color="#651317"/></linearGradient><linearGradient id="E" spreadMethod="pad" gradientTransform="rotate(172.365 1424.045 1573.085) scale(140.6661)" gradientUnits="userSpaceOnUse" y2="0" x2="1" y1="0" x1="0"><stop offset="0" stop-color="#a02c1f"/><stop offset="1" stop-color="#651317"/></linearGradient><linearGradient id="b" spreadMethod="pad" gradientTransform="scale(1086.04) rotate(-90 2.84 .223)" gradientUnits="userSpaceOnUse" y2="0" x2="1" y1="0" x1="0"><stop offset="0" stop-color="#d7ea5d"/><stop offset="1" stop-color="#b6c95e"/></linearGradient><linearGradient id="K" spreadMethod="pad" gradientTransform="matrix(0 1283.04 1283.04 0 1215.88 542.01)" gradientUnits="userSpaceOnUse" y2="0" x2="1" y1="0" x1="0"><stop offset="0" stop-color="#349e7c"/><stop offset="1" stop-color="#42be93"/></linearGradient><linearGradient id="M" spreadMethod="pad" gradientTransform="matrix(147.316 0 0 -147.316 1300.73 1299.12)" gradientUnits="userSpaceOnUse" y2="0" x2="1" y1="0" x1="0"><stop offset="0" stop-color="#a02c1f"/><stop offset="1" stop-color="#651317"/></linearGradient><linearGradient id="O" spreadMethod="pad" gradientTransform="scale(129.6846 -129.6846) rotate(6.783 90.65 58.664)" gradientUnits="userSpaceOnUse" y2="0" x2="1" y1="0" x1="0"><stop offset="0" stop-color="#a02c1f"/><stop offset="1" stop-color="#651317"/></linearGradient><linearGradient id="Q" spreadMethod="pad" gradientTransform="matrix(463.534 0 0 -463.534 1636.94 1341.17)" gradientUnits="userSpaceOnUse" y2="0" x2="1" y1="0" x1="0"><stop offset="0" stop-color="#349e7c"/><stop offset="1" stop-color="#42be93"/></linearGradient><linearGradient id="c" spreadMethod="pad" gradientTransform="matrix(0 1283.04 1283.04 0 1215.88 542.01)" gradientUnits="userSpaceOnUse" y2="0" x2="1" y1="0" x1="0"><stop offset="0" stop-color="#6accad"/><stop offset="1" stop-color="#73cfb5"/></linearGradient><linearGradient id="W" spreadMethod="pad" gradientTransform="scale(1205.104 -1205.104) rotate(74 2.128 .878)" gradientUnits="userSpaceOnUse" y2="0" x2="1" y1="0" x1="0"><stop offset="0" stop-color="#8a1876"/><stop offset="1" stop-color="#621857"/></linearGradient><linearGradient id="Y" spreadMethod="pad" gradientTransform="matrix(-128.224 -13.2838 8.58465 -143.096 3146.89 1439.54)" gradientUnits="userSpaceOnUse" y2="0" x2="1" y1="0" x1="0"><stop offset="0" stop-color="#a02c1f"/><stop offset="1" stop-color="#651317"/></linearGradient><linearGradient id="aa" spreadMethod="pad" gradientTransform="matrix(-101.847 -27.9724 22.3899 -133.328 2931.36 1422.04)" gradientUnits="userSpaceOnUse" y2="0" x2="1" y1="0" x1="0"><stop offset="0" stop-color="#a02c1f"/><stop offset="1" stop-color="#651317"/></linearGradient><linearGradient id="ac" spreadMethod="pad" gradientTransform="scale(1205.104 -1205.104) rotate(74 2.128 .878)" gradientUnits="userSpaceOnUse" y2="0" x2="1" y1="0" x1="0"><stop offset="0" stop-color="#a5409a"/><stop offset="1" stop-color="#883b85"/></linearGradient><linearGradient spreadMethod="pad" y2="0" x2="1" y1="0" x1="0" gradientTransform="scale(1491.35) rotate(-90 1.583 .87)" gradientUnits="userSpaceOnUse" id="t" xlink:href="#a"/><linearGradient spreadMethod="pad" y2="0" x2="1" y1="0" x1="0" gradientTransform="scale(1491.35) rotate(-90 1.583 .87)" gradientUnits="userSpaceOnUse" id="v" xlink:href="#a"/><linearGradient spreadMethod="pad" y2="0" x2="1" y1="0" x1="0" gradientTransform="scale(1086.04) rotate(-90 2.84 .223)" gradientUnits="userSpaceOnUse" id="G" xlink:href="#b"/><linearGradient spreadMethod="pad" y2="0" x2="1" y1="0" x1="0" gradientTransform="scale(1086.04) rotate(-90 2.84 .223)" gradientUnits="userSpaceOnUse" id="I" xlink:href="#b"/><linearGradient spreadMethod="pad" y2="0" x2="1" y1="0" x1="0" gradientTransform="matrix(0 1283.04 1283.04 0 1215.88 542.01)" gradientUnits="userSpaceOnUse" id="S" xlink:href="#c"/><linearGradient spreadMethod="pad" y2="0" x2="1" y1="0" x1="0" gradientTransform="matrix(0 1283.04 1283.04 0 1215.88 542.01)" gradientUnits="userSpaceOnUse" id="U" xlink:href="#c"/><clipPath id="d" clipPathUnits="userSpaceOnUse"><path d="M508.695 2575.45c-6.386 0-11.515 13.92-5.394 49.48 6.187 35.93 12.074 47.71 12.074 47.71s-8.539-10.31-15.02-23.27c-6.199-12.4-9.703-36.67-15.671-36.67-.27 0-.543.05-.821.15-6.48 2.36-1.644 44.94 19.496 77.32 39.567 60.62 48.047 67.19 63.75 89.97 14.106 20.45 95.832 144.36 112.368 169.43 4.644-16.39 9.164-33.01 13.445-50.17l-113.66-168.35c-.528-.62-.821-1.05-.86-1.27-.882-5.01 17.672-39.76 22.969-54.19 5.305-14.44 11.488-37.11 5.895-39.76-.821-.39-1.629-.58-2.43-.58-4.652 0-8.813 6.34-10.828 15.89-2.195 10.44-14.125 23.18-17.875 23.18-.27 0-.5-.07-.68-.21-2.644-2.06-3.828-30.92-5.004-43.88-1.152-12.69-.047-39.8-6.09-39.8-.125 0-.257.02-.39.04-6.481 1.18-7.364 19.14-9.129 33.28-1.77 14.14-1.469 36.82-1.469 36.82s-3.242-27.1-5.598-39.76c-2.359-12.67-.589-43.59-8.246-43.89h-.25c-7.418 0-8.004 13.02-8.589 44.77-.586 32.1 5.011 44.17 5.011 44.17s-9.133-17.08-15.316-42.7c-6.184-25.62-5.008-47.41-11.488-47.71h-.2m189 260.67l7.825 6.97c.011-.08.023-.14.039-.22-2.145-1.84-4.793-4.12-7.864-6.75"/></clipPath><clipPath id="f" clipPathUnits="userSpaceOnUse"><path d="M579.262 2731.05l113.66 168.35c4.504-18.05 8.746-36.7 12.598-56.31l-7.825-6.97c-32.132-27.64-109.41-94.42-118.433-105.07"/></clipPath><clipPath id="h" clipPathUnits="userSpaceOnUse"><path d="M1363.87 2220.21h-.02c.01.02.02.03.02.03l-38.44 2.66c1.22 3.29 64.45 175.45-3.97 234.53-26.58 22.95-60.6 28.7-100 28.7-19.8 0-40.96-1.45-63.21-2.91-22.25-1.45-45.6-2.9-69.78-2.9-28.57 0-58.31 2.03-88.763 8.49-133.164 28.27-201.305 395.82-304.977 572.44-100.367 171.05-54 395.07-50.98 409.02-24.559-53.99-33.68-114.47-33.68-174.1 0 23.35 1.399 46.82 4.575 69.99 2.566 18.73 6.3 37.27 11.394 55.37 4.695 16.68 10.547 32.98 17.711 48.74v.19l.184.47c10.398 22.72 23.531 44.29 39.875 64.18 42.769 52.02 107.523 92.41 202.711 111.3 20.828 4.15 43.07 7.26 66.914 9.23 9.14.76 18.468 1.42 28.086 1.8 11.984.53 23.79.78 35.37.78 76.61 0 144.2-11.12 200.41-26.76 46.3-12.88 84.87-28.82 114.42-44.14 33.07-17.14 54.83-33.51 63.44-43.92 2.26-2.73 3.67-5.09 4.05-6.88 5.46-23.56 3.2-58.52-15.74-127.6-18.85-69.08-3.87-188.12 73.04-298.47 77-110.27 59.75-155.13 47.12-266.62-12.53-111.49-40.81-229.3-43.92-365.95-3.2-136.65-95.84-257.67-95.84-257.67m-230.9 495.21s40.37-68.9 105.24-72.65c2.47-.14 4.93-.21 7.33-.21 114.09 0 145.63 157.41 146.87 163.84 6.08 21.64 6.8 37.43 6.8 37.43s-11.78-94.25-102.18-128.41c-30.13-11.39-58.4-15.18-82.71-15.18-48.61 0-81.35 15.18-81.35 15.18s22.39-14.22 55.83-23.02c-37.91 5.36-55.83 23.02-55.83 23.02m37.7 5.11s22.23-5.15 51.92-5.15c38.8 0 90.35 8.79 121.64 49.34 53.9 69.83 31.86 147.83 31.86 147.83s5.06-73.43-49.92-133.91c-51-56.1-141.2-58.12-153.98-58.12-.99 0-1.52.01-1.52.01m203.24 232.23h-.12c-2.81-.23-4.43-8.57-3.62-18.62.8-9.92 3.66-17.81 6.43-17.81.04 0 .08 0 .12.01 2.82.22 4.43 8.56 3.62 18.62-.8 9.92-3.66 17.8-6.43 17.8m-357.02 705.46c-11.58 0-23.386-.25-35.37-.78-9.618-.38-18.946-1.04-28.086-1.8-23.844-1.97-46.086-5.08-66.914-9.23l-82.653-29.69s92.36-70.77 273.683-91.41c33.92-3.85 67.13-5.42 98.72-5.42 97.45 0 179.46 14.9 218.89 23.51-25.64 31-167.93 114.82-378.27 114.82m373.97-857.07a183.7 183.7 0 011.49 5.04c-.19-.76-.65-2.5-1.49-5.04"/></clipPath><clipPath id="j" clipPathUnits="userSpaceOnUse"><path d="M1132.97 3196.46c0-64.27-38.26-116.36-85.45-116.36-47.19 0-85.446 52.09-85.446 116.36 0 64.26 38.256 116.36 85.446 116.36s85.45-52.1 85.45-116.36z"/></clipPath><clipPath id="l" clipPathUnits="userSpaceOnUse"><path d="M1287.35 3217.45c0-35.77-21.29-64.75-47.55-64.75-26.26 0-47.54 28.98-47.54 64.75 0 35.76 21.28 64.74 47.54 64.74 26.26 0 47.55-28.98 47.55-64.74z"/></clipPath><clipPath id="n" clipPathUnits="userSpaceOnUse"><path d="M800.098 2166.88s-74.024 155.52-74 428.51c0 2.7.004 5.4.019 8.12.02 3.12.028 6.22.028 9.29.011 94.71-8.293 167.44-20.625 230.29-3.852 19.61-8.094 38.26-12.598 56.31-22.328 89.48-51.109 164.28-70.473 269-7.406 40.16-12.379 83.73-12.379 127.77 0 59.63 9.121 120.11 33.68 174.1-3.02-13.95-49.387-237.97 50.98-409.02 103.672-176.62 171.813-544.17 304.977-572.44 30.453-6.46 60.193-8.49 88.763-8.49 24.18 0 47.53 1.45 69.78 2.9 22.25 1.46 43.41 2.91 63.21 2.91 39.4 0 73.42-5.75 100-28.7 68.42-59.08 5.19-231.24 3.97-234.53h-.01-.01c-1.05 15.86-8.81 98.41-52.58 160.73-16.97 24.1-54.81 33.49-99.01 33.49-82.51 0-187.207-32.68-219.914-63.36-50.129-47.03-130.011-173.82-130.34-174.35h-.031l-5.449-2.93-17.988-9.6"/></clipPath><clipPath id="o" clipPathUnits="userSpaceOnUse"><path d="M594.363 2166.88h795.516v1303.39H594.363z"/></clipPath><clipPath id="q" clipPathUnits="userSpaceOnUse"><path d="M1245.54 2642.56c-2.4 0-4.86.07-7.33.21-64.87 3.75-105.24 72.65-105.24 72.65s17.92-17.66 55.83-23.02c14.97-3.94 32.15-6.79 50.53-6.79 21.57 0 44.78 3.93 67.99 14.62 50.41 23.24 73.25 67.62 83.54 100.92.84 2.54 1.3 4.28 1.49 5.04l.06.21c-1.24-6.43-32.78-163.84-146.87-163.84"/></clipPath><clipPath id="s" clipPathUnits="userSpaceOnUse"><path d="M1222.59 2715.38c-29.69 0-51.92 5.15-51.92 5.15s.53-.01 1.52-.01c12.78 0 102.98 2.02 153.98 58.12 54.98 60.48 49.92 133.91 49.92 133.91s22.04-78-31.86-147.83c-31.29-40.55-82.84-49.34-121.64-49.34"/></clipPath><clipPath id="u" clipPathUnits="userSpaceOnUse"><path d="M1376.6 2916.33c-2.77 0-5.63 7.89-6.43 17.81-.81 10.05.81 18.39 3.62 18.62h.12c2.77 0 5.63-7.88 6.43-17.8.81-10.06-.8-18.4-3.62-18.62-.04-.01-.08-.01-.12-.01"/></clipPath><clipPath id="w" clipPathUnits="userSpaceOnUse"><path d="M1176.27 3519.89c-31.59 0-64.8 1.57-98.72 5.42-181.323 20.64-273.683 91.41-273.683 91.41l82.653 29.69c20.828 4.15 43.07 7.26 66.914 9.23 9.14.76 18.468 1.42 28.086 1.8 11.984.53 23.79.78 35.37.78 210.34 0 352.63-83.82 378.27-114.82-39.43-8.61-121.44-23.51-218.89-23.51"/></clipPath><clipPath id="x" clipPathUnits="userSpaceOnUse"><path d="M803.867 3519.89h591.293v138.332H803.867z"/></clipPath><clipPath id="z" clipPathUnits="userSpaceOnUse"><path d="M3167.24 2241.2s-13.11 10.39-35.47 25.48c-54.65 36.89-164.53 101.89-273.14 111.92-8.17.75-16.13 1.11-23.84 1.11-136.87 0-201.22-112.32-201.22-112.32l-27.13.38s-116.59 166.15-135.43 439.46c-18.85 273.3-12.91 460.57 5.93 475.93 9.71 7.91 54.66 47.97 127.61 83.79l1.22.65c64.37 31.53 150.38 59.63 252.85 59.63 6.6 0 13.26-.11 19.99-.35 230.9-8.29 336.93-170.77 347.57-204.98 10.56-34.21-73.5-452.37-66.44-603.16 5.6-119.42 24.02-217.38 31.44-252.97 1.95-9.36 3.15-14.4 3.15-14.4l-27.09-10.17m-8.96 581.65c-10.46 0-36.2-112.51-36.2-215.28 0-104.84 5.89-203.01 14.14-203.01 12.38 0 .14 113.23 5.43 217.49 5.3 104.25 27.35 195.9 17.25 200.66-.2.09-.41.14-.62.14m20.64 98.76c-3.98 0-10.55-17.07-14.86-38.76-4.4-22.18-4.77-40.79-.83-41.58.09-.01.18-.02.26-.02 3.99 0 10.56 17.06 14.87 38.76 4.4 22.18 4.77 40.79.82 41.57-.09.02-.17.03-.26.03"/></clipPath><clipPath id="B" clipPathUnits="userSpaceOnUse"><path d="M2781.59 2961.08c-5.11-52.65-40.58-92.29-79.25-88.55-38.66 3.75-65.87 49.47-60.76 102.12 5.1 52.65 40.58 92.3 79.24 88.55 38.66-3.74 65.87-49.47 60.77-102.12z"/></clipPath><clipPath id="D" clipPathUnits="userSpaceOnUse"><path d="M2905.05 2961.71c-7.03-52.43 18.49-99.12 56.98-104.28 38.5-5.16 75.41 33.16 82.44 85.59 7.02 52.43-18.48 99.11-56.99 104.28-38.5 5.16-75.4-33.16-82.43-85.59z"/></clipPath><clipPath id="F" clipPathUnits="userSpaceOnUse"><path d="M3136.22 2404.56c-8.25 0-14.14 98.17-14.14 203.01 0 102.77 25.74 215.28 36.2 215.28.21 0 .42-.05.62-.14 10.1-4.76-11.95-96.41-17.25-200.66-5.29-104.26 6.95-217.49-5.43-217.49"/></clipPath><clipPath id="H" clipPathUnits="userSpaceOnUse"><path d="M3163.49 2841.25c-.08 0-.17.01-.26.02-3.94.79-3.57 19.4.83 41.58 4.31 21.69 10.88 38.76 14.86 38.76.09 0 .17-.01.26-.03 3.95-.78 3.58-19.39-.82-41.57-4.31-21.7-10.88-38.76-14.87-38.76"/></clipPath><clipPath id="J" clipPathUnits="userSpaceOnUse"><path d="M1625.52 542.012c-40.65 0-75.73 8.187-75.73 8.187s-59.56 127.321-107.34 155.5c-17.95 10.539-139.16 26-257.66 36.031-69.89 5.911-138.84 9.93-185.11 9.93-24.043 0-41.953-1.09-50.696-3.551-10.523-3-22.609-7.961-35.132-13.929-47.043-22.43-100.297-59.11-100.297-59.11s-5.067-.488-13.856-.488c-11.98 0-30.886.91-53.336 5.207-34.683 6.59-61.261 23.551-61.261 23.551s-.18 4.832-.457 13.512c-1.442 45.589-5.481 197.597.457 316.348 4.738 94.76 103.714 311.31 194.144 465.05.008.02 0 0 .008.01 44.461 75.59 86.859 136.01 114.969 159.31 8.897 7.33 19.357 15.18 31.037 23.31 18.63 12.96 40.39 26.65 63.96 40.2 15.37 8.84 31.5 17.63 48.03 26.14-6.16-70.23 30.58-139.15 30.58-139.15s39.97 71.46 132.9 111.23c52.25 22.35 102.93 27.24 137.3 27.24 26.75 0 43.62-2.97 43.62-2.97s.01.03.02.09c24.04-29.84 49.57-67.25 74.92-110.96 0-.01-.01-.01-.01-.01l-.29-.67c-1.46-3.84-8.75-23.74-8.76-50.91 0-14.86 2.17-31.89 8.67-49.65 30.08-82.35 99.68-116.32 101.74-117.31 24.66-67.51 46-140.96 61.49-218.38 37.73-188.67 33.79-360.809 22.69-477.141-8.99-94.309-22.69-151.938-22.69-151.938-24.56-19.332-61.05-24.679-93.91-24.679m73.54 113.636c-3.9 0-7.07-14.148-7.07-31.609 0-17.449 3.17-31.609 7.07-31.609 3.9 0 7.07 14.16 7.07 31.609 0 17.461-3.17 31.609-7.07 31.609m.18 427.662c-3.32 0-6.65-2.25-6.84-6.47-1.94-44.11-4.27-117.301-3.55-203.711.63-76.5 2.7-149.899 4.48-201.348.15-4.312 3.48-6.543 6.8-6.543 3.07 0 6.13 1.903 6.68 5.844 7.79 56.008 17.56 135.387 20.91 202.047 3.79 75.332-10.94 156.561-21.94 204.931-.81 3.56-3.67 5.25-6.54 5.25"/></clipPath><clipPath id="L" clipPathUnits="userSpaceOnUse"><path d="M1448.05 1329.1c-5.94-17.43-13.95-33.36-23.47-47.3-18.66-27.34-43.07-47.03-69.27-55.79-13.29-4.44-27.05-6.04-40.71-4.34-18.1 23.37-18.95 63.05.19 99.04l.56 1.05c4.81 8.76 10.37 16.77 16.68 23.65 25.45 28.55 60.89 40.05 87.55 25.54 15.18-8.2 24.89-23.47 28.47-41.85z"/></clipPath><clipPath id="N" clipPathUnits="userSpaceOnUse"><path d="M1113.1 1349.62c-7.25-16.7-16.13-31.68-26.1-44.54-19.54-25.21-43.21-42.23-67.14-48.21-12.14-3.01-24.356-3.17-36.106-.06-13.055 25.08-9.109 64.58 11.867 98.34l.613.96c5.236 8.21 11.046 15.58 17.376 21.76 25.62 25.7 57.95 33.44 79.55 16.26 12.3-9.73 18.98-25.89 19.94-44.51z"/></clipPath><clipPath id="P" clipPathUnits="userSpaceOnUse"><path d="M1657.66 1286.91s199.48 82.46 216.76 104.46c17.28 21.99 22.38 59.25 33.63 90.64 11.19 31.22-1.63 48.36 1.99 52.85 6.55 8.12 19.9-2.58 24.62-23.79 4.71-21.2-2.52-42.73-2.52-42.73s95.98 60.61 106.58 54.12c10.6-6.47-53.56-60.6-53.56-60.6s93.02 28.21 100.68 18.19c7.66-10.01-76.53-45.88-76.53-45.88s82.74 4.26 90.67-2.81c7.92-7.07-80.9-27.88-80.9-27.88s53.02-9.38 49.48-19.68c-1.92-5.61-68.98-5.29-78.4-6.47-9.42-1.18-89.82-11.48-89.82-11.48L1693 1144.77s-37.24 9.57-52.06 62.6c-14.92 53.41 16.72 79.54 16.72 79.54z"/></clipPath><clipPath id="R" clipPathUnits="userSpaceOnUse"><path d="M1700.13 665.238c-3.32 0-6.65 2.231-6.8 6.543-1.78 51.449-3.85 124.848-4.48 201.348-.72 86.41 1.61 159.601 3.55 203.711.19 4.22 3.52 6.47 6.84 6.47 2.87 0 5.73-1.69 6.54-5.25 11-48.37 25.73-129.599 21.94-204.931-3.35-66.66-13.12-146.039-20.91-202.047-.55-3.941-3.61-5.844-6.68-5.844"/></clipPath><clipPath id="T" clipPathUnits="userSpaceOnUse"><path d="M1699.06 592.43c-3.9 0-7.07 14.16-7.07 31.609 0 17.461 3.17 31.609 7.07 31.609 3.9 0 7.07-14.148 7.07-31.609 0-17.449-3.17-31.609-7.07-31.609"/></clipPath><clipPath id="V" clipPathUnits="userSpaceOnUse"><path d="M2838.47 571.969h-29.5s-1.08 3.332-2.97 9.679c-10.49 35.321-45.83 164.071-57.82 333.184-1.97 28.047-3.58 60.547-4.85 95.778-.28 7.86-.55 15.87-.8 23.99-2.43 78.67-3.32 168.36-3.02 251.74.18 89.12 1.67 171.16 3.9 224.96 1.36 32.78 2.99 55.08 4.77 62.11 2.29 9.01 19.85 24.93 45.87 43.67l4.99.32s-10.51-22.18-11.77-35.8c0 0 26.1 19.78 52.54 27 31.17 8.53 58.58 9.11 65.43 9.11 1.07 0 1.64-.01 1.64-.01l-14.44 8.28s5.45 2.16 12.33 11.83c5.35 7.51 13.75 32.54 13.75 32.54s-11.25 0-58.83-10.67c62.16 37.13 136.07 73.96 182.35 86.76 10.65 3.01 19.79 4.71 27.04 4.81.37.01.74.01 1.11.01 45.9 0 118.69-49.72 168.4-92.99-49.71 43.27-122.5 92.99-168.4 92.99-.37 0-.74 0-1.11-.01-7.25-.1-16.39-1.8-27.04-4.81 0 0 45.58-28.32 94.01-79.04-6.59 1.8-13.6 3.33-21.04 4.49-47.29 7.42-89.21 13.1-89.21 13.1s12.22-29.15 19.99-37.91c9.99-11.26 17.92-13.78 17.92-13.78l-20.99-9.66s58.55-3.79 97.49-10.57c19.92-3.48 39.45-11.63 53.77-18.76 24.49-38.21 44.36-82.71 52.09-132.48 27.15-174.74-10.55-648.31-48.25-702.498-37.69-54.191-302.8-64.852-326.37-84.82-23.55-19.981-32.98-102.543-32.98-102.543m14.42 637.771s31.49-88.11 98.36-106.42c10.93-2.99 21.48-4.25 31.48-4.25 51.16 0 87.9 32.8 87.9 32.8s-38.8-21.94-82.67-21.94c-14.66 0-29.89 2.45-44.43 9-57.25 25.76-90.64 90.81-90.64 90.81m370.75-551.72c-8.13 3.859-44.27 5.57-90.23 5.57-30.23 0-64.7-.738-98.25-2.09-16.57-.66-32.91-1.469-48.4-2.422 46.86 2.863 101.56 4.512 146.75 4.512 45.91 0 82.02-1.699 90.13-5.57"/></clipPath><clipPath id="X" clipPathUnits="userSpaceOnUse"><path d="M3018.66 1426.26c3.23-53.81 34.55-94.46 69.96-90.79 35.41 3.66 61.5 50.26 58.26 104.07-3.22 53.82-34.55 94.46-69.95 90.79-35.41-3.66-61.49-50.26-58.27-104.07z"/></clipPath><clipPath id="Z" clipPathUnits="userSpaceOnUse"><path d="M2829.51 1394.07c8.42-50.13 38.05-84.52 66.17-76.79 28.13 7.72 44.1 54.62 35.68 104.76-8.42 50.14-38.05 84.52-66.16 76.8-28.13-7.73-44.11-54.63-35.69-104.77z"/></clipPath><clipPath id="ab" clipPathUnits="userSpaceOnUse"><path d="M2982.73 1099.07c-10 0-20.55 1.26-31.48 4.25-66.87 18.31-98.36 106.42-98.36 106.42s33.39-65.05 90.64-90.81c14.54-6.55 29.77-9 44.43-9 43.87 0 82.67 21.94 82.67 21.94s-36.74-32.8-87.9-32.8"/></clipPath></defs><path d="M-54.67-93.043l-1.662 4.29-.678 1.748s-1.766-1.267-2.743-3.301c-.974-2.032-1.473-5.772-.529-5.878l.01-.004c.958-.083 1.6 1.6 2.826 2.41 1.227.812 2.776.735 2.776.735" fill="#f9b147"/><path d="M-57.113-87.082c-.39-.304-1.804-1.483-2.64-3.224-.61-1.272-1.033-3.213-1.033-4.514 0-.776.151-1.325.504-1.364.153.691.685 2.839 1.895 4.893.746 1.27 1.306 1.921 1.676 2.255-.18.639-.311 1.293-.402 1.954" fill="#e79b40"/><path d="M-31.57-96.078c-.046.272-.09.509-.133.711a9.752 9.752 0 01-.202.802c-.097.316-.16.415-.16.415l-4.964-1.323s.183-.133.456-.352c.538-.433 1.426-1.204 1.911-1.942.44-.665.842-1.423 1.274-1.909.286-.322.585-.525.917-.502.835.057 1.164 2.55.902 4.1" fill="#f9b147"/><path d="M-31.816-94.884c-1.042-.54-2.403-1.103-4.036-1.558.432-.395.889-.866 1.19-1.325.44-.665.842-1.423 1.274-1.909.033.383.123 1.094.349 2.178.266 1.274.974 1.892 1.336 2.131-.04.186-.078.346-.113.483" fill="#e79b40"/><path d="M-26.42-76.326s3.512 5.33 4.066 6.133c.555.804.854 1.036 2.25 3.174.745 1.143.916 2.645.687 2.728-.228.083-.353-.831-.582-1.289-.228-.456-.53-.82-.53-.82s.208.415.426 1.683c.219 1.267.032 1.756-.197 1.745-.228-.01-.187-.779-.405-1.683-.218-.904-.54-1.506-.54-1.506s.197.426.176 1.558c-.02 1.133-.041 1.59-.311 1.58-.27-.01-.208-1.102-.291-1.549-.083-.446-.198-1.402-.198-1.402s.01.8-.052 1.298c-.062.5-.093 1.133-.322 1.175-.228.04-.187-.946-.228-1.403-.042-.457-.083-1.476-.177-1.548-.093-.073-.571.416-.655.81-.083.395-.27.634-.467.54-.198-.093.02-.893.208-1.402.187-.51.841-1.735.81-1.912-.031-.177-4.7-4.173-4.7-4.173s.179-3.276 1.031-3.737" fill="#b81d24"/><g clip-path="url(#d)" transform="matrix(.03528 0 0 -.03528 -78.796 31.668)"><path d="M508.695 2575.45c-6.386 0-11.515 13.92-5.394 49.48 6.187 35.93 12.074 47.71 12.074 47.71s-8.539-10.31-15.02-23.27c-6.199-12.4-9.703-36.67-15.671-36.67-.27 0-.543.05-.821.15-6.48 2.36-1.644 44.94 19.496 77.32 39.567 60.62 48.047 67.19 63.75 89.97 14.106 20.45 95.832 144.36 112.368 169.43 4.644-16.39 9.164-33.01 13.445-50.17l-113.66-168.35c-.528-.62-.821-1.05-.86-1.27-.882-5.01 17.672-39.76 22.969-54.19 5.305-14.44 11.488-37.11 5.895-39.76-.821-.39-1.629-.58-2.43-.58-4.652 0-8.813 6.34-10.828 15.89-2.195 10.44-14.125 23.18-17.875 23.18-.27 0-.5-.07-.68-.21-2.644-2.06-3.828-30.92-5.004-43.88-1.152-12.69-.047-39.8-6.09-39.8-.125 0-.257.02-.39.04-6.481 1.18-7.364 19.14-9.129 33.28-1.77 14.14-1.469 36.82-1.469 36.82s-3.242-27.1-5.598-39.76c-2.359-12.67-.589-43.59-8.246-43.89h-.25c-7.418 0-8.004 13.02-8.589 44.77-.586 32.1 5.011 44.17 5.011 44.17s-9.133-17.08-15.316-42.7c-6.184-25.62-5.008-47.41-11.488-47.71h-.2m189 260.67l7.825 6.97c.011-.08.023-.14.039-.22-2.145-1.84-4.793-4.12-7.864-6.75" fill="url(#e)"/></g><path d="M-58.391-64.632l.03-.045c.318-.376 3.045-2.732 4.178-3.707l-4.208 3.752" fill="#d96b76"/><g clip-path="url(#f)" transform="matrix(.03528 0 0 -.03528 -78.796 31.668)"><path d="M579.262 2731.05l113.66 168.35c4.504-18.05 8.746-36.7 12.598-56.31l-7.825-6.97c-32.132-27.64-109.41-94.42-118.433-105.07" fill="url(#g)"/></g><g clip-path="url(#h)" transform="matrix(.03528 0 0 -.03528 -78.796 31.668)"><path d="M1363.87 2220.21h-.02c.01.02.02.03.02.03l-38.44 2.66c1.22 3.29 64.45 175.45-3.97 234.53-26.58 22.95-60.6 28.7-100 28.7-19.8 0-40.96-1.45-63.21-2.91-22.25-1.45-45.6-2.9-69.78-2.9-28.57 0-58.31 2.03-88.763 8.49-133.164 28.27-201.305 395.82-304.977 572.44-100.367 171.05-54 395.07-50.98 409.02-24.559-53.99-33.68-114.47-33.68-174.1 0 23.35 1.399 46.82 4.575 69.99 2.566 18.73 6.3 37.27 11.394 55.37 4.695 16.68 10.547 32.98 17.711 48.74v.19l.184.47c10.398 22.72 23.531 44.29 39.875 64.18 42.769 52.02 107.523 92.41 202.711 111.3 20.828 4.15 43.07 7.26 66.914 9.23 9.14.76 18.468 1.42 28.086 1.8 11.984.53 23.79.78 35.37.78 76.61 0 144.2-11.12 200.41-26.76 46.3-12.88 84.87-28.82 114.42-44.14 33.07-17.14 54.83-33.51 63.44-43.92 2.26-2.73 3.67-5.09 4.05-6.88 5.46-23.56 3.2-58.52-15.74-127.6-18.85-69.08-3.87-188.12 73.04-298.47 77-110.27 59.75-155.13 47.12-266.62-12.53-111.49-40.81-229.3-43.92-365.95-3.2-136.65-95.84-257.67-95.84-257.67m-230.9 495.21s40.37-68.9 105.24-72.65c2.47-.14 4.93-.21 7.33-.21 114.09 0 145.63 157.41 146.87 163.84 6.08 21.64 6.8 37.43 6.8 37.43s-11.78-94.25-102.18-128.41c-30.13-11.39-58.4-15.18-82.71-15.18-48.61 0-81.35 15.18-81.35 15.18s22.39-14.22 55.83-23.02c-37.91 5.36-55.83 23.02-55.83 23.02m37.7 5.11s22.23-5.15 51.92-5.15c38.8 0 90.35 8.79 121.64 49.34 53.9 69.83 31.86 147.83 31.86 147.83s5.06-73.43-49.92-133.91c-51-56.1-141.2-58.12-153.98-58.12-.99 0-1.52.01-1.52.01m203.24 232.23h-.12c-2.81-.23-4.43-8.57-3.62-18.62.8-9.92 3.66-17.81 6.43-17.81.04 0 .08 0 .12.01 2.82.22 4.43 8.56 3.62 18.62-.8 9.92-3.66 17.8-6.43 17.8m-357.02 705.46c-11.58 0-23.386-.25-35.37-.78-9.618-.38-18.946-1.04-28.086-1.8-23.844-1.97-46.086-5.08-66.914-9.23l-82.653-29.69s92.36-70.77 273.683-91.41c33.92-3.85 67.13-5.42 98.72-5.42 97.45 0 179.46 14.9 218.89 23.51-25.64 31-167.93 114.82-378.27 114.82m373.97-857.07a183.7 183.7 0 011.49 5.04c-.19-.76-.65-2.5-1.49-5.04" fill="url(#i)"/></g><path d="M-50.57-44.773c-.032.942 2.994 2.57 3.358 2.351.364-.218-1.444-1.465-1.444-1.465s2.722.686 3.127.489c.405-.198-1.766-1.226-1.766-1.226s2.836.01 2.94-.447c.104-.457-5.389-.146-5.389-.146l-.825.444M-32.038-46.75s-4.233.287-4.296.62c-.062.332 3.418.11 3.418.11s-2.67.831-2.379 1.247c.291.415 3.357-.722 3.357-.722s-1.258 1.733-.718 1.9c.54.166 1.974-3.062 1.974-3.062l-1.356-.094M-38.173-81.096c0 4.654-2.804 8.426-6.263 8.426-3.46 0-6.263-3.772-6.263-8.426 0-4.653 2.804-8.426 6.263-8.426s6.263 3.773 6.263 8.426M-30.093-82.866c0 1.46-.462 2.777-1.199 3.697a3.99 3.99 0 01-.36.393c-.197.017-.414.038-.645.066l-.187.02h-.003c-.326.042-.68.094-1.057.16-.343.058-.648.113-.927.164-.176.031-.34.062-.492.09-.102.017-.197.035-.285.052a3.196 3.196 0 01-.455-.307c-1.097-.875-1.834-2.488-1.834-4.335 0-2.778 1.667-5.032 3.722-5.032 2.055 0 3.722 2.254 3.722 5.032" fill="#b81d24"/><path d="M-38.595-81.096c0 4.193-2.495 7.592-5.574 7.592-3.079 0-5.575-3.399-5.575-7.592 0-4.192 2.496-7.591 5.575-7.591s5.574 3.399 5.574 7.591" fill="#bfe9ea"/><path d="M-38.595-81.096c0 3.994-2.377 7.231-5.31 7.231-2.932 0-5.31-3.237-5.31-7.23 0-3.995 2.378-7.232 5.31-7.232 2.933 0 5.31 3.237 5.31 7.231" fill="#fff"/><g clip-path="url(#j)" transform="matrix(.03528 0 0 -.03528 -78.796 31.668)"><path d="M1132.97 3196.46c0-64.27-38.26-116.36-85.45-116.36-47.19 0-85.446 52.09-85.446 116.36 0 64.26 38.256 116.36 85.446 116.36s85.45-52.1 85.45-116.36" fill="url(#k)"/></g><path d="M-39.214-81.096c0 1.622-.966 2.937-2.157 2.937-1.19 0-2.156-1.315-2.156-2.937 0-1.622.965-2.937 2.156-2.937 1.191 0 2.157 1.315 2.157 2.937" fill="#4c0e13"/><path d="M-42.983-81.096a1.704 1.704 0 11-3.408 0 1.704 1.704 0 013.408 0M-41.37-80.285a.623.623 0 11-1.247 0 .623.623 0 011.246 0" fill="#fff"/><path d="M-30.938-82.287c0 .35-.033.688-.093 1.01-.14.799-.449 1.507-.87 2.052-.154.2-.323.379-.506.532l-.183.02h-.003c-.32.04-.665.09-1.034.153-.336.056-.635.11-.908.16l-.482.086a2.744 2.744 0 01-.562-.342c-.934-.729-1.563-2.102-1.563-3.671 0-2.334 1.387-4.226 3.102-4.226 1.453 0 2.67 1.36 3.006 3.199.063.326.096.671.096 1.027" fill="#bfe9ea"/><path d="M-30.938-82.287c0 .35-.033.688-.093 1.01-.153.808-.485 1.513-.934 2.042-.19.22-.4.409-.625.562h-.003c-.32.04-.665.09-1.034.153-.336.056-.635.11-.908.16a2.408 2.408 0 01-.775-.396c-.701-.522-1.23-1.42-1.44-2.494a5.222 5.222 0 01-.079-.572v-.003a5.27 5.27 0 01-.02-.462c0-2.22 1.323-4.023 2.956-4.023 1.37 0 2.523 1.27 2.86 2.996.062.326.095.671.095 1.027" fill="#fff"/><g clip-path="url(#l)" transform="matrix(.03528 0 0 -.03528 -78.796 31.668)"><path d="M1287.35 3217.45c0-35.77-21.29-64.75-47.55-64.75-26.26 0-47.54 28.98-47.54 64.75 0 35.76 21.28 64.74 47.54 64.74 26.26 0 47.55-28.98 47.55-64.74" fill="url(#m)"/></g><path d="M-34.172-81.74c0 .903-.537 1.635-1.2 1.635-.663 0-1.2-.732-1.2-1.635 0-.902.537-1.634 1.2-1.634.663 0 1.2.732 1.2 1.634" fill="#4c0e13"/><path d="M-35.23-81.644a.81.81 0 11-1.619 0 .81.81 0 011.619 0M-34.255-81.182a.347.347 0 11-.694 0 .347.347 0 01.694 0" fill="#fff"/><path d="M-37.143-86.589s.574-1.932 3.102-3.802 4.211-2.307 4.211-2.307l-1.309 1.434 2.202-.52s-.138 1.452-1.052 2.529c-1.012 1.191-4.183 1.7-5.902 2.912-.672.474-1.129.918-1.129.918l.624-1.506-.747.342M-38.73-85.28s-2.258-1.487-4.607-1.896c-2.348-.41-5.878-.638-5.878-.638l1.265-.582s-.477-.153-1.08-.831c-.469-.528-1.205-2.286-1.205-2.286s2.528.343 5.379.79c3.97.621 5.904 2.971 5.904 2.971l-.81-.042s.92 1.559 1.032 2.515" fill="#4c0e13"/><g clip-path="url(#n)" transform="matrix(.03528 0 0 -.03528 -78.796 31.668)"><g clip-path="url(#o)"><path d="M800 2166v1h-1v2h-1v2h-1v2h-1v3h-1v2h-1v3h-1v2h-1v3h-1v2h-1v3h-1v3h-1v2h-1v3h-1v3h-1v3h-1v3h-1v3h-1v3h-1v3h-1v3h-1v3h-1v3h-1v3h-1v3h-1v4h-1v3h-1v3h-1v4h-1v3h-1v3h-1v4h-1v4h-1v4h-1v3h-1v4h-1v4h-1v4h-1v4h-1v4h-1v4h-1v4h-1v5h-1v4h-1v4h-1v5h-1v5h-1v5h-1v4h-1v5h-1v5h-1v5h-1v6h-1v5h-1v6h-1v6h-1v5h-1v6h-1v7h-1v7h-1v7h-1v7h-1v6h-1v8h-1v9h-1v9h-1v9h-1v8h-1v12h-1v12h-1v12h-1v15h-1v20h-1v20h-1v87h-1v39h-1v21h-1v17h-1v13h-1v12h-1v11h-1v9h-1v9h-1v9h-1v7h-1v8h-1v7h-1v6h-1v7h-1v6h-1v6h-1v6h-1v5h-1v6h-1v5h-1v5h-1v5h-1v5h-1v4h-1v5h-1v5h-1v4h-1v5h-1v4h-1v4h-1v4h-1v5h-1v4h-1v4h-1v4h-1v3h-1v4h-1v4h-1v4h-1v3h-1v4h-1v4h-1v3h-1v4h-1v3h-1v4h-1v4h-1v3h-1v4h-1v3h-1v4h-1v3h-1v4h-1v3h-1v3h-1v4h-1v3h-1v4h-1v3h-1v3h-1v4h-1v3h-1v4h-1v3h-1v4h-1v3h-1v3h-1v4h-1v3h-1v4h-1v3h-1v4h-1v3h-1v4h-1v3h-1v4h-1v4h-1v3h-1v4h-1v4h-1v3h-1v4h-1v4h-1v4h-1v4h-1v4h-1v3h-1v4h-1v5h-1v4h-1v4h-1v4h-1v5h-1v4h-1v4h-1v5h-1v4h-1v5h-1v5h-1v5h-1v5h-1v5h-1v5h-1v5h-1v6h-1v6h-1v6h-1v7h-1v7h-1v8h-1v8h-1v8h-1v11h-1v12h-1v13h-1v65h1v16h1v9h1v9h1v8h1v6h1v6h1v6h1v5h1v5h1v4h1v5h1v4h1v4h1v4h1v3h1v4h1v4h1v3h1v3h1v3h1v3h1v3h1v3h1v2h1v3h1v3h1v2h1v3h1v2h1v3h1v2h1v2h1v2h1v-5h-1v-5h-1v-6h-1v-5h-1v-7h-1v-7h-1v-7h-1v-8h-1v-8h-1v-10h-1v-11h-1v-14h-1v-20h-1v-55h1v-19h1v-13h1v-11h1v-9h1v-8h1v-7h1v-7h1v-6h1v-6h1v-6h1v-5h1v-5h1v-5h1v-4h1v-5h1v-4h1v-4h1v-4h1v-4h1v-4h1v-3h1v-4h1v-3h1v-3h1v-4h1v-3h1v-3h1v-3h1v-3h1v-3h1v-3h1v-2h1v-3h1v-3h1v-2h1v-3h1v-2h1v-3h1v-2h1v-3h1v-2h1v-2h1v-3h1v-2h1v-2h1v-2h1v-2h1v-2h1v-2h1v-3h1v-2h1v-2h1v-2h1v-2h1v-2h1v-1h1v-2h1v-2h1v-2h1v-2h1v-2h1v-1h1v-2h1v-2h1v-1h1v-2h1v-2h1v-2h1v-2h1v-1h1v-2h1v-2h1v-2h1v-2h1v-2h1v-1h1v-2h1v-2h1v-2h1v-2h1v-2h1v-2h1v-2h1v-2h1v-2h1v-2h1v-2h1v-2h1v-2h1v-2h1v-2h1v-2h1v-3h1v-2h1v-2h1v-2h1v-2h1v-3h1v-2h1v-2h1v-2h1v-2h1v-3h1v-2h1v-2h1v-3h1v-2h1v-2h1v-2h1v-3h1v-2h1v-3h1v-2h1v-2h1v-3h1v-2h1v-3h1v-2h1v-2h1v-3h1v-2h1v-3h1v-2h1v-3h1v-2h1v-3h1v-2h1v-3h1v-2h1v-3h1v-2h1v-3h1v-3h1v-2h1v-3h1v-2h1v-3h1v-2h1v-3h1v-3h1v-2h1v-3h1v-3h1v-2h1v-3h1v-2h1v-3h1v-3h1v-2h1v-3h1v-3h1v-2h1v-3h1v-3h1v-2h1v-3h1v-3h1v-2h1v-3h1v-3h1v-3h1v-2h1v-3h1v-3h1v-2h1v-3h1v-3h1v-2h1v-3h1v-3h1v-2h1v-3h1v-3h1v-2h1v-3h1v-3h1v-3h1v-2h1v-3h1v-3h1v-2h1v-3h1v-3h1v-2h1v-3h1v-2h1v-3h1v-3h1v-2h1v-3h1v-3h1v-2h1v-3h1v-2h1v-3h1v-3h1v-2h1v-3h1v-2h1v-3h1v-2h1v-3h1v-3h1v-2h1v-3h1v-2h1v-3h1v-2h1v-3h1v-2h1v-3h1v-2h1v-3h1v-2h1v-2h1v-3h1v-2h1v-3h1v-2h1v-2h1v-3h1v-2h1v-3h1v-2h1v-2h1v-2h1v-3h1v-2h1v-2h1v-3h1v-2h1v-2h1v-2h1v-2h1v-3h1v-2h1v-2h1v-2h1v-2h1v-2h1v-3h1v-2h1v-2h1v-2h1v-2h1v-2h1v-2h1v-2h1v-2h1v-2h1v-2h1v-2h1v-2h1v-2h1v-2h1v-2h1v-2h1v-1h1v-2h1v-2h1v-2h1v-2h1v-2h1v-1h1v-2h1v-2h1v-2h1v-1h1v-2h1v-2h1v-1h1v-2h1v-2h1v-1h1v-2h1v-2h1v-1h1v-2h1v-1h1v-2h1v-1h1v-2h1v-1h1v-2h1v-1h1v-2h1v-1h1v-2h1v-1h1v-2h1v-1h1v-1h1v-1h1v-2h1v-1h1v-1h1v-2h1v-1h1v-1h1v-2h1v-1h1v-1h1v-1h1v-1h1v-1h1v-1h1v-1h1v-2h1v-1h1v-1h1v-1h1v-1h1v-1h1v-1h1v-1h1v-1h1v-1h1v-1h1v-1h1v-1h1v-1h1v-1h2v-1h1v-1h1v-1h1v-1h2v-1h1v-1h1v-1h1v-1h2v-1h1v-1h2v-1h2v-1h1v-1h2v-1h1v-1h2v-1h2v-1h2v-1h2v-1h3v-1h2v-1h2v-1h3v-1h3v-1h4v-1h5v-1h6v-1h5v-1h6v-1h8v-1h9v-1h10v-1h15v-1h54v1h20v1h17v1h16v1h17v1h23v1h20v-1h19v-1h8v-1h7v-1h5v-1h5v-1h4v-1h3v-1h3v-1h4v-1h2v-1h3v-1h2v-1h2v-1h3v-1h2v-1h1v-1h2v-1h2v-1h2v-1h1v-1h2v-1h1v-1h2v-1h1v-1h1v-1h2v-1h1v-1h1v-1h1v-1h2v-1h1v-1h1v-1h1v-2h1v-1h1v-1h1v-1h1v-1h1v-1h1v-2h1v-1h1v-2h1v-2h1v-2h1v-1h1v-2h1v-2h1v-1h1v-3h1v-3h1v-2h1v-3h1v-3h1v-2h1v-5h1v-4h1v-5h1v-5h1v-9h1v-17h1v-15h-1v-16h-1v-9h-1v-9h-1v-7h-1v-6h-1v-5h-1v-6h-1v-5h-1v-4h-1v-5h-1v-5h-1v-4h-1v-4h-1v-4h-1v-4h-1v-3h-1v-4h-1v-4h-1v-3h-1v-3h-1v-4h-1v-3h-1v-3h-1v-3h-1v-3h-1v-3h-1v-3h-1v-2h-1v6h-1v9h-1v8h-1v6h-1v6h-1v6h-1v5h-1v5h-1v4h-1v5h-1v4h-1v4h-1v3h-1v4h-1v3h-1v4h-1v3h-1v3h-1v3h-1v3h-1v3h-1v3h-1v3h-1v2h-1v3h-1v2h-1v3h-1v2h-1v2h-1v3h-1v2h-1v2h-1v2h-1v2h-1v2h-1v2h-1v2h-1v2h-1v2h-1v2h-1v2h-1v1h-1v2h-1v2h-1v2h-1v1h-1v2h-1v1h-1v2h-1v1h-1v2h-1v1h-1v2h-1v1h-1v2h-1v1h-1v1h-1v1h-1v1h-1v1h-1v1h-1v1h-2v1h-1v1h-1v1h-1v1h-2v1h-1v1h-2v1h-2v1h-2v1h-1v1h-2v1h-2v1h-3v1h-3v1h-2v1h-3v1h-3v1h-4v1h-4v1h-4v1h-6v1h-6v1h-10v1h-16v1h-14v-1h-19v-1h-12v-1h-9v-1h-7v-1h-7v-1h-6v-1h-6v-1h-5v-1h-6v-1h-4v-1h-5v-1h-5v-1h-4v-1h-4v-1h-4v-1h-4v-1h-3v-1h-4v-1h-4v-1h-3v-1h-3v-1h-4v-1h-3v-1h-3v-1h-3v-1h-3v-1h-3v-1h-3v-1h-2v-1h-3v-1h-3v-1h-2v-1h-3v-1h-2v-1h-3v-1h-2v-1h-2v-1h-3v-1h-2v-1h-2v-1h-2v-1h-2v-1h-2v-1h-2v-1h-2v-1h-2v-1h-2v-1h-2v-1h-1v-1h-2v-1h-2v-1h-2v-1h-1v-1h-2v-1h-1v-1h-1v-1h-2v-1h-1v-1h-2v-1h-1v-1h-1v-1h-1v-1h-1v-1h-1v-1h-1v-1h-2v-2h-1v-1h-1v-1h-1v-1h-1v-1h-1v-1h-1v-1h-1v-1h-1v-1h-1v-1h-1v-1h-1v-1h-1v-1h-1v-1h-1v-1h-1v-2h-1v-1h-1v-1h-1v-1h-1v-1h-1v-1h-1v-2h-1v-1h-1v-1h-1v-1h-1v-1h-1v-1h-1v-2h-1v-1h-1v-1h-1v-1h-1v-2h-1v-1h-1v-1h-1v-1h-1v-2h-1v-1h-1v-1h-1v-1h-1v-2h-1v-1h-1v-1h-1v-2h-1v-1h-1v-1h-1v-1h-1v-2h-1v-1h-1v-1h-1v-2h-1v-1h-1v-1h-1v-2h-1v-1h-1v-1h-1v-2h-1v-1h-1v-1h-1v-2h-1v-1h-1v-1h-1v-2h-1v-1h-1v-2h-1v-1h-1v-1h-1v-2h-1v-1h-1v-1h-1v-2h-1v-1h-1v-2h-1v-1h-1v-2h-1v-1h-1v-1h-1v-2h-1v-1h-1v-2h-1v-1h-1v-1h-1v-2h-1v-1h-1v-2h-1v-1h-1v-2h-1v-1h-1v-2h-1v-1h-1v-1h-1v-2h-1v-1h-1v-2h-1v-1h-1v-2h-1v-1h-1v-2h-1v-1h-1v-2h-1v-1h-1v-2h-1v-1h-1v-2h-1v-1h-1v-2h-1v-1h-1v-2h-1v-1h-1v-2h-1v-1h-1v-2h-1v-1h-1v-2h-1v-1h-1v-2h-1v-1h-1v-2h-1v-1h-1v-2h-1v-1h-1v-2h-1v-2h-1v-1h-1v-2h-1v-1h-1v-2h-1v-1h-1v-1h-1v-1h-2v-1h-1v-1h-2v-1h-2v-1h-2v-1h-2v-1h-2v-1h-2v-1h-2v-1h-1v-1h-2v-1h-2v-1" fill="url(#p)"/></g></g><path d="M-49.936-45.113l.192-.104h.001l-.193.104M-32.038-46.749v-.002.002" fill="#b81d24"/><g clip-path="url(#q)" transform="matrix(.03528 0 0 -.03528 -78.796 31.668)"><path d="M1245.54 2642.56c-2.4 0-4.86.07-7.33.21-64.87 3.75-105.24 72.65-105.24 72.65s17.92-17.66 55.83-23.02c14.97-3.94 32.15-6.79 50.53-6.79 21.57 0 44.78 3.93 67.99 14.62 50.41 23.24 73.25 67.62 83.54 100.92.84 2.54 1.3 4.28 1.49 5.04l.06.21c-1.24-6.43-32.78-163.84-146.87-163.84" fill="url(#r)"/></g><path d="M-38.827-64.126s2.599 1.205 5.787 0c3.19-1.205 3.605-4.53 3.605-4.53s-.166 3.648-3.242 5.066c-3.075 1.418-6.15-.536-6.15-.536" fill="#4e1613"/><g clip-path="url(#s)" transform="matrix(.03528 0 0 -.03528 -78.796 31.668)"><path d="M1222.59 2715.38c-29.69 0-51.92 5.15-51.92 5.15s.53-.01 1.52-.01c12.78 0 102.98 2.02 153.98 58.12 54.98 60.48 49.92 133.91 49.92 133.91s22.04-78-31.86-147.83c-31.29-40.55-82.84-49.34-121.64-49.34" fill="url(#t)"/></g><g clip-path="url(#u)" transform="matrix(.03528 0 0 -.03528 -78.796 31.668)"><path d="M1376.6 2916.33c-2.77 0-5.63 7.89-6.43 17.81-.81 10.05.81 18.39 3.62 18.62h.12c2.77 0 5.63-7.88 6.43-17.8.81-10.06-.8-18.4-3.62-18.62-.04-.01-.08-.01-.12-.01" fill="url(#v)"/></g><path d="M-38.173-75.918l.204-2.698 1.521 2.026zM-29.587-77.69l.665-1.862.605 2.113z" fill="#fff"/><path d="M-45.144-71.565s4.847-4.183 10.195-5.458c5.348-1.274 6.816-.332 6.816-.332l-2.133 3.99 1.068-2.96s-1.234-.643-5.584.161c-4.287.792-10.362 4.6-10.362 4.6" fill="#4c0e13"/><path d="M-36.282-87.742s.778-.98 1.663-1.787c1.07-.976 2.493-1.641 2.493-1.641l-.482.71 2.065-.472s-1.573.603-3.062 1.587c-1.406.93-2.285 2.126-2.285 2.126l.124-.637-.516.114M-40.074-88.396s-1.147-1.154-3.453-1.801c-2.307-.647-5.094-.845-5.094-.845l1.911.79-2.327-.416s1.205.762 3.546 1.26c2.341.5 5.25 1.852 5.25 1.852l-.567-1.048.734.208" fill="#86181c"/><path d="M-30.323-78.82s-.545-.013-1.453.064c-.193.016-.405.036-.631.063l-.183.02h-.003c-.32.04-.665.09-1.034.153-.336.056-.635.11-.908.16l-.482.086a46.422 46.422 0 00-1.423.273s.242-.243.698-.52c.05-.03.103-.062.163-.095a5.567 5.567 0 011.785-.629c.622-.106 1.267-.073 1.83.01l.062.01c.17.026.33.056.479.09.655.14 1.1.316 1.1.316" fill="#b81d24"/><path d="M-52.315-75.458c.183 1.277-.083 2.371-.594 2.445-.512.073-1.074-.903-1.257-2.18-.183-1.277.084-2.372.595-2.445.511-.073 1.074.903 1.256 2.18" fill="#f14857"/><path d="M-52.108-75.487c.183 1.276-.084 2.371-.595 2.444-.511.073-1.074-.903-1.256-2.18-.183-1.276.083-2.37.595-2.444.51-.073 1.073.903 1.256 2.18" fill="#86171c"/><path d="M-50.844-64.707c.12.846-.056 1.572-.395 1.62-.339.049-.711-.598-.833-1.444-.12-.847.056-1.572.395-1.621.339-.048.712.599.833 1.445" fill="#f14857"/><path d="M-50.681-64.716c.12.847-.056 1.572-.395 1.62-.339.049-.712-.598-.833-1.444-.12-.847.056-1.572.395-1.621.339-.048.711.598.833 1.445" fill="#86171c"/><path d="M-51.118-59.275c.12.846-.056 1.572-.394 1.62-.34.049-.712-.598-.833-1.445-.122-.846.055-1.572.394-1.62.339-.05.712.598.833 1.445" fill="#f14857"/><path d="M-50.959-59.275c.121.846-.055 1.572-.394 1.62-.339.049-.712-.598-.833-1.445-.12-.846.056-1.572.395-1.62.339-.05.711.598.832 1.445" fill="#86171c"/><path d="M-49.425-61.615c.081.572-.038 1.063-.267 1.095-.229.033-.48-.404-.563-.976-.081-.572.038-1.062.267-1.095.229-.033.48.404.563.976" fill="#f14857"/><path d="M-49.317-61.615c.081.572-.038 1.063-.267 1.095-.229.033-.48-.404-.563-.976-.082-.572.038-1.062.267-1.095.229-.033.48.404.563.976" fill="#86171c"/><path d="M-55.296-86.608c-.072.573-.316 1.015-.546.986-.23-.029-.358-.516-.286-1.09.072-.573.316-1.015.546-.986.23.029.357.517.286 1.09" fill="#f14857"/><path d="M-55.192-86.58c-.072.574-.316 1.015-.546.987-.23-.03-.357-.517-.286-1.09.072-.574.316-1.016.546-.987.23.03.357.517.286 1.09" fill="#86171c"/><path d="M-49.059-69.986c.272 1.902-.124 3.532-.886 3.64-.761.11-1.599-1.344-1.871-3.246-.272-1.901.125-3.531.886-3.64.761-.109 1.599 1.344 1.871 3.246" fill="#f14857"/><path d="M-48.743-70.03c.272 1.9-.125 3.53-.886 3.64-.762.108-1.6-1.345-1.871-3.247-.272-1.901.124-3.531.886-3.64.76-.109 1.599 1.344 1.87 3.246" fill="#86171c"/><path d="M-54.151-81.774c.191 1.338-.088 2.485-.623 2.562-.536.077-1.126-.946-1.317-2.285-.191-1.338.088-2.485.623-2.561.536-.077 1.126.946 1.317 2.284" fill="#f14857"/><path d="M-53.93-81.783c.192 1.338-.087 2.485-.623 2.562-.535.076-1.125-.946-1.316-2.284-.192-1.338.087-2.485.623-2.562.536-.077 1.125.946 1.317 2.284" fill="#86171c"/><g clip-path="url(#w)" transform="matrix(.03528 0 0 -.03528 -78.796 31.668)"><g clip-path="url(#x)"><path d="M1160 3519v1h-28v1h-16v1h-13v1h-13v1h-10v1h-9v1h-8v1h-7v1h-7v1h-6v1h-6v1h-6v1h-5v1h-6v1h-6v1h-5v1h-4v1h-5v1h-4v1h-5v1h-5v1h-4v1h-4v1h-4v1h-3v1h-4v1h-4v1h-4v1h-4v1h-3v1h-3v1h-4v1h-3v1h-3v1h-4v1h-3v1h-3v1h-3v1h-3v1h-3v1h-2v1h-3v1h-3v1h-3v1h-3v1h-2v1h-3v1h-3v1h-2v1h-3v1h-2v1h-3v1h-2v1h-3v1h-2v1h-2v1h-3v1h-2v1h-2v1h-2v1h-3v1h-2v1h-2v1h-2v1h-2v1h-2v1h-2v1h-2v1h-2v1h-2v1h-2v1h-2v1h-2v1h-2v1h-2v1h-2v1h-2v1h-2v1h-1v1h-2v1h-2v1h-2v1h-1v1h-2v1h-2v1h-1v1h-2v1h-2v1h-1v1h-2v1h-1v1h-2v1h-1v1h-2v1h-1v1h-2v1h-1v1h1v1h3v1h3v1h2v1h3v1h3v1h3v1h3v1h2v1h3v1h3v1h3v1h3v1h2v1h3v1h3v1h3v1h2v1h3v1h3v1h3v1h3v1h2v1h3v1h3v1h3v1h3v1h2v1h3v1h3v1h4v1h6v1h6v1h6v1h6v1h7v1h8v1h9v1h9v1h12v1h15v1h27v1h34v-1h26v-1h13v-1h14v-1h11v-1h8v-1h8v-1h8v-1h8v-1h6v-1h6v-1h6v-1h6v-1h5v-1h6v-1h4v-1h5v-1h4v-1h5v-1h5v-1h4v-1h4v-1h4v-1h4v-1h4v-1h4v-1h3v-1h4v-1h4v-1h3v-1h3v-1h4v-1h3v-1h3v-1h3v-1h4v-1h3v-1h3v-1h3v-1h2v-1h3v-1h3v-1h3v-1h3v-1h2v-1h3v-1h3v-1h2v-1h3v-1h2v-1h3v-1h2v-1h3v-1h2v-1h3v-1h2v-1h2v-1h2v-1h3v-1h2v-1h2v-1h2v-1h2v-1h3v-1h2v-1h2v-1h2v-1h2v-1h2v-1h2v-1h2v-1h2v-1h2v-1h2v-1h1v-1h2v-1h2v-1h2v-1h2v-1h1v-1h2v-1h2v-1h2v-1h1v-1h2v-1h2v-1h1v-1h2v-1h1v-1h2v-1h1v-1h2v-1h1v-1h2v-1h1v-1h2v-1h1v-1h1v-1h2v-1h1v-1h2v-1h1v-1h1v-1h1v-1h2v-1h1v-1h1v-1h1v-1h1v-1h1v-1h1v-1h1v-1h1v-1h1v-1h1v-1h1v-1h-2v-1h-5v-1h-5v-1h-5v-1h-5v-1h-5v-1h-6v-1h-5v-1h-6v-1h-6v-1h-6v-1h-6v-1h-8v-1h-7v-1h-7v-1h-8v-1h-8v-1h-9v-1h-9v-1h-12v-1h-12v-1h-14v-1h-19v-1h-31v-1" fill="url(#y)"/></g></g><path d="M-52.317-95.125s1.83-3.56 5.427-5.67c4.676-2.743 7.676-2.313 7.676-2.313l-3.489 1.785s.797-.223 2.38-.351c2.306-.187 3.096.207 3.096.207l-5.258 1.746s.682-.133 2.41-.042c1.642.087 2.217.34 2.217.34l-3.847 2.063s-7.479.424-10.612 2.235" fill="#4c0e13"/><g><g clip-path="url(#z)" transform="matrix(.03528 0 0 -.03528 -83.332 46.031)"><path d="M3167.24 2241.2s-13.11 10.39-35.47 25.48c-54.65 36.89-164.53 101.89-273.14 111.92-8.17.75-16.13 1.11-23.84 1.11-136.87 0-201.22-112.32-201.22-112.32l-27.13.38s-116.59 166.15-135.43 439.46c-18.85 273.3-12.91 460.57 5.93 475.93 9.71 7.91 54.66 47.97 127.61 83.79l1.22.65c64.37 31.53 150.38 59.63 252.85 59.63 6.6 0 13.26-.11 19.99-.35 230.9-8.29 336.93-170.77 347.57-204.98 10.56-34.21-73.5-452.37-66.44-603.16 5.6-119.42 24.02-217.38 31.44-252.97 1.95-9.36 3.15-14.4 3.15-14.4l-27.09-10.17m-8.96 581.65c-10.46 0-36.2-112.51-36.2-215.28 0-104.84 5.89-203.01 14.14-203.01 12.38 0 .14 113.23 5.43 217.49 5.3 104.25 27.35 195.9 17.25 200.66-.2.09-.41.14-.62.14m20.64 98.76c-3.98 0-10.55-17.07-14.86-38.76-4.4-22.18-4.77-40.79-.83-41.58.09-.01.18-.02.26-.02 3.99 0 10.56 17.06 14.87 38.76 4.4 22.18 4.77 40.79.82 41.57-.09.02-.17.03-.26.03" fill="url(#A)"/></g><path d="M23.346-49.474l-.25.971s-2.117 1.702-5.249 2.557l-.007.003c-1.659.452-3.607.668-5.672.266-4.11-.8-5.107-3.59-5.329-5.24l-.004-.043c-.09-.718-.036-1.21-.036-1.21l.422-.878s3.305 2.64 7.896 3.574c4.625.941 8.23 0 8.23 0M29.51-65.582s2.756-6.167 3.546-6.126c.79.042-1.649 5.206-1.649 5.206s7.3-4.167 8.381-2.504c1.08 1.662-8.27 3.424-8.27 3.424s4.447.815 4.198 1.646c-.25.83-5.237-.166-5.237-.166l-.969-1.48M19.341-66.776s2.224.408 4.447 1.697c2.223 1.288 2.91 2.576 2.91 2.576l-.25-1.018.894.395.997-1.163s-1.526-2.015-3.789-3.368c-2.327-1.391-5.042-1.827-5.042-1.827l-.104 1.023s.581.193 1.314.463c.611.225 1.224.654 1.224.654l-2.518-.651-.083 1.219M15.29-67.358s-2.224.409-4.448 1.697c-2.223 1.289-2.971 2.279-2.971 2.279l-.014-.776-.568.45-.997-1.163s1.526-2.015 3.789-3.367c2.327-1.392 5.042-1.828 5.042-1.828l.104 1.023s-.582.193-1.314.462c-.611.226-.883.437-.883.437l2.176-.433.083 1.22" fill="#4c0e13"/><path d="M27.006-57.486c-.323 3.328-2.653 5.825-5.206 5.577-2.553-.247-4.361-3.145-4.038-6.473.322-3.328 2.653-5.825 5.206-5.578 2.553.248 4.36 3.146 4.038 6.474M16.247-58.229c-.323 3.328-2.654 5.825-5.206 5.578-2.553-.247-4.361-3.146-4.039-6.473.323-3.328 2.654-5.825 5.206-5.578 2.553.248 4.361 3.146 4.039 6.473" fill="#8aa123"/><path d="M15.913-58.26c-.286 2.957-2.28 5.184-4.451 4.973-2.172-.21-3.7-2.778-3.414-5.736.287-2.958 2.28-5.185 4.452-4.974 2.172.21 3.7 2.779 3.413 5.736" fill="#bfe9ea"/><path d="M15.913-58.26c-.273 2.817-2.171 4.938-4.24 4.737-2.069-.2-3.525-2.646-3.251-5.464.272-2.817 2.17-4.939 4.24-4.738 2.069.2 3.525 2.647 3.251 5.464" fill="#fff"/><g clip-path="url(#B)" transform="matrix(.03528 0 0 -.03528 -83.332 46.031)"><path d="M2781.59 2961.08c-5.11-52.65-40.58-92.29-79.25-88.55-38.66 3.75-65.87 49.47-60.76 102.12 5.1 52.65 40.58 92.3 79.24 88.55 38.66-3.74 65.87-49.47 60.77-102.12" fill="url(#C)"/></g><path d="M14.094-58.46c-.129 1.329-1.024 2.33-2 2.235-.976-.094-1.663-1.248-1.534-2.578.129-1.328 1.024-2.329 2-2.234.976.094 1.663 1.248 1.534 2.577" fill="#4c0e13"/><path d="M15.76-58.854a1.403 1.403 0 11-2.792-.27 1.403 1.403 0 012.792.27M12.648-57.967a.513.513 0 11-1.022-.1.513.513 0 011.022.1" fill="#fff"/><path d="M18.026-58.542c-.395 2.945 1.038 5.568 3.201 5.858 2.163.29 4.236-1.863 4.63-4.808.396-2.945-1.038-5.568-3.2-5.858-2.163-.29-4.236 1.863-4.631 4.808" fill="#bfe9ea"/><path d="M18.026-58.542c-.376 2.806.99 5.304 3.05 5.58 2.06.276 4.034-1.774 4.41-4.58.376-2.805-.989-5.303-3.049-5.58-2.06-.276-4.035 1.775-4.411 4.58" fill="#fff"/><g clip-path="url(#D)" transform="matrix(.03528 0 0 -.03528 -83.332 46.031)"><path d="M2905.05 2961.71c-7.03-52.43 18.49-99.12 56.98-104.28 38.5-5.16 75.41 33.16 82.44 85.59 7.02 52.43-18.48 99.11-56.99 104.28-38.5 5.16-75.4-33.16-82.43-85.59" fill="url(#E)"/></g><path d="M19.843-58.321c-.177 1.323.467 2.502 1.438 2.632.972.13 1.904-.837 2.081-2.16.177-1.323-.467-2.502-1.438-2.632-.972-.13-1.903.837-2.08 2.16" fill="#4c0e13"/><path d="M22.543-57.997a1.402 1.402 0 102.78.373 1.402 1.402 0 00-2.78-.373M21.138-57.512a.512.512 0 101.016.137.512.512 0 00-1.016-.137" fill="#fff"/><path d="M17.847-45.946l-.007.003c-1.659.452-3.607.668-5.672.266-4.11-.8-5.107-3.59-5.329-5.24l-.004-.043s4.236 1.32 7.354 3.003c3.116 1.685 3.658 2.011 3.658 2.011" fill="#83142e"/><path d="M6.799-52.17l-.175 1.117s-.2 3.912 3.713 5.389c6.054 2.286 12.135-1.94 12.135-1.981 0-.042.625-.858.625-.858s-6.983 4.709-12.538 2.368c-4.518-1.904-3.76-6.035-3.76-6.035" fill="#c2e124"/><path d="M28.401-33.033s-5.487-4.349-10.887-4.847c-5.406-.499-7.94 3.923-7.94 3.923l-.956-.014S4.505-39.832 3.84-49.474c-.665-9.641-.455-16.248.21-16.79.342-.279 1.928-1.692 4.501-2.955-.416.246-3.744 2.52-3.797 12.288-.056 10.423 2.52 16.627 7.384 17.515 4.861.887 5.696-.11 10.959 2.383 5.183 2.457 5.386 4.359 5.304 4" fill="#8aa123"/><path d="M5.059-66.973s-1.968-5.649-3.256-5.774c-1.288-.124 1.87 5.486 1.87 5.486s-8.311-3.45-9.1-1.662c-.79 1.787 8.311 2.576 8.311 2.576s-6.15.375-6.15 1.372c0 .997 6.969-.23 6.969-.23l1.356-1.768" fill="#4c0e13"/><path d="M29.191-54.849s2.244 10.307 2.41 10.861c.167.554 1.08.914 1.787.956.707.042 1.621-.094 1.652.125.031.218-1.031.346-1.665.325-.634-.02-1.008-.29-1.008-.29s.342.428.966.56c.78.167 1.676-.107 1.79-.003.115.104-.634.605-1.61.582-.71-.017-1.112-.236-1.112-.236s.298.416.974.54c.675.126 1.218-.096 1.426.09.208.188-.758.624-1.475.52-.717-.104-2.036-1.34-2.036-1.34s.643.862.706 1.226c.062.363-.332.634-.332.634s-.156-.645-.54-1.164c-.385-.52-.115-2.047-.146-2.275-.032-.229-2.48-5.985-2.48-5.985s.332-4.82.693-5.126" fill="#9dd520"/><path d="M3.855-54.849S1.61-44.542 1.445-43.988c-.167.554-1.081.914-1.788.956-.706.042-1.62-.094-1.652.125-.03.218 1.032.346 1.666.325.634-.02 1.008-.29 1.008-.29s-.342.428-.966.56c-.78.167-1.677-.107-1.79-.003-.115.104.633.605 1.61.582.71-.017 1.112-.236 1.112-.236s-.299.416-.974.54c-.675.126-1.219-.096-1.427.09-.208.188.76.624 1.476.52.716-.104 2.036-1.34 2.036-1.34s-.644.862-.706 1.226c-.063.363.332.634.332.634s.156-.645.54-1.164c.385-.52.115-2.047.146-2.275.031-.229 2.48-5.985 2.48-5.985s-.333-4.82-.693-5.126M8.618-33.97s-3.697.438-3.476.826c.222.388 2.868-.416 2.868-.416s-3.053 1.136-2.877 1.469c.176.332 3.38-1.233 3.38-1.233s-2.149 1.537-1.678 1.787c.471.25 2.74-2.42 2.74-2.42l-.957-.014M29.357-33.392s2.814-.388 2.883-.112c.07.278-2.287.36-2.287.36s2.48.18 2.59.582c.111.402-2.909-.25-2.909-.25s1.912.749 1.718 1.067c-.194.319-2.95-1.288-2.95-1.288l.955-.359" fill="#8aa123"/><path d="M22.646-49.205l-.516.748-1.53 2.208-.694-2.257-.08-.257-.412.223-1.353.732-1.443-1.044-.077-.057-.109.027-.781.203-.765-.506-.276-.183-.661-.076-1.297-.15-.167-.342-.056-.117-.38-.046-1.678-.203-.293-.622-.083-.18-.16.067-2.506 1.051.216-2.184.04-.396s1.233 1.217 5.386 2.597c5.276 1.755 9.675.764 9.675.764" fill="#fff"/><path d="M22.646-49.205l-.516.748a30.68 30.68 0 01-2.224-.05l-.08-.256-.412.223a35.635 35.635 0 01-2.796-.312l-.077-.057-.109.027c-.166-.027-.336-.053-.509-.083a14.112 14.112 0 01-1.037-.22l-.276-.183-.661-.076a24.306 24.306 0 01-1.464-.492l-.056-.117-.38-.046a35.773 35.773 0 01-1.97-.825l-.084-.18-.16.067c-1.36-.622-2.29-1.133-2.29-1.133l.04-.396s1.233 1.217 5.386 2.597c5.276 1.755 9.675.764 9.675.764" fill="#bfe9ea"/><path d="M7.711-48.453l1.279-.954-.14 2.277s-.853-.813-1.139-1.323M15.065-45.535l.73-1.867.674 1.656s-.753.218-1.404.211" fill="#fff"/><path d="M19.826-46.799l-.186 1.334.874-1.065-.153-.5-.535.231" fill="#8aa123"/><g clip-path="url(#F)" transform="matrix(.03528 0 0 -.03528 -83.332 46.031)"><path d="M3136.22 2404.56c-8.25 0-14.14 98.17-14.14 203.01 0 102.77 25.74 215.28 36.2 215.28.21 0 .42-.05.62-.14 10.1-4.76-11.95-96.41-17.25-200.66-5.29-104.26 6.95-217.49-5.43-217.49" fill="url(#G)"/></g><g clip-path="url(#H)" transform="matrix(.03528 0 0 -.03528 -83.332 46.031)"><path d="M3163.49 2841.25c-.08 0-.17.01-.26.02-3.94.79-3.57 19.4.83 41.58 4.31 21.69 10.88 38.76 14.86 38.76.09 0 .17-.01.26-.03 3.95-.78 3.58-19.39-.82-41.57-4.31-21.7-10.88-38.76-14.87-38.76" fill="url(#I)"/></g><path d="M7.633-43.63c.272 1.112.131 2.101-.314 2.21-.445.109-1.026-.705-1.298-1.817-.271-1.112-.13-2.102.315-2.21.445-.11 1.026.704 1.297 1.817" fill="#c2e124"/><path d="M7.818-43.676c.271 1.113.13 2.102-.315 2.211-.445.109-1.026-.705-1.297-1.817-.272-1.112-.13-2.102.314-2.21.446-.109 1.026.705 1.298 1.816" fill="#667522"/><path d="M24.749-45.456c-.078.913.156 1.679.522 1.71.365.031.725-.684.802-1.597.078-.914-.155-1.68-.521-1.71-.366-.032-.726.683-.803 1.597" fill="#c2e124"/><path d="M24.597-45.469c-.077.913.156 1.68.522 1.71.366.031.725-.684.802-1.597.078-.914-.155-1.68-.521-1.71-.365-.032-.725.684-.803 1.597" fill="#667522"/><path d="M25.597-42.365c-.051.606.104 1.113.346 1.134.243.02.48-.454.533-1.06.05-.605-.104-1.113-.346-1.133-.243-.021-.481.453-.533 1.06" fill="#c2e124"/><path d="M25.497-42.374c-.051.606.103 1.114.346 1.134.242.02.48-.453.532-1.059.052-.606-.103-1.113-.346-1.134-.242-.02-.48.454-.532 1.06" fill="#667522"/><path d="M8.961-40.56c.14.574.068 1.085-.162 1.14-.23.057-.53-.363-.67-.937-.14-.574-.067-1.085.163-1.14.23-.057.53.363.67.937" fill="#c2e124"/><path d="M9.057-40.583c.14.574.067 1.084-.163 1.14-.23.057-.53-.363-.67-.937-.14-.574-.067-1.085.163-1.141.23-.056.53.364.67.938" fill="#667522"/><path d="M7.369-39.914c.1.41.047.775-.117.815-.164.04-.378-.26-.478-.67-.1-.41-.048-.775.116-.815.164-.04.378.26.479.67" fill="#c2e124"/><path d="M7.437-39.931c.1.41.048.775-.116.815-.165.04-.379-.26-.48-.67-.1-.41-.047-.775.117-.815.164-.04.378.26.479.67" fill="#667522"/><path d="M5.09-46.777c.026.434-.094.795-.268.805-.173.01-.336-.333-.362-.768-.026-.434.094-.795.268-.805.174-.01.336.333.362.768" fill="#c2e124"/><path d="M5.162-46.781c.026.434-.094.794-.268.805-.173.01-.335-.334-.362-.768-.026-.434.094-.795.268-.805.174-.01.336.333.362.768" fill="#667522"/><path d="M23.097-51.104s.008.99 0 2.091c-.008 1.102-.257 2.544-.257 2.544s.914-1.193.976-2.44c.062-1.247-.72-2.195-.72-2.195M8.35-54.56s-1.004 1.301-1.434 2.147c-.43.844-.97 2.382-.97 2.382s-.22-2.074.457-3.179c.655-1.07 1.948-1.35 1.948-1.35M7.711-45.695s1.279 1.524 3.913 2.023c2.982.564 4.845-.084 4.845-.084s-2.103 1.178-5.26.665c-2.22-.36-3.498-2.604-3.498-2.604" fill="#8aa123"/></g><g><path d="M-57.43-8.77c-1.076 2.95-3.59 4.14-3.59 4.14s-.389-.227-.98-.659a17.095 17.095 0 01-2.7-2.497 13.367 13.367 0 01-1.766-2.586c-.18-.353-.346-.719-.492-1.101a12.37 12.37 0 01-.631-2.244 11.756 11.756 0 01-.183-2.447l.003-.09c.096-2.503.987-4.292 1.462-4.611.486-.323.898 1.1 3.175 3.597.296.323.622.662.981 1.02.582.573 1.254 1.191 2.035 1.846a38.443 38.443 0 002.281 1.776c.13.096.259.192.392.285a5.283 5.283 0 01.013 3.57" fill="#f79021"/><path d="M-62.15-16.247c-.452.459-1.187 1.057-2.271 1.55-1.207.548-2.39.837-3.168.98a11.756 11.756 0 01-.183-2.447l.003-.09c.615.003 1.672-.03 2.722-.273a7.115 7.115 0 001.915-.74c.296.322.622.66.981 1.02M-58.686-13.258a11.981 11.981 0 01-2.869 3.504c-1.107.924-2.297 1.572-3.145 1.968a13.367 13.367 0 01-1.766-2.586c.599-.17 1.586-.526 3.003-1.29 1.881-1.02 2.932-2.201 3.347-2.74.44.369.915.751 1.43 1.144" fill="#f0373b"/><path d="M-62.52-5.69a17.191 17.191 0 01.001 0" fill="#e5d6d5"/><path d="M-62.519-5.69c-.418-.337-.893-.75-1.381-1.237a15.8 15.8 0 01-.8-.86c.848-.395 2.038-1.043 3.145-1.967a12.066 12.066 0 001.931-2.037 6.131 6.131 0 001.79-.835c.129.096.258.192.391.285 0 0 .032.074.075.209-.412.286-.781.563-1.095.822-.992.822-2.488 2.953-4.056 5.62" fill="#eb801a"/><path d="M-66.958-11.473a11.955 11.955 0 01-.631-2.244c.13.721.336 1.473.632 2.244" fill="#e5d6d5"/><path d="M-66.463-10.373a11.245 11.245 0 01-.495-1.1 12.37 12.37 0 01-.631-2.244c.343-.063.765-.155 1.233-.285a7.443 7.443 0 003.267 2.128c-.12.071-.246.142-.374.211-1.415.764-2.402 1.12-3 1.29" fill="#eb801a"/><path d="M-67.59-13.717a11.782 11.782 0 01-.183-2.447 8.833 8.833 0 001.417 2.162c-.469.13-.89.222-1.234.285M-64.7-7.786a13.332 13.332 0 01-1.763-2.587c.598-.17 1.585-.526 3-1.29.128-.07.253-.14.374-.211a6.19 6.19 0 001.888.301c.582 0 1.11-.087 1.577-.218a12.066 12.066 0 01-1.931 2.037c-1.107.924-2.297 1.572-3.144 1.968" fill="#ec3033"/><path d="M-64.837 23.35s1.323.5 1.323.77-1.87-.146-1.87-.146.083 1.04-.873.977c-.956-.062-1.184-.935-1.184-.935s-1.933.727-2.722.25c-.79-.479.893-.811.893-.811s-2.223-.104-2.348-.499 2.251-.602 2.251-.602l4.53.997M-38.863 27.756s-1.648-.214-1.897.288c-.25.502 2.244.585 2.244.585s1.122 1.33 2.285 1.372c1.164.041 1.172-1.33 1.172-1.33s2.901 1.08 3.94.706c1.04-.374-.688-1.333-.688-1.333s2.018.537 2.018 0-3.089-.87-3.089-.87l-5.985.582" fill="#382f4c"/><path d="M-62.965 2.203s-5.794-4.941-6.134-5.867c-.34-.926-.145-2.043-.024-3.213.179-1.738.532-1.693.532-1.897-.001-.368-.747-.41-1.136.25-.39.66-.47 1.648-.47 1.648s-2.276-2.79-2.703-2.688c-.426.102.853 2.328.853 2.328s-2.37-1.514-2.736-1.261c-.366.252 1.624 1.926 1.624 1.926s-1.905-.775-2.248-.624c-.343.151 1.612 1.35 1.612 1.35s-1.48.08-1.473.465c.003.209 1.829.783 2.132.925l2.889 1.365 4.547 9.677 2.735-4.384" fill="#349e7c"/><g clip-path="url(#J)" transform="matrix(.03528 0 0 -.03528 -93.537 47.165)"><path d="M1625.52 542.012c-40.65 0-75.73 8.187-75.73 8.187s-59.56 127.321-107.34 155.5c-17.95 10.539-139.16 26-257.66 36.031-69.89 5.911-138.84 9.93-185.11 9.93-24.043 0-41.953-1.09-50.696-3.551-10.523-3-22.609-7.961-35.132-13.929-47.043-22.43-100.297-59.11-100.297-59.11s-5.067-.488-13.856-.488c-11.98 0-30.886.91-53.336 5.207-34.683 6.59-61.261 23.551-61.261 23.551s-.18 4.832-.457 13.512c-1.442 45.589-5.481 197.597.457 316.348 4.738 94.76 103.714 311.31 194.144 465.05.008.02 0 0 .008.01 44.461 75.59 86.859 136.01 114.969 159.31 8.897 7.33 19.357 15.18 31.037 23.31 18.63 12.96 40.39 26.65 63.96 40.2 15.37 8.84 31.5 17.63 48.03 26.14-6.16-70.23 30.58-139.15 30.58-139.15s39.97 71.46 132.9 111.23c52.25 22.35 102.93 27.24 137.3 27.24 26.75 0 43.62-2.97 43.62-2.97s.01.03.02.09c24.04-29.84 49.57-67.25 74.92-110.96 0-.01-.01-.01-.01-.01l-.29-.67c-1.46-3.84-8.75-23.74-8.76-50.91 0-14.86 2.17-31.89 8.67-49.65 30.08-82.35 99.68-116.32 101.74-117.31 24.66-67.51 46-140.96 61.49-218.38 37.73-188.67 33.79-360.809 22.69-477.141-8.99-94.309-22.69-151.938-22.69-151.938-24.56-19.332-61.05-24.679-93.91-24.679m73.54 113.636c-3.9 0-7.07-14.148-7.07-31.609 0-17.449 3.17-31.609 7.07-31.609 3.9 0 7.07 14.16 7.07 31.609 0 17.461-3.17 31.609-7.07 31.609m.18 427.662c-3.32 0-6.65-2.25-6.84-6.47-1.94-44.11-4.27-117.301-3.55-203.711.63-76.5 2.7-149.899 4.48-201.348.15-4.312 3.48-6.543 6.8-6.543 3.07 0 6.13 1.903 6.68 5.844 7.79 56.008 17.56 135.387 20.91 202.047 3.79 75.332-10.94 156.561-21.94 204.931-.81 3.56-3.67 5.25-6.54 5.25" fill="url(#K)"/></g><path d="M-41.255-.564c-.635 3.419-3.275 5.797-5.899 5.31-2.623-.486-4.235-3.653-3.6-7.072.634-3.42 3.274-5.798 5.897-5.31 2.623.486 4.236 3.652 3.602 7.072" fill="#349e7c"/><path d="M-42.217-.547a7.323 7.323 0 01-.236.825 6.919 6.919 0 01-.828 1.668c-.658.965-1.52 1.66-2.444 1.968a3.248 3.248 0 01-1.725.104c-2.215-.496-3.461-3.345-2.786-6.36.674-3.016 3.015-5.06 5.23-4.565 2.217.495 3.464 3.341 2.789 6.36" fill="#bfe9ea"/><path d="M-50.238-2.342c-.642 2.873.547 5.585 2.657 6.057 2.11.472 4.341-1.475 4.984-4.348.643-2.874-.547-5.586-2.657-6.058-2.11-.471-4.341 1.475-4.984 4.349" fill="#fff"/><g clip-path="url(#L)" transform="matrix(.03528 0 0 -.03528 -93.537 47.165)"><path d="M1448.05 1329.1c-5.94-17.43-13.95-33.36-23.47-47.3-18.66-27.34-43.07-47.03-69.27-55.79-13.29-4.44-27.05-6.04-40.71-4.34-18.1 23.37-18.95 63.05.19 99.04l.56 1.05c4.81 8.76 10.37 16.77 16.68 23.65 25.45 28.55 60.89 40.05 87.55 25.54 15.18-8.2 24.89-23.47 28.47-41.85" fill="url(#M)"/></g><path d="M-43.281 1.946c-.658.965-1.52 1.66-2.444 1.968a1.242 1.242 0 01-.432-.139c-.838-.452-1.014-1.745-.395-2.883.615-1.137 1.795-1.695 2.63-1.24.694.376.934 1.33.64 2.294" fill="#4c0e13"/><path d="M-45.979 1.097a.763.763 0 101.474.396.763.763 0 00-1.474-.396M-47.4-.026a.534.534 0 101.03.277.534.534 0 00-1.03-.277" fill="#fff"/><path d="M-53.88-1.355c-.958 3.33-3.547 5.416-5.783 4.66-2.235-.756-3.27-4.067-2.313-7.397.959-3.33 3.548-5.416 5.783-4.66 2.236.756 3.271 4.067 2.313 7.397" fill="#349e7c"/><path d="M-53.966-1.24c-.088.273-.19.54-.303.794a7.331 7.331 0 01-.921 1.57c-.69.89-1.524 1.49-2.369 1.702a2.545 2.545 0 01-1.52-.078c-1.877-.722-2.63-3.68-1.685-6.605.946-2.924 3.234-4.711 5.111-3.989 1.88.722 2.634 3.678 1.687 6.606" fill="#bfe9ea"/><path d="M-60.765-3.857c-.9 2.787-.181 5.603 1.607 6.29 1.789.689 3.97-1.012 4.87-3.798.902-2.787.182-5.603-1.607-6.291-1.788-.688-3.969 1.013-4.87 3.799" fill="#fff"/><g clip-path="url(#N)" transform="matrix(.03528 0 0 -.03528 -93.537 47.165)"><path d="M1113.1 1349.62c-7.25-16.7-16.13-31.68-26.1-44.54-19.54-25.21-43.21-42.23-67.14-48.21-12.14-3.01-24.356-3.17-36.106-.06-13.055 25.08-9.109 64.58 11.867 98.34l.613.96c5.236 8.21 11.046 15.58 17.376 21.76 25.62 25.7 57.95 33.44 79.55 16.26 12.3-9.73 18.98-25.89 19.94-44.51" fill="url(#O)"/></g><path d="M-55.19 1.125c-.69.89-1.524 1.49-2.369 1.7a1.012 1.012 0 01-.361-.183c-.68-.536-.68-1.839-.005-2.904.672-1.065 1.77-1.497 2.445-.958.563.446.66 1.418.29 2.345" fill="#4c0e13"/><path d="M-57.448.002c-.143.392.018.833.36.984.344.15.738-.046.881-.439.144-.392-.017-.833-.36-.984-.343-.15-.738.046-.881.439M-58.559-1.26c-.1.274.013.582.253.687.24.106.516-.031.616-.306.1-.275-.013-.583-.253-.689-.24-.105-.515.032-.616.307" fill="#fff"/><path d="M-46.28 14.295c-.047-.153-.543-1.436-4.486-2.836-4.206-1.493-8.106-1.207-8.106-1.207s.064-.82.31-1.898c.542-2.354 1.971-5.932 5.595-4.791 3.967 1.25 5.752 6.696 6.39 9.322.173.705.263 1.204.29 1.37l.007.04" fill="#4c0e13"/><path d="M-46.28 14.295c-.047-.153-.543-1.436-4.486-2.836-4.206-1.493-8.106-1.207-8.106-1.207l.113-.88s2.96-1.13 6.183-.344c3.576.873 6 3.857 6 3.857l.289 1.37.007.04" fill="#83142e"/><path d="M-49.727 6.292l-.639.488-1.33 1.021-.342-3.112-.043-.405-.519.093-1.103.196-.29-.555-.043-.08-.11.073-.844.562-.167-.429-.126-.319-.252.459-1.59 2.882V5.128s.845-1.593 2.717-1.593c1.396 0 2.49.57 3.268 1.19l.007.007c.213.17.402.343.565.51a5.91 5.91 0 01.841 1.05M-59.285 10.212l-.707-4.322 3.81 4.53zM-51.275 11.216l5.58-3.414-2.079 5.527z" fill="#fff"/><path d="M-61.03 10.839l1.695-.932s2.391-.555 6.138.284c7.321 1.642 7.98 6.172 7.98 6.172s-1.83-4.239-8.375-5.299c-3.974-.643-6.088.27-6.088.27l-1.35-.495" fill="#4c0e13"/><path d="M-49.727 6.292l-.639.488c-.133-.352-.605-1.386-1.672-2.09l-.043-.406-.519.093a4.083 4.083 0 00-1.393-.36l-.043-.08-.11.074a3.23 3.23 0 00-1.01.133l-.127-.319-.252.459c-1.061.472-1.59 1.386-1.59 1.386v-.542s.845-1.593 2.717-1.593c1.396 0 2.49.57 3.268 1.19l.007.007c.192.167.385.34.565.51a5.91 5.91 0 01.841 1.05" fill="#87d4d9"/><path d="M-58.43 7.747l-.31-.37s.767-4.551 4.286-4.551c4.761 0 7.016 5.994 7.016 5.994l-.396.29s-2.586-5.967-6.588-5.76c-3.3.17-4.009 4.397-4.009 4.397" fill="#2f8f72"/><path d="M-40.52-7.698s-.719-1.481-2.27-2.808c-1.551-1.326-2.353-1.479-2.353-1.479l2.102-.02-.67-.765s1.91.102 2.967 1.424c1.057 1.32.98 3.331.98 3.331l-.63-.806-.126 1.123" fill="#4c0e13"/><path d="M-28.335-12.9l-.02.214a11.926 11.926 0 01-1.23 4.179A13 13 0 01-31.04-6.27c-1.852 2.304-4.006 3.548-4.006 3.548s-2.514-1.19-3.59-4.14c-.65-1.772-.077-3.337.002-3.547l.01-.023c.097-.067.19-.137.283-.203.366-.263.711-.522 1.044-.778.379-.29.738-.575 1.077-.855a33.185 33.185 0 002.617-2.384c.315-.322.601-.631.86-.924 2.109-2.364 2.514-3.693 2.983-3.381.452.3 1.277 1.915 1.443 4.206.04.578.04 1.197-.017 1.852" fill="#f79021"/><g clip-path="url(#P)" transform="matrix(.03528 0 0 -.03528 -93.537 47.165)"><path d="M1657.66 1286.91s199.48 82.46 216.76 104.46c17.28 21.99 22.38 59.25 33.63 90.64 11.19 31.22-1.63 48.36 1.99 52.85 6.55 8.12 19.9-2.58 24.62-23.79 4.71-21.2-2.52-42.73-2.52-42.73s95.98 60.61 106.58 54.12c10.6-6.47-53.56-60.6-53.56-60.6s93.02 28.21 100.68 18.19c7.66-10.01-76.53-45.88-76.53-45.88s82.74 4.26 90.67-2.81c7.92-7.07-80.9-27.88-80.9-27.88s53.02-9.38 49.48-19.68c-1.92-5.61-68.98-5.29-78.4-6.47-9.42-1.18-89.82-11.48-89.82-11.48L1693 1144.77s-37.24 9.57-52.06 62.6c-14.92 53.41 16.72 79.54 16.72 79.54" fill="url(#Q)"/></g><path d="M-38.864 27.755s-2.101-4.491-3.787-5.485c-1.2-.705-15.5-2.035-17.408-1.496-1.765.502-4.778 2.576-4.778 2.576s-.997.097-2.37-.166c-1.224-.233-2.161-.831-2.161-.831s-.25-6.65 0-11.637 7.896-19.532 10.905-22.026c.814-.671 1.998-1.463 3.351-2.24l2.537-.63.236 4.615s-4.08-.658-6.403.436c-2.321 1.094-6.011 8.645-6.178 16.567-.166 7.926 3.012 10.253 9.762 11.195 6.752.94 11.407 1.495 13.455 2.882 2.051 1.383 2.84 6.24 2.84 6.24" fill="#2f8f72"/><path d="M-52.584-13.525s-1.462.505-2.847 1.101c-1.139.49-2.397 1.33-2.397 1.33l.596-.914-.743.139s.547-1.28 1.92-1.996c1.697-.882 3.716-.757 3.716-.757l-1.105.743.86.354" fill="#4c0e13"/><path d="M-41.268-14.344s-3.104-.546-6.382.856c-3.279 1.403-4.689 3.924-4.689 3.924s-2.316-4.344-.237-7.337c1.061-1.528 2.59-1.473 2.59-1.473l-2.681-.852s2.193-1.33 4.946-.707c1.684.382 2.14 1.018 2.14 1.018l-1.304-2.452s3.863.294 5.335 2.536c1.06 1.613.282 4.487.282 4.487" fill="#382f4c"/><path d="M-52.161-12.329s-.14-1.579.748-2.913c.993-1.492 2.307-1.742 2.307-1.742l-2.349.23s1.233-1.13 3.853-1.13c.304 0 .627.015.968.049 3.243.321 4.6 2.451 4.6 2.451l-1.15-.56.52.913s-1.26-.497-3.115-.497c-.584 0-1.227.05-1.908.179-2.846.54-4.474 3.02-4.474 3.02" fill="#594b72"/><g clip-path="url(#R)" transform="matrix(.03528 0 0 -.03528 -93.537 47.165)"><path d="M1700.13 665.238c-3.32 0-6.65 2.231-6.8 6.543-1.78 51.449-3.85 124.848-4.48 201.348-.72 86.41 1.61 159.601 3.55 203.711.19 4.22 3.52 6.47 6.84 6.47 2.87 0 5.73-1.69 6.54-5.25 11-48.37 25.73-129.599 21.94-204.931-3.35-66.66-13.12-146.039-20.91-202.047-.55-3.941-3.61-5.844-6.68-5.844" fill="url(#S)"/></g><g clip-path="url(#T)" transform="matrix(.03528 0 0 -.03528 -93.537 47.165)"><path d="M1699.06 592.43c-3.9 0-7.07 14.16-7.07 31.609 0 17.461 3.17 31.609 7.07 31.609 3.9 0 7.07-14.148 7.07-31.609 0-17.449-3.17-31.609-7.07-31.609" fill="url(#U)"/></g><path d="M-57.78 12.703s2.1-.612 5.065.342c2.964.953 3.643 1.875 3.643 1.875l-8.708-2.217" fill="#2f8f72"/><path d="M-29.584-8.507a13 13 0 01-1.457 2.237c-.505-.12-1.686-.522-3.43-1.862-2.381-1.828-2.827-3.281-2.827-3.281.379-.29.738-.575 1.077-.855.43.579 1.466 1.846 2.943 2.703 1.39.812 2.919 1.011 3.694 1.058M-28.335-12.9c-.625.084-1.532.094-2.616-.219-1.33-.385-2.198-1.074-2.653-1.533.316-.322.601-.631.861-.924.426.23 1.077.499 2.041.712 1.028.226 1.819.21 2.384.113.04.578.04 1.197-.017 1.852" fill="#f0373b"/><path d="M-35.047-2.722h-.001c-.073-.036-2.528-1.234-3.59-4.14a5.081 5.081 0 01-.305-1.75c0-.96.257-1.661.309-1.797l.293-.226s.443.11 1.145.214c-.026.132.078.275.22.275a.238.238 0 00.1-.023c.074-.035.15-.07.228-.109.423.573 1.103 1.322 2.177 2.146 1.744 1.34 2.923 1.742 3.43 1.862-1.832 2.278-3.958 3.52-4.005 3.548" fill="#eb801a"/><path d="M-30.322-7.249c.263-.395.512-.815.738-1.258a11.927 11.927 0 001.23-4.18 11.926 11.926 0 01-1.968 5.438" fill="#e5d6d5"/><path d="M-29.584-8.507c-.775-.047-2.305-.246-3.694-1.058a8.424 8.424 0 01-.991-.677c1.015-.036 2.088-.191 3.055-.57 1.394-.545 2.298-1.26 2.86-1.874a11.926 11.926 0 01-1.23 4.179" fill="#eb801a"/><path d="M-31.042-6.27c-.506-.12-1.686-.523-3.43-1.862-1.074-.824-1.754-1.573-2.177-2.146l.117-.057a16.348 16.348 0 002.263.093c.303.24.634.47.99.677 1.39.812 2.92 1.011 3.695 1.058-.226.443-.475.863-.738 1.258-.231.345-.473.672-.72.979" fill="#ec3033"/><path d="M-36.705-10.355a18.797 18.797 0 01-.492-.066.224.224 0 01.087-.134l.177-.138c.065.104.14.216.228.338m1.488-.74a11.05 11.05 0 01-.523-.57 26.467 26.467 0 002.622-2.555c.193.153.42.311.68.464-.293.384-.626.78-1.003 1.178a10.288 10.288 0 01-1.776 1.482m3.68-3.987a7.849 7.849 0 01-.63-.224c.269-.318.511-.614.724-.88a.217.217 0 01.172-.088c.15 0 .293.159.206.333a12.99 12.99 0 01-.471.859" fill="#fcd69a"/><path d="M-36.532-10.335a48.53 48.53 0 01-.173-.02 6.584 6.584 0 01-.227-.338c.363-.284.77-.612 1.192-.973.152.177.327.37.523.57a12.44 12.44 0 01-1.315.76M-32.438-13.756a6.041 6.041 0 01-.68-.464c.344-.38.663-.745.951-1.087.185.075.395.15.63.224-.247.414-.545.862-.9 1.327" fill="#f9a8ae"/><path d="M-36.976-10.146c-.142 0-.247-.143-.22-.275.152.022.316.045.49.066l.057.077-.227.109a.238.238 0 01-.1.023" fill="#f5cf9a"/><path d="M-36.649-10.278l-.056-.077.173.02-.117.057" fill="#f7a8ac"/><path d="M-61.225-13.226c-.509-.319-1.05-.707-1.59-1.176a7.243 7.243 0 01-.74-.75c.278-.168.524-.34.74-.507a25.566 25.566 0 002.081 1.963 9.935 9.935 0 01-.49.47m-3.367-3.421a11.643 11.643 0 01-.53-1.072c-.08-.184.07-.34.227-.34.068 0 .138.03.19.1.237.326.51.685.815 1.062a7.257 7.257 0 01-.702.25" fill="#fcd69a"/><path d="M-63.556-15.152a9.296 9.296 0 01-1.035-1.495c.256-.077.49-.162.702-.25.325.401.685.822 1.074 1.238a7.618 7.618 0 01-.74.507M-60.103-12.628a.25.25 0 01-.114-.03 12.845 12.845 0 01-1.008-.568c.185-.165.348-.323.491-.47.272.229.532.44.774.63.195.154.062.438-.143.438" fill="#f9a8ae"/></g><g><path d="M16.155 25.717s8.597 6.112 9.092 6.41c.496.298 1.415-.05 1.965-.495s.865-.873 1.035-.733c.17.14-.259.664-.742 1.075-.482.411-.94.464-.94.464s.54.086 1.092-.236c.688-.402 1.167-1.208 1.321-1.208.155 0-.062.875-.8 1.515-.536.464-.981.574-.981.574s.501.107 1.085-.256c.583-.362.836-.892 1.115-.894.28 0-.301.948-.989 1.382-.612.386-1.703.362-1.703.362s.6.217.89.444c.291.227.18.693.18.693s-.548-.372-1.182-.497c-.634-.126-1.462-1.437-1.639-1.586-.177-.147-5.862-2.757-5.862-2.757s-2.998-3.79-2.937-4.257M13.313 25.883s-8.596 6.113-9.092 6.41c-.496.299-1.414-.05-1.965-.495-.55-.445-.827-.829-.997-.688-.17.14.221.62.704 1.03.483.412.941.463.941.463s-.541.086-1.092-.235C1.124 31.967.645 31.161.49 31.161c-.154 0 .062.874.8 1.514.536.465.981.574.981.574s-.5.107-1.084-.255C.604 32.63.35 32.1.07 32.1c-.28-.002.316.866.88 1.321.628.507 1.907.437 1.907.437s-.694.202-.985.43c-.29.226-.18.692-.18.692s.548-.372 1.182-.497c.634-.126 1.463-1.437 1.64-1.585.177-.149 5.861-2.758 5.861-2.758s2.999-3.79 2.937-4.257" fill="#58154c"/><path d="M.294 9.25l.023.147a8.269 8.269 0 001.026 2.834 8.98 8.98 0 001.101 1.484c1.377 1.513 2.918 2.281 2.918 2.281s1.686-.929 2.305-3.011a3.658 3.658 0 00-.153-2.45l-.008-.016c-.069-.042-.136-.086-.203-.128-.264-.166-.514-.33-.754-.493a26.447 26.447 0 01-.78-.545A23.01 23.01 0 013.86 7.817a17.68 17.68 0 01-.634-.602C1.67 5.672 1.333 4.77 1.023 5.005c-.3.226-.8 1.378-.819 2.967-.003.401.023.828.09 1.278" fill="#f4711f"/><path d="M1.343 12.231a8.98 8.98 0 001.101 1.484c.344-.104 1.143-.431 2.291-1.43C6.302 10.92 6.55 9.897 6.55 9.897a26.447 26.447 0 01-.78-.545c-.272.418-.935 1.337-1.918 1.992-.926.618-1.974.821-2.508.886M.294 9.25c.435.031 1.063 0 1.798-.262a4.26 4.26 0 001.768-1.17 17.68 17.68 0 01-.634-.603c-.284.177-.723.39-1.38.578-.7.2-1.247.221-1.642.179-.003.401.023.828.09 1.278" fill="#f6f57a"/><path d="M1.924 13.092A8.216 8.216 0 01.317 9.397a8.269 8.269 0 001.026 2.834c.18.306.376.593.581.861" fill="#e5d6d5"/><path d="M4.378 15.395a11.389 11.389 0 01-1.933-1.68c.344-.104 1.142-.432 2.29-1.43.707-.616 1.145-1.162 1.413-1.576l.162.065a.163.163 0 00.061.013c.103 0 .174-.107.15-.2.48-.102.782-.196.782-.196l.141.096c-1.12.493-1.43 1.185-1.43 1.185l.15-.01c-.917.662-1.537 1.224-1.617 1.541-.063.248-.12 1.035-.169 2.192M1.343 12.23A8.269 8.269 0 01.316 9.396c.415.402 1.07.857 2.055 1.175.61.196 1.271.266 1.905.266.078 0 .154 0 .23-.002-.2.178-.418.351-.655.51-.926.619-1.974.821-2.508.886" fill="#ef6618"/><path d="M2.445 13.715a9.602 9.602 0 01-.521-.623 8.556 8.556 0 01-.58-.86c.533-.066 1.58-.269 2.507-.887.237-.159.456-.332.655-.51.57-.015 1.11-.083 1.56-.16l.082.034c-.268.414-.706.96-1.413 1.575-1.148.999-1.946 1.327-2.29 1.431" fill="#e1d36b"/><path d="M6.184 10.653a4.66 4.66 0 00.143-.242c.043.03.086.06.128.087a.154.154 0 01.066.089c-.105.022-.217.044-.337.066m-1.06-.448a7.098 7.098 0 01-1.289-.948c-.277-.26-.524-.519-.743-.772.174-.117.324-.236.45-.35a18.455 18.455 0 001.919 1.653c-.097.13-.21.27-.337.417m-2.71-2.599a9.035 9.035 0 01-.363-.573c-.07-.12.03-.239.138-.239.04 0 .08.016.114.054.158.174.338.37.536.577-.124.06-.266.121-.426.181" fill="#fbc795"/><path d="M6.066 10.674a8.575 8.575 0 01-.942-.47c.128-.146.24-.286.338-.415.307.231.601.44.865.622-.04.074-.088.155-.143.242a4.847 4.847 0 01-.118.021M3.092 8.485a9.835 9.835 0 01-.679-.879c.16-.06.302-.121.426-.18.214.223.45.463.704.71a4.191 4.191 0 01-.45.35" fill="#fbfbd0"/><path d="M6.371 10.787a.164.164 0 01-.06-.013c-.053-.02-.107-.042-.163-.065l.036-.056c.12-.022.232-.044.337-.066.024.093-.047.2-.15.2" fill="#f6c397"/><path d="M6.148 10.71a7.1 7.1 0 01-.082-.036l.118-.02a2.863 2.863 0 01-.036.055" fill="#f4efc5"/><g clip-path="url(#V)" transform="matrix(.03528 0 0 -.03528 -92.403 68.71)"><path d="M2838.47 571.969h-29.5s-1.08 3.332-2.97 9.679c-10.49 35.321-45.83 164.071-57.82 333.184-1.97 28.047-3.58 60.547-4.85 95.778-.28 7.86-.55 15.87-.8 23.99-2.43 78.67-3.32 168.36-3.02 251.74.18 89.12 1.67 171.16 3.9 224.96 1.36 32.78 2.99 55.08 4.77 62.11 2.29 9.01 19.85 24.93 45.87 43.67l4.99.32s-10.51-22.18-11.77-35.8c0 0 26.1 19.78 52.54 27 31.17 8.53 58.58 9.11 65.43 9.11 1.07 0 1.64-.01 1.64-.01l-14.44 8.28s5.45 2.16 12.33 11.83c5.35 7.51 13.75 32.54 13.75 32.54s-11.25 0-58.83-10.67c62.16 37.13 136.07 73.96 182.35 86.76 10.65 3.01 19.79 4.71 27.04 4.81.37.01.74.01 1.11.01 45.9 0 118.69-49.72 168.4-92.99-49.71 43.27-122.5 92.99-168.4 92.99-.37 0-.74 0-1.11-.01-7.25-.1-16.39-1.8-27.04-4.81 0 0 45.58-28.32 94.01-79.04-6.59 1.8-13.6 3.33-21.04 4.49-47.29 7.42-89.21 13.1-89.21 13.1s12.22-29.15 19.99-37.91c9.99-11.26 17.92-13.78 17.92-13.78l-20.99-9.66s58.55-3.79 97.49-10.57c19.92-3.48 39.45-11.63 53.77-18.76 24.49-38.21 44.36-82.71 52.09-132.48 27.15-174.74-10.55-648.31-48.25-702.498-37.69-54.191-302.8-64.852-326.37-84.82-23.55-19.981-32.98-102.543-32.98-102.543m14.42 637.771s31.49-88.11 98.36-106.42c10.93-2.99 21.48-4.25 31.48-4.25 51.16 0 87.9 32.8 87.9 32.8s-38.8-21.94-82.67-21.94c-14.66 0-29.89 2.45-44.43 9-57.25 25.76-90.64 90.81-90.64 90.81m370.75-551.72c-8.13 3.859-44.27 5.57-90.23 5.57-30.23 0-64.7-.738-98.25-2.09-16.57-.66-32.91-1.469-48.4-2.422 46.86 2.863 101.56 4.512 146.75 4.512 45.91 0 82.02-1.699 90.13-5.57" fill="url(#W)"/></g><path d="M7.47 38.093c.184 1.277-.083 2.371-.594 2.445-.51.073-1.074-.903-1.256-2.18-.183-1.277.083-2.371.594-2.445.512-.073 1.074.903 1.257 2.18" fill="#58154c"/><path d="M7.677 38.063c.183 1.277-.083 2.372-.594 2.445-.512.073-1.074-.903-1.257-2.18-.182-1.276.084-2.371.595-2.444.511-.074 1.074.903 1.256 2.18" fill="#f4711f"/><path d="M5.96 33.148c.08.558-.044 1.038-.278 1.07-.233.034-.487-.39-.566-.949-.08-.557.044-1.036.278-1.07.233-.033.487.392.566.95" fill="#58154c"/><path d="M6.055 33.135c.08.558-.045 1.037-.278 1.07-.234.034-.487-.391-.567-.949-.08-.558.045-1.036.278-1.07.233-.033.487.392.567.95" fill="#f4711f"/><path d="M7.331 31.375c.08.558-.044 1.037-.278 1.07-.233.034-.487-.391-.567-.949-.08-.557.045-1.037.278-1.07.234-.033.487.392.567.949" fill="#58154c"/><path d="M7.426 31.362c.08.557-.045 1.036-.278 1.07-.234.033-.487-.392-.567-.95-.08-.557.044-1.036.278-1.07.233-.033.487.392.567.95" fill="#f4711f"/><path d="M5.878 24.668c.073.506-.04.94-.252.97-.211.03-.441-.355-.514-.86-.072-.506.041-.94.253-.97.21-.03.441.355.513.86" fill="#58154c"/><path d="M5.964 24.656c.072.506-.04.94-.252.97-.212.03-.442-.355-.514-.86-.073-.506.04-.94.252-.97.212-.03.442.355.514.86" fill="#f4711f"/><path d="M5.58 27.08c.035.245-.02.456-.123.47-.102.016-.214-.172-.25-.417-.034-.246.02-.457.123-.472.103-.015.215.173.25.418" fill="#58154c"/><path d="M5.621 27.074c.036.245-.019.456-.122.471-.103.015-.215-.173-.25-.418-.035-.246.02-.457.123-.472.103-.015.215.173.25.419" fill="#f4711f"/><path d="M7.672 34.69c.062.44-.036.819-.22.845-.184.026-.384-.309-.447-.749s.036-.817.22-.844c.184-.026.384.31.447.749" fill="#58154c"/><path d="M7.746 34.68c.063.44-.035.818-.22.844-.183.027-.383-.309-.447-.748-.062-.44.036-.818.22-.844.184-.026.384.309.447.748" fill="#f4711f"/><path d="M21.004 18.212c0 3.428-2.014 6.207-4.499 6.207-2.484 0-4.498-2.779-4.498-6.207 0-3.427 2.014-6.207 4.498-6.207 2.485 0 4.5 2.78 4.5 6.207M11.518 18.74c.265 3.418-1.068 6.309-2.978 6.457-1.91.148-3.672-2.502-3.937-5.92-.265-3.417 1.068-6.308 2.977-6.456 1.91-.148 3.673 2.502 3.938 5.92" fill="#58154c"/><path d="M12.596 18.53c.18 3.022 1.94 5.305 3.93 5.1 1.988-.207 3.454-2.824 3.273-5.847-.182-3.023-1.941-5.306-3.93-5.1-1.99.206-3.455 2.823-3.273 5.846" fill="#bfe9ea"/><path d="M12.596 18.53c.172 2.879 1.848 5.054 3.743 4.857 1.895-.196 3.29-2.69 3.118-5.569-.173-2.88-1.849-5.054-3.743-4.858-1.895.196-3.291 2.69-3.118 5.57" fill="#fff"/><g clip-path="url(#X)" transform="matrix(.03528 0 0 -.03528 -92.403 68.71)"><path d="M3018.66 1426.26c3.23-53.81 34.55-94.46 69.96-90.79 35.41 3.66 61.5 50.26 58.26 104.07-3.22 53.82-34.55 94.46-69.95 90.79-35.41-3.66-61.49-50.26-58.27-104.07" fill="url(#Y)"/></g><path d="M14.731 18.366c.082 1.359.872 2.384 1.766 2.292.894-.093 1.552-1.27 1.47-2.627-.08-1.358-.871-2.384-1.765-2.291-.894.092-1.552 1.268-1.47 2.626" fill="#4c0e13"/><path d="M16.799 17.273c.047.788.658 1.367 1.364 1.294.706-.073 1.24-.771 1.193-1.56-.047-.787-.658-1.367-1.364-1.294-.706.074-1.24.772-1.193 1.56M16.038 18.875c.017.289.24.5.499.474.258-.027.453-.282.436-.57-.017-.288-.24-.5-.499-.474-.258.027-.454.282-.436.57" fill="#fff"/><path d="M5.516 19.904c.472 2.816 2.137 4.748 3.717 4.314 1.58-.434 2.477-3.069 2.004-5.886-.473-2.816-2.137-4.748-3.717-4.313-1.58.433-2.477 3.069-2.004 5.885" fill="#bfe9ea"/><path d="M5.516 19.904c.45 2.683 2.035 4.523 3.54 4.11 1.505-.414 2.36-2.924 1.91-5.607-.451-2.683-2.037-4.522-3.541-4.11-1.505.414-2.36 2.924-1.91 5.607" fill="#fff"/><g clip-path="url(#Z)" transform="matrix(.03528 0 0 -.03528 -92.403 68.71)"><path d="M2829.51 1394.07c8.42-50.13 38.05-84.52 66.17-76.79 28.13 7.72 44.1 54.62 35.68 104.76-8.42 50.14-38.05 84.52-66.16 76.8-28.13-7.73-44.11-54.63-35.69-104.77" fill="url(#aa)"/></g><path d="M7.93 19.426c.213 1.265.96 2.133 1.67 1.938.71-.195 1.113-1.379.9-2.644-.212-1.266-.96-2.133-1.67-1.938-.71.194-1.112 1.378-.9 2.644" fill="#4c0e13"/><path d="M8.876 18.567c.123.735.678 1.205 1.238 1.051.561-.154.916-.874.793-1.609-.124-.734-.678-1.204-1.24-1.05-.56.154-.915.874-.791 1.608M8.34 19.964c.045.269.248.44.453.384.205-.056.335-.32.29-.588-.045-.269-.248-.44-.453-.384-.205.056-.336.32-.29.588" fill="#fff"/><path d="M24.645 48.073l-.998.748s-1.452-2.909-2.327-3.325c-.87-.415-10.885-.122-11.969.416-1.077.539-1.62 2.62-1.62 2.62s.333-2.913 1.164-3.617c.832-.705 10.184-1.08 11.514-2.993 1.33-1.911 2.66-18.618 1.702-24.782-.957-6.164-7.198-10.04-7.198-10.04.376-.107.698-.167.954-.17 2.42-.043 7.036 3.947 7.78 5.153.752 1.207.708 26.056.998 29.59.292 3.534 0 6.4 0 6.4" fill="#58154c"/><path d="M29.051 8.946l-.022.146a8.262 8.262 0 01-1.027 2.835 9.009 9.009 0 01-1.1 1.484c-1.378 1.513-2.918 2.281-2.918 2.281s-1.686-.929-2.306-3.011a3.665 3.665 0 01.153-2.451l.008-.015c.07-.042.137-.087.204-.129.263-.165.513-.33.754-.493.274-.184.534-.366.78-.544.76-.55 1.386-1.066 1.908-1.536.232-.21.443-.411.634-.602 1.556-1.544 1.893-2.445 2.203-2.21.3.226.801 1.377.82 2.967a8.22 8.22 0 01-.09 1.278" fill="#f4711f"/><path d="M28.002 11.927a9.009 9.009 0 01-1.1 1.484c-.345-.104-1.143-.432-2.292-1.432-1.567-1.364-1.813-2.386-1.813-2.386.274-.184.534-.366.78-.544.272.417.935 1.336 1.918 1.991.926.62 1.974.822 2.507.887M29.051 8.946c-.435.031-1.062 0-1.798-.262a4.264 4.264 0 01-1.768-1.171c.232-.21.443-.411.634-.602.284.176.723.39 1.38.578.7.2 1.248.221 1.642.179a8.22 8.22 0 01-.09 1.278" fill="#f6f57a"/><path d="M23.984 15.692" fill="#571141"/><path d="M27.452 12.748c.194-.257.38-.53.55-.82a8.262 8.262 0 001.027-2.835 8.262 8.262 0 01-1.577 3.655" fill="#e5d6d5"/><path d="M23.984 15.692s-1.686-.929-2.306-3.011a3.487 3.487 0 01-.143-1c0-.777.25-1.35.296-1.451l.212-.144s.301.095.782.197c-.025.093.046.2.15.2.019 0 .04-.004.06-.013.053-.02.107-.042.162-.065.268.414.706.96 1.413 1.574 1.148.999 1.946 1.327 2.29 1.432-1.36 1.496-2.882 2.264-2.916 2.28v.001m4.018-3.765c-.533-.065-1.581-.268-2.507-.887a5.82 5.82 0 01-.656-.51c.076.002.153.003.23.003.634 0 1.295-.07 1.905-.266.985-.318 1.64-.773 2.055-1.175a8.262 8.262 0 01-1.027 2.835" fill="#ef6618"/><path d="M26.9 13.41c-.344-.104-1.142-.432-2.29-1.43-.707-.616-1.145-1.161-1.413-1.575l.083-.035c.45.078.99.145 1.56.16.199.179.417.352.655.51.926.62 1.974.822 2.507.887-.17.29-.356.564-.55.821a9.46 9.46 0 01-.552.663" fill="#e1d36b"/><path d="M23.162 10.35c-.12-.023-.233-.045-.337-.067a.156.156 0 01.065-.09l.129-.087c.04.074.088.156.143.243M24.22 9.9a7.978 7.978 0 01-.337-.415 18.3 18.3 0 001.919-1.653c.127.113.276.232.45.349-.22.253-.466.512-.743.771a7.098 7.098 0 01-1.29.948m2.712-2.598a5.423 5.423 0 01-.426-.181c.199-.208.378-.403.537-.578a.152.152 0 01.113-.053c.108 0 .207.119.138.239a9.134 9.134 0 01-.362.573" fill="#fbc795"/><path d="M23.28 10.37l-.118-.02a4.423 4.423 0 01-.143-.244c.263-.18.557-.39.865-.621.097.128.21.269.337.415-.328.19-.648.346-.941.47M26.253 8.181a4.195 4.195 0 01-.45-.35c.253-.247.49-.486.703-.71.124.06.266.12.426.18a9.706 9.706 0 01-.679.88" fill="#fbfbd0"/><path d="M22.974 10.482c-.103 0-.174-.106-.15-.2.105.023.218.045.338.067l.035.056-.162.065a.162.162 0 01-.06.012" fill="#f6c397"/><path d="M23.197 10.405l-.035-.056.118.021-.083.035" fill="#f4efc5"/><path d="M24.645 48.073s3.229-2.355 3.672-2.216c.443.138-1.836 2.216-1.836 2.216s2.886-1.21 3.222-.914c.394.347-2.845 1.751-2.845 1.751s2.578.156 2.387.674c-.145.394-4.47-.174-5.011-.394-.462-.19-.587-.369-.587-.369l.998-.748M6.691 48.532s-4.362.04-4.237.497c.124.457 3.27.278 3.27.278s-2.384 1.108-2.3 1.523c.083.416 3.083-.751 3.083-.751s-.813 2.122-.287 2.205c.527.083 1.512-3.752 1.512-3.752h-1.04" fill="#58154c"/><path d="M14.316 7.287s-3.48-4.236-3.038-4.596c.443-.36 3.574 3.99 3.574 3.99S13.217.474 13.966.17c.748-.305 2.078 6.32 2.078 6.32s.72-6.32 2.272-6.487c1.551-.166-1.358 6.151-1.358 6.151s2.66-1.58 3.435-1.164c.776.416-2.97 2.297-2.97 2.297h-3.107" fill="#300c12"/><path d="M19.996 36.811c-.117.817.053 1.517.38 1.563.327.047.687-.577.804-1.394.117-.816-.054-1.516-.38-1.563-.328-.047-.687.577-.804 1.394" fill="#58154c"/><path d="M19.864 36.792c-.117.817.053 1.517.38 1.563.327.047.687-.577.804-1.394.116-.816-.054-1.516-.38-1.563-.328-.047-.687.577-.804 1.394" fill="#f4711f"/><path d="M18.943 34.38c-.059.411.027.764.192.787.164.023.345-.29.404-.701.059-.412-.027-.764-.192-.787-.164-.024-.345.29-.404.701" fill="#58154c"/><path d="M18.877 34.37c-.06.412.027.764.19.788.166.023.347-.291.406-.702.058-.411-.027-.764-.192-.787-.164-.023-.346.29-.404.702" fill="#f4711f"/><path d="M20.292 32.958c-.045.802.178 1.466.499 1.484.32.018.617-.617.663-1.418.045-.801-.178-1.466-.499-1.484-.32-.018-.617.617-.663 1.418" fill="#58154c"/><path d="M20.162 32.951c-.045.801.178 1.466.499 1.484.32.018.617-.617.663-1.418.045-.801-.178-1.466-.499-1.484-.32-.018-.617.617-.663 1.418" fill="#f4711f"/><path d="M21.028 28.579c-.022.395.088.723.246.732.159.01.305-.304.328-.7.023-.395-.088-.723-.246-.732-.159-.009-.305.304-.328.7" fill="#58154c"/><path d="M20.964 28.575c-.022.396.088.724.246.733.159.009.305-.305.328-.7.022-.396-.088-.724-.247-.733-.158-.008-.304.305-.327.7" fill="#f4711f"/><path d="M21.257 23.991c-.023.396.087.724.246.733.158.009.305-.305.327-.7.022-.396-.088-.723-.246-.732-.158-.01-.305.304-.327.7" fill="#58154c"/><path d="M21.193 23.988c-.023.395.087.723.246.732.158.009.304-.304.327-.7.022-.395-.088-.723-.246-.732-.159-.009-.305.304-.327.7" fill="#f4711f"/><path d="M20.056 23.923c-.017.301.067.551.188.558.12.007.232-.232.25-.533.016-.3-.068-.55-.189-.557-.12-.007-.231.231-.249.532" fill="#58154c"/><path d="M20.008 23.92c-.017.302.066.552.187.558.12.007.232-.232.25-.533.016-.3-.068-.55-.188-.557-.12-.007-.232.232-.249.532" fill="#f4711f"/><path d="M21.072 12.915s-1.321-.87-2.696-1.11c-1.373-.24-3.439-.374-3.439-.374l.74-.34s-.279-.09-.631-.486c-.275-.31-.706-1.338-.706-1.338s1.48.2 3.147.462c2.324.364 3.455 1.738 3.455 1.738l-.474-.024s.539.912.604 1.472" fill="#300c12"/><path d="M20.188 11.582s-.952-.926-3.072-1.083c-1.59-.117-2.075-.738-2.075-.738l1.362.244-.888-.367s1.4.02 2.75.4c1.35.378 2.02 1.053 2.02 1.053l-.429-.122.332.613" fill="#641217"/><path d="M5.926 12.915s.92-.698 1.853-.953c1.272-.348 2.366-.321 2.366-.321l-.51-.292s.193-.076.436-.417c.188-.265.485-1.148.485-1.148s-.41 0-2.165.396c-1.9.43-2.377 1.492-2.377 1.492l.327-.02s-.371.782-.415 1.263" fill="#300c12"/><path d="M6.533 11.838l.229-.526-.296.104s.461-.58 1.39-.904c.928-.325 2.05-.425 2.05-.425l-.77.397.937-.209s-.485.383-1.427.633c-.942.25-2.113.93-2.113.93" fill="#641217"/><g clip-path="url(#ab)" transform="matrix(.03528 0 0 -.03528 -92.403 68.71)"><path d="M2982.73 1099.07c-10 0-20.55 1.26-31.48 4.25-66.87 18.31-98.36 106.42-98.36 106.42s33.39-65.05 90.64-90.81c14.54-6.55 29.77-9 44.43-9 43.87 0 82.67 21.94 82.67 21.94s-36.74-32.8-87.9-32.8" fill="url(#ac)"/></g><path d="M19.912 25.34l-.707 2.13.461 1.694-2.137-.142.177.537s-1.255 1.08-3.052 1.547c-1.782.464-3.76.132-3.76.132L9 29.237l-1.926-1.02.353-2.8s1.811 5.361 5.343 5.127c4.189-.279 7.143-5.204 7.143-5.204" fill="#58154c"/><path d="M7.773 26.619l-.817 1.866 1.593-.443zM9.083 28.686l-.534 1.101 1.157-.27zM10.87 30.265v1.268l1.137-.831zM13.613 30.618l1.33.81.166-1.163zM17.706 28.104l1.96 1.06-.692-2.545zM16.21 29.413l1.496.146-.353-1.074z" fill="#fff"/><path d="M7.55 25.355s1.623 5.097 5.28 5.014c3.657-.083 7.037-5.153 7.037-5.153l.139.034s-3.103 5.743-7.162 5.743c-4.142 0-5.418-5.448-5.418-5.448l.124-.19" fill="#4c0e13"/><path d="M18.37 24.537s.75.263 1.539.956c.79.692 1.053 1.344 1.053 1.344s-.19-1.22-.857-1.898c-.667-.68-1.734-.402-1.734-.402M8.452 24.717s-.615.517-1.028.985c-.413.47-.759 1.647-.759 1.647s-.125-1.08.31-1.798c.496-.816 1.477-.834 1.477-.834" fill="#58154c"/></g></svg>