<svg xmlns="http://www.w3.org/2000/svg" width="136.786" height="177.972" viewBox="0 0 36.191 47.088"><defs><clipPath clipPathUnits="userSpaceOnUse" id="a"><path d="M109.105 260.874h37.311v-29.566h-37.311z"/></clipPath><clipPath clipPathUnits="userSpaceOnUse" id="b"><path d="M200.562 322.334h90.826v-88.68h-90.826z"/></clipPath><clipPath clipPathUnits="userSpaceOnUse" id="c"><path d="M361.517 148.688h49.314v-6.321h-49.314z"/></clipPath><clipPath clipPathUnits="userSpaceOnUse" id="d"><path d="M371.807 150.763h1.04v-10.739h-1.04z"/></clipPath><clipPath clipPathUnits="userSpaceOnUse" id="e"><path d="M385.284 151.312h1.039v-11.837h-1.039z"/></clipPath><clipPath clipPathUnits="userSpaceOnUse" id="f"><path d="M378.545 151.183h1.04v-11.579h-1.04z"/></clipPath><clipPath clipPathUnits="userSpaceOnUse" id="g"><path d="M365.069 149.973h1.04v-9.159h-1.04z"/></clipPath><clipPath clipPathUnits="userSpaceOnUse" id="h"><path d="M405.498 150.082h1.04v-9.377h-1.04z"/></clipPath><clipPath clipPathUnits="userSpaceOnUse" id="i"><path d="M412.236 148.756h1.04v-6.726h-1.04z"/></clipPath><clipPath clipPathUnits="userSpaceOnUse" id="j"><path d="M392.022 151.21h1.039v-11.633h-1.039z"/></clipPath><clipPath clipPathUnits="userSpaceOnUse" id="k"><path d="M398.76 150.825h1.04v-10.864h-1.04z"/></clipPath><clipPath clipPathUnits="userSpaceOnUse" id="l"><path d="M461.268 158.489h6.489v-17.113h-6.489z"/></clipPath><clipPath clipPathUnits="userSpaceOnUse" id="m"><path d="M464.656 164.865h5.13v-5.033h-5.13z"/></clipPath></defs><path d="M17.639 31.184c-5.588-.1-5.289-16.365-.67-16.755 5.948-.503 5.361 16.839.67 16.755m-.67-27.311C1.806 4.335 2.308 22.22 2.308 22.22s-.325 18.698 10.807 20.19c8.126 1.09 14.912-.251 17.76-8.88C33.724 24.9 33.473 3.37 16.97 3.873" fill="#e56c25"/><path d="M30.875 33.53l.014-.044c-2.832-1.029-7.52-2.713-11.046-3.885-.578.991-1.317 1.6-2.204 1.583-1.341-.024-2.342-.98-3.027-2.424-.197.703.394 1.935.394 1.935s-1.962-2.765-2.81-3.078c-.847-.312 1.74 3.211 1.74 3.211s-.892-.669-1.516-.669c-.625 0 1.115 2.408 1.115 2.408s-.937-.49-1.74-.713c-.802-.223.758 1.605.758 1.605s-3.612-.98-4.726-.98c-1.115 0 .133 2.853.133 2.853s-1.159-.758-1.694-.802c-.535-.045.758 2.14.758 2.14l-2.222-1.307c1.574 3.507 4.311 6.76 8.465 7.461 8.268 1.395 14.76-.665 17.608-9.294" fill="#e7caa9"/><path d="M10.77 37.228s1.204 1.337 1.404.602c.201-.736-.468-2.676-.468-2.676s3.077.936 3.077.2c0-.735-.401-1.604-.401-1.604s2.542.4 2.542-.134c0-.536-2.14-2.141-2.14-2.141s1.605.803 1.538.067a18.328 18.328 0 00-.106-.792c-.655-.418-1.188-1.113-1.604-1.99-.197.703.394 1.935.394 1.935s-1.962-2.765-2.81-3.077c-.846-.313 1.74 3.21 1.74 3.21s-.892-.669-1.516-.669c-.625 0 1.115 2.408 1.115 2.408s-.937-.49-1.74-.713c-.802-.223.759 1.605.759 1.605s-3.613-.98-4.728-.98c-1.114 0 .134 2.854.134 2.854s-1.16-.759-1.694-.803c-.535-.045.758 2.14.758 2.14l-2.222-1.306c1.201 2.676 3.081 5.204 5.752 6.563-.94-.647-1.717-1.427-2.125-2.358-.08-.184 7.425 4.615 15.451 1.27 0 0-8.227 2.141-13.11-3.611" fill="#ffdfb7"/><path d="M29.32 13.025c.75.45 1.726 3.525.75 3.6-.975.075-1.5-4.05-.75-3.6M28.117 15.399c.49.357.713 2.14.178 2.185-.535.044-.669-2.542-.178-2.185M27.805 10.003c.936.402 1.337 1.962.713 2.051-.624.09-1.65-2.452-.713-2.05" fill="#eb911d"/><path d="M16.968 14.43c4.276-.362 5.175 8.495 3.6 13.475.393-.49.679-.963.77-1.313 1.405-5.351 1.16-20.647-7.67-15.742-4.578 2.544-2.498 11.868.451 16.619-1.48-4.853-.356-12.769 2.85-13.04" fill="#ffcb80"/><path d="M22.476 28.465s-.535-8.629.401-8.227c.937.4 3.612 5.953 3.478 6.555-.133.602-3.88 1.672-3.88 1.672" fill="#e88021"/><path d="M23.453 27.33s-.608-5.51-.213-5.06c.393.45 2.771 4.53 2.371 5.119-.4.588-2.158-.06-2.158-.06" fill="#ffcb80"/><path d="M30.15 19.013c.75.607 2.953 7.796.608 10.894l-3.697-3.14s2.338-8.36 3.088-7.754" fill="#e88021"/><path d="M28.57 26.436s1.302-5.388 1.52-4.831c.217.557 1.065 5.203.49 5.62-.577.417-2.01-.79-2.01-.79" fill="#ffcb80"/><path d="M22.955 27.61s-5.367 11.552-12.008 7.745c0 0 6.218 8.758 16.256 2.49 10.037-6.268.621-16.828-4.248-10.235" fill="#e88021"/><path d="M25.192 29.861a4.338 4.338 0 11-8.634.848 4.338 4.338 0 018.634-.848" fill="#fff"/><path d="M24.05 29.816a2.797 2.797 0 11-5.567.546 2.797 2.797 0 015.568-.546" fill="#4f244c"/><path d="M33.866 30.782a4.083 4.083 0 11-8.127.797 4.083 4.083 0 018.127-.797" fill="#fff"/><path d="M32.15 30.6a2.797 2.797 0 11-5.568.546 2.797 2.797 0 015.567-.546M10.859 34.262c2.14-.535 4.103 2.497 2.23 3.3-1.873.803-4.37-2.764-2.23-3.3" fill="#4f244c"/></svg>