<svg xmlns="http://www.w3.org/2000/svg" width="136.786" height="177.972" viewBox="0 0 36.191 47.088"><defs><clipPath clipPathUnits="userSpaceOnUse" id="a"><path d="M109.105 260.874h37.311v-29.566h-37.311z"/></clipPath><clipPath clipPathUnits="userSpaceOnUse" id="b"><path d="M200.562 322.334h90.826v-88.68h-90.826z"/></clipPath><clipPath clipPathUnits="userSpaceOnUse" id="c"><path d="M361.517 148.688h49.314v-6.321h-49.314z"/></clipPath><clipPath clipPathUnits="userSpaceOnUse" id="d"><path d="M371.807 150.763h1.04v-10.739h-1.04z"/></clipPath><clipPath clipPathUnits="userSpaceOnUse" id="e"><path d="M385.284 151.312h1.039v-11.837h-1.039z"/></clipPath><clipPath clipPathUnits="userSpaceOnUse" id="f"><path d="M378.545 151.183h1.04v-11.579h-1.04z"/></clipPath><clipPath clipPathUnits="userSpaceOnUse" id="g"><path d="M365.069 149.973h1.04v-9.159h-1.04z"/></clipPath><clipPath clipPathUnits="userSpaceOnUse" id="h"><path d="M405.498 150.082h1.04v-9.377h-1.04z"/></clipPath><clipPath clipPathUnits="userSpaceOnUse" id="i"><path d="M412.236 148.756h1.04v-6.726h-1.04z"/></clipPath><clipPath clipPathUnits="userSpaceOnUse" id="j"><path d="M392.022 151.21h1.039v-11.633h-1.039z"/></clipPath><clipPath clipPathUnits="userSpaceOnUse" id="k"><path d="M398.76 150.825h1.04v-10.864h-1.04z"/></clipPath><clipPath clipPathUnits="userSpaceOnUse" id="l"><path d="M461.268 158.489h6.489v-17.113h-6.489z"/></clipPath><clipPath clipPathUnits="userSpaceOnUse" id="m"><path d="M464.656 164.865h5.13v-5.033h-5.13z"/></clipPath></defs><path d="M26.776 9.013s3.68-3.887 4.277-2.476-1.831 4.52-3.525 4.155z" fill="#ffba11"/><path d="M27.409 9.869s2.479-3.234 3.04-2.598c.56.637-1.435 3-3.04 2.598" fill="#e46a24"/><path d="M21.374 5.675s2.06-4.94 3.12-3.833c1.059 1.107-.108 4.875-1.82 5.135z" fill="#ffba11"/><path d="M22.27 6.25s1.17-3.903 1.92-3.507c.749.396-.277 3.313-1.92 3.507" fill="#e46a24"/><path d="M5.914 15.959C8.736 11.4 16.794 4.994 20.648 5.25c3.854.257 7.024 3.426 7.452 5.14.429 1.713.686 34.179-2.227 35.806-2.912 1.627-10.707.942-11.307-1.37-.6-2.314.857-20.56.857-20.56s-2.999 1.97-6.168.343c-3.17-1.627-5.568-5.054-3.34-8.651" fill="#ffba11"/><path d="M13.962 24.925c-.573-4.437-3.914-7.975-8.185-8.73-1.981 3.511.379 6.824 3.478 8.415 1.796.922 3.536.69 4.707.315" fill="#ffcb80"/><path d="M8.835 22.36s.799 1.855 1.94 1.672c1.141-.183 1.063-2.465 1.063-2.465" fill="none" stroke="#4f244c" stroke-width="1.02165088" stroke-linecap="round" stroke-linejoin="round" stroke-miterlimit="10"/><g clip-path="url(#a)" opacity=".24" transform="matrix(.35278 0 0 -.35278 -24.069 128.689)"><path d="M109.626 260.873c-.54-10.797-.787-20.546-.11-23.154 1.7-6.555 23.795-8.498 32.051-3.885 2.201 1.231 3.763 8.674 4.848 19.023-17.745-18.079-29.671-6.214-36.788 8.016" fill="#e3941f"/></g><path d="M18.773 14.5a4.433 4.433 0 11-8.823.865 4.433 4.433 0 018.823-.866" fill="#fff"/><path d="M17.607 14.453a2.859 2.859 0 11-5.69.558 2.859 2.859 0 015.69-.558" fill="#4f244c"/><path d="M27.638 15.44a4.173 4.173 0 11-8.305.815 4.173 4.173 0 018.305-.815" fill="#fff"/><path d="M25.884 15.254a2.86 2.86 0 11-5.691.558 2.86 2.86 0 015.69-.558" fill="#4f244c"/><path d="M19.73 6.615c1.188 1.34-3.554 3.138-4.191 2.292-.952-1.263 3.336-3.258 4.192-2.292M14.299 8.604c1.146.27.62 1.375-.18 1.279-1.264-.153-.503-1.44.18-1.28" fill="#fff"/><path d="M16.408 7.05l-.429-3.598s-1.841.257-2.056-1.156C13.71.882 17.821.454 18.078 1.61c.257 1.157-1.327 1.628-1.327 1.628l.556 3.512zM20.402 6.09l-.038-3.623s-1.858.057-1.919-1.371C18.385-.333 22.52-.315 22.65.862c.131 1.178-1.495 1.475-1.495 1.475l.174 3.552z" fill="#ffba11"/><path d="M28.34 23.353c-3.019.28-5.38 2.75-5.38 5.754 0 2.878 2.165 5.263 4.998 5.708.222-3.649.337-7.71.381-11.462M17.564 33.562c0-1.935-.98-3.646-2.482-4.696-.2 2.862-.437 6.586-.566 9.743 1.818-.99 3.048-2.879 3.048-5.047" fill="#de7023"/><g><path d="M24.76 39.43c0 1.277-1.17 2.312-2.613 2.312s-2.613-1.035-2.613-2.312c0-1.278 1.17-2.313 2.613-2.313s2.613 1.035 2.613 2.313" fill="#de7023"/></g></svg>