<svg xmlns="http://www.w3.org/2000/svg" width="136.786" height="177.972" viewBox="0 0 36.191 47.088"><defs><clipPath clipPathUnits="userSpaceOnUse" id="a"><path d="M109.105 260.874h37.311v-29.566h-37.311z"/></clipPath><clipPath clipPathUnits="userSpaceOnUse" id="b"><path d="M200.562 322.334h90.826v-88.68h-90.826z"/></clipPath><clipPath clipPathUnits="userSpaceOnUse" id="c"><path d="M361.517 148.688h49.314v-6.321h-49.314z"/></clipPath><clipPath clipPathUnits="userSpaceOnUse" id="d"><path d="M371.807 150.763h1.04v-10.739h-1.04z"/></clipPath><clipPath clipPathUnits="userSpaceOnUse" id="e"><path d="M385.284 151.312h1.039v-11.837h-1.039z"/></clipPath><clipPath clipPathUnits="userSpaceOnUse" id="f"><path d="M378.545 151.183h1.04v-11.579h-1.04z"/></clipPath><clipPath clipPathUnits="userSpaceOnUse" id="g"><path d="M365.069 149.973h1.04v-9.159h-1.04z"/></clipPath><clipPath clipPathUnits="userSpaceOnUse" id="h"><path d="M405.498 150.082h1.04v-9.377h-1.04z"/></clipPath><clipPath clipPathUnits="userSpaceOnUse" id="i"><path d="M412.236 148.756h1.04v-6.726h-1.04z"/></clipPath><clipPath clipPathUnits="userSpaceOnUse" id="j"><path d="M392.022 151.21h1.039v-11.633h-1.039z"/></clipPath><clipPath clipPathUnits="userSpaceOnUse" id="k"><path d="M398.76 150.825h1.04v-10.864h-1.04z"/></clipPath><clipPath clipPathUnits="userSpaceOnUse" id="l"><path d="M461.268 158.489h6.489v-17.113h-6.489z"/></clipPath><clipPath clipPathUnits="userSpaceOnUse" id="m"><path d="M464.656 164.865h5.13v-5.033h-5.13z"/></clipPath></defs><path d="M19.822 3.617c18.417 2.141 14.82 21.8 2.399 27.626 0 0 8.223-2.57 10.193.342 1.97 2.913 2.999 9.594-.342 10.793-3.341 1.2-24.178 2.378-27.861-.535-3.684-2.912-2.763-9.123 1.991-12.656 3.647-2.71 20.559-10.794 15.547-14.648-5.615-4.32-7.51 4.852-10.729 6.36-5.075 2.377-9.443 1.35-8.137-1.713.481-1.128-1.478-17.71 16.94-15.57" fill="#e2bd9e"/><path d="M13.226 4.945c.686.942-2.312 1.799-3.084 1.285-.77-.514 2.399-2.228 3.084-1.285M14.683 5.287s-.6-1.456.685-1.285c1.285.172 1.113 1.885-.685 1.285" fill="#ffe5cd"/><path d="M2.65 20.236c.017 1.266 1.297 1.98 3.22 1.973 1.443-.006 3.247-.419 5.15-1.31a3.769 3.769 0 00.857-.593c.51-.48.909-1.107 1.28-1.759-1.884-3.244-7.303-4.021-9.79-4.207l-.001.002a21.132 21.132 0 00-.135.883l-.003.025c-.038.287-.069.564-.095.83l-.002.02a24.748 24.748 0 00-.035.387c-.06.711-.087 1.32-.111 1.786l-.003.046-.007.124-.007.115-.005.079-.014.169c0 .011-.002.02-.003.032-.004.041-.008.08-.013.114l-.005.042-.014.08-.007.032a.528.528 0 01-.024.08c-.164.383-.238.734-.234 1.05" fill="#ebbe25"/><path d="M13.727 11.748a3.75 3.75 0 11-7.475-.622 3.75 3.75 0 017.475.622" fill="#fff"/><path d="M12.206 11.3a2.57 2.57 0 11-5.121-.426 2.57 2.57 0 015.121.426" fill="#4f244c"/><path d="M19.694 32.142c4.625-4.883 15.033 2.056 12.078 5.268-2.955 3.212-20.739 3.874-12.078-5.268M4.21 41.843c1.244.983 4.442 1.5 8.262 1.707-1.912-4.586 1.38-15.55-3.957-15.777l-.12-.001c-.923.558-1.686 1.038-2.193 1.415C1.448 32.72.527 38.93 4.211 41.843" fill="#ffe5cd"/><path d="M4.446 15.053c1.028.728.771 3.469-.171 3.64-.942.172-.857-4.369.171-3.64" fill="#ffcc2e"/><g clip-path="url(#b)" opacity=".24" transform="matrix(.35278 0 0 -.35278 -68.805 126.09)"><path d="M285.95 237.292c2.844 1.021 4.565 3.448 5.438 6.562-19.11-6.532-86.19-11.513-87.51 8.614-1.456 22.219 76.488 55.727 56.455 67.018-20.032 11.291-28-14.64-28-14.64l-.005-.759c6.215 8.548 12.22 21.462 24.363 12.121 14.205-10.927-33.734-33.838-44.071-41.521-13.477-10.017-16.087-27.622-5.646-35.877 10.44-8.255 69.507-4.917 78.977-1.518" fill="#e3941f"/></g></svg>