<svg xmlns="http://www.w3.org/2000/svg" width="136.786" height="177.972" viewBox="0 0 36.191 47.088"><defs><clipPath clipPathUnits="userSpaceOnUse" id="a"><path d="M109.105 260.874h37.311v-29.566h-37.311z"/></clipPath><clipPath clipPathUnits="userSpaceOnUse" id="b"><path d="M200.562 322.334h90.826v-88.68h-90.826z"/></clipPath><clipPath clipPathUnits="userSpaceOnUse" id="c"><path d="M361.517 148.688h49.314v-6.321h-49.314z"/></clipPath><clipPath clipPathUnits="userSpaceOnUse" id="d"><path d="M371.807 150.763h1.04v-10.739h-1.04z"/></clipPath><clipPath clipPathUnits="userSpaceOnUse" id="e"><path d="M385.284 151.312h1.039v-11.837h-1.039z"/></clipPath><clipPath clipPathUnits="userSpaceOnUse" id="f"><path d="M378.545 151.183h1.04v-11.579h-1.04z"/></clipPath><clipPath clipPathUnits="userSpaceOnUse" id="g"><path d="M365.069 149.973h1.04v-9.159h-1.04z"/></clipPath><clipPath clipPathUnits="userSpaceOnUse" id="h"><path d="M405.498 150.082h1.04v-9.377h-1.04z"/></clipPath><clipPath clipPathUnits="userSpaceOnUse" id="i"><path d="M412.236 148.756h1.04v-6.726h-1.04z"/></clipPath><clipPath clipPathUnits="userSpaceOnUse" id="j"><path d="M392.022 151.21h1.039v-11.633h-1.039z"/></clipPath><clipPath clipPathUnits="userSpaceOnUse" id="k"><path d="M398.76 150.825h1.04v-10.864h-1.04z"/></clipPath><clipPath clipPathUnits="userSpaceOnUse" id="l"><path d="M461.268 158.489h6.489v-17.113h-6.489z"/></clipPath><clipPath clipPathUnits="userSpaceOnUse" id="m"><path d="M464.656 164.865h5.13v-5.033h-5.13z"/></clipPath></defs><path d="M5.25 12.541c.049-.185 4.41-11.307 16.874-8.266C36.658 7.82 32.318 20.422 28.55 22.306c0 0 2.45 1.748 3.684 4.412 1.863 4.023 2.098 9.927-3.984 13.406-11.394 6.518-23.042 2.827-24.841-8.352 0 0-1.2-4.197 2.055-4.925 3.74-.837 7.324-.943 8.352.599 1.028 1.542 1.738 3.41 3.512 4.369 2.142 1.156 6.468-1.285 4.712-3.127-2.105-2.207-6.425-.47-7.71-2.441-1.284-1.97-1.156-6.51.471-8.138 1.628-1.627 6.288-.031 6.64-1.542.428-1.841-2.485-3.769-4.883-1.884-2.525 1.984-2.862 3.661-5.654 3.94-2.998.3-6.339-3.512-5.654-6.082" fill="#848d38"/><path d="M8.008 15.746c-.135.757-.448 1.183-.97 1.303-.523.12-1.34-.342-1.758-.678-.275-.22-.48-.52-.762-.733a1.674 1.674 0 00-1.527-.248 1.788 1.788 0 011.328.979 1.343 1.343 0 00-1.522.059c.8-.032 1.607.193 2.274.634.447.296.84.689 1.341.875.556.206 1.194.127 1.725-.138.53-.264.961-.701 1.294-1.192z" fill="#e25124"/><path d="M22.125 22.435c-2.676-.911-5.312 2.452-4.77 4.912 1.643.105 3.508.108 4.684 1.341.306.32.424.66.404.995 5.143-.558 3.398-5.983-.318-7.248" fill="#717330"/><path d="M15.614 20.636c.204-3.506 10.536-.171 7.281-5.91-1.783-3.144-6.253-.943-6.253-.943L15.097 16c.407-.413.874-.856 1.46-1.316 2.398-1.885 5.31.043 4.882 1.884-.351 1.511-5.01-.085-6.638 1.542-1.628 1.628-1.757 6.168-.472 8.138 1.285 1.97 5.605.234 7.71 2.441 1.756 1.842-2.57 4.283-4.712 3.127-1.774-.958-2.484-2.827-3.511-4.369-.821-1.231-3.273-1.411-6.132-1.008.673 2.115 2.282 5.403 6.046 7.476 5.91 3.255 11.735.599 11.05-5.997-.685-6.595-9.509-1.37-9.166-7.28" fill="#baaa30"/><path d="M18.802 43.261a2.81 2.81 0 00.325-.61c1.884-4.968-.857-4.112-5.055-5.825-4.197-1.713-3.17-5.568-7.795-6.767-1.297-.337-2.304-.316-3.083-.111-.024.989.214 1.824.214 1.824 1.293 8.036 7.675 12.202 15.394 11.489" fill="#808035"/><path d="M11.728 9.811a3.75 3.75 0 11-7.475-.622 3.75 3.75 0 017.475.622" fill="#fff"/><path d="M10.207 9.363a2.57 2.57 0 11-5.121-.426 2.57 2.57 0 015.12.426" fill="#4f244c"/><path d="M18.497 13.588a3.75 3.75 0 11-7.475-.622 3.75 3.75 0 017.475.622" fill="#fff"/><path d="M16.976 13.14a2.57 2.57 0 11-5.122-.427 2.57 2.57 0 015.122.427" fill="#4f244c"/><path d="M30.134 8.72c-1.557-1.88-4.099-3.491-8.01-4.445-2.792-.681-5.176-.65-7.198-.192-.045.793.305 1.703 1.588 2.548 3.255 2.141 2.056 2.484 5.825 4.796 2.57 1.577 6.452-.032 7.795-2.708" fill="#808035"/><path d="M13.516 42.942c2.274-3.042-2.402-7.429-6.06-8-1.396-.218-2.383-.03-3.08.315 1.685 4.1 5.005 6.735 9.14 7.685" fill="#717330"/><path d="M7.07 14.833s.642 1.445 3.276 1.991" fill="none" stroke="#4f244c" stroke-width="1.02165088" stroke-linecap="round" stroke-linejoin="round" stroke-miterlimit="10"/><path d="M20.27 24.074c-.299.484-.42 1.095-.575 1.627a174.26 174.26 0 00-.512 1.784c.162.02.323.044.483.072.137-.486.273-.972.415-1.457.118-.404.232-.81.359-1.211.082-.259.182-.532.36-.742a18.909 18.909 0 00-.53-.073M17.43 27.352c.108-.51.229-1.018.376-1.519.19-.648.398-1.423.858-1.955a10.927 10.927 0 01-.541-.092c-.356.517-.554 1.171-.73 1.746a20.275 20.275 0 00-.449 1.785c.16.013.32.025.485.035M20.32 17.678c-.125-.138-.258-.27-.389-.402a12.9 12.9 0 01-.67.02c.283.27.56.546.821.839.118.131.232.266.345.401.19-.027.378-.056.561-.087-.04-.047-.083-.093-.123-.141a20.077 20.077 0 00-.545-.63M17.995 18.878c.16-.03.325-.059.493-.085a5.954 5.954 0 00-1.035-1.486c-.218.01-.435.023-.646.046.482.434.888.95 1.188 1.525M18.853 13.915c.173.01.341.034.505.07.12-.247.244-.494.375-.738a.25.25 0 00.01-.211 5.858 5.858 0 00-.455.021c-.15.283-.296.57-.435.858M13.878 27.543l-.062-.097a1.876 1.876 0 00-.404-.429c-1.53.805-3.246 1.123-4.95 1.35.073.15.15.3.233.452 1.741-.24 3.482-.583 5.039-1.424.049.048.096.099.144.148M19.272 32.063c-.161.025-.322.04-.481.046.188 1.051.292 2.113.311 3.18.163-.008.323-.022.482-.041a20.607 20.607 0 00-.312-3.185M21.44 16.567l-.008.02a13.474 13.474 0 012.094-.085 2.523 2.523 0 00-.078-.486 13.828 13.828 0 00-1.972.076c.01.157 0 .316-.037.475M13.48 21.946a13.057 13.057 0 012.156-.465 4.282 4.282 0 01-.03-.482c-.705.088-1.402.231-2.084.429a9.677 9.677 0 00-.043.518M13.471 33.766a11.23 11.23 0 002.284-3.292 8.332 8.332 0 01-.335-.441 10.73 10.73 0 01-2.374 3.476c.138.088.28.173.425.257M16.188 34.934a7.222 7.222 0 001.259-3.063c-.04-.018-.081-.035-.12-.056a4.606 4.606 0 01-.33-.197 6.699 6.699 0 01-1.295 3.165c.162.055.324.105.486.151M14.794 29.06a48.273 48.273 0 01-.257-.434 7.69 7.69 0 01-4.2 2.566c.12.137.245.272.374.406a8.187 8.187 0 004.083-2.538M21.011 31.453a5.13 5.13 0 01-.444.225c.725.778 1.392 1.646 1.578 2.693.147-.092.289-.192.426-.297-.244-1.004-.862-1.85-1.56-2.62M16.562 23.183a2.192 2.192 0 01-.366-.332 10.53 10.53 0 00-2.31 2.467c.067.191.141.373.224.54a10.03 10.03 0 012.452-2.675M24.638 30.753c.039-.167.072-.338.1-.513a5.366 5.366 0 00-2.301-.763c.02.163.006.326-.04.487a4.922 4.922 0 012.241.79M24.046 25.759a3.154 3.154 0 00-.309-.368c-.444.294-.823.686-1.184 1.082a40.509 40.509 0 00-1.372 1.571c.141.075.277.16.408.254.406-.492.834-.965 1.263-1.436.36-.397.737-.816 1.194-1.103M17.002 19.134a12.489 12.489 0 00-2.61-.509 4.218 4.218 0 00-.256.463c.745.051 1.48.173 2.202.36.192-.124.416-.227.664-.314M20.678 14.635c.126.106.238.222.338.346l1.017-1.26a2.99 2.99 0 00-.404-.263l-.95 1.177" fill="#4f244c"/></svg>