<svg xmlns="http://www.w3.org/2000/svg" width="136.786" height="177.972" viewBox="0 0 36.191 47.088"><defs><clipPath clipPathUnits="userSpaceOnUse" id="a"><path d="M109.105 260.874h37.311v-29.566h-37.311z"/></clipPath><clipPath clipPathUnits="userSpaceOnUse" id="b"><path d="M200.562 322.334h90.826v-88.68h-90.826z"/></clipPath><clipPath clipPathUnits="userSpaceOnUse" id="c"><path d="M361.517 148.688h49.314v-6.321h-49.314z"/></clipPath><clipPath clipPathUnits="userSpaceOnUse" id="d"><path d="M371.807 150.763h1.04v-10.739h-1.04z"/></clipPath><clipPath clipPathUnits="userSpaceOnUse" id="e"><path d="M385.284 151.312h1.039v-11.837h-1.039z"/></clipPath><clipPath clipPathUnits="userSpaceOnUse" id="f"><path d="M378.545 151.183h1.04v-11.579h-1.04z"/></clipPath><clipPath clipPathUnits="userSpaceOnUse" id="g"><path d="M365.069 149.973h1.04v-9.159h-1.04z"/></clipPath><clipPath clipPathUnits="userSpaceOnUse" id="h"><path d="M405.498 150.082h1.04v-9.377h-1.04z"/></clipPath><clipPath clipPathUnits="userSpaceOnUse" id="i"><path d="M412.236 148.756h1.04v-6.726h-1.04z"/></clipPath><clipPath clipPathUnits="userSpaceOnUse" id="j"><path d="M392.022 151.21h1.039v-11.633h-1.039z"/></clipPath><clipPath clipPathUnits="userSpaceOnUse" id="k"><path d="M398.76 150.825h1.04v-10.864h-1.04z"/></clipPath><clipPath clipPathUnits="userSpaceOnUse" id="l"><path d="M461.268 158.489h6.489v-17.113h-6.489z"/></clipPath><clipPath clipPathUnits="userSpaceOnUse" id="m"><path d="M464.656 164.865h5.13v-5.033h-5.13z"/></clipPath></defs><path d="M2.732 9.098S-2.622 27.729 1.66 29.913c3.039 1.55 14.99 1.028 14.99 1.028s-.685 10.965 1.97 12.421c2.656 1.457 9.252.257 10.023-.856.771-1.114-.086-12.421-.086-12.421s4.71.55 6.082.214c1.928-.471 2.699-5.332-1.542-7.495-1.297-.662-4.197-.514-4.197-.514s2.998-17.133-.685-18.503c-3.684-1.37-8.738-.6-9.851.514-1.114 1.114-.6 15.505-.6 15.505h-4.968s2.098-7.367.128-9.68c-1.97-2.313-8.737-3.17-10.193-1.028" fill="#b63734"/><path d="M31.042 24.902c0 4.258-3.652 7.71-8.159 7.71-4.506 0-8.16-3.452-8.16-7.71 0-4.257 3.654-7.71 8.16-7.71 4.507 0 8.16 3.453 8.16 7.71" fill="#db5048"/><path d="M33.098 22.804c-.733-.374-1.977-.49-2.921-.52-.99 2.098-1.619 7.801-1.619 7.801s4.71.55 6.082.214c1.928-.471 2.699-5.332-1.542-7.495" fill="#ffca2c"/><path d="M33.098 22.804c-.733-.374-1.977-.49-2.921-.52-2.176 2.586-1.619 7.801-1.619 7.801s4.71.55 6.082.214c1.928-.471 2.699-5.332-1.542-7.495" fill="#ffca2c"/><path d="M34.383 28.243c-.696-.522-3.618-.762-5.84-.98a17.416 17.416 0 00.015 2.822 2.736 2.736 0 00.069.008l.018.002a9.821 9.821 0 00.208.022l.102.011.037.004.16.017.045.004.142.015.052.005.154.015.063.006.16.015.068.006.179.017.064.005.24.02.008.002a49.979 49.979 0 00.603.047l.227.017.07.004a20.803 20.803 0 00.292.02l.225.013.061.003.286.014c.906.026 1.78.043 2.33-.037l.01-.001a1.981 1.981 0 00.21-.04c.033-.008.066-.021.1-.032.327-.718-.001-1.757-.358-2.024" fill="#efa81e"/><path d="M23.178 21.603a3.751 3.751 0 107.164 2.23 3.751 3.751 0 00-7.164-2.23" fill="#fff"/><path d="M24.756 21.759a2.57 2.57 0 104.908 1.527 2.57 2.57 0 00-4.908-1.527" fill="#4f244c"/><path d="M15.487 22.562a3.75 3.75 0 107.162 2.23 3.75 3.75 0 00-7.162-2.23" fill="#fff"/><path d="M17.065 22.718a2.57 2.57 0 104.907 1.528 2.57 2.57 0 00-4.907-1.528" fill="#4f244c"/><path d="M24.36 39.1c0 .937-4.814 4.252-5.495 3.486-.68-.765 5.496-4.422 5.496-3.485M22.456 37.075c-.058.67-3.717 2.749-4.158 2.157-.44-.592 4.216-2.829 4.158-2.157M21.749 34.055c-.058.671-3.717 2.749-4.158 2.157-.44-.591 4.216-2.828 4.158-2.157M24.828 10.707c-.154-.924-5.447-3.404-5.993-2.537-.546.868 6.147 3.46 5.993 2.537M23.282 13.018c-.168-.653-4.118-2.102-4.456-1.445-.337.655 4.624 2.097 4.456 1.445M23.08 16.112c-.168-.652-4.118-2.1-4.455-1.445-.337.656 4.623 2.098 4.455 1.445M11.448 21.24c1.092-.45 2.89.386 1.991.9-.9.514-3.084-.45-1.991-.9M10.291 26.637c1.092-.45 2.891.386 1.992.9-.9.513-3.084-.45-1.992-.9M7.914 21.626c1.092-.45 2.891.385 1.992.9-.9.513-3.084-.45-1.992-.9M10.805 22.975c.771-.386 3.212.128 2.506.77-.707.643-3.277-.385-2.506-.77" fill="#db5048"/></svg>