<svg xmlns="http://www.w3.org/2000/svg" width="136.786" height="177.972" viewBox="0 0 36.191 47.088"><defs><clipPath clipPathUnits="userSpaceOnUse" id="a"><path d="M109.105 260.874h37.311v-29.566h-37.311z"/></clipPath><clipPath clipPathUnits="userSpaceOnUse" id="b"><path d="M200.562 322.334h90.826v-88.68h-90.826z"/></clipPath><clipPath clipPathUnits="userSpaceOnUse" id="c"><path d="M361.517 148.688h49.314v-6.321h-49.314z"/></clipPath><clipPath clipPathUnits="userSpaceOnUse" id="d"><path d="M371.807 150.763h1.04v-10.739h-1.04z"/></clipPath><clipPath clipPathUnits="userSpaceOnUse" id="e"><path d="M385.284 151.312h1.039v-11.837h-1.039z"/></clipPath><clipPath clipPathUnits="userSpaceOnUse" id="f"><path d="M378.545 151.183h1.04v-11.579h-1.04z"/></clipPath><clipPath clipPathUnits="userSpaceOnUse" id="g"><path d="M365.069 149.973h1.04v-9.159h-1.04z"/></clipPath><clipPath clipPathUnits="userSpaceOnUse" id="h"><path d="M405.498 150.082h1.04v-9.377h-1.04z"/></clipPath><clipPath clipPathUnits="userSpaceOnUse" id="i"><path d="M412.236 148.756h1.04v-6.726h-1.04z"/></clipPath><clipPath clipPathUnits="userSpaceOnUse" id="j"><path d="M392.022 151.21h1.039v-11.633h-1.039z"/></clipPath><clipPath clipPathUnits="userSpaceOnUse" id="k"><path d="M398.76 150.825h1.04v-10.864h-1.04z"/></clipPath><clipPath clipPathUnits="userSpaceOnUse" id="l"><path d="M461.268 158.489h6.489v-17.113h-6.489z"/></clipPath><clipPath clipPathUnits="userSpaceOnUse" id="m"><path d="M464.656 164.865h5.13v-5.033h-5.13z"/></clipPath></defs><path d="M6.839 21.252c.038-.268 1.628-16.447 3.426-17.046 1.8-.6 19.96-1.2 20.987.856 1.028 2.056 1.628 8.823.514 9.423-1.113.6-12.335.171-12.335.171l-.985 2.056s16.49.643 14.091 14.605C30.14 45.28 15.92 46.18 6.154 38.042c0 0-1.628-1.542-.428-4.026 1.199-2.485 2.912-4.07 4.368-3.812 1.456.257 5.054 4.71 9.423 1.884 2.39-1.546 2.784-5.054.257-4.925-3.507.178-4.112 1.97-5.568 1.627-1.456-.342-8.224-1.456-7.367-7.538" fill="#744a6a"/><path d="M22.215 17.292c-11.35.277 11.864 13.94.347 25.582 4.868-1.086 8.812-4.785 9.975-11.557 1.647-9.587-5.61-12.894-10.322-14.025" fill="#5f97a7"/><path d="M22.215 17.292c-11.35.277 11.864 13.94.347 25.582 4.868-1.086 8.812-4.785 9.975-11.557 1.647-9.587-5.61-12.894-10.322-14.025" fill="#5f97a7"/><path d="M22.215 17.292c-11.35.277 11.864 13.94.347 25.582 4.868-1.086 8.812-4.785 9.975-11.557 1.647-9.587-5.61-12.894-10.322-14.025" fill="#5f97a7"/><path d="M24.064 17.821c-.744.223-1.39.558-1.87.99-2.57 2.313 4.112 6.103 6.231 12.785 1.01 3.182-.198 7.055-1.117 9.115 2.568-1.934 4.479-5.023 5.23-9.394 1.442-8.397-3.948-11.977-8.474-13.496" fill="#6eafbc"/><path d="M17.738 6.988a4.112 4.112 0 107.685 2.928 4.112 4.112 0 00-7.685-2.928" fill="#fff"/><path d="M19.455 7.265a2.817 2.817 0 105.264 2.007 2.817 2.817 0 00-5.264-2.007" fill="#4f244c"/><path d="M9.258 7.513a4.111 4.111 0 107.683 2.928 4.111 4.111 0 00-7.683-2.928" fill="#fff"/><path d="M10.974 7.79a2.818 2.818 0 105.266 2.006 2.818 2.818 0 00-5.266-2.006" fill="#4f244c"/><path d="M10.65 17.483s-4.368-4.754-6.295-3.212c-1.928 1.542-.514 9.508.9 9.251 1.413-.257 5.396-3.212 5.396-3.212z" fill="#5f97a7"/><path d="M10.65 17.623c-1.358-.804-4.34-2.451-5.224-1.96-1.157.642-.9 5.59.257 6.682.901.85 3.753-1.498 4.968-2.576z" fill="#6eafbc"/><path d="M3.505 16.24l7.146 1.733v-.398l-7.08-1.717a6.31 6.31 0 00-.066.381M4.439 22.817l6.212-2.988V19.4l-6.377 3.067c.054.126.109.243.165.35M3.49 19.039l7.161-.316v-.387l-7.195.318c.01.128.02.256.034.385M25.425 18.335a18.535 18.535 0 00-.888-.348h-5.085c-.12.105-.214.221-.285.348zM30.191 21.584H19.887c.062.115.127.231.194.35h10.41a10.614 10.614 0 00-.3-.35M32.262 25.182H22.064l.212.349h10.091a9.77 9.77 0 00-.105-.349M24.246 29.129h8.521c.004-.118.007-.234.008-.35H24.08c.057.117.112.233.167.35M32.325 32.378h-6.874c.03.116.058.232.086.348h6.706c.028-.115.056-.23.082-.348M31.1 35.975h-5.25a9.662 9.662 0 01-.026.35h5.107c.058-.115.114-.232.17-.35M26.857 41.036c.163-.112.324-.229.483-.35H24.32c-.073.117-.15.233-.23.35z" fill="#3d7b80"/><path d="M28.767 9.746c.41-.14.461.438 1.042.323.581-.116.572-.695 1.1-.362.528.333.602 1.508-.786 1.675-2.406.29-1.767-1.495-1.356-1.636" fill="#4f244c"/><path d="M9.248 35.097c.845 1.097 2.5 1.089 3.387.03.952-1.135.796-2.676.254-3.954-.625-1.475-2.25-2.076-3.753-1.812-1.626.287-2.918 1.578-3.73 2.942-.92 1.544-1.32 3.217-.575 4.918.662 1.516 1.937 2.46 3.363 3.206.69.361 1.387.69 2.079 1.046.882.454 1.822.893 2.783 1.152.615.166 1.262.261 1.895.322.72.07 1.43.249 2.15.339.82.102 1.648.163 2.475.166.941.003 1.922.005 2.846-.19.414-.087.315-.734-.1-.732-1.367.01-2.721.2-4.095.16-1.087-.03-2.263-.07-3.293-.442-1.57-.566-3.137-1.174-4.588-2.007-.533-.306-1.037-.735-1.527-1.112-.936-.722-2.005-1.667-2.407-2.813-.438-1.253.122-2.405.81-3.45.628-.954 1.462-1.929 2.696-1.977 1.14-.045 2.267.961 2.3 2.11.016.593-.171 1.263-.68 1.62-.466.328-1.098.283-1.463-.16-.376-.456-1.193.163-.827.638M12.835 18.922c-.062.334-.084.664-.014.999.074.352.276.634.566.842.274.196.63.267.958.19.329-.077.596-.317.78-.59.099-.149.168-.323.218-.493a2.357 2.357 0 00.074-.354.545.545 0 00-.055-.382.432.432 0 00-.672-.087.529.529 0 00-.148.335c.019-.135-.002.01-.007.037a2.26 2.26 0 01-.082.335l-.01.03a.31.31 0 00.008-.019c-.007.06-.068.127-.098.178-.026.038-.02.03.02-.022a.99.99 0 01-.035.041c-.025.027-.052.051-.079.076-.065.063.081-.048.003-.003a4.906 4.906 0 01-.093.054.787.787 0 00.031-.013.65.65 0 01-.05.016l-.027.006c-.047.01-.035.009.038-.002-.027-.006-.077.002-.106.003-.087.002.108.024 0 0l-.088-.026a.645.645 0 00.033.014 1.012 1.012 0 01-.048-.025c-.023-.013-.045-.027-.068-.042-.039-.027-.03-.02.025.022a.978.978 0 01-.04-.035c-.028-.025-.052-.052-.078-.078-.06-.06.052.082.003.006-.038-.06-.079-.117-.112-.18l-.02-.04c-.02-.044-.018-.037.007.02-.021-.024-.03-.086-.04-.116-.017-.06-.052-.148-.046-.21l.002.017a3.688 3.688 0 01-.01-.156 2.76 2.76 0 01.002-.247c.008-.188-.15-.348-.328-.371-.172-.024-.38.085-.414.27M11.82 23.47c-.052.277-.011.548.126.795a1.206 1.206 0 00.987.617.982.982 0 00.449-.097c.22-.096.407-.281.53-.487a1.16 1.16 0 00.165-.532.374.374 0 00.002-.029c.003-.03.001-.026-.003.014a.269.269 0 010-.02.966.966 0 00.011-.206l-.204.358c.183-.087.27-.328.218-.516-.064-.228-.324-.391-.557-.316-.225.073-.393.315-.316.556.062.19.236.344.446.332l-.4-.304c.009.025.014.05.021.075.018.067-.013-.116-.002-.011.008.067.024-.103.001-.02l-.016.066c-.012.04-.056.1.006-.005-.014.022-.023.047-.035.07l-.031.05c-.058.086.051-.057.006-.006-.03.035-.063.066-.096.098-.05.048.095-.066.008-.007a.97.97 0 01-.066.04c-.018.009-.036.016-.052.026.119-.066.053-.023.012-.011-.05.014-.101.025-.152.032l.115-.015a.725.725 0 01-.182-.002l.113.015a1.05 1.05 0 01-.136-.034c-.073-.022.091.047.025.01-.018-.01-.037-.018-.055-.029-.018-.01-.056-.026-.068-.044l.05.04-.031-.027a1.121 1.121 0 01-.093-.096.312.312 0 00.031.04l-.024-.033a1.137 1.137 0 01-.031-.052c-.01-.018-.018-.037-.029-.054.058.096.018.043.006.008a.93.93 0 01-.019-.068c-.008-.04.01-.077.001.021.004-.047-.003-.094.001-.142.019-.184-.156-.343-.323-.366-.17-.023-.374.084-.408.267M20.057 32.47a2.567 2.567 0 00-.651.41c-.2.178-.366.432-.418.697-.065.33-.024.659.187.931.11.143.242.245.408.315.163.07.336.062.509.052.334-.02.777-.078.996-.36.066-.085.106-.174.075-.284a.299.299 0 00-.204-.205 1.293 1.293 0 00-.379-.05c-.113-.003-.223-.005-.336-.02l.12.016a1.154 1.154 0 01-.276-.069l.12.05a1.264 1.264 0 01-.21-.124l.11.085a.515.515 0 01-.083-.08l.086.111a.544.544 0 01-.067-.112l.055.132a.88.88 0 01-.05-.204c.008.05.014.1.02.149a.832.832 0 01.002-.197l-.02.146a.804.804 0 01.054-.19l-.055.13a.93.93 0 01.102-.17l-.084.11c.067-.087.145-.162.23-.23l-.106.083c.12-.092.249-.168.38-.24.236-.127.33-.471.184-.698a.514.514 0 00-.305-.235.585.585 0 00-.394.051" fill="#4f244b"/><path d="M17.781 36.115c-.36-.069-.753-.045-1.076.141a1.043 1.043 0 00-.476.58c-.072.205-.072.43-.032.642.083.448.454.783.896.865.422.078.849.058 1.27-.018.306-.054.685-.14.771-.488.084-.336-.191-.627-.524-.622-.136.002-.276.044-.411.062l.141-.019a3.263 3.263 0 01-.827 0l.15.02a1.579 1.579 0 01-.39-.094l.139.059a.797.797 0 01-.129-.074l.12.092a.724.724 0 01-.122-.126l.094.12a.64.64 0 01-.06-.104l.059.141a.695.695 0 01-.047-.164l.021.157a.793.793 0 01-.001-.174l-.022.156a.77.77 0 01.043-.169l-.058.139c.035-.084.07-.167.102-.252l-.057.135a.846.846 0 01.048-.094c.07-.114-.065.066-.004.002.018-.019.035-.038.054-.056.094-.085-.065.037.006-.005.03-.018.06-.037.092-.053l.023-.012c.041-.02.032-.015-.03.013a.873.873 0 01.053-.012c.045-.007.035-.007-.03.002.009.009.093-.006.108-.006a.4.4 0 00.392-.346c.025-.183-.09-.4-.286-.438" fill="#4f244b"/></svg>