<svg xmlns="http://www.w3.org/2000/svg" width="136.786" height="177.972" viewBox="0 0 36.191 47.088"><defs><clipPath clipPathUnits="userSpaceOnUse" id="a"><path d="M109.105 260.874h37.311v-29.566h-37.311z"/></clipPath><clipPath clipPathUnits="userSpaceOnUse" id="b"><path d="M200.562 322.334h90.826v-88.68h-90.826z"/></clipPath><clipPath clipPathUnits="userSpaceOnUse" id="c"><path d="M361.517 148.688h49.314v-6.321h-49.314z"/></clipPath><clipPath clipPathUnits="userSpaceOnUse" id="d"><path d="M371.807 150.763h1.04v-10.739h-1.04z"/></clipPath><clipPath clipPathUnits="userSpaceOnUse" id="e"><path d="M385.284 151.312h1.039v-11.837h-1.039z"/></clipPath><clipPath clipPathUnits="userSpaceOnUse" id="f"><path d="M378.545 151.183h1.04v-11.579h-1.04z"/></clipPath><clipPath clipPathUnits="userSpaceOnUse" id="g"><path d="M365.069 149.973h1.04v-9.159h-1.04z"/></clipPath><clipPath clipPathUnits="userSpaceOnUse" id="h"><path d="M405.498 150.082h1.04v-9.377h-1.04z"/></clipPath><clipPath clipPathUnits="userSpaceOnUse" id="i"><path d="M412.236 148.756h1.04v-6.726h-1.04z"/></clipPath><clipPath clipPathUnits="userSpaceOnUse" id="j"><path d="M392.022 151.21h1.039v-11.633h-1.039z"/></clipPath><clipPath clipPathUnits="userSpaceOnUse" id="k"><path d="M398.76 150.825h1.04v-10.864h-1.04z"/></clipPath><clipPath clipPathUnits="userSpaceOnUse" id="l"><path d="M461.268 158.489h6.489v-17.113h-6.489z"/></clipPath><clipPath clipPathUnits="userSpaceOnUse" id="m"><path d="M464.656 164.865h5.13v-5.033h-5.13z"/></clipPath></defs><path d="M18.468 32.964c-6.276 1.287-5.39-7.484-.563-7.242 4.828.241 6.84 5.954.563 7.242m12.714-6.116c-2.077-8.485-8.749-9.181-12.109-8.962-.664.044-.961-.825-.403-1.19 3.578-2.336 15.155-4.25 12.928-8.62-1.178-2.31-4.761-2.55-4.761-2.55C.123 3.192-3.176 39.722 14.123 41.493c11.125 1.138 19.875-3.139 17.059-14.645" fill="#878a80"/><path d="M19.705 17.858c-.221.005-.432.015-.632.028a.635.635 0 01-.626-.362c-6.741-.02-8.178 7.514-8.178 7.514 2.223-5.82 7.243-6.955 9.436-7.18" fill="#808073"/><path d="M27.192 5.565c.02 1.958.453 4.409 2.028 6.662 2.024-1.126 3.244-2.452 2.378-4.15-.952-1.867-3.472-2.383-4.406-2.512" fill="#646754"/><path d="M17.905 25.722c4.828.241 6.84 5.954.564 7.241-6.277 1.288-5.392-7.483-.564-7.241m6.84 2.142c0-3.5-2.818-6.339-6.296-6.339-3.477 0-6.296 2.838-6.296 6.34 0 3.5 2.819 6.338 6.296 6.338 3.478 0 6.296-2.838 6.296-6.339" fill="#e4d6ae"/><path d="M27.765 28.667s.835-4.657 2.248-3.822c1.414.835 1.863 6.746 1.478 6.939-.386.192-3.726-3.117-3.726-3.117M22.338 28.071s-.008-4.657 1.46-4.447c1.469.21 2.205 3.761 2.003 4.333-.201.572-3.463.114-3.463.114" fill="#737367"/><path d="M20.762 29.45s.514 7.516-5.075 7.966c0 0 4.631 6.204 11.178 2.44 5.246-3.014 6.17-7.622 4.305-10.214-2.11-2.931-9.573-4.048-10.408-.193" fill="#a3a68b"/><path d="M20.762 29.45s.514 7.516-5.075 7.966c0 0 4.631 6.204 11.178 2.44 5.246-3.014 6.17-7.622 4.305-10.214-2.11-2.931-9.573-4.048-10.408-.193" fill="#a3a68b"/><path d="M16.425 38.24c1.388 1.383 4.631 3.874 8.869 2.35-5.063-.126-8.965-3.174-8.965-3.174.03.281.062.554.096.824" fill="#e4d6ae"/><path d="M31.5 30.176a5.373 5.373 0 00-.129-.226c-1.603-.906-3.742-.858-5.255.698-2.384 2.452-1.412 6.872 1.974 8.42 3.857-2.771 4.68-6.475 3.41-8.892" fill="#808073"/><path d="M22.642 27.36c-.95.379-1.655 1.053-1.88 2.09 0 0 .335 4.905-2.484 7.027 3.855 1.238 6.835.023 6.532-5.358-.11-1.931-.99-3.087-2.168-3.76" fill="#808073"/><path d="M24.676 32.37a4.086 4.086 0 11-8.17.204 4.086 4.086 0 018.17-.204" fill="#fff"/><path d="M23.606 32.248a2.636 2.636 0 11-5.27.132 2.636 2.636 0 015.27-.132" fill="#4f244c"/><path d="M32.763 33.829a3.846 3.846 0 11-7.69.193 3.846 3.846 0 017.69-.193" fill="#fff"/><path d="M31.163 33.54a2.635 2.635 0 11-5.27.132 2.635 2.635 0 015.27-.132M16.18 36.559c1.37 0 3.169 1.563.513 2.056-1.537.285-1.884-2.056-.514-2.056" fill="#4f244c"/><path d="M23.575 14.589c1.15-.42 2.344-.855 3.455-1.321-1.94-2.454-2.53-5.663-2.691-7.849a24.084 24.084 0 00-3.667.287c-.018 4.461 1.87 7.535 2.903 8.883M18.483 17.745l.103-.032c-.278-.264-.305-.762.084-1.016.778-.509 1.937-.998 3.25-1.496-2.88-2.316-4.33-5.868-5.049-8.531a19.221 19.221 0 00-4.095 2.042c1.561 6.106 5.707 9.033 5.707 9.033" fill="#646754"/><path d="M27.829 21.74c.685-.043 1.585 1.584.942 1.884-.642.3-1.627-1.842-.942-1.884M25.302 19.812c.6-.17 1.5.986.985 1.328-.514.343-1.585-1.156-.985-1.328M26.201 22.21c.557 0 1.2 1.372.729 1.628-.471.258-1.286-1.627-.729-1.627M21.661 19.213c.686-.685 2.613-.129 2.313.47-.3.6-2.998.215-2.313-.47" fill="#a3a68b"/></svg>