<svg xmlns="http://www.w3.org/2000/svg" width="136.786" height="177.972" viewBox="0 0 36.191 47.088"><defs><clipPath clipPathUnits="userSpaceOnUse" id="a"><path d="M109.105 260.874h37.311v-29.566h-37.311z"/></clipPath><clipPath clipPathUnits="userSpaceOnUse" id="b"><path d="M200.562 322.334h90.826v-88.68h-90.826z"/></clipPath><clipPath clipPathUnits="userSpaceOnUse" id="c"><path d="M361.517 148.688h49.314v-6.321h-49.314z"/></clipPath><clipPath clipPathUnits="userSpaceOnUse" id="d"><path d="M371.807 150.763h1.04v-10.739h-1.04z"/></clipPath><clipPath clipPathUnits="userSpaceOnUse" id="e"><path d="M385.284 151.312h1.039v-11.837h-1.039z"/></clipPath><clipPath clipPathUnits="userSpaceOnUse" id="f"><path d="M378.545 151.183h1.04v-11.579h-1.04z"/></clipPath><clipPath clipPathUnits="userSpaceOnUse" id="g"><path d="M365.069 149.973h1.04v-9.159h-1.04z"/></clipPath><clipPath clipPathUnits="userSpaceOnUse" id="h"><path d="M405.498 150.082h1.04v-9.377h-1.04z"/></clipPath><clipPath clipPathUnits="userSpaceOnUse" id="i"><path d="M412.236 148.756h1.04v-6.726h-1.04z"/></clipPath><clipPath clipPathUnits="userSpaceOnUse" id="j"><path d="M392.022 151.21h1.039v-11.633h-1.039z"/></clipPath><clipPath clipPathUnits="userSpaceOnUse" id="k"><path d="M398.76 150.825h1.04v-10.864h-1.04z"/></clipPath><clipPath clipPathUnits="userSpaceOnUse" id="l"><path d="M461.268 158.489h6.489v-17.113h-6.489z"/></clipPath><clipPath clipPathUnits="userSpaceOnUse" id="m"><path d="M464.656 164.865h5.13v-5.033h-5.13z"/></clipPath></defs><path d="M5.27 7.561c2.031-.836 23.886-1.433 25.797.836 1.91 2.27.717 9.196 0 10.231-.648.937-9.474 8.917-9.608 21.643-.013 1.26-1.133 2.235-2.392 2.288-3.646.154-10.144.286-10.77-.683-.877-1.353-.877-14.888 8.916-23.646 0 0-10.907 1.672-11.942.637-1.035-1.035-2.03-10.47 0-11.306" fill="#858937"/><path d="M26.49 20.632c1.06.635-.255 2.5-1.696 2.416-1.44-.085.636-3.052 1.696-2.416M23.65 24.615c.933.509-.127 3.518-1.483 3.136-1.356-.38.55-3.644 1.483-3.136M22.845 22.2c.763.55-.254 2.373-1.23 2.161-.974-.212.467-2.712 1.23-2.161M21.531 32.456c.636.296.255 2.627-.847 2.84-1.102.21.212-3.137.847-2.84" fill="#7f8034"/><path d="M5.935 14.508s0 1.886.551 1.695c.551-.19.912-1.59.912-1.59s-1.272-.063-1.463-.105M7.525 14.804s0 1.886.55 1.696c.551-.191.912-1.59.912-1.59s-1.271-.063-1.462-.106M9.199 15.122s0 1.886.55 1.695c.552-.19.912-1.589.912-1.589s-1.271-.063-1.462-.106M11.402 15.228s0 1.886.551 1.696c.551-.191.912-1.59.912-1.59s-1.272-.064-1.463-.106" fill="#fff"/><path d="M6.274 6.222c1.272-.339 2.25 1.73 1.018 2.374-1.95 1.017-2.289-2.034-1.018-2.374" fill="#858937"/><path d="M21.407 8.991a4.386 4.386 0 11-8.765-.366 4.386 4.386 0 018.765.366" fill="#fff"/><path d="M20.27 8.785a2.83 2.83 0 11-5.653-.237 2.83 2.83 0 015.654.237" fill="#4f244c"/><path d="M29.964 11.134a4.128 4.128 0 11-8.25-.344 4.128 4.128 0 018.25.344" fill="#fff"/><path d="M28.27 10.71a2.83 2.83 0 11-5.653-.237 2.83 2.83 0 015.654.237" fill="#4f244c"/><path d="M15.344 20.526a1.781 1.781 0 00-.444-.13c-7.471 8.64-7.404 20.053-6.604 21.29.375.579 2.85.764 5.56.787 4.666-4.79 5.958-19.96 1.488-21.947" fill="#9fa336"/><path d="M6.444 7.07c.636-.042.975.89.297 1.186-.678.297-.933-1.144-.297-1.186M8.351 9.062c.636-.042.975.89.297 1.186-.678.297-.933-1.144-.297-1.186M10.85 15.44c1.776.042 4.485.085 4.512.085h.003a.191.191 0 00.003-.382c-.027 0-2.734-.043-4.508-.085-1.35-.032-2.127-.229-3.11-.478-.3-.077-.615-.157-.968-.237-.84-.191-1.108.01-1.373.295-.155.168-.279.301-.751.252a1.35 1.35 0 01-.407-.1c.015.142.032.283.049.423.097.026.203.045.318.057.664.068.89-.175 1.072-.372.177-.19.316-.34 1.007-.183.35.08.662.16.96.235.966.246 1.8.457 3.194.49" fill="#4f244c"/><path d="M14.874 15.082c.028.032.054.064.08.097l-.053-.069c.054.071.102.146.139.228a8.006 8.006 0 01-.035-.082c.024.056.041.113.05.173l-.012-.09a.576.576 0 010 .148l.012-.09a.553.553 0 01-.034.128 13.8 13.8 0 01.034-.082.462.462 0 01-.053.09l.053-.068a.434.434 0 01-.064.065l.068-.054-.01.009a.373.373 0 00-.157.203.341.341 0 00.238.419c.084.019.19.02.262-.034a.864.864 0 00.198-.195.757.757 0 00.092-.185.758.758 0 00.043-.347 1.123 1.123 0 00-.135-.43 1.878 1.878 0 00-.235-.316.343.343 0 00-.481 0 .344.344 0 00-.1.241c.004.094.038.17.1.241" fill="#4f244c"/><path d="M10.102 28.383h8.001c0-.275-.004-.546-.014-.814h-7.65c-.117.272-.23.543-.337.814M15.604 39.928h-7.64c.017.304.043.577.076.813h7.115c.155-.26.305-.53.449-.813M12.623 23.45c-.173.27-.34.54-.502.813h5.565a11.053 11.053 0 00-.22-.813zM9 31.69c-.075.272-.145.544-.21.812h9.01c.039-.271.074-.542.106-.813zM8.166 35.808c-.037.278-.068.55-.095.814H16.9c.08-.268.156-.54.229-.814z" fill="#b8b84d"/></svg>