<svg xmlns="http://www.w3.org/2000/svg" width="136.786" height="177.972" viewBox="0 0 36.191 47.088"><defs><clipPath clipPathUnits="userSpaceOnUse" id="a"><path d="M109.105 260.874h37.311v-29.566h-37.311z"/></clipPath><clipPath clipPathUnits="userSpaceOnUse" id="b"><path d="M200.562 322.334h90.826v-88.68h-90.826z"/></clipPath><clipPath clipPathUnits="userSpaceOnUse" id="c"><path d="M361.517 148.688h49.314v-6.321h-49.314z"/></clipPath><clipPath clipPathUnits="userSpaceOnUse" id="d"><path d="M371.807 150.763h1.04v-10.739h-1.04z"/></clipPath><clipPath clipPathUnits="userSpaceOnUse" id="e"><path d="M385.284 151.312h1.039v-11.837h-1.039z"/></clipPath><clipPath clipPathUnits="userSpaceOnUse" id="f"><path d="M378.545 151.183h1.04v-11.579h-1.04z"/></clipPath><clipPath clipPathUnits="userSpaceOnUse" id="g"><path d="M365.069 149.973h1.04v-9.159h-1.04z"/></clipPath><clipPath clipPathUnits="userSpaceOnUse" id="h"><path d="M405.498 150.082h1.04v-9.377h-1.04z"/></clipPath><clipPath clipPathUnits="userSpaceOnUse" id="i"><path d="M412.236 148.756h1.04v-6.726h-1.04z"/></clipPath><clipPath clipPathUnits="userSpaceOnUse" id="j"><path d="M392.022 151.21h1.039v-11.633h-1.039z"/></clipPath><clipPath clipPathUnits="userSpaceOnUse" id="k"><path d="M398.76 150.825h1.04v-10.864h-1.04z"/></clipPath><clipPath clipPathUnits="userSpaceOnUse" id="l"><path d="M461.268 158.489h6.489v-17.113h-6.489z"/></clipPath><clipPath clipPathUnits="userSpaceOnUse" id="m"><path d="M464.656 164.865h5.13v-5.033h-5.13z"/></clipPath></defs><path d="M9.51 20.761c-1.376.229-2.786.031-4.107-.384-1.197-.376-2.412-.912-3.103-2.018-.554-.887-.746-2.072-.076-2.96.24-.318.835-.822 1.27-.587.094.05.117.118.12.186.002.013-.032.023-.035.03-.062.008-.057.01.016.008a.184.184 0 01-.155-.074c-.927-.59-1.782.882-.86 1.47.709.451 1.673.371 2.256-.25.554-.591.645-1.503.202-2.184-1.04-1.596-3.206-.881-4.165.386-.974 1.287-.96 2.974-.286 4.391.729 1.533 2.15 2.43 3.684 3.009 1.821.687 3.767.939 5.692.619.454-.075.707-.637.594-1.047-.132-.482-.592-.67-1.047-.595" fill="#4f244b"/><path d="M9.963 22.257c-1.685-.28-3.384-.127-5.013.384-1.618.509-3.132 1.28-4.08 2.74-.857 1.317-1.046 3.013-.306 4.422.716 1.361 2.603 2.422 3.998 1.36.725-.55 1.002-1.565.513-2.37-.521-.86-1.654-1.1-2.495-.564-.921.587-.068 2.061.86 1.47.09-.057.18-.123.175-.037-.004.068-.017.12-.11.177-.427.263-1.045-.265-1.281-.578-.668-.885-.48-2.075.076-2.96.695-1.105 1.903-1.64 3.103-2.018 1.32-.416 2.732-.612 4.107-.384.453.075.917-.119 1.047-.594.112-.408-.138-.972-.594-1.048" fill="#4f244b"/><path d="M21.938 33.607c-6.661.868-7.644-8.127-1.448-8.932 6.195-.805 8.85 7.966 1.448 8.932m-.08-22.128c6.276.242 5.814 8.23-.644 8.61-5.471.322-6.684-8.892.644-8.61m9.494 10.3c6.196-2.495 5.954-18.147-11.023-17.783-18.748.402-9.495 17.541-9.495 17.541s-5.321 4.584-3.62 13.276c1.448 7.403 16.977 12.311 25.426 3.783 8.448-8.53-1.288-16.817-1.288-16.817" fill="#e06325"/><path d="M31.352 21.779c5.305-2.136 5.888-13.914-4.706-17.03-1.491 1.715-3.422 4.17-4.773 6.731 6.229.252 5.797 8.149-.564 8.601.303.374.676.723 1.129 1.041 3.179 2.229 6.871 2.602 10.035 1.78a13.305 13.305 0 00-1.12-1.123" fill="#c03243"/><path d="M31.352 21.779c.448-.181.861-.432 1.238-.739-3.19-.862-6.934-.507-10.152 1.749-.767.538-1.305 1.165-1.659 1.855 5.833-.487 8.314 7.577 1.703 8.873 2.277 3.832 5.56 7.21 6.249 7.901a14.663 14.663 0 003.909-2.823c8.448-8.529-1.288-16.816-1.288-16.816" fill="#c03243"/><path d="M32.214 22.332c0 1.153-5.004 2.088-11.175 2.088-6.172 0-11.175-.935-11.175-2.088s5.003-2.088 11.175-2.088c6.171 0 11.175.935 11.175 2.088" fill="#d9482f"/><g clip-path="url(#c)" opacity=".58" transform="matrix(.35278 0 0 -.35278 -115.195 73.623)"><path d="M410.83 145.527c0-1.745-11.038-3.16-24.656-3.16-13.617 0-24.656 1.415-24.656 3.16 0 1.746 11.039 3.161 24.656 3.161 13.618 0 24.657-1.415 24.657-3.16" fill="#e67d70"/></g><path d="M8.234 15.334a3.682 3.682 0 111.17 7.27 3.682 3.682 0 01-1.17-7.27" fill="#fff"/><path d="M8.208 16.59a2.523 2.523 0 11.802 4.98 2.523 2.523 0 01-.802-4.98" fill="#4f244c"/><path d="M9.134 22.915a3.682 3.682 0 111.17 7.27 3.682 3.682 0 01-1.17-7.27" fill="#fff"/><path d="M9.108 24.17a2.523 2.523 0 11.802 4.982 2.523 2.523 0 01-.802-4.982" fill="#4f244c"/><path d="M33.835 12.673c.855 1.753-2.28 3.415-3.055 1.557-.714-1.712 2.2-3.31 3.055-1.557M30.361 9.065c1.169.438.643 2.377-.9 2.12-1.54-.257-.128-2.505.9-2.12M33.835 29.253c.855-1.753-2.28-3.415-3.055-1.557-.714 1.713 2.2 3.31 3.055 1.557M30.361 32.861c1.169-.438.643-2.377-.9-2.12-1.54.257-.128 2.506.9 2.12" fill="#e56e55"/><g clip-path="url(#d)" opacity=".34" transform="matrix(.35278 0 0 -.35278 -115.195 73.623)"><path d="M372.847 150.763c-.35-.03-.696-.062-1.04-.095v-10.55c.344-.032.69-.063 1.04-.093z" fill="#4f244c"/></g><g clip-path="url(#e)" opacity=".34" transform="matrix(.35278 0 0 -.35278 -115.195 73.623)"><path d="M386.323 139.476v11.836h-.149c-.299 0-.594-.002-.89-.004v-11.83c.296 0 .591-.003.89-.003h.15" fill="#4f244c"/></g><g clip-path="url(#f)" opacity=".34" transform="matrix(.35278 0 0 -.35278 -115.195 73.623)"><path d="M379.585 151.183c-.349-.014-.695-.028-1.04-.045v-11.49l1.04-.044z" fill="#4f244c"/></g><g clip-path="url(#g)" opacity=".34" transform="matrix(.35278 0 0 -.35278 -115.195 73.623)"><path d="M366.108 140.814v9.159a73.62 73.62 0 01-1.04-.168v-8.825a91.63 91.63 0 011.04-.166" fill="#4f244c"/></g><g><g clip-path="url(#h)" opacity=".34" transform="matrix(.35278 0 0 -.35278 -115.195 73.623)"><path d="M406.538 149.926c-.34.054-.687.105-1.04.156v-9.377c.353.05.7.103 1.04.156z" fill="#4f244c"/></g></g><g><g clip-path="url(#i)" opacity=".34" transform="matrix(.35278 0 0 -.35278 -115.195 73.623)"><path d="M413.276 148.459c-.33.102-.68.2-1.04.298v-6.727c.36.098.71.197 1.04.298z" fill="#4f244c"/></g></g><g><g clip-path="url(#j)" opacity=".34" transform="matrix(.35278 0 0 -.35278 -115.195 73.623)"><path d="M393.062 151.17c-.345.015-.691.027-1.04.04v-11.633c.349.012.695.026 1.04.039z" fill="#4f244c"/></g></g><g><g clip-path="url(#k)" opacity=".34" transform="matrix(.35278 0 0 -.35278 -115.195 73.623)"><path d="M399.8 150.737c-.343.031-.69.06-1.04.088v-10.864c.35.028.697.057 1.04.088z" fill="#4f244c"/></g></g></svg>