<svg xmlns="http://www.w3.org/2000/svg" width="136.786" height="177.972" viewBox="0 0 36.191 47.088"><defs><clipPath clipPathUnits="userSpaceOnUse" id="a"><path d="M109.105 260.874h37.311v-29.566h-37.311z"/></clipPath><clipPath clipPathUnits="userSpaceOnUse" id="b"><path d="M200.562 322.334h90.826v-88.68h-90.826z"/></clipPath><clipPath clipPathUnits="userSpaceOnUse" id="c"><path d="M361.517 148.688h49.314v-6.321h-49.314z"/></clipPath><clipPath clipPathUnits="userSpaceOnUse" id="d"><path d="M371.807 150.763h1.04v-10.739h-1.04z"/></clipPath><clipPath clipPathUnits="userSpaceOnUse" id="e"><path d="M385.284 151.312h1.039v-11.837h-1.039z"/></clipPath><clipPath clipPathUnits="userSpaceOnUse" id="f"><path d="M378.545 151.183h1.04v-11.579h-1.04z"/></clipPath><clipPath clipPathUnits="userSpaceOnUse" id="g"><path d="M365.069 149.973h1.04v-9.159h-1.04z"/></clipPath><clipPath clipPathUnits="userSpaceOnUse" id="h"><path d="M405.498 150.082h1.04v-9.377h-1.04z"/></clipPath><clipPath clipPathUnits="userSpaceOnUse" id="i"><path d="M412.236 148.756h1.04v-6.726h-1.04z"/></clipPath><clipPath clipPathUnits="userSpaceOnUse" id="j"><path d="M392.022 151.21h1.039v-11.633h-1.039z"/></clipPath><clipPath clipPathUnits="userSpaceOnUse" id="k"><path d="M398.76 150.825h1.04v-10.864h-1.04z"/></clipPath><clipPath clipPathUnits="userSpaceOnUse" id="l"><path d="M461.268 158.489h6.489v-17.113h-6.489z"/></clipPath><clipPath clipPathUnits="userSpaceOnUse" id="m"><path d="M464.656 164.865h5.13v-5.033h-5.13z"/></clipPath></defs><path d="M20.889 20.888c-7.343.885-6.116-7.377-.878-7.665 5.237-.287 6.251 7.017.878 7.665m12.812-.684C32.18-2.204 5.097 3.318 7.238 19.462c1.383 10.425 13.985 8.194 13.985 8.194-3.804 4.665-10.358 2.59-12.144 3.275-1.786.685-2.37 5.34-1.785 8.009.585 2.669 2.918 2.72 2.918 2.72 26.92 1.878 23.489-21.456 23.489-21.456" fill="#eb911d"/><path d="M33.358 27.53c-4.344 13.098-15.742 7.768-16.462 11.574-.217 1.146-.072 1.921.268 2.44 11.287-1.33 15.032-8.375 16.194-14.013" fill="#ffcb80"/><path d="M20.889 20.888c-7.343.885-6.116-7.377-.878-7.665 5.237-.288 6.251 7.017.878 7.665M28.51 8.27C20.33 1.28 5.64 7.41 7.238 19.462c1.383 10.425 13.985 8.194 13.985 8.194C32.17 24.162 30.53 14.092 28.511 8.27" fill="#e13c37"/><g clip-path="url(#l)" opacity=".65" transform="matrix(.35278 0 0 -.35278 -155.153 70.296)"><path d="M466.102 158.477c2.761.295 1.281-4.742 1.08-8.95-.214-4.417.712-8.026-2.184-8.15-5.652-.24-4.556 16.496 1.104 17.1" fill="#fff"/></g><g clip-path="url(#m)" opacity=".65" transform="matrix(.35278 0 0 -.35278 -155.153 70.296)"><path d="M466.238 164.667c3.305 1.203 5.033-3.422 1.903-4.596-3.674-1.376-4.663 3.592-1.903 4.596" fill="#fff"/></g><path d="M11.156 30.452a4.433 4.433 0 11-8.746 1.455 4.433 4.433 0 018.746-1.455" fill="#fff"/><path d="M9.988 30.484a2.859 2.859 0 11-5.64.938 2.859 2.859 0 015.64-.938" fill="#4f244c"/><path d="M20.064 30.797a4.172 4.172 0 11-8.232 1.37 4.172 4.172 0 018.232-1.37" fill="#fff"/><path d="M18.3 30.729a2.86 2.86 0 11-5.64.938 2.86 2.86 0 015.64-.938" fill="#4f244c"/><g><path d="M10.262 34.91c.41-.14.462.439 1.042.323.581-.116.573-.694 1.1-.361.53.332.602 1.507-.786 1.675-2.405.29-1.766-1.496-1.356-1.637" fill="#4f244c"/></g><g><path d="M26.996 10.28c2.133 9.214-1.017 15.1-7.587 13.842-7.44-1.424-6.232-8.812-3.668-11.454 2.564-2.643 10.125-1.642 8.764 4.754a7.236 7.236 0 01-.09.364c-.229 1.494-1.357 2.84-3.526 3.102-3.58.432-5.122-1.311-5.157-3.244l-.036-.03c-1 4.606 4.083 7.223 8.986 3.41 4.904-3.812-.403-13.803-7.837-10.838-8.677 3.46-4.65 17.634 5.75 15.163 10.401-2.471 4.401-15.07 4.401-15.07" fill="#9e5d27"/></g></svg>