<?xml version="1.0" encoding="UTF-8" standalone="no"?>
<svg
   xmlns:dc="http://purl.org/dc/elements/1.1/"
   xmlns:cc="http://creativecommons.org/ns#"
   xmlns:rdf="http://www.w3.org/1999/02/22-rdf-syntax-ns#"
   xmlns:svg="http://www.w3.org/2000/svg"
   xmlns="http://www.w3.org/2000/svg"
   xmlns:sodipodi="http://sodipodi.sourceforge.net/DTD/sodipodi-0.dtd"
   xmlns:inkscape="http://www.inkscape.org/namespaces/inkscape"
   sodipodi:docname="01-smily.svg"
   inkscape:version="1.0beta2 (589b019, 2020-04-03)"
   id="svg1786"
   version="1.1"
   viewBox="0 0 45.346058 53.117516"
   height="53.117516mm"
   width="45.346058mm">
  <defs
     id="defs1780">
    <clipPath
       id="clipPath690"
       clipPathUnits="userSpaceOnUse">
      <path
         inkscape:connector-curvature="0"
         id="path688"
         d="m 2838.47,571.969 h -29.5 c 0,0 -1.08,3.332 -2.97,9.679 -10.49,35.321 -45.83,164.071 -57.82,333.184 -1.97,28.047 -3.58,60.547 -4.85,95.778 -0.28,7.86 -0.55,15.87 -0.8,23.99 -2.43,78.67 -3.32,168.36 -3.02,251.74 0.18,89.12 1.67,171.16 3.9,224.96 v 0 c 1.36,32.78 2.99,55.08 4.77,62.11 2.29,9.01 19.85,24.93 45.87,43.67 l 4.99,0.32 c 0,0 -10.51,-22.18 -11.77,-35.8 0,0 26.1,19.78 52.54,27 31.17,8.53 58.58,9.11 65.43,9.11 1.07,0 1.64,-0.01 1.64,-0.01 v 0 0 l -14.44,8.28 c 0,0 5.45,2.16 12.33,11.83 5.35,7.51 13.75,32.54 13.75,32.54 0,0 -11.25,0 -58.83,-10.67 62.16,37.13 136.07,73.96 182.35,86.76 10.65,3.01 19.79,4.71 27.04,4.81 0.37,0.01 0.74,0.01 1.11,0.01 45.9,0 118.69,-49.72 168.4,-92.99 v 0 c -49.71,43.27 -122.5,92.99 -168.4,92.99 -0.37,0 -0.74,0 -1.11,-0.01 -7.25,-0.1 -16.39,-1.8 -27.04,-4.81 0,0 45.58,-28.32 94.01,-79.04 -6.59,1.8 -13.6,3.33 -21.04,4.49 -47.29,7.42 -89.21,13.1 -89.21,13.1 0,0 12.22,-29.15 19.99,-37.91 9.99,-11.26 17.92,-13.78 17.92,-13.78 l -20.99,-9.66 c 0,0 58.55,-3.79 97.49,-10.57 19.92,-3.48 39.45,-11.63 53.77,-18.76 24.49,-38.21 44.36,-82.71 52.09,-132.48 27.15,-174.74 -10.55,-648.31 -48.25,-702.498 -37.69,-54.191 -302.8,-64.852 -326.37,-84.82 -23.55,-19.981 -32.98,-102.543 -32.98,-102.543 v 0 m 14.42,637.771 c 0,0 31.49,-88.11 98.36,-106.42 10.93,-2.99 21.48,-4.25 31.48,-4.25 51.16,0 87.9,32.8 87.9,32.8 0,0 -38.8,-21.94 -82.67,-21.94 -14.66,0 -29.89,2.45 -44.43,9 -57.25,25.76 -90.64,90.81 -90.64,90.81 m 370.75,-551.72 c -8.13,3.859 -44.27,5.57 -90.23,5.57 -30.23,0 -64.7,-0.738 -98.25,-2.09 -16.57,-0.66 -32.91,-1.469 -48.4,-2.422 46.86,2.863 101.56,4.512 146.75,4.512 45.91,0 82.02,-1.699 90.13,-5.57" />
    </clipPath>
    <linearGradient
       id="linearGradient696"
       spreadMethod="pad"
       gradientTransform="matrix(332.172,-1158.42,-1158.42,-332.172,2874.54,1698.42)"
       gradientUnits="userSpaceOnUse"
       y2="0"
       x2="1"
       y1="0"
       x1="0">
      <stop
         id="stop692"
         offset="0"
         style="stop-opacity:1;stop-color:#8a1876" />
      <stop
         id="stop694"
         offset="1"
         style="stop-opacity:1;stop-color:#621857" />
    </linearGradient>
    <clipPath
       id="clipPath738"
       clipPathUnits="userSpaceOnUse">
      <path
         inkscape:connector-curvature="0"
         id="path736"
         d="m 3018.66,1426.26 c 3.23,-53.81 34.55,-94.46 69.96,-90.79 35.41,3.66 61.5,50.26 58.26,104.07 -3.22,53.82 -34.55,94.46 -69.95,90.79 -35.41,-3.66 -61.49,-50.26 -58.27,-104.07 z" />
    </clipPath>
    <linearGradient
       id="linearGradient744"
       spreadMethod="pad"
       gradientTransform="matrix(-128.224,-13.2838,8.58465,-143.096,3146.89,1439.54)"
       gradientUnits="userSpaceOnUse"
       y2="0"
       x2="1"
       y1="0"
       x1="0">
      <stop
         id="stop740"
         offset="0"
         style="stop-opacity:1;stop-color:#a02c1f" />
      <stop
         id="stop742"
         offset="1"
         style="stop-opacity:1;stop-color:#651317" />
    </linearGradient>
    <clipPath
       id="clipPath764"
       clipPathUnits="userSpaceOnUse">
      <path
         inkscape:connector-curvature="0"
         id="path762"
         d="m 2829.51,1394.07 c 8.42,-50.13 38.05,-84.52 66.17,-76.79 28.13,7.72 44.1,54.62 35.68,104.76 -8.42,50.14 -38.05,84.52 -66.16,76.8 -28.13,-7.73 -44.11,-54.63 -35.69,-104.77 z" />
    </clipPath>
    <linearGradient
       id="linearGradient770"
       spreadMethod="pad"
       gradientTransform="matrix(-101.847,-27.9724,22.3899,-133.328,2931.36,1422.04)"
       gradientUnits="userSpaceOnUse"
       y2="0"
       x2="1"
       y1="0"
       x1="0">
      <stop
         id="stop766"
         offset="0"
         style="stop-opacity:1;stop-color:#a02c1f" />
      <stop
         id="stop768"
         offset="1"
         style="stop-opacity:1;stop-color:#651317" />
    </linearGradient>
    <clipPath
       id="clipPath850"
       clipPathUnits="userSpaceOnUse">
      <path
         inkscape:connector-curvature="0"
         id="path848"
         d="m 2982.73,1099.07 c -10,0 -20.55,1.26 -31.48,4.25 -66.87,18.31 -98.36,106.42 -98.36,106.42 0,0 33.39,-65.05 90.64,-90.81 14.54,-6.55 29.77,-9 44.43,-9 43.87,0 82.67,21.94 82.67,21.94 0,0 -36.74,-32.8 -87.9,-32.8" />
    </clipPath>
    <linearGradient
       id="linearGradient856"
       spreadMethod="pad"
       gradientTransform="matrix(332.172,-1158.42,-1158.42,-332.172,2874.54,1698.42)"
       gradientUnits="userSpaceOnUse"
       y2="0"
       x2="1"
       y1="0"
       x1="0">
      <stop
         id="stop852"
         offset="0"
         style="stop-opacity:1;stop-color:#a5409a" />
      <stop
         id="stop854"
         offset="1"
         style="stop-opacity:1;stop-color:#883b85" />
    </linearGradient>
  </defs>
  <sodipodi:namedview
     inkscape:window-maximized="0"
     inkscape:window-y="0"
     inkscape:window-x="32"
     inkscape:window-height="1030"
     inkscape:window-width="1424"
     showgrid="false"
     inkscape:document-rotation="0"
     inkscape:current-layer="layer1"
     inkscape:document-units="mm"
     inkscape:cy="186.09384"
     inkscape:cx="79.979039"
     inkscape:zoom="0.35"
     inkscape:pageshadow="2"
     inkscape:pageopacity="0.0"
     borderopacity="1.0"
     bordercolor="#666666"
     pagecolor="#ffffff"
     id="base" />
  <metadata
     id="metadata1783">
    <rdf:RDF>
      <cc:Work
         rdf:about="">
        <dc:format>image/svg+xml</dc:format>
        <dc:type
           rdf:resource="http://purl.org/dc/dcmitype/StillImage" />
        <dc:title></dc:title>
      </cc:Work>
    </rdf:RDF>
  </metadata>
  <g
     transform="translate(-84.672213,-98.929337)"
     id="layer1"
     inkscape:groupmode="layer"
     inkscape:label="Layer 1">
    <g
       id="g1657"
       transform="matrix(0.03527778,0,0,-0.03527778,-1.45249,167.63921)">
      <path
         inkscape:connector-curvature="0"
         d="m 3084.03,441.988 c -354.96,0 -642.7,32.883 -642.7,73.442 0,29.179 148.93,54.379 364.67,66.218 1.89,-6.347 2.97,-9.679 2.97,-9.679 h 29.5 v 0 0 c 0,0 1.19,4.582 3.56,11.5 74.69,3.472 156.4,5.39 242,5.39 67.64,0 132.84,-1.199 194.07,-3.41 6.98,-12.578 11.52,-21.679 11.52,-21.679 l 26.85,20.14 c 240.06,-10.648 410.26,-37.289 410.26,-68.48 0,-40.559 -287.75,-73.442 -642.7,-73.442"
         style="fill:#cacbc9;fill-opacity:1;fill-rule:nonzero;stroke:none"
         id="path656" />
      <path
         inkscape:connector-curvature="0"
         d="m 3077.25,1218.7 c 0,0 243.67,-173.27 257.72,-181.72 14.06,-8.44 40.1,1.45 55.7,14.05 15.61,12.6 24.52,24.75 29.33,20.78 4.81,-3.99 -7.33,-18.83 -21.02,-30.48 -13.68,-11.66 -26.68,-13.14 -26.68,-13.14 0,0 15.35,-2.44 30.97,6.67 19.5,11.39 33.08,34.24 37.46,34.24 4.38,0 -1.75,-24.78 -22.66,-42.92 -15.21,-13.18 -27.83,-16.28 -27.83,-16.28 0,0 14.21,-3.03 30.75,7.25 16.53,10.26 23.7,25.29 31.62,25.33 7.93,0.04 -8.55,-26.86 -28.03,-39.15 -17.36,-10.959 -48.3,-10.26 -48.3,-10.26 0,0 17,-6.172 25.24,-12.601 8.25,-6.438 5.12,-19.629 5.12,-19.629 0,0 -15.56,10.531 -33.52,14.09 -17.97,3.558 -41.45,40.73 -46.46,44.93 -5.01,4.19 -166.16,78.17 -166.16,78.17 0,0 -84.99,107.41 -83.25,120.67"
         style="fill:#58154c;fill-opacity:1;fill-rule:nonzero;stroke:none"
         id="path658" />
      <path
         inkscape:connector-curvature="0"
         d="m 2996.69,1213.99 c 0,0 -243.67,-173.28 -257.73,-181.72 -14.06,-8.45 -40.1,1.44 -55.71,14.05 -15.6,12.61 -23.44,23.49 -28.25,19.51 -4.81,-3.97 6.26,-17.56 19.94,-29.22 13.69,-11.65 26.68,-13.12 26.68,-13.12 0,0 -15.34,-2.44 -30.96,6.67 -19.51,11.37 -33.08,34.23 -37.46,34.23 -4.38,0.01 1.74,-24.78 22.67,-42.93 15.19,-13.18 27.82,-16.26 27.82,-16.26 0,0 -14.21,-3.04 -30.75,7.23 -16.53,10.28 -23.69,25.29 -31.62,25.33 -7.92,0.05 8.95,-24.55 24.93,-37.45 17.81,-14.369 54.06,-12.38 54.06,-12.38 0,0 -19.66,-5.739 -27.91,-12.18 -8.24,-6.43 -5.12,-19.629 -5.12,-19.629 0,0 15.56,10.539 33.53,14.098 17.97,3.551 41.45,40.731 46.46,44.931 5.02,4.2 166.16,78.16 166.16,78.16 0,0 85,107.42 83.26,120.68"
         style="fill:#58154c;fill-opacity:1;fill-rule:nonzero;stroke:none"
         id="path660" />
      <path
         inkscape:connector-curvature="0"
         d="m 2627.64,1685.47 c 0.21,-1.37 0.43,-2.73 0.64,-4.15 3.14,-19.15 8.96,-39.44 18.53,-60.23 3.24,-6.98 6.73,-13.7 10.57,-20.12 9.27,-15.77 20.06,-29.81 31.2,-42.06 39.04,-42.89 82.71,-64.66 82.71,-64.66 0,0 47.79,26.33 65.34,85.36 10.57,35.48 -2.51,65.45 -4.33,69.45 l -0.22,0.45 c -1.96,1.18 -3.87,2.44 -5.77,3.63 -7.48,4.7 -14.56,9.37 -21.38,13.98 -7.76,5.21 -15.14,10.38 -22.12,15.44 -21.53,15.6 -39.28,30.19 -54.09,43.53 -6.57,5.94 -12.54,11.65 -17.97,17.07 -44.11,43.75 -53.65,69.31 -62.45,62.63 -8.5,-6.4 -22.7,-39.03 -23.21,-84.08 -0.09,-11.38 0.65,-23.49 2.55,-36.24"
         style="fill:#f4711f;fill-opacity:1;fill-rule:nonzero;stroke:none"
         id="path662" />
      <path
         inkscape:connector-curvature="0"
         d="m 2657.38,1600.97 c 9.27,-15.77 20.06,-29.81 31.2,-42.06 9.76,2.95 32.39,12.23 64.95,40.56 44.42,38.67 51.4,67.65 51.4,67.65 -7.76,5.21 -15.14,10.38 -22.12,15.44 -7.7,-11.85 -26.49,-37.89 -54.36,-56.46 -26.24,-17.54 -55.95,-23.29 -71.07,-25.13"
         style="fill:#f6f57a;fill-opacity:1;fill-rule:nonzero;stroke:none"
         id="path664" />
      <path
         inkscape:connector-curvature="0"
         d="m 2627.64,1685.47 c 12.34,-0.88 30.12,0.01 50.97,7.43 25.58,9.15 41.74,23.66 50.11,33.19 -6.57,5.94 -12.54,11.65 -17.97,17.07 -8.05,-5.01 -20.5,-11.06 -39.12,-16.38 -19.84,-5.66 -35.36,-6.28 -46.54,-5.07 -0.09,-11.38 0.65,-23.49 2.55,-36.24"
         style="fill:#f6f57a;fill-opacity:1;fill-rule:nonzero;stroke:none"
         id="path666" />
      <path
         inkscape:connector-curvature="0"
         d="m 2673.84,1576.56 c -10.17,13.27 -19.51,28.12 -27.03,44.53 -9.57,20.79 -15.39,41.08 -18.53,60.23 v 0 c 3.14,-19.15 8.96,-39.44 18.53,-60.23 3.24,-6.98 6.73,-13.7 10.57,-20.12 v 0 0 c 5.09,-8.66 10.64,-16.8 16.46,-24.41"
         style="fill:#e5d6d5;fill-opacity:1;fill-rule:nonzero;stroke:none"
         id="path668" />
      <path
         inkscape:connector-curvature="0"
         d="m 2743.41,1511.3 c -15.64,10.8 -35.77,26.69 -54.81,47.61 9.77,2.96 32.39,12.25 64.93,40.56 20.04,17.44 32.46,32.91 40.05,44.64 1.57,-0.64 3.1,-1.26 4.59,-1.84 0.6,-0.24 1.18,-0.35 1.73,-0.35 2.92,0 4.93,3.03 4.24,5.66 13.63,2.89 22.17,5.56 22.17,5.56 l 4.01,-2.72 c -31.74,-13.98 -40.53,-33.61 -40.53,-33.61 l 4.26,0.27 c -26.02,-18.74 -43.58,-34.66 -45.87,-43.67 -1.78,-7.03 -3.41,-29.33 -4.77,-62.11 m -86.03,89.67 v 0 c -3.84,6.42 -7.33,13.14 -10.57,20.12 -9.57,20.79 -15.39,41.08 -18.53,60.23 11.75,-11.37 30.31,-24.28 58.24,-33.28 17.29,-5.57 36.03,-7.56 54,-7.56 2.19,0 4.35,0.03 6.51,0.08 -5.65,-5.05 -11.85,-9.97 -18.58,-14.46 -26.24,-17.54 -55.95,-23.29 -71.07,-25.13"
         style="fill:#ef6618;fill-opacity:1;fill-rule:nonzero;stroke:none"
         id="path670" />
      <path
         inkscape:connector-curvature="0"
         d="m 2688.6,1558.91 c -5.03,5.53 -9.99,11.42 -14.76,17.65 -5.82,7.61 -11.37,15.75 -16.46,24.41 v 0 c 15.12,1.84 44.83,7.59 71.07,25.13 6.73,4.49 12.93,9.41 18.58,14.46 16.15,0.42 31.44,2.33 44.21,4.54 0.79,-0.34 1.57,-0.67 2.34,-0.99 -7.59,-11.73 -20.01,-27.2 -40.05,-44.64 -32.54,-28.31 -55.16,-37.6 -64.93,-40.56"
         style="fill:#e1d36b;fill-opacity:1;fill-rule:nonzero;stroke:none"
         id="path672" />
      <path
         inkscape:connector-curvature="0"
         d="m 2794.59,1645.7 c 1.56,2.48 2.9,4.78 4.05,6.88 1.24,-0.86 2.45,-1.69 3.64,-2.49 1.02,-0.69 1.61,-1.57 1.86,-2.51 -2.96,-0.63 -6.15,-1.26 -9.55,-1.88 m -30.03,12.71 c -12.24,7.1 -24.86,15.95 -36.54,26.88 -7.86,7.35 -14.85,14.7 -21.06,21.87 4.92,3.31 9.16,6.68 12.77,9.9 4.93,-4.82 10.11,-9.74 15.49,-14.7 12.69,-11.67 26.19,-22.58 38.9,-32.16 -2.76,-3.65 -5.95,-7.64 -9.56,-11.79 m -76.85,73.66 c -3.96,5.79 -7.36,11.25 -10.26,16.26 -1.97,3.39 0.84,6.76 3.89,6.76 1.12,0 2.27,-0.45 3.23,-1.52 4.49,-4.95 9.59,-10.47 15.22,-16.37 -3.53,-1.69 -7.54,-3.42 -12.08,-5.13"
         style="fill:#fbc795;fill-opacity:1;fill-rule:nonzero;stroke:none"
         id="path674" />
      <path
         inkscape:connector-curvature="0"
         d="m 2791.24,1645.1 c -8.3,3.53 -17.38,7.92 -26.68,13.31 3.61,4.15 6.8,8.14 9.56,11.79 8.72,-6.56 17.06,-12.5 24.52,-17.62 -1.15,-2.1 -2.49,-4.4 -4.05,-6.88 -1.09,-0.21 -2.21,-0.41 -3.35,-0.6"
         style="fill:#fbfbd0;fill-opacity:1;fill-rule:nonzero;stroke:none"
         id="path676" />
      <path
         inkscape:connector-curvature="0"
         d="m 2706.96,1707.16 c -7.52,8.68 -13.89,17.09 -19.25,24.91 4.54,1.71 8.55,3.44 12.08,5.13 6.06,-6.34 12.74,-13.13 19.94,-20.14 -3.61,-3.22 -7.85,-6.59 -12.77,-9.9"
         style="fill:#fbfbd0;fill-opacity:1;fill-rule:nonzero;stroke:none"
         id="path678" />
      <path
         inkscape:connector-curvature="0"
         d="m 2799.9,1641.92 c -0.55,0 -1.13,0.11 -1.73,0.35 -1.49,0.58 -3.02,1.2 -4.59,1.84 0.35,0.54 0.69,1.07 1.01,1.59 3.4,0.62 6.59,1.25 9.55,1.88 0.69,-2.63 -1.32,-5.66 -4.24,-5.66"
         style="fill:#f6c397;fill-opacity:1;fill-rule:nonzero;stroke:none"
         id="path680" />
      <path
         inkscape:connector-curvature="0"
         d="m 2793.58,1644.11 c -0.77,0.32 -1.55,0.65 -2.34,0.99 1.14,0.19 2.26,0.39 3.35,0.6 -0.32,-0.52 -0.66,-1.05 -1.01,-1.59"
         style="fill:#f4efc5;fill-opacity:1;fill-rule:nonzero;stroke:none"
         id="path682" />
      <g
         id="g684">
        <g
           id="g686"
           clip-path="url(#clipPath690)">
          <path
             inkscape:connector-curvature="0"
             d="m 2838.47,571.969 h -29.5 c 0,0 -1.08,3.332 -2.97,9.679 -10.49,35.321 -45.83,164.071 -57.82,333.184 -1.97,28.047 -3.58,60.547 -4.85,95.778 -0.28,7.86 -0.55,15.87 -0.8,23.99 -2.43,78.67 -3.32,168.36 -3.02,251.74 0.18,89.12 1.67,171.16 3.9,224.96 v 0 c 1.36,32.78 2.99,55.08 4.77,62.11 2.29,9.01 19.85,24.93 45.87,43.67 l 4.99,0.32 c 0,0 -10.51,-22.18 -11.77,-35.8 0,0 26.1,19.78 52.54,27 31.17,8.53 58.58,9.11 65.43,9.11 1.07,0 1.64,-0.01 1.64,-0.01 v 0 0 l -14.44,8.28 c 0,0 5.45,2.16 12.33,11.83 5.35,7.51 13.75,32.54 13.75,32.54 0,0 -11.25,0 -58.83,-10.67 62.16,37.13 136.07,73.96 182.35,86.76 10.65,3.01 19.79,4.71 27.04,4.81 0.37,0.01 0.74,0.01 1.11,0.01 45.9,0 118.69,-49.72 168.4,-92.99 v 0 c -49.71,43.27 -122.5,92.99 -168.4,92.99 -0.37,0 -0.74,0 -1.11,-0.01 -7.25,-0.1 -16.39,-1.8 -27.04,-4.81 0,0 45.58,-28.32 94.01,-79.04 -6.59,1.8 -13.6,3.33 -21.04,4.49 -47.29,7.42 -89.21,13.1 -89.21,13.1 0,0 12.22,-29.15 19.99,-37.91 9.99,-11.26 17.92,-13.78 17.92,-13.78 l -20.99,-9.66 c 0,0 58.55,-3.79 97.49,-10.57 19.92,-3.48 39.45,-11.63 53.77,-18.76 24.49,-38.21 44.36,-82.71 52.09,-132.48 27.15,-174.74 -10.55,-648.31 -48.25,-702.498 -37.69,-54.191 -302.8,-64.852 -326.37,-84.82 -23.55,-19.981 -32.98,-102.543 -32.98,-102.543 v 0 m 14.42,637.771 c 0,0 31.49,-88.11 98.36,-106.42 10.93,-2.99 21.48,-4.25 31.48,-4.25 51.16,0 87.9,32.8 87.9,32.8 0,0 -38.8,-21.94 -82.67,-21.94 -14.66,0 -29.89,2.45 -44.43,9 -57.25,25.76 -90.64,90.81 -90.64,90.81 m 370.75,-551.72 c -8.13,3.859 -44.27,5.57 -90.23,5.57 -30.23,0 -64.7,-0.738 -98.25,-2.09 -16.57,-0.66 -32.91,-1.469 -48.4,-2.422 46.86,2.863 101.56,4.512 146.75,4.512 45.91,0 82.02,-1.699 90.13,-5.57"
             style="fill:url(#linearGradient696);fill-opacity:1;fill-rule:nonzero;stroke:none"
             id="path698" />
        </g>
      </g>
      <path
         inkscape:connector-curvature="0"
         d="m 2831.07,867.879 c 5.19,-36.188 -2.37,-67.219 -16.85,-69.297 -14.49,-2.07 -30.44,25.598 -35.62,61.789 -5.18,36.199 2.37,67.219 16.86,69.301 14.49,2.07 30.44,-25.602 35.61,-61.793"
         style="fill:#58154c;fill-opacity:1;fill-rule:nonzero;stroke:none"
         id="path700" />
      <path
         inkscape:connector-curvature="0"
         d="m 2836.93,868.719 c 5.18,-36.199 -2.37,-67.219 -16.86,-69.297 -14.49,-2.07 -30.44,25.598 -35.62,61.789 -5.17,36.187 2.38,67.219 16.87,69.289 14.49,2.082 30.44,-25.59 35.61,-61.781"
         style="fill:#f4711f;fill-opacity:1;fill-rule:nonzero;stroke:none"
         id="path702" />
      <path
         inkscape:connector-curvature="0"
         d="m 2788.26,1008.04 c 2.26,-15.81 -1.27,-29.399 -7.88,-30.329 -6.61,-0.949 -13.81,11.09 -16.06,26.899 -2.27,15.8 1.26,29.38 7.87,30.33 6.62,0.95 13.81,-11.1 16.07,-26.9"
         style="fill:#58154c;fill-opacity:1;fill-rule:nonzero;stroke:none"
         id="path704" />
      <path
         inkscape:connector-curvature="0"
         d="m 2790.94,1008.42 c 2.25,-15.811 -1.27,-29.389 -7.88,-30.33 -6.62,-0.949 -13.81,11.09 -16.08,26.9 -2.25,15.81 1.27,29.38 7.88,30.33 6.61,0.95 13.81,-11.1 16.08,-26.9"
         style="fill:#f4711f;fill-opacity:1;fill-rule:nonzero;stroke:none"
         id="path706" />
      <path
         inkscape:connector-curvature="0"
         d="m 2827.12,1058.31 c 2.26,-15.81 -1.27,-29.39 -7.88,-30.33 -6.61,-0.95 -13.81,11.09 -16.07,26.9 -2.26,15.8 1.26,29.39 7.88,30.33 6.62,0.95 13.8,-11.1 16.07,-26.9"
         style="fill:#58154c;fill-opacity:1;fill-rule:nonzero;stroke:none"
         id="path708" />
      <path
         inkscape:connector-curvature="0"
         d="m 2829.79,1058.69 c 2.26,-15.81 -1.26,-29.38 -7.88,-30.33 -6.61,-0.95 -13.8,11.09 -16.07,26.9 -2.26,15.8 1.27,29.39 7.88,30.34 6.61,0.94 13.81,-11.11 16.07,-26.91"
         style="fill:#f4711f;fill-opacity:1;fill-rule:nonzero;stroke:none"
         id="path710" />
      <path
         inkscape:connector-curvature="0"
         d="m 2785.93,1248.42 c 2.05,-14.33 -1.14,-26.64 -7.14,-27.5 -6,-0.86 -12.52,10.07 -14.57,24.39 -2.05,14.34 1.15,26.64 7.15,27.5 5.99,0.86 12.52,-10.06 14.56,-24.39"
         style="fill:#58154c;fill-opacity:1;fill-rule:nonzero;stroke:none"
         id="path712" />
      <path
         inkscape:connector-curvature="0"
         d="m 2788.36,1248.77 c 2.04,-14.34 -1.15,-26.65 -7.15,-27.5 -6,-0.86 -12.52,10.06 -14.57,24.39 -2.05,14.33 1.15,26.64 7.15,27.5 6,0.86 12.52,-10.06 14.57,-24.39"
         style="fill:#f4711f;fill-opacity:1;fill-rule:nonzero;stroke:none"
         id="path714" />
      <path
         inkscape:connector-curvature="0"
         d="m 2777.48,1180.08 c 1,-6.97 -0.56,-12.96 -3.48,-13.37 -2.91,-0.42 -6.08,4.89 -7.08,11.85 -0.99,6.98 0.56,12.96 3.48,13.37 2.91,0.42 6.08,-4.89 7.08,-11.85"
         style="fill:#58154c;fill-opacity:1;fill-rule:nonzero;stroke:none"
         id="path716" />
      <path
         inkscape:connector-curvature="0"
         d="m 2778.65,1180.24 c 1.01,-6.96 -0.55,-12.95 -3.46,-13.37 -2.92,-0.41 -6.1,4.9 -7.09,11.86 -1,6.97 0.56,12.96 3.47,13.38 2.92,0.41 6.09,-4.9 7.08,-11.87"
         style="fill:#f4711f;fill-opacity:1;fill-rule:nonzero;stroke:none"
         id="path718" />
      <path
         inkscape:connector-curvature="0"
         d="m 2836.77,964.32 c 1.77,-12.468 -1.01,-23.179 -6.22,-23.929 -5.22,-0.743 -10.89,8.757 -12.67,21.218 -1.79,12.469 1,23.18 6.21,23.93 5.22,0.742 10.89,-8.758 12.68,-21.219"
         style="fill:#58154c;fill-opacity:1;fill-rule:nonzero;stroke:none"
         id="path720" />
      <path
         inkscape:connector-curvature="0"
         d="m 2838.87,964.621 c 1.78,-12.473 -1,-23.172 -6.21,-23.93 -5.22,-0.742 -10.89,8.758 -12.68,21.219 -1.78,12.461 1.01,23.18 6.22,23.93 5.22,0.738 10.89,-8.758 12.67,-21.219"
         style="fill:#f4711f;fill-opacity:1;fill-rule:nonzero;stroke:none"
         id="path722" />
      <path
         inkscape:connector-curvature="0"
         d="m 3214.7,1431.43 c 0,-97.17 -57.1,-175.94 -127.53,-175.94 -70.43,0 -127.52,78.77 -127.52,175.94 0,97.16 57.09,175.94 127.52,175.94 70.43,0 127.53,-78.78 127.53,-175.94"
         style="fill:#58154c;fill-opacity:1;fill-rule:nonzero;stroke:none"
         id="path724" />
      <path
         inkscape:connector-curvature="0"
         d="m 2945.8,1416.45 c 7.51,-96.88 -30.27,-178.82 -84.41,-183.02 -54.13,-4.2 -104.1,70.94 -111.61,167.81 -7.52,96.88 30.27,178.82 84.4,183.02 54.13,4.2 104.11,-70.94 111.62,-167.81"
         style="fill:#58154c;fill-opacity:1;fill-rule:nonzero;stroke:none"
         id="path726" />
      <path
         inkscape:connector-curvature="0"
         d="m 2976.35,1422.44 c 5.13,-85.68 55.01,-150.41 111.39,-144.57 56.38,5.84 97.92,80.04 92.78,165.72 -5.14,85.7 -55.01,150.42 -111.4,144.58 -56.38,-5.84 -97.92,-80.04 -92.77,-165.73"
         style="fill:#bfe9ea;fill-opacity:1;fill-rule:nonzero;stroke:none"
         id="path728" />
      <path
         inkscape:connector-curvature="0"
         d="m 2976.35,1422.44 c 4.89,-81.62 52.4,-143.27 106.1,-137.71 53.71,5.56 93.28,76.25 88.38,157.87 -4.89,81.62 -52.4,143.27 -106.1,137.71 -53.71,-5.56 -93.28,-76.25 -88.38,-157.87"
         style="fill:#ffffff;fill-opacity:1;fill-rule:nonzero;stroke:none"
         id="path730" />
      <g
         id="g732">
        <g
           id="g734"
           clip-path="url(#clipPath738)">
          <path
             inkscape:connector-curvature="0"
             d="m 3018.66,1426.26 c 3.23,-53.81 34.55,-94.46 69.96,-90.79 35.41,3.66 61.5,50.26 58.26,104.07 -3.22,53.82 -34.55,94.46 -69.95,90.79 -35.41,-3.66 -61.49,-50.26 -58.27,-104.07"
             style="fill:url(#linearGradient744);fill-opacity:1;fill-rule:nonzero;stroke:none"
             id="path746" />
        </g>
      </g>
      <path
         inkscape:connector-curvature="0"
         d="m 3036.88,1427.07 c 2.31,-38.51 24.72,-67.59 50.05,-64.96 25.34,2.63 44,35.97 41.68,74.46 -2.3,38.5 -24.71,67.58 -50.05,64.95 -25.33,-2.61 -43.99,-35.95 -41.68,-74.45"
         style="fill:#4c0e13;fill-opacity:1;fill-rule:nonzero;stroke:none"
         id="path748" />
      <path
         inkscape:connector-curvature="0"
         d="m 3095.49,1458.06 c 1.34,-22.34 18.65,-38.76 38.67,-36.69 20.01,2.07 35.15,21.86 33.81,44.2 -1.34,22.33 -18.65,38.76 -38.66,36.69 -20.02,-2.07 -35.16,-21.87 -33.82,-44.2"
         style="fill:#ffffff;fill-opacity:1;fill-rule:nonzero;stroke:none"
         id="path750" />
      <path
         inkscape:connector-curvature="0"
         d="m 3073.92,1412.63 c 0.48,-8.18 6.81,-14.18 14.14,-13.42 7.32,0.75 12.86,8 12.37,16.16 -0.49,8.17 -6.83,14.19 -14.15,13.43 -7.32,-0.76 -12.86,-8 -12.36,-16.17"
         style="fill:#ffffff;fill-opacity:1;fill-rule:nonzero;stroke:none"
         id="path752" />
      <path
         inkscape:connector-curvature="0"
         d="m 2775.65,1383.48 c 13.4,-79.84 60.58,-134.59 105.37,-122.29 44.78,12.3 70.21,86.99 56.8,166.83 -13.41,79.83 -60.57,134.59 -105.36,122.28 -44.78,-12.29 -70.21,-86.99 -56.81,-166.82"
         style="fill:#bfe9ea;fill-opacity:1;fill-rule:nonzero;stroke:none"
         id="path754" />
      <path
         inkscape:connector-curvature="0"
         d="m 2775.65,1383.48 c 12.77,-76.06 57.71,-128.21 100.37,-116.49 42.65,11.71 66.88,82.86 54.11,158.92 -12.77,76.04 -57.71,128.19 -100.36,116.48 -42.66,-11.72 -66.89,-82.87 -54.12,-158.91"
         style="fill:#ffffff;fill-opacity:1;fill-rule:nonzero;stroke:none"
         id="path756" />
      <g
         id="g758">
        <g
           id="g760"
           clip-path="url(#clipPath764)">
          <path
             inkscape:connector-curvature="0"
             d="m 2829.51,1394.07 c 8.42,-50.13 38.05,-84.52 66.17,-76.79 28.13,7.72 44.1,54.62 35.68,104.76 -8.42,50.14 -38.05,84.52 -66.16,76.8 -28.13,-7.73 -44.11,-54.63 -35.69,-104.77"
             style="fill:url(#linearGradient770);fill-opacity:1;fill-rule:nonzero;stroke:none"
             id="path772" />
        </g>
      </g>
      <path
         inkscape:connector-curvature="0"
         d="m 2844.1,1397.03 c 6.02,-35.87 27.22,-60.47 47.34,-54.94 20.12,5.52 31.55,39.08 25.52,74.95 -6.02,35.87 -27.21,60.47 -47.34,54.94 -20.12,-5.52 -31.54,-39.08 -25.52,-74.95"
         style="fill:#4c0e13;fill-opacity:1;fill-rule:nonzero;stroke:none"
         id="path774" />
      <path
         inkscape:connector-curvature="0"
         d="m 2870.9,1421.36 c 3.48,-20.81 19.21,-34.14 35.11,-29.78 15.89,4.37 25.95,24.78 22.46,45.6 -3.5,20.81 -19.22,34.14 -35.12,29.77 -15.9,-4.36 -25.95,-24.77 -22.45,-45.59"
         style="fill:#ffffff;fill-opacity:1;fill-rule:nonzero;stroke:none"
         id="path776" />
      <path
         inkscape:connector-curvature="0"
         d="m 2855.7,1381.77 c 1.28,-7.62 7.03,-12.49 12.85,-10.89 5.82,1.59 9.5,9.06 8.22,16.67 -1.28,7.62 -7.03,12.5 -12.85,10.9 -5.81,-1.6 -9.5,-9.07 -8.22,-16.68"
         style="fill:#ffffff;fill-opacity:1;fill-rule:nonzero;stroke:none"
         id="path778" />
      <path
         inkscape:connector-curvature="0"
         d="m 3317.89,584.969 -28.27,-21.199 c 0,0 -41.18,82.46 -65.98,94.25 -24.68,11.769 -308.55,3.48 -339.27,-11.79 -30.54,-15.261 -45.9,-74.261 -45.9,-74.261 0,0 9.43,82.562 32.98,102.543 23.57,19.968 288.68,30.629 326.37,84.82 37.7,54.188 75.4,527.758 48.25,702.498 -27.13,174.72 -204.03,284.61 -204.03,284.61 10.65,3.01 19.79,4.71 27.04,4.81 68.62,1.22 199.43,-111.88 220.54,-146.08 21.3,-34.21 20.07,-738.6 28.27,-838.772 8.29,-100.187 0,-181.429 0,-181.429"
         style="fill:#58154c;fill-opacity:1;fill-rule:nonzero;stroke:none"
         id="path780" />
      <path
         inkscape:connector-curvature="0"
         d="m 3442.8,1694.09 c -0.21,-1.36 -0.43,-2.72 -0.64,-4.14 -3.14,-19.15 -8.96,-39.44 -18.53,-60.22 -3.24,-7 -6.73,-13.7 -10.57,-20.14 -9.27,-15.76 -20.06,-29.8 -31.2,-42.06 -39.04,-42.89 -82.71,-64.66 -82.71,-64.66 0,0 -47.79,26.33 -65.34,85.36 -10.57,35.48 2.51,65.45 4.32,69.47 l 0.23,0.43 c 1.96,1.19 3.87,2.45 5.77,3.64 7.48,4.7 14.56,9.36 21.38,13.97 7.76,5.22 15.13,10.38 22.12,15.44 21.53,15.61 39.28,30.21 54.09,43.54 6.57,5.93 12.54,11.65 17.97,17.07 44.11,43.76 53.65,69.3 62.45,62.62 8.49,-6.4 22.7,-39.03 23.21,-84.08 0.09,-11.38 -0.65,-23.48 -2.55,-36.24"
         style="fill:#f4711f;fill-opacity:1;fill-rule:nonzero;stroke:none"
         id="path782" />
      <path
         inkscape:connector-curvature="0"
         d="m 3413.06,1609.59 c -9.27,-15.76 -20.06,-29.8 -31.2,-42.06 -9.76,2.95 -32.39,12.25 -64.96,40.58 -44.41,38.66 -51.39,67.63 -51.39,67.63 7.76,5.22 15.13,10.38 22.12,15.44 7.7,-11.83 26.49,-37.89 54.36,-56.45 26.24,-17.55 55.95,-23.29 71.07,-25.14"
         style="fill:#f6f57a;fill-opacity:1;fill-rule:nonzero;stroke:none"
         id="path784" />
      <path
         inkscape:connector-curvature="0"
         d="m 3442.8,1694.09 c -12.34,-0.88 -30.12,0.01 -50.97,7.43 -25.58,9.15 -41.74,23.68 -50.11,33.2 6.57,5.93 12.54,11.65 17.97,17.07 8.05,-5 20.5,-11.06 39.12,-16.39 19.84,-5.65 35.36,-6.28 46.54,-5.07 0.09,-11.38 -0.65,-23.48 -2.55,-36.24"
         style="fill:#f6f57a;fill-opacity:1;fill-rule:nonzero;stroke:none"
         id="path786" />
      <path
         inkscape:connector-curvature="0"
         d="m 3299.15,1502.87 v 0 0 m 0,0 v 0 0 m 0.01,0.01 c 0,0 0,0 0.01,0 -0.01,0 -0.01,0 -0.01,0"
         style="fill:#571141;fill-opacity:1;fill-rule:nonzero;stroke:none"
         id="path788" />
      <path
         inkscape:connector-curvature="0"
         d="m 3397.46,1586.32 c 5.5,7.28 10.76,15.04 15.6,23.27 v 0 0 c 3.84,6.44 7.33,13.14 10.57,20.14 9.57,20.78 15.39,41.07 18.53,60.22 v 0 c -3.14,-19.15 -8.96,-39.44 -18.53,-60.22 -7.31,-15.96 -16.34,-30.43 -26.17,-43.41"
         style="fill:#e5d6d5;fill-opacity:1;fill-rule:nonzero;stroke:none"
         id="path790" />
      <path
         inkscape:connector-curvature="0"
         d="m 3299.15,1502.87 c 0,0 -47.79,26.33 -65.34,85.36 -2.99,10.05 -4.09,19.66 -4.08,28.36 0.02,22.01 7.1,38.23 8.4,41.11 l 6,4.07 c 0,0 8.55,-2.68 22.17,-5.57 -0.69,-2.63 1.32,-5.65 4.24,-5.65 0.55,0 1.13,0.1 1.73,0.34 1.49,0.58 3.02,1.2 4.59,1.85 7.59,-11.73 20.01,-27.2 40.04,-44.63 32.55,-28.31 55.17,-37.62 64.93,-40.57 -38.58,-42.42 -81.71,-64.18 -82.66,-64.66 -0.01,0 -0.01,0 -0.01,0 0,0 0,-0.01 -0.01,-0.01 v 0 0 0 0 0 m 113.91,106.72 c -15.12,1.85 -44.83,7.59 -71.07,25.14 -6.73,4.48 -12.93,9.4 -18.58,14.46 2.15,-0.06 4.32,-0.09 6.5,-0.09 17.98,0 36.72,1.99 54.01,7.56 27.93,9 46.49,21.91 58.24,33.29 -3.14,-19.15 -8.96,-39.44 -18.53,-60.22 -3.24,-7 -6.73,-13.7 -10.57,-20.14 v 0"
         style="fill:#ef6618;fill-opacity:1;fill-rule:nonzero;stroke:none"
         id="path792" />
      <path
         inkscape:connector-curvature="0"
         d="m 3381.83,1567.54 c -9.76,2.95 -32.38,12.26 -64.93,40.57 -20.03,17.43 -32.45,32.9 -40.04,44.63 0.77,0.32 1.55,0.65 2.34,0.98 12.77,-2.21 28.06,-4.11 44.21,-4.53 5.65,-5.06 11.85,-9.98 18.58,-14.46 26.24,-17.55 55.95,-23.29 71.07,-25.14 v 0 c -4.84,-8.23 -10.1,-15.99 -15.6,-23.27 -5.04,-6.66 -10.29,-12.92 -15.63,-18.78"
         style="fill:#e1d36b;fill-opacity:1;fill-rule:nonzero;stroke:none"
         id="path794" />
      <path
         inkscape:connector-curvature="0"
         d="m 3275.85,1654.32 c -3.4,0.62 -6.59,1.26 -9.55,1.88 0.25,0.94 0.84,1.83 1.85,2.52 1.19,0.81 2.41,1.64 3.65,2.49 1.14,-2.1 2.49,-4.41 4.05,-6.89 m 30.03,12.72 c -3.61,4.15 -6.8,8.14 -9.56,11.78 12.71,9.58 26.21,20.49 38.89,32.17 5.39,4.96 10.57,9.88 15.51,14.69 3.6,-3.21 7.84,-6.59 12.76,-9.9 -6.21,-7.16 -13.2,-14.51 -21.06,-21.86 -11.68,-10.93 -24.3,-19.78 -36.54,-26.88 m 76.85,73.66 c -4.53,1.71 -8.55,3.44 -12.08,5.13 5.63,5.9 10.73,11.42 15.22,16.38 0.96,1.06 2.11,1.51 3.22,1.51 3.06,0 5.87,-3.38 3.9,-6.77 -2.9,-5 -6.3,-10.46 -10.26,-16.25"
         style="fill:#fbc795;fill-opacity:1;fill-rule:nonzero;stroke:none"
         id="path796" />
      <path
         inkscape:connector-curvature="0"
         d="m 3279.2,1653.72 c -1.14,0.2 -2.26,0.4 -3.35,0.6 -1.56,2.48 -2.91,4.79 -4.05,6.89 7.46,5.12 15.8,11.05 24.52,17.61 2.76,-3.64 5.95,-7.63 9.56,-11.78 -9.3,-5.4 -18.38,-9.79 -26.68,-13.32"
         style="fill:#fbfbd0;fill-opacity:1;fill-rule:nonzero;stroke:none"
         id="path798" />
      <path
         inkscape:connector-curvature="0"
         d="m 3363.48,1715.78 c -4.92,3.31 -9.16,6.69 -12.76,9.9 7.19,7.02 13.87,13.81 19.93,20.15 3.53,-1.69 7.55,-3.42 12.08,-5.13 -5.35,-7.82 -11.72,-16.24 -19.25,-24.92"
         style="fill:#fbfbd0;fill-opacity:1;fill-rule:nonzero;stroke:none"
         id="path800" />
      <path
         inkscape:connector-curvature="0"
         d="m 3270.54,1650.55 c -2.92,0 -4.93,3.02 -4.24,5.65 2.96,-0.62 6.15,-1.26 9.55,-1.88 0.33,-0.52 0.66,-1.05 1.01,-1.58 -1.57,-0.65 -3.1,-1.27 -4.59,-1.85 -0.6,-0.24 -1.18,-0.34 -1.73,-0.34"
         style="fill:#f6c397;fill-opacity:1;fill-rule:nonzero;stroke:none"
         id="path802" />
      <path
         inkscape:connector-curvature="0"
         d="m 3276.86,1652.74 c -0.35,0.53 -0.68,1.06 -1.01,1.58 1.09,-0.2 2.21,-0.4 3.35,-0.6 -0.79,-0.33 -1.57,-0.66 -2.34,-0.98"
         style="fill:#f4efc5;fill-opacity:1;fill-rule:nonzero;stroke:none"
         id="path804" />
      <path
         inkscape:connector-curvature="0"
         d="m 3317.89,584.969 c 0,0 91.54,66.761 104.11,62.832 12.56,-3.922 -52.06,-62.832 -52.06,-62.832 0,0 81.82,34.293 91.33,25.922 11.18,-9.832 -80.64,-49.641 -80.64,-49.641 0,0 73.07,-4.418 67.67,-19.09 -4.12,-11.191 -126.73,4.922 -142.05,11.172 -13.11,5.348 -16.63,10.438 -16.63,10.438 l 28.27,21.199"
         style="fill:#58154c;fill-opacity:1;fill-rule:nonzero;stroke:none"
         id="path806" />
      <path
         inkscape:connector-curvature="0"
         d="m 2808.97,571.969 c 0,0 -123.65,-1.129 -120.11,-14.09 3.53,-12.957 92.7,-7.879 92.7,-7.879 0,0 -67.57,-31.391 -65.21,-43.168 2.35,-11.781 87.4,21.289 87.4,21.289 0,0 -23.05,-60.141 -8.12,-62.5 14.92,-2.351 42.84,106.348 42.84,106.348 h -29.5"
         style="fill:#58154c;fill-opacity:1;fill-rule:nonzero;stroke:none"
         id="path808" />
      <path
         inkscape:connector-curvature="0"
         d="m 3025.11,1741.12 c 0,0 -98.67,120.08 -86.12,130.29 12.57,10.21 101.32,-113.1 101.32,-113.1 0,0 -46.34,175.93 -25.13,184.56 21.21,8.64 58.9,-179.16 58.9,-179.16 0,0 20.42,179.16 64.41,183.88 43.97,4.71 -38.49,-174.36 -38.49,-174.36 0,0 75.39,44.77 97.38,32.99 22,-11.78 -84.22,-65.1 -84.22,-65.1 h -88.05"
         style="fill:#300c12;fill-opacity:1;fill-rule:nonzero;stroke:none"
         id="path810" />
      <path
         inkscape:connector-curvature="0"
         d="m 3186.11,904.219 c -3.31,-23.149 1.52,-42.989 10.78,-44.309 9.27,-1.328 19.48,16.36 22.79,39.512 3.31,23.148 -1.53,42.988 -10.79,44.316 -9.27,1.321 -19.47,-16.367 -22.78,-39.519"
         style="fill:#58154c;fill-opacity:1;fill-rule:nonzero;stroke:none"
         id="path812" />
      <path
         inkscape:connector-curvature="0"
         d="m 3182.37,904.762 c -3.32,-23.153 1.52,-42.992 10.78,-44.313 9.27,-1.328 19.47,16.36 22.78,39.512 3.31,23.148 -1.52,42.988 -10.78,44.309 -9.27,1.332 -19.47,-16.36 -22.78,-39.508"
         style="fill:#f4711f;fill-opacity:1;fill-rule:nonzero;stroke:none"
         id="path814" />
      <path
         inkscape:connector-curvature="0"
         d="m 3156.28,973.121 c -1.67,-11.652 0.76,-21.641 5.42,-22.301 4.67,-0.66 9.8,8.231 11.46,19.879 1.67,11.66 -0.76,21.641 -5.43,22.313 -4.65,0.668 -9.79,-8.231 -11.45,-19.891"
         style="fill:#58154c;fill-opacity:1;fill-rule:nonzero;stroke:none"
         id="path816" />
      <path
         inkscape:connector-curvature="0"
         d="m 3154.39,973.398 c -1.67,-11.656 0.77,-21.636 5.42,-22.308 4.67,-0.668 9.81,8.242 11.47,19.89 1.67,11.649 -0.76,21.641 -5.43,22.301 -4.66,0.668 -9.8,-8.23 -11.46,-19.883"
         style="fill:#f4711f;fill-opacity:1;fill-rule:nonzero;stroke:none"
         id="path818" />
      <path
         inkscape:connector-curvature="0"
         d="m 3194.51,1013.43 c -1.29,-22.719 5.04,-41.551 14.13,-42.059 9.09,-0.519 17.51,17.481 18.8,40.189 1.29,22.72 -5.04,41.55 -14.13,42.06 -9.1,0.52 -17.51,-17.48 -18.8,-40.19"
         style="fill:#58154c;fill-opacity:1;fill-rule:nonzero;stroke:none"
         id="path820" />
      <path
         inkscape:connector-curvature="0"
         d="m 3190.83,1013.63 c -1.29,-22.7 5.04,-41.54 14.13,-42.052 9.1,-0.519 17.51,17.473 18.8,40.192 1.29,22.71 -5.03,41.54 -14.13,42.06 -9.09,0.52 -17.51,-17.48 -18.8,-40.2"
         style="fill:#f4711f;fill-opacity:1;fill-rule:nonzero;stroke:none"
         id="path822" />
      <path
         inkscape:connector-curvature="0"
         d="m 3215.38,1137.57 c -0.63,-11.21 2.49,-20.51 6.97,-20.76 4.5,-0.26 8.65,8.62 9.28,19.83 0.65,11.21 -2.48,20.51 -6.97,20.76 -4.49,0.26 -8.64,-8.62 -9.28,-19.83"
         style="fill:#58154c;fill-opacity:1;fill-rule:nonzero;stroke:none"
         id="path824" />
      <path
         inkscape:connector-curvature="0"
         d="m 3213.56,1137.67 c -0.63,-11.21 2.49,-20.51 6.98,-20.77 4.49,-0.25 8.65,8.64 9.28,19.85 0.64,11.21 -2.49,20.51 -6.98,20.76 -4.48,0.25 -8.64,-8.63 -9.28,-19.84"
         style="fill:#f4711f;fill-opacity:1;fill-rule:nonzero;stroke:none"
         id="path826" />
      <path
         inkscape:connector-curvature="0"
         d="m 3221.85,1267.61 c -0.64,-11.21 2.49,-20.51 6.98,-20.76 4.48,-0.26 8.64,8.63 9.28,19.84 0.63,11.21 -2.49,20.5 -6.98,20.75 -4.49,0.27 -8.64,-8.62 -9.28,-19.83"
         style="fill:#58154c;fill-opacity:1;fill-rule:nonzero;stroke:none"
         id="path828" />
      <path
         inkscape:connector-curvature="0"
         d="m 3220.04,1267.71 c -0.64,-11.21 2.48,-20.5 6.97,-20.76 4.49,-0.25 8.64,8.63 9.28,19.84 0.63,11.21 -2.48,20.5 -6.97,20.76 -4.5,0.25 -8.65,-8.62 -9.28,-19.84"
         style="fill:#f4711f;fill-opacity:1;fill-rule:nonzero;stroke:none"
         id="path830" />
      <path
         inkscape:connector-curvature="0"
         d="m 3187.83,1269.54 c -0.49,-8.53 1.9,-15.61 5.31,-15.81 3.42,-0.19 6.58,6.57 7.07,15.11 0.48,8.53 -1.9,15.6 -5.32,15.8 -3.42,0.19 -6.57,-6.56 -7.06,-15.1"
         style="fill:#58154c;fill-opacity:1;fill-rule:nonzero;stroke:none"
         id="path832" />
      <path
         inkscape:connector-curvature="0"
         d="m 3186.46,1269.62 c -0.49,-8.54 1.88,-15.62 5.3,-15.8 3.42,-0.2 6.58,6.56 7.07,15.1 0.48,8.53 -1.9,15.6 -5.31,15.8 -3.42,0.19 -6.59,-6.57 -7.06,-15.1"
         style="fill:#f4711f;fill-opacity:1;fill-rule:nonzero;stroke:none"
         id="path834" />
      <path
         inkscape:connector-curvature="0"
         d="m 3216.61,1581.6 c 0,0 -37.45,24.67 -76.4,31.47 -38.94,6.78 -97.49,10.57 -97.49,10.57 l 20.99,9.66 c 0,0 -7.93,2.52 -17.92,13.78 -7.77,8.76 -19.99,37.91 -19.99,37.91 0,0 41.92,-5.68 89.21,-13.1 65.85,-10.31 97.92,-49.27 97.92,-49.27 l -13.44,0.68 c 0,0 15.28,-25.85 17.12,-41.7"
         style="fill:#300c12;fill-opacity:1;fill-rule:nonzero;stroke:none"
         id="path836" />
      <path
         inkscape:connector-curvature="0"
         d="m 3191.56,1619.36 c 0,0 -26.98,26.27 -87.07,30.71 -45.06,3.33 -58.82,20.91 -58.82,20.91 l 38.6,-6.9 -25.17,10.39 c 0,0 39.7,-0.57 77.95,-11.31 38.25,-10.73 57.28,-29.86 57.28,-29.86 l -12.18,3.44 9.41,-17.38"
         style="fill:#641217;fill-opacity:1;fill-rule:nonzero;stroke:none"
         id="path838" />
      <path
         inkscape:connector-curvature="0"
         d="m 2787.27,1581.6 c 0,0 26.1,19.78 52.54,27 36.05,9.87 67.07,9.1 67.07,9.1 l -14.44,8.28 c 0,0 5.45,2.16 12.33,11.83 5.35,7.51 13.75,32.54 13.75,32.54 0,0 -11.64,0 -61.37,-11.24 -53.87,-12.18 -67.36,-42.3 -67.36,-42.3 l 9.25,0.59 c 0,0 -10.51,-22.18 -11.77,-35.8"
         style="fill:#300c12;fill-opacity:1;fill-rule:nonzero;stroke:none"
         id="path840" />
      <path
         inkscape:connector-curvature="0"
         d="m 2804.49,1612.11 6.48,14.92 -8.37,-2.96 c 0,0 13.07,16.43 39.39,25.64 26.31,9.21 58.12,12.03 58.12,12.03 l -21.82,-11.24 26.55,5.92 c 0,0 -13.75,-10.85 -40.46,-17.95 -26.7,-7.1 -59.89,-26.36 -59.89,-26.36"
         style="fill:#641217;fill-opacity:1;fill-rule:nonzero;stroke:none"
         id="path842" />
      <g
         id="g844">
        <g
           id="g846"
           clip-path="url(#clipPath850)">
          <path
             inkscape:connector-curvature="0"
             d="m 2982.73,1099.07 c -10,0 -20.55,1.26 -31.48,4.25 -66.87,18.31 -98.36,106.42 -98.36,106.42 0,0 33.39,-65.05 90.64,-90.81 14.54,-6.55 29.77,-9 44.43,-9 43.87,0 82.67,21.94 82.67,21.94 0,0 -36.74,-32.8 -87.9,-32.8"
             style="fill:url(#linearGradient856);fill-opacity:1;fill-rule:nonzero;stroke:none"
             id="path858" />
        </g>
      </g>
      <path
         inkscape:connector-curvature="0"
         d="m 3183.75,1229.37 -20.05,-60.37 13.07,-48.01 -60.57,4.02 5,-15.22 c 0,0 -35.57,-30.6 -86.51,-43.85 -50.52,-13.15 -106.56,-3.75 -106.56,-3.75 l -53.75,56.74 -54.58,28.89 10.01,79.37 c 0,0 51.34,-151.97 151.44,-145.32 118.75,7.9 202.5,147.5 202.5,147.5"
         style="fill:#58154c;fill-opacity:1;fill-rule:nonzero;stroke:none"
         id="path860" />
      <path
         inkscape:connector-curvature="0"
         d="m 2839.65,1193.13 -23.17,-52.9 45.16,12.56 z"
         style="fill:#ffffff;fill-opacity:1;fill-rule:nonzero;stroke:none"
         id="path862" />
      <path
         inkscape:connector-curvature="0"
         d="m 2876.76,1134.53 -15.12,-31.21 32.78,7.66 z"
         style="fill:#ffffff;fill-opacity:1;fill-rule:nonzero;stroke:none"
         id="path864" />
      <path
         inkscape:connector-curvature="0"
         d="m 2927.41,1089.77 v -35.93 l 32.24,23.56 z"
         style="fill:#ffffff;fill-opacity:1;fill-rule:nonzero;stroke:none"
         id="path866" />
      <path
         inkscape:connector-curvature="0"
         d="m 3005.17,1079.76 37.69,-22.97 4.72,32.98 z"
         style="fill:#ffffff;fill-opacity:1;fill-rule:nonzero;stroke:none"
         id="path868" />
      <path
         inkscape:connector-curvature="0"
         d="m 3121.2,1151.03 55.57,-30.04 -19.63,72.14 z"
         style="fill:#ffffff;fill-opacity:1;fill-rule:nonzero;stroke:none"
         id="path870" />
      <path
         inkscape:connector-curvature="0"
         d="m 3078.79,1113.92 42.41,-4.13 -10.01,30.44 z"
         style="fill:#ffffff;fill-opacity:1;fill-rule:nonzero;stroke:none"
         id="path872" />
      <path
         inkscape:connector-curvature="0"
         d="m 2833.33,1228.97 c 0,0 45.98,-144.5 149.65,-142.14 103.67,2.35 199.48,146.07 199.48,146.07 l 3.93,-0.98 c 0,0 -87.96,-162.77 -203.02,-162.77 -117.41,0 -153.56,154.42 -153.56,154.42 l 3.52,5.4"
         style="fill:#4c0e13;fill-opacity:1;fill-rule:nonzero;stroke:none"
         id="path874" />
      <path
         inkscape:connector-curvature="0"
         d="m 3140.05,1252.15 c 0,0 21.21,-7.46 43.59,-27.1 22.39,-19.63 29.85,-38.09 29.85,-38.09 0,0 -5.36,34.55 -24.28,53.8 -18.92,19.24 -49.16,11.39 -49.16,11.39"
         style="fill:#58154c;fill-opacity:1;fill-rule:nonzero;stroke:none"
         id="path876" />
      <path
         inkscape:connector-curvature="0"
         d="m 2858.89,1247.04 c 0,0 -17.44,-14.64 -29.14,-27.93 -11.7,-13.3 -21.52,-46.68 -21.52,-46.68 0,0 -3.53,30.63 8.81,50.97 14.03,23.14 41.85,23.64 41.85,23.64"
         style="fill:#58154c;fill-opacity:1;fill-rule:nonzero;stroke:none"
         id="path878" />
    </g>
  </g>
</svg>
