<?xml version="1.0" encoding="UTF-8" standalone="no"?>
<svg
   xmlns:dc="http://purl.org/dc/elements/1.1/"
   xmlns:cc="http://creativecommons.org/ns#"
   xmlns:rdf="http://www.w3.org/1999/02/22-rdf-syntax-ns#"
   xmlns:svg="http://www.w3.org/2000/svg"
   xmlns="http://www.w3.org/2000/svg"
   xmlns:xlink="http://www.w3.org/1999/xlink"
   xmlns:sodipodi="http://sodipodi.sourceforge.net/DTD/sodipodi-0.dtd"
   xmlns:inkscape="http://www.inkscape.org/namespaces/inkscape"
   sodipodi:docname="03-scarry.svg"
   inkscape:version="1.0beta2 (589b019, 2020-04-03)"
   id="svg2430"
   version="1.1"
   viewBox="0 0 66.159561 52.125778"
   height="52.125778mm"
   width="66.159561mm">
  <defs
     id="defs2424">
    <clipPath
       id="clipPath484"
       clipPathUnits="userSpaceOnUse">
      <path
         inkscape:connector-curvature="0"
         id="path482"
         d="m 1625.52,542.012 c -40.65,0 -75.73,8.187 -75.73,8.187 0,0 -59.56,127.321 -107.34,155.5 -17.95,10.539 -139.16,26 -257.66,36.031 -69.89,5.911 -138.84,9.93 -185.11,9.93 -24.043,0 -41.953,-1.09 -50.696,-3.551 -10.523,-3 -22.609,-7.961 -35.132,-13.929 -47.043,-22.43 -100.297,-59.11 -100.297,-59.11 0,0 -5.067,-0.488 -13.856,-0.488 -11.98,0 -30.886,0.91 -53.336,5.207 -34.683,6.59 -61.261,23.551 -61.261,23.551 0,0 -0.18,4.832 -0.457,13.512 -1.442,45.589 -5.481,197.597 0.457,316.348 4.738,94.76 103.714,311.31 194.144,465.05 0.008,0.02 0,0 0.008,0.01 44.461,75.59 86.859,136.01 114.969,159.31 8.897,7.33 19.357,15.18 31.037,23.31 v 0 c 18.63,12.96 40.39,26.65 63.96,40.2 15.37,8.84 31.5,17.63 48.03,26.14 -6.16,-70.23 30.58,-139.15 30.58,-139.15 0,0 39.97,71.46 132.9,111.23 52.25,22.35 102.93,27.24 137.3,27.24 26.75,0 43.62,-2.97 43.62,-2.97 0,0 0.01,0.03 0.02,0.09 24.04,-29.84 49.57,-67.25 74.92,-110.96 0,-0.01 -0.01,-0.01 -0.01,-0.01 l -0.29,-0.67 c -1.46,-3.84 -8.75,-23.74 -8.76,-50.91 0,-14.86 2.17,-31.89 8.67,-49.65 30.08,-82.35 99.68,-116.32 101.74,-117.31 24.66,-67.51 46,-140.96 61.49,-218.38 37.73,-188.67 33.79,-360.809 22.69,-477.141 -8.99,-94.309 -22.69,-151.938 -22.69,-151.938 -24.56,-19.332 -61.05,-24.679 -93.91,-24.679 m 73.54,113.636 c -3.9,0 -7.07,-14.148 -7.07,-31.609 0,-17.449 3.17,-31.609 7.07,-31.609 3.9,0 7.07,14.16 7.07,31.609 0,17.461 -3.17,31.609 -7.07,31.609 m 0.18,427.662 c -3.32,0 -6.65,-2.25 -6.84,-6.47 -1.94,-44.11 -4.27,-117.301 -3.55,-203.711 0.63,-76.5 2.7,-149.899 4.48,-201.348 0.15,-4.312 3.48,-6.543 6.8,-6.543 3.07,0 6.13,1.903 6.68,5.844 7.79,56.008 17.56,135.387 20.91,202.047 3.79,75.332 -10.94,156.561 -21.94,204.931 -0.81,3.56 -3.67,5.25 -6.54,5.25" />
    </clipPath>
    <linearGradient
       id="linearGradient490"
       spreadMethod="pad"
       gradientTransform="matrix(0,1283.04,1283.04,0,1215.88,542.01)"
       gradientUnits="userSpaceOnUse"
       y2="0"
       x2="1"
       y1="0"
       x1="0">
      <stop
         id="stop486"
         offset="0"
         style="stop-opacity:1;stop-color:#349e7c" />
      <stop
         id="stop488"
         offset="1"
         style="stop-opacity:1;stop-color:#42be93" />
    </linearGradient>
    <clipPath
       id="clipPath506"
       clipPathUnits="userSpaceOnUse">
      <path
         inkscape:connector-curvature="0"
         id="path504"
         d="m 1448.05,1329.1 c -5.94,-17.43 -13.95,-33.36 -23.47,-47.3 -18.66,-27.34 -43.07,-47.03 -69.27,-55.79 -13.29,-4.44 -27.05,-6.04 -40.71,-4.34 -18.1,23.37 -18.95,63.05 0.19,99.04 l 0.56,1.05 c 4.81,8.76 10.37,16.77 16.68,23.65 25.45,28.55 60.89,40.05 87.55,25.54 15.18,-8.2 24.89,-23.47 28.47,-41.85 z" />
    </clipPath>
    <linearGradient
       id="linearGradient512"
       spreadMethod="pad"
       gradientTransform="matrix(147.316,0,0,-147.316,1300.73,1299.12)"
       gradientUnits="userSpaceOnUse"
       y2="0"
       x2="1"
       y1="0"
       x1="0">
      <stop
         id="stop508"
         offset="0"
         style="stop-opacity:1;stop-color:#a02c1f" />
      <stop
         id="stop510"
         offset="1"
         style="stop-opacity:1;stop-color:#651317" />
    </linearGradient>
    <clipPath
       id="clipPath534"
       clipPathUnits="userSpaceOnUse">
      <path
         inkscape:connector-curvature="0"
         id="path532"
         d="m 1113.1,1349.62 c -7.25,-16.7 -16.13,-31.68 -26.1,-44.54 -19.54,-25.21 -43.21,-42.23 -67.14,-48.21 -12.14,-3.01 -24.356,-3.17 -36.106,-0.06 -13.055,25.08 -9.109,64.58 11.867,98.34 l 0.613,0.96 c 5.236,8.21 11.046,15.58 17.376,21.76 25.62,25.7 57.95,33.44 79.55,16.26 12.3,-9.73 18.98,-25.89 19.94,-44.51 z" />
    </clipPath>
    <linearGradient
       id="linearGradient540"
       spreadMethod="pad"
       gradientTransform="matrix(128.777,-15.3162,-15.3162,-128.777,980.781,1335.16)"
       gradientUnits="userSpaceOnUse"
       y2="0"
       x2="1"
       y1="0"
       x1="0">
      <stop
         id="stop536"
         offset="0"
         style="stop-opacity:1;stop-color:#a02c1f" />
      <stop
         id="stop538"
         offset="1"
         style="stop-opacity:1;stop-color:#651317" />
    </linearGradient>
    <clipPath
       id="clipPath576"
       clipPathUnits="userSpaceOnUse">
      <path
         inkscape:connector-curvature="0"
         id="path574"
         d="m 1657.66,1286.91 c 0,0 199.48,82.46 216.76,104.46 17.28,21.99 22.38,59.25 33.63,90.64 11.19,31.22 -1.63,48.36 1.99,52.85 6.55,8.12 19.9,-2.58 24.62,-23.79 4.71,-21.2 -2.52,-42.73 -2.52,-42.73 0,0 95.98,60.61 106.58,54.12 10.6,-6.47 -53.56,-60.6 -53.56,-60.6 0,0 93.02,28.21 100.68,18.19 7.66,-10.01 -76.53,-45.88 -76.53,-45.88 0,0 82.74,4.26 90.67,-2.81 7.92,-7.07 -80.9,-27.88 -80.9,-27.88 0,0 53.02,-9.38 49.48,-19.68 -1.92,-5.61 -68.98,-5.29 -78.4,-6.47 -9.42,-1.18 -89.82,-11.48 -89.82,-11.48 L 1693,1144.77 c 0,0 -37.24,9.57 -52.06,62.6 -14.92,53.41 16.72,79.54 16.72,79.54 z" />
    </clipPath>
    <linearGradient
       id="linearGradient582"
       spreadMethod="pad"
       gradientTransform="matrix(463.534,0,0,-463.534,1636.94,1341.17)"
       gradientUnits="userSpaceOnUse"
       y2="0"
       x2="1"
       y1="0"
       x1="0">
      <stop
         id="stop578"
         offset="0"
         style="stop-opacity:1;stop-color:#349e7c" />
      <stop
         id="stop580"
         offset="1"
         style="stop-opacity:1;stop-color:#42be93" />
    </linearGradient>
    <clipPath
       id="clipPath600"
       clipPathUnits="userSpaceOnUse">
      <path
         inkscape:connector-curvature="0"
         id="path598"
         d="m 1700.13,665.238 c -3.32,0 -6.65,2.231 -6.8,6.543 -1.78,51.449 -3.85,124.848 -4.48,201.348 -0.72,86.41 1.61,159.601 3.55,203.711 0.19,4.22 3.52,6.47 6.84,6.47 2.87,0 5.73,-1.69 6.54,-5.25 11,-48.37 25.73,-129.599 21.94,-204.931 -3.35,-66.66 -13.12,-146.039 -20.91,-202.047 -0.55,-3.941 -3.61,-5.844 -6.68,-5.844" />
    </clipPath>
    <linearGradient
       id="linearGradient606"
       spreadMethod="pad"
       gradientTransform="matrix(0,1283.04,1283.04,0,1215.88,542.01)"
       gradientUnits="userSpaceOnUse"
       y2="0"
       x2="1"
       y1="0"
       x1="0">
      <stop
         id="stop602"
         offset="0"
         style="stop-opacity:1;stop-color:#6accad" />
      <stop
         id="stop604"
         offset="1"
         style="stop-opacity:1;stop-color:#73cfb5" />
    </linearGradient>
    <clipPath
       id="clipPath616"
       clipPathUnits="userSpaceOnUse">
      <path
         inkscape:connector-curvature="0"
         id="path614"
         d="m 1699.06,592.43 c -3.9,0 -7.07,14.16 -7.07,31.609 0,17.461 3.17,31.609 7.07,31.609 3.9,0 7.07,-14.148 7.07,-31.609 0,-17.449 -3.17,-31.609 -7.07,-31.609" />
    </clipPath>
    <linearGradient
       spreadMethod="pad"
       y2="0"
       x2="1"
       y1="0"
       x1="0"
       gradientTransform="matrix(0,1283.04,1283.04,0,1215.88,542.01)"
       gradientUnits="userSpaceOnUse"
       id="linearGradient2639"
       xlink:href="#linearGradient606"
       inkscape:collect="always" />
    <linearGradient
       spreadMethod="pad"
       y2="0"
       x2="1"
       y1="0"
       x1="0"
       gradientTransform="matrix(0,1283.04,1283.04,0,1215.88,542.01)"
       gradientUnits="userSpaceOnUse"
       id="linearGradient2641"
       xlink:href="#linearGradient606"
       inkscape:collect="always" />
  </defs>
  <sodipodi:namedview
     inkscape:window-maximized="0"
     inkscape:window-y="0"
     inkscape:window-x="96"
     inkscape:window-height="1030"
     inkscape:window-width="1424"
     showgrid="false"
     inkscape:document-rotation="0"
     inkscape:current-layer="layer1"
     inkscape:document-units="mm"
     inkscape:cy="98.505423"
     inkscape:cx="125.02594"
     inkscape:zoom="0.35"
     inkscape:pageshadow="2"
     inkscape:pageopacity="0.0"
     borderopacity="1.0"
     bordercolor="#666666"
     pagecolor="#ffffff"
     id="base" />
  <metadata
     id="metadata2427">
    <rdf:RDF>
      <cc:Work
         rdf:about="">
        <dc:format>image/svg+xml</dc:format>
        <dc:type
           rdf:resource="http://purl.org/dc/dcmitype/StillImage" />
        <dc:title></dc:title>
      </cc:Work>
    </rdf:RDF>
  </metadata>
  <g
     transform="translate(-72.753553,-122.10377)"
     id="layer1"
     inkscape:groupmode="layer"
     inkscape:label="Layer 1">
    <g
       id="g1563"
       transform="matrix(0.03527778,0,0,-0.03527778,62.715931,190.6358)">
      <path
         inkscape:connector-curvature="0"
         d="m 1023.53,1585.57 c -30.534,-83.6 -101.784,-117.34 -101.784,-117.34 0,0 -11.023,6.41 -27.801,18.66 -20.257,15.08 -49.004,38.92 -76.523,70.78 -18.098,21.01 -35.719,45.51 -50.043,73.32 -5.094,9.99 -9.805,20.36 -13.949,31.2 -8.391,21.86 -14.231,43.16 -17.907,63.61 -4.429,24.5 -5.843,47.87 -5.187,69.37 l 0.098,2.53 c 2.73,70.97 27.988,121.67 41.464,130.73 13.762,9.14 25.45,-31.2 90.004,-101.98 8.391,-9.14 17.625,-18.75 27.805,-28.93 16.488,-16.21 35.527,-33.74 57.676,-52.31 12.441,-10.45 25.918,-21.29 40.527,-32.42 7.723,-5.84 15.74,-11.87 24.13,-17.91 3.67,-2.72 7.34,-5.46 11.11,-8.1 0,0 3.49,-8.2 6.13,-21.77 3.68,-18.85 5.66,-48.07 -5.75,-79.44"
         style="fill:#f79021;fill-opacity:1;fill-rule:nonzero;stroke:none"
         id="path452" />
      <path
         inkscape:connector-curvature="0"
         d="m 889.707,1797.52 c -12.816,-13.01 -33.648,-29.97 -64.371,-43.92 -34.207,-15.55 -67.762,-23.75 -89.813,-27.8 -4.429,24.5 -5.843,47.87 -5.187,69.37 l 0.098,2.53 c 17.433,-0.08 47.402,0.85 77.183,7.74 23.656,5.46 42.035,14.03 54.285,21.01 8.391,-9.14 17.625,-18.75 27.805,-28.93"
         style="fill:#f0373b;fill-opacity:1;fill-rule:nonzero;stroke:none"
         id="path454" />
      <path
         inkscape:connector-curvature="0"
         d="m 987.91,1712.79 c -11.406,-21.48 -36.941,-62.39 -81.332,-99.33 -31.387,-26.2 -65.125,-44.57 -89.156,-55.79 -18.098,21.01 -35.719,45.51 -50.043,73.32 16.961,4.8 44.949,14.89 85.101,36.57 53.34,28.92 83.122,62.38 94.903,77.65 12.441,-10.45 25.918,-21.29 40.527,-32.42"
         style="fill:#f0373b;fill-opacity:1;fill-rule:nonzero;stroke:none"
         id="path456" />
      <path
         inkscape:connector-curvature="0"
         d="m 1222.23,465.059 c -517.878,0 -937.699,61.953 -937.699,138.39 0,46.91 158.168,88.371 400.114,113.403 0.277,-8.68 0.457,-13.512 0.457,-13.512 0,0 26.578,-16.961 61.261,-23.551 22.45,-4.297 41.356,-5.207 53.336,-5.207 8.789,0 13.856,0.488 13.856,0.488 0,0 53.254,36.68 100.297,59.11 85.363,4.379 176.358,7 270.938,7.55 118.5,-10.031 239.71,-25.492 257.66,-36.031 47.78,-28.179 107.34,-155.5 107.34,-155.5 0,0 35.08,-8.187 75.73,-8.187 32.86,0 69.35,5.347 93.91,24.679 0,0 13.7,57.629 22.69,151.938 251.9,-24.809 417.8,-67.141 417.8,-115.18 0,-76.437 -419.82,-138.39 -937.69,-138.39"
         style="fill:#cacbc9;fill-opacity:1;fill-rule:nonzero;stroke:none"
         id="path458" />
      <path
         inkscape:connector-curvature="0"
         d="m 879.246,1498.25 c -11.871,9.54 -25.328,21.26 -39.152,35.08 13.832,-13.81 27.297,-25.53 39.16,-35.07 -0.008,-0.01 0,0.01 -0.008,-0.01"
         style="fill:#e5d6d5;fill-opacity:1;fill-rule:nonzero;stroke:none"
         id="path460" />
      <path
         inkscape:connector-curvature="0"
         d="m 879.254,1498.26 c -11.863,9.54 -25.328,21.26 -39.16,35.07 -7.504,7.5 -15.121,15.62 -22.645,24.35 24.031,11.22 57.754,29.59 89.129,55.78 23.156,19.27 41.184,39.62 54.75,57.73 22.442,6.31 39.782,16.2 50.712,23.69 3.67,-2.72 7.34,-5.46 11.11,-8.1 0,0 0.89,-2.09 2.11,-5.9 -11.68,-8.13 -22.14,-15.98 -31.037,-23.31 -28.11,-23.3 -70.508,-83.72 -114.969,-159.31"
         style="fill:#eb801a;fill-opacity:1;fill-rule:nonzero;stroke:none"
         id="path462" />
      <path
         inkscape:connector-curvature="0"
         d="m 753.43,1662.19 v 0 c -18.567,48.05 -24.321,93.58 -23.094,132.98 -0.102,-3.28 -0.152,-6.6 -0.152,-9.96 -0.004,-18.68 1.586,-38.64 5.339,-59.41 v 0 c 3.676,-20.45 9.516,-41.75 17.907,-63.61 v 0"
         style="fill:#e5d6d5;fill-opacity:1;fill-rule:nonzero;stroke:none"
         id="path464" />
      <path
         inkscape:connector-curvature="0"
         d="m 767.441,1631 c -5.132,9.98 -9.843,20.37 -14.011,31.19 v 0 c -8.391,21.86 -14.231,43.16 -17.907,63.61 9.727,1.79 21.688,4.38 34.961,8.06 18.024,-20.06 41.336,-38.77 71.348,-52.17 7.246,-3.23 14.344,-5.92 21.277,-8.13 -3.433,-2.02 -6.976,-4.02 -10.629,-6 -40.101,-21.65 -68.07,-31.74 -85.039,-36.56"
         style="fill:#eb801a;fill-opacity:1;fill-rule:nonzero;stroke:none"
         id="path466" />
      <path
         inkscape:connector-curvature="0"
         d="m 735.523,1725.8 c -3.753,20.77 -5.343,40.73 -5.339,59.41 0,3.36 0.05,6.68 0.152,9.96 v 0 c 8.898,-19.04 21.777,-40.87 40.148,-61.31 -13.273,-3.68 -25.234,-6.27 -34.961,-8.06 v 0"
         style="fill:#ec3033;fill-opacity:1;fill-rule:nonzero;stroke:none"
         id="path468" />
      <path
         inkscape:connector-curvature="0"
         d="m 817.449,1557.68 c -18.105,21 -35.683,45.5 -50.008,73.32 16.969,4.82 44.938,14.91 85.039,36.56 3.653,1.98 7.196,3.98 10.629,6 19.145,-6.1 37.067,-8.55 53.493,-8.55 16.503,0 31.5,2.47 44.726,6.18 -13.566,-18.11 -31.594,-38.46 -54.75,-57.73 -31.375,-26.19 -65.098,-44.56 -89.129,-55.78"
         style="fill:#ec3033;fill-opacity:1;fill-rule:nonzero;stroke:none"
         id="path470" />
      <path
         inkscape:connector-curvature="0"
         d="m 813.551,675.051 c 0,0 37.496,-14.129 37.496,-21.789 0,-7.66 -53.016,4.117 -53.016,4.117 0,0 2.36,-29.449 -24.734,-27.68 -27.102,1.762 -33.578,26.5 -33.578,26.5 0,0 -54.778,-20.609 -77.16,-7.07 -22.383,13.562 25.328,22.98 25.328,22.98 0,0 -63.028,2.942 -66.563,14.129 -3.531,11.192 63.817,17.082 63.817,17.082 l 128.41,-28.269"
         style="fill:#382f4c;fill-opacity:1;fill-rule:nonzero;stroke:none"
         id="path472" />
      <path
         inkscape:connector-curvature="0"
         d="m 1549.83,550.18 c 0,0 -46.73,6.058 -53.8,-8.168 -7.07,-14.223 63.61,-16.571 63.61,-16.571 0,0 31.81,-37.703 64.79,-38.882 32.99,-1.18 33.23,37.703 33.23,37.703 0,0 82.22,-30.633 111.68,-20.02 29.45,10.59 -19.5,37.77 -19.5,37.77 0,0 57.19,-15.223 57.19,0 0,15.238 -87.56,24.66 -87.56,24.66 L 1549.83,550.18"
         style="fill:#382f4c;fill-opacity:1;fill-rule:nonzero;stroke:none"
         id="path474" />
      <path
         inkscape:connector-curvature="0"
         d="m 866.617,1274.53 c 0,0 -164.254,140.06 -173.89,166.31 -9.641,26.25 -4.106,57.89 -0.684,91.06 5.07,49.27 15.102,48.01 15.082,53.78 -0.035,10.42 -21.168,11.64 -32.199,-7.07 -11.035,-18.71 -13.324,-46.74 -13.324,-46.74 0,0 -64.516,79.09 -76.602,76.2 -12.086,-2.89 24.18,-65.98 24.18,-65.98 0,0 -67.207,42.9 -77.582,35.74 -10.375,-7.16 46.058,-54.61 46.058,-54.61 0,0 -54.011,21.98 -63.73,17.7 -9.715,-4.28 45.699,-38.26 45.699,-38.26 0,0 -41.949,-2.29 -41.773,-13.19 0.097,-5.92 51.855,-22.19 60.453,-26.23 8.597,-4.03 81.886,-38.67 81.886,-38.67 l 128.895,-274.32 77.531,124.28"
         style="fill:#349e7c;fill-opacity:1;fill-rule:nonzero;stroke:none"
         id="path476" />
      <g
         id="g478">
        <g
           id="g480"
           clip-path="url(#clipPath484)">
          <path
             inkscape:connector-curvature="0"
             d="m 1625.52,542.012 c -40.65,0 -75.73,8.187 -75.73,8.187 0,0 -59.56,127.321 -107.34,155.5 -17.95,10.539 -139.16,26 -257.66,36.031 -69.89,5.911 -138.84,9.93 -185.11,9.93 -24.043,0 -41.953,-1.09 -50.696,-3.551 -10.523,-3 -22.609,-7.961 -35.132,-13.929 -47.043,-22.43 -100.297,-59.11 -100.297,-59.11 0,0 -5.067,-0.488 -13.856,-0.488 -11.98,0 -30.886,0.91 -53.336,5.207 -34.683,6.59 -61.261,23.551 -61.261,23.551 0,0 -0.18,4.832 -0.457,13.512 -1.442,45.589 -5.481,197.597 0.457,316.348 4.738,94.76 103.714,311.31 194.144,465.05 0.008,0.02 0,0 0.008,0.01 44.461,75.59 86.859,136.01 114.969,159.31 8.897,7.33 19.357,15.18 31.037,23.31 v 0 c 18.63,12.96 40.39,26.65 63.96,40.2 15.37,8.84 31.5,17.63 48.03,26.14 -6.16,-70.23 30.58,-139.15 30.58,-139.15 0,0 39.97,71.46 132.9,111.23 52.25,22.35 102.93,27.24 137.3,27.24 26.75,0 43.62,-2.97 43.62,-2.97 0,0 0.01,0.03 0.02,0.09 24.04,-29.84 49.57,-67.25 74.92,-110.96 0,-0.01 -0.01,-0.01 -0.01,-0.01 l -0.29,-0.67 c -1.46,-3.84 -8.75,-23.74 -8.76,-50.91 0,-14.86 2.17,-31.89 8.67,-49.65 30.08,-82.35 99.68,-116.32 101.74,-117.31 24.66,-67.51 46,-140.96 61.49,-218.38 37.73,-188.67 33.79,-360.809 22.69,-477.141 -8.99,-94.309 -22.69,-151.938 -22.69,-151.938 -24.56,-19.332 -61.05,-24.679 -93.91,-24.679 m 73.54,113.636 c -3.9,0 -7.07,-14.148 -7.07,-31.609 0,-17.449 3.17,-31.609 7.07,-31.609 3.9,0 7.07,14.16 7.07,31.609 0,17.461 -3.17,31.609 -7.07,31.609 m 0.18,427.662 c -3.32,0 -6.65,-2.25 -6.84,-6.47 -1.94,-44.11 -4.27,-117.301 -3.55,-203.711 0.63,-76.5 2.7,-149.899 4.48,-201.348 0.15,-4.312 3.48,-6.543 6.8,-6.543 3.07,0 6.13,1.903 6.68,5.844 7.79,56.008 17.56,135.387 20.91,202.047 3.79,75.332 -10.94,156.561 -21.94,204.931 -0.81,3.56 -3.67,5.25 -6.54,5.25"
             style="fill:url(#linearGradient490);fill-opacity:1;fill-rule:nonzero;stroke:none"
             id="path492" />
        </g>
      </g>
      <path
         inkscape:connector-curvature="0"
         d="m 1482,1352.96 c -17.98,-96.92 -92.83,-164.33 -167.19,-150.53 -74.36,13.79 -120.05,103.55 -102.08,200.48 17.98,96.92 92.83,164.33 167.19,150.53 74.35,-13.79 120.06,-103.55 102.08,-200.48"
         style="fill:#349e7c;fill-opacity:1;fill-rule:nonzero;stroke:none"
         id="path494" />
      <path
         inkscape:connector-curvature="0"
         d="m 1454.74,1352.48 c -1.79,-8.02 -4.05,-15.84 -6.69,-23.38 -5.94,-17.43 -13.95,-33.36 -23.47,-47.3 -18.66,-27.34 -43.07,-47.03 -69.27,-55.79 -13.29,-4.44 -27.05,-6.04 -40.71,-4.34 -2.73,0.37 -5.47,0.85 -8.2,1.41 -62.77,14.04 -98.11,94.81 -78.98,180.29 19.13,85.48 85.48,143.44 148.25,129.39 62.86,-14.04 98.2,-94.71 79.07,-180.28"
         style="fill:#bfe9ea;fill-opacity:1;fill-rule:nonzero;stroke:none"
         id="path496" />
      <path
         inkscape:connector-curvature="0"
         d="m 1227.38,1403.36 c -18.21,-81.45 15.5,-158.31 75.31,-171.69 59.81,-13.38 123.06,41.81 141.28,123.25 18.22,81.45 -15.5,158.32 -75.31,171.7 -59.81,13.37 -123.06,-41.81 -141.28,-123.26"
         style="fill:#ffffff;fill-opacity:1;fill-rule:nonzero;stroke:none"
         id="path498" />
      <g
         id="g500">
        <g
           id="g502"
           clip-path="url(#clipPath506)">
          <path
             inkscape:connector-curvature="0"
             d="m 1448.05,1329.1 c -5.94,-17.43 -13.95,-33.36 -23.47,-47.3 -18.66,-27.34 -43.07,-47.03 -69.27,-55.79 -13.29,-4.44 -27.05,-6.04 -40.71,-4.34 -18.1,23.37 -18.95,63.05 0.19,99.04 l 0.56,1.05 c 4.81,8.76 10.37,16.77 16.68,23.65 25.45,28.55 60.89,40.05 87.55,25.54 15.18,-8.2 24.89,-23.47 28.47,-41.85"
             style="fill:url(#linearGradient512);fill-opacity:1;fill-rule:nonzero;stroke:none"
             id="path514" />
        </g>
      </g>
      <path
         inkscape:connector-curvature="0"
         d="m 1424.58,1281.8 c -18.66,-27.34 -43.07,-47.03 -69.27,-55.79 -4.33,0.56 -8.39,1.88 -12.25,3.95 -23.75,12.81 -28.74,49.47 -11.21,81.71 17.43,32.24 50.88,48.07 74.54,35.16 19.7,-10.66 26.49,-37.71 18.19,-65.03"
         style="fill:#4c0e13;fill-opacity:1;fill-rule:nonzero;stroke:none"
         id="path516" />
      <path
         inkscape:connector-curvature="0"
         d="m 1348.11,1305.86 c -3.1,-11.53 3.75,-23.4 15.28,-26.49 11.53,-3.1 23.39,3.75 26.49,15.28 3.1,11.53 -3.74,23.4 -15.28,26.49 -11.53,3.1 -23.39,-3.75 -26.49,-15.28"
         style="fill:#ffffff;fill-opacity:1;fill-rule:nonzero;stroke:none"
         id="path518" />
      <path
         inkscape:connector-curvature="0"
         d="m 1307.8,1337.69 c -2.17,-8.07 2.62,-16.37 10.69,-18.54 8.07,-2.17 16.37,2.62 18.54,10.69 2.16,8.07 -2.63,16.37 -10.7,18.54 -8.06,2.17 -16.36,-2.63 -18.53,-10.69"
         style="fill:#ffffff;fill-opacity:1;fill-rule:nonzero;stroke:none"
         id="path520" />
      <path
         inkscape:connector-curvature="0"
         d="m 1124.14,1375.37 c -27.17,-94.38 -100.56,-153.52 -163.925,-132.1 -63.367,21.43 -92.719,115.31 -65.559,209.69 27.164,94.38 100.559,153.52 163.924,132.1 63.37,-21.43 92.72,-115.3 65.56,-209.69"
         style="fill:#349e7c;fill-opacity:1;fill-rule:nonzero;stroke:none"
         id="path522" />
      <path
         inkscape:connector-curvature="0"
         d="m 1121.71,1372.13 c -2.51,-7.76 -5.41,-15.3 -8.61,-22.51 -7.25,-16.7 -16.13,-31.68 -26.1,-44.54 -19.54,-25.21 -43.21,-42.23 -67.14,-48.21 -12.14,-3.01 -24.356,-3.17 -36.106,-0.06 -2.344,0.65 -4.676,1.4 -7,2.25 -53.207,20.47 -74.563,104.35 -47.746,187.24 26.82,82.89 91.662,133.54 144.872,113.07 53.29,-20.47 74.66,-104.25 47.83,-187.24"
         style="fill:#bfe9ea;fill-opacity:1;fill-rule:nonzero;stroke:none"
         id="path524" />
      <path
         inkscape:connector-curvature="0"
         d="m 928.977,1446.3 c -25.543,-78.99 -5.149,-158.82 45.554,-178.32 50.699,-19.5 112.509,28.71 138.049,107.69 25.55,78.99 5.15,158.82 -45.55,178.32 -50.7,19.51 -112.51,-28.71 -138.053,-107.69"
         style="fill:#ffffff;fill-opacity:1;fill-rule:nonzero;stroke:none"
         id="path526" />
      <g
         id="g528">
        <g
           id="g530"
           clip-path="url(#clipPath534)">
          <path
             inkscape:connector-curvature="0"
             d="m 1113.1,1349.62 c -7.25,-16.7 -16.13,-31.68 -26.1,-44.54 -19.54,-25.21 -43.21,-42.23 -67.14,-48.21 -12.14,-3.01 -24.356,-3.17 -36.106,-0.06 -13.055,25.08 -9.109,64.58 11.867,98.34 l 0.613,0.96 c 5.236,8.21 11.046,15.58 17.376,21.76 25.62,25.7 57.95,33.44 79.55,16.26 12.3,-9.73 18.98,-25.89 19.94,-44.51"
             style="fill:url(#linearGradient540);fill-opacity:1;fill-rule:nonzero;stroke:none"
             id="path542" />
        </g>
      </g>
      <path
         inkscape:connector-curvature="0"
         d="m 1087,1305.08 c -19.54,-25.21 -43.21,-42.23 -67.14,-48.21 -3.73,1.02 -7.11,2.75 -10.25,5.21 -19.243,15.2 -19.278,52.12 -0.15,82.3 19.05,30.2 50.16,42.45 69.32,27.16 15.96,-12.62 18.7,-40.18 8.22,-66.46"
         style="fill:#4c0e13;fill-opacity:1;fill-rule:nonzero;stroke:none"
         id="path544" />
      <path
         inkscape:connector-curvature="0"
         d="m 1022.99,1336.92 c -4.06,-11.13 0.51,-23.62 10.23,-27.89 9.72,-4.27 20.9,1.28 24.96,12.42 4.07,11.13 -0.5,23.62 -10.22,27.9 -9.72,4.26 -20.9,-1.29 -24.97,-12.43"
         style="fill:#ffffff;fill-opacity:1;fill-rule:nonzero;stroke:none"
         id="path546" />
      <path
         inkscape:connector-curvature="0"
         d="m 991.516,1372.71 c -2.848,-7.78 0.355,-16.52 7.156,-19.51 6.798,-2.99 14.618,0.9 17.468,8.68 2.84,7.8 -0.36,16.54 -7.16,19.53 -6.8,2.98 -14.621,-0.9 -17.464,-8.7"
         style="fill:#ffffff;fill-opacity:1;fill-rule:nonzero;stroke:none"
         id="path548" />
      <path
         inkscape:connector-curvature="0"
         d="m 1339.55,931.762 c -1.32,4.328 -15.36,40.707 -127.14,80.388 -119.22,42.31 -229.765,34.21 -229.765,34.21 0,0 1.793,23.27 8.765,53.81 15.36,66.72 55.89,168.13 158.61,135.81 112.44,-35.44 163.05,-189.82 181.14,-264.269 4.9,-19.969 7.45,-34.109 8.2,-38.832 l 0.19,-1.117"
         style="fill:#4c0e13;fill-opacity:1;fill-rule:nonzero;stroke:none"
         id="path550" />
      <path
         inkscape:connector-curvature="0"
         d="m 1339.55,931.762 c -1.32,4.328 -15.36,40.707 -127.14,80.388 -119.22,42.31 -229.765,34.21 -229.765,34.21 l 3.179,24.94 c 0,0 83.916,32.05 175.276,9.76 101.38,-24.74 170.06,-109.349 170.06,-109.349 l 8.2,-38.832 0.19,-1.117"
         style="fill:#83142e;fill-opacity:1;fill-rule:nonzero;stroke:none"
         id="path552" />
      <path
         inkscape:connector-curvature="0"
         d="m 1241.85,1158.61 -18.1,-13.84 -37.69,-28.94 -9.71,88.21 -1.22,11.5 -14.71,-2.64 -31.28,-5.56 -8.2,15.74 -1.23,2.26 -3.11,-2.07 -23.94,-15.93 -4.71,12.16 -3.58,9.04 -7.16,-13 -45.05,-81.71 v 57.77 c 0,0 23.94,45.15 77,45.15 39.58,0 70.59,-16.12 92.64,-33.74 l 0.19,-0.19 c 6.03,-4.81 11.4,-9.7 16.02,-14.42 15.83,-16.03 23.84,-29.79 23.84,-29.79"
         style="fill:#ffffff;fill-opacity:1;fill-rule:nonzero;stroke:none"
         id="path554" />
      <path
         inkscape:connector-curvature="0"
         d="M 970.914,1047.49 950.891,1170 1058.87,1041.59 Z"
         style="fill:#ffffff;fill-opacity:1;fill-rule:nonzero;stroke:none"
         id="path556" />
      <path
         inkscape:connector-curvature="0"
         d="m 1197.98,1019.04 158.16,96.77 -58.91,-156.681 z"
         style="fill:#ffffff;fill-opacity:1;fill-rule:nonzero;stroke:none"
         id="path558" />
      <path
         inkscape:connector-curvature="0"
         d="m 921.441,1029.73 48.055,26.42 c 0,0 67.794,15.73 174.004,-8.07 207.53,-46.54 226.18,-174.951 226.18,-174.951 0,0 -51.83,120.16 -237.38,150.211 -112.66,18.23 -172.577,-7.67 -172.577,-7.67 l -38.282,14.06"
         style="fill:#4c0e13;fill-opacity:1;fill-rule:nonzero;stroke:none"
         id="path560" />
      <path
         inkscape:connector-curvature="0"
         d="m 1241.85,1158.61 -18.1,-13.84 c -3.76,9.99 -17.14,39.29 -47.4,59.27 l -1.22,11.5 -14.71,-2.64 c -7.44,3.4 -15.55,6.22 -24.59,8.11 -5.19,1.13 -10.18,1.78 -14.89,2.07 l -1.23,2.26 -3.11,-2.07 c -10.56,0.28 -20.07,-1.23 -28.65,-3.77 l -3.58,9.04 -7.16,-13 c -30.07,-13.38 -45.05,-39.3 -45.05,-39.3 v 15.36 c 0,0 23.94,45.15 77,45.15 39.58,0 70.59,-16.12 92.64,-33.74 l 0.19,-0.19 c 5.46,-4.71 10.93,-9.62 16.02,-14.42 15.83,-16.03 23.84,-29.79 23.84,-29.79"
         style="fill:#87d4d9;fill-opacity:1;fill-rule:nonzero;stroke:none"
         id="path562" />
      <path
         inkscape:connector-curvature="0"
         d="m 995.145,1117.37 -8.797,10.46 c 0,0 21.772,129.04 121.512,129.04 134.97,0 198.89,-169.91 198.89,-169.91 l -11.22,-8.23 c 0,0 -73.3,169.15 -186.75,163.28 -93.53,-4.84 -113.635,-124.64 -113.635,-124.64"
         style="fill:#2f8f72;fill-opacity:1;fill-rule:nonzero;stroke:none"
         id="path564" />
      <path
         inkscape:connector-curvature="0"
         d="m 1502.84,1555.17 c 0,0 -20.37,42 -64.34,79.6 -43.97,37.6 -66.71,41.93 -66.71,41.93 l 59.59,0.59 -19,21.67 c 0,0 54.14,-2.91 84.11,-40.36 29.97,-37.45 27.78,-94.45 27.78,-94.45 l -17.83,22.87 -3.6,-31.85"
         style="fill:#4c0e13;fill-opacity:1;fill-rule:nonzero;stroke:none"
         id="path566" />
      <path
         inkscape:connector-curvature="0"
         d="m 1848.26,1702.62 c -0.18,-1.98 -0.37,-3.97 -0.56,-6.04 -2.83,-27.89 -9.43,-57.67 -21.4,-88.49 -4.05,-10.37 -8.48,-20.36 -13.47,-29.98 -11.97,-23.55 -26.3,-44.76 -41.28,-63.42 -52.5,-65.3 -113.57,-100.56 -113.57,-100.56 0,0 -71.25,33.74 -101.78,117.33 -18.38,50.24 -2.17,94.62 0.09,100.56 l 0.29,0.67 c 2.73,1.88 5.37,3.86 8.01,5.75 10.37,7.44 20.17,14.79 29.59,22.05 10.74,8.2 20.92,16.3 30.54,24.22 29.68,24.41 54,47.03 74.17,67.58 8.95,9.14 17.05,17.9 24.41,26.19 59.75,67.01 71.25,104.7 84.53,95.85 12.82,-8.48 36.19,-54.29 40.91,-119.22 1.12,-16.4 1.12,-33.93 -0.48,-52.49"
         style="fill:#f79021;fill-opacity:1;fill-rule:nonzero;stroke:none"
         id="path568" />
      <g
         id="g570">
        <g
           id="g572"
           clip-path="url(#clipPath576)">
          <path
             inkscape:connector-curvature="0"
             d="m 1657.66,1286.91 c 0,0 199.48,82.46 216.76,104.46 17.28,21.99 22.38,59.25 33.63,90.64 11.19,31.22 -1.63,48.36 1.99,52.85 6.55,8.12 19.9,-2.58 24.62,-23.79 4.71,-21.2 -2.52,-42.73 -2.52,-42.73 0,0 95.98,60.61 106.58,54.12 10.6,-6.47 -53.56,-60.6 -53.56,-60.6 0,0 93.02,28.21 100.68,18.19 7.66,-10.01 -76.53,-45.88 -76.53,-45.88 0,0 82.74,4.26 90.67,-2.81 7.92,-7.07 -80.9,-27.88 -80.9,-27.88 0,0 53.02,-9.38 49.48,-19.68 -1.92,-5.61 -68.98,-5.29 -78.4,-6.47 -9.42,-1.18 -89.82,-11.48 -89.82,-11.48 L 1693,1144.77 c 0,0 -37.24,9.57 -52.06,62.6 -14.92,53.41 16.72,79.54 16.72,79.54"
             style="fill:url(#linearGradient582);fill-opacity:1;fill-rule:nonzero;stroke:none"
             id="path584" />
        </g>
      </g>
      <path
         inkscape:connector-curvature="0"
         d="m 1549.79,550.199 c 0,0 -59.56,127.321 -107.34,155.5 -34.03,19.981 -439.37,57.68 -493.466,42.41 -50.043,-14.23 -135.429,-73.039 -135.429,-73.039 0,0 -28.274,-2.738 -67.192,4.719 -34.683,6.59 -61.261,23.551 -61.261,23.551 0,0 -7.071,188.5 0,329.86 7.066,141.36 223.828,553.68 309.121,624.37 23.087,19.03 56.637,41.46 94.997,63.51 l 71.91,17.82 6.69,-130.81 c 0,0 -115.64,18.66 -181.515,-12.35 -65.782,-31 -170.391,-245.04 -175.106,-469.62 -4.711,-224.671 85.387,-290.64 276.701,-317.319 191.41,-26.672 323.35,-42.403 381.41,-81.711 58.15,-39.199 80.48,-176.891 80.48,-176.891"
         style="fill:#2f8f72;fill-opacity:1;fill-rule:nonzero;stroke:none"
         id="path586" />
      <path
         inkscape:connector-curvature="0"
         d="m 1160.87,1720.35 c 0,0 -41.43,-14.32 -80.69,-31.21 -32.29,-13.89 -67.94,-37.7 -67.94,-37.7 l 16.89,25.91 -21.07,-3.94 c 0,0 15.5,36.3 54.44,56.57 48.1,25.02 105.33,21.46 105.33,21.46 l -31.32,-21.04 24.36,-10.05"
         style="fill:#4c0e13;fill-opacity:1;fill-rule:nonzero;stroke:none"
         id="path588" />
      <path
         inkscape:connector-curvature="0"
         d="m 1481.65,1743.57 c 0,0 -87.99,15.48 -180.92,-24.27 -92.93,-39.77 -132.9,-111.23 -132.9,-111.23 0,0 -65.65,123.15 -6.73,207.97 30.09,43.32 73.4,41.77 73.4,41.77 l -75.98,24.15 c 0,0 62.17,37.7 140.19,20.03 47.74,-10.82 60.66,-28.86 60.66,-28.86 l -36.96,69.51 c 0,0 109.51,-8.33 151.24,-71.87 30.04,-45.74 8,-127.2 8,-127.2"
         style="fill:#382f4c;fill-opacity:1;fill-rule:nonzero;stroke:none"
         id="path590" />
      <path
         inkscape:connector-curvature="0"
         d="m 1172.86,1686.45 c 0,0 -3.95,44.75 21.21,82.56 28.16,42.32 65.38,49.38 65.38,49.38 l -66.56,-6.48 c 0,0 34.94,32.02 109.2,32.02 8.62,0 17.77,-0.43 27.45,-1.39 91.92,-9.12 130.4,-69.5 130.4,-69.5 l -32.62,15.9 14.73,-25.91 c 0,0 -35.68,14.09 -88.29,14.09 -16.54,0 -34.76,-1.4 -54.06,-5.06 -80.7,-15.32 -126.84,-85.61 -126.84,-85.61"
         style="fill:#594b72;fill-opacity:1;fill-rule:nonzero;stroke:none"
         id="path592" />
      <g
         id="g594">
        <g
           id="g596"
           clip-path="url(#clipPath600)">
          <path
             inkscape:connector-curvature="0"
             d="m 1700.13,665.238 c -3.32,0 -6.65,2.231 -6.8,6.543 -1.78,51.449 -3.85,124.848 -4.48,201.348 -0.72,86.41 1.61,159.601 3.55,203.711 0.19,4.22 3.52,6.47 6.84,6.47 2.87,0 5.73,-1.69 6.54,-5.25 11,-48.37 25.73,-129.599 21.94,-204.931 -3.35,-66.66 -13.12,-146.039 -20.91,-202.047 -0.55,-3.941 -3.61,-5.844 -6.68,-5.844"
             style="fill:url(#linearGradient2639);fill-opacity:1;fill-rule:nonzero;stroke:none"
             id="path608" />
        </g>
      </g>
      <g
         id="g610">
        <g
           id="g612"
           clip-path="url(#clipPath616)">
          <path
             inkscape:connector-curvature="0"
             d="m 1699.06,592.43 c -3.9,0 -7.07,14.16 -7.07,31.609 0,17.461 3.17,31.609 7.07,31.609 3.9,0 7.07,-14.148 7.07,-31.609 0,-17.449 -3.17,-31.609 -7.07,-31.609"
             style="fill:url(#linearGradient2641);fill-opacity:1;fill-rule:nonzero;stroke:none"
             id="path624" />
        </g>
      </g>
      <path
         inkscape:connector-curvature="0"
         d="m 1013.58,976.871 c 0,0 59.54,17.348 143.57,-9.672 84.04,-27.027 103.28,-53.16 103.28,-53.16 l -246.85,62.832"
         style="fill:#2f8f72;fill-opacity:1;fill-rule:nonzero;stroke:none"
         id="path626" />
      <path
         inkscape:connector-curvature="0"
         d="m 1812.83,1578.11 c -11.97,-23.55 -26.3,-44.76 -41.28,-63.42 -14.33,3.4 -47.79,14.8 -97.26,52.78 -67.48,51.84 -80.11,93.02 -80.11,93.02 10.74,8.2 20.92,16.3 30.54,24.22 12.16,-16.4 41.55,-52.31 83.4,-76.62 39.39,-23 82.75,-28.66 104.71,-29.98"
         style="fill:#f0373b;fill-opacity:1;fill-rule:nonzero;stroke:none"
         id="path628" />
      <path
         inkscape:connector-curvature="0"
         d="m 1848.26,1702.62 c -17.72,-2.37 -43.45,-2.64 -74.17,6.22 -37.69,10.93 -62.29,30.44 -75.2,43.45 8.95,9.14 17.05,17.9 24.41,26.19 12.06,-6.5 30.53,-14.13 57.86,-20.17 29.12,-6.41 51.55,-5.94 67.58,-3.2 1.12,-16.4 1.12,-33.93 -0.48,-52.49"
         style="fill:#f0373b;fill-opacity:1;fill-rule:nonzero;stroke:none"
         id="path630" />
      <path
         inkscape:connector-curvature="0"
         d="m 1657.98,1414.13 c 0,0 -0.01,0.01 -0.04,0.02 -2.06,0.99 -71.66,34.96 -101.74,117.31 -6.5,17.76 -8.67,34.79 -8.67,49.65 0.01,27.17 7.3,47.07 8.76,50.91 l 8.3,6.42 c 0,0 12.56,-3.1 32.46,-6.07 -0.74,-3.74 2.22,-7.79 6.25,-7.79 0.9,0 1.85,0.2 2.83,0.65 2.1,0.98 4.26,2 6.45,3.07 12,-16.24 31.27,-37.45 61.71,-60.83 49.44,-37.95 82.88,-49.37 97.23,-52.77 -51.91,-64.58 -112.19,-99.79 -113.51,-100.56 -0.01,0 -0.01,0 -0.01,0 h -0.01 c 0,-0.01 0,-0.01 0,-0.01 v 0 c -0.01,0 -0.01,0 -0.01,0"
         style="fill:#eb801a;fill-opacity:1;fill-rule:nonzero;stroke:none"
         id="path632" />
      <path
         inkscape:connector-curvature="0"
         d="m 1791.91,1542.44 c 7.47,11.2 14.53,23.1 20.92,35.67 v 0 0 c 4.99,9.62 9.42,19.61 13.47,29.98 11.97,30.82 18.57,60.6 21.4,88.49 v 0 c -2.83,-27.89 -9.43,-57.67 -21.4,-88.49 -9.25,-23.96 -21.17,-45.88 -34.39,-65.65"
         style="fill:#e5d6d5;fill-opacity:1;fill-rule:nonzero;stroke:none"
         id="path634" />
      <path
         inkscape:connector-curvature="0"
         d="m 1812.83,1578.11 c -21.96,1.32 -65.32,6.98 -104.71,29.98 -10.11,5.87 -19.49,12.42 -28.08,19.21 28.76,1.02 59.2,5.41 86.61,16.13 39.49,15.46 65.12,35.72 81.05,53.15 -2.83,-27.89 -9.43,-57.67 -21.4,-88.49 -4.05,-10.37 -8.48,-20.36 -13.47,-29.98 v 0"
         style="fill:#eb801a;fill-opacity:1;fill-rule:nonzero;stroke:none"
         id="path636" />
      <path
         inkscape:connector-curvature="0"
         d="m 1771.52,1514.7 c -14.35,3.4 -47.79,14.82 -97.23,52.77 -30.44,23.38 -49.71,44.59 -61.71,60.83 1.09,0.53 2.19,1.08 3.3,1.63 14.9,-1.64 32.12,-2.87 50.37,-2.87 4.54,0 9.14,0.08 13.79,0.24 8.59,-6.79 17.97,-13.34 28.08,-19.21 39.39,-23 82.75,-28.66 104.71,-29.98 v 0 c -6.39,-12.57 -13.45,-24.47 -20.92,-35.67 -6.54,-9.78 -13.39,-19.03 -20.39,-27.74"
         style="fill:#ec3033;fill-opacity:1;fill-rule:nonzero;stroke:none"
         id="path638" />
      <path
         inkscape:connector-curvature="0"
         d="m 1610.98,1630.5 c -4.95,0.6 -9.61,1.23 -13.93,1.87 0.27,1.38 1.05,2.71 2.45,3.79 1.64,1.27 3.32,2.58 5.04,3.91 1.84,-2.93 3.97,-6.13 6.44,-9.57 m 42.2,20.99 c -5.58,5.67 -10.54,11.14 -14.83,16.16 17.48,14.93 35.99,31.86 53.25,49.82 7.33,7.64 14.37,15.19 21.06,22.57 5.48,-4.32 11.9,-8.81 19.29,-13.15 -8.32,-10.88 -17.76,-22.1 -28.44,-33.39 -15.89,-16.8 -33.31,-30.68 -50.33,-42.01 m 104.32,113.04 c -6.69,2.07 -12.62,4.2 -17.87,6.33 7.61,9.01 14.48,17.41 20.51,24.96 1.39,1.74 3.15,2.48 4.88,2.48 4.27,0 8.31,-4.5 5.85,-9.42 -3.74,-7.48 -8.17,-15.66 -13.37,-24.35"
         style="fill:#fcd69a;fill-opacity:1;fill-rule:nonzero;stroke:none"
         id="path640" />
      <path
         inkscape:connector-curvature="0"
         d="m 1615.88,1629.93 c -1.66,0.19 -3.29,0.38 -4.9,0.57 -2.47,3.44 -4.6,6.64 -6.44,9.57 10.31,8.05 21.82,17.34 33.81,27.58 4.29,-5.02 9.25,-10.49 14.83,-16.16 -12.94,-8.6 -25.65,-15.73 -37.3,-21.56"
         style="fill:#f9a8ae;fill-opacity:1;fill-rule:nonzero;stroke:none"
         id="path642" />
      <path
         inkscape:connector-curvature="0"
         d="m 1731.95,1726.89 c -7.39,4.34 -13.81,8.83 -19.29,13.15 9.75,10.76 18.79,21.14 26.97,30.82 5.25,-2.13 11.18,-4.26 17.87,-6.33 -7.03,-11.76 -15.47,-24.45 -25.55,-37.64"
         style="fill:#f9a8ae;fill-opacity:1;fill-rule:nonzero;stroke:none"
         id="path644" />
      <path
         inkscape:connector-curvature="0"
         d="m 1603.3,1624.58 c -4.03,0 -6.99,4.05 -6.25,7.79 4.32,-0.64 8.98,-1.27 13.93,-1.87 0.52,-0.72 1.05,-1.45 1.6,-2.2 -2.19,-1.07 -4.35,-2.09 -6.45,-3.07 -0.98,-0.45 -1.93,-0.65 -2.83,-0.65"
         style="fill:#f5cf9a;fill-opacity:1;fill-rule:nonzero;stroke:none"
         id="path646" />
      <path
         inkscape:connector-curvature="0"
         d="m 1612.58,1628.3 c -0.55,0.75 -1.08,1.48 -1.6,2.2 1.61,-0.19 3.24,-0.38 4.9,-0.57 -1.11,-0.55 -2.21,-1.1 -3.3,-1.63"
         style="fill:#f7a8ac;fill-opacity:1;fill-rule:nonzero;stroke:none"
         id="path648" />
      <path
         inkscape:connector-curvature="0"
         d="m 915.945,1711.89 c -14.433,9.03 -29.769,20.03 -45.058,33.32 -7.621,6.63 -14.617,13.8 -21.024,21.27 7.91,4.76 14.887,9.63 21,14.37 3.36,-3.6 6.797,-7.19 10.305,-10.75 16.379,-16.64 33.18,-31.8 48.695,-44.9 -4.066,-4.17 -8.695,-8.64 -13.918,-13.31 m -95.418,96.97 c -5.922,10.53 -10.906,20.85 -15.043,30.39 -2.261,5.2 2.004,9.63 6.438,9.63 1.941,0 3.918,-0.85 5.387,-2.86 6.726,-9.22 14.484,-19.41 23.113,-30.08 -6,-2.49 -12.641,-4.91 -19.895,-7.08"
         style="fill:#fcd69a;fill-opacity:1;fill-rule:nonzero;stroke:none"
         id="path650" />
      <path
         inkscape:connector-curvature="0"
         d="m 849.863,1766.48 c -11.648,13.58 -21.347,28.17 -29.336,42.38 7.254,2.17 13.895,4.59 19.895,7.08 9.215,-11.38 19.422,-23.29 30.441,-35.09 -6.113,-4.74 -13.09,-9.61 -21,-14.37"
         style="fill:#f9a8ae;fill-opacity:1;fill-rule:nonzero;stroke:none"
         id="path652" />
      <path
         inkscape:connector-curvature="0"
         d="m 947.734,1694.94 c -1.023,0 -2.109,0.25 -3.218,0.81 -8.868,4.49 -18.5,9.84 -28.571,16.14 5.223,4.67 9.852,9.14 13.918,13.31 7.692,-6.49 15.067,-12.47 21.918,-17.87 5.543,-4.36 1.762,-12.39 -4.047,-12.39"
         style="fill:#f9a8ae;fill-opacity:1;fill-rule:nonzero;stroke:none"
         id="path654" />
    </g>
  </g>
</svg>
