<?xml version="1.0" encoding="UTF-8" standalone="no"?>
<svg
   xmlns:dc="http://purl.org/dc/elements/1.1/"
   xmlns:cc="http://creativecommons.org/ns#"
   xmlns:rdf="http://www.w3.org/1999/02/22-rdf-syntax-ns#"
   xmlns:svg="http://www.w3.org/2000/svg"
   xmlns="http://www.w3.org/2000/svg"
   xmlns:xlink="http://www.w3.org/1999/xlink"
   xmlns:sodipodi="http://sodipodi.sourceforge.net/DTD/sodipodi-0.dtd"
   xmlns:inkscape="http://www.inkscape.org/namespaces/inkscape"
   sodipodi:docname="04-maddy.svg"
   inkscape:version="1.0beta2 (589b019, 2020-04-03)"
   id="svg2791"
   version="1.1"
   viewBox="0 0 57.406754 61.123806"
   height="61.123806mm"
   width="57.406754mm">
  <defs
     id="defs2785">
    <clipPath
       id="clipPath34"
       clipPathUnits="userSpaceOnUse">
      <path
         inkscape:connector-curvature="0"
         id="path32"
         d="m 508.695,2575.45 c -6.386,0 -11.515,13.92 -5.394,49.48 6.187,35.93 12.074,47.71 12.074,47.71 0,0 -8.539,-10.31 -15.02,-23.27 -6.199,-12.4 -9.703,-36.67 -15.671,-36.67 -0.27,0 -0.543,0.05 -0.821,0.15 -6.48,2.36 -1.644,44.94 19.496,77.32 39.567,60.62 48.047,67.19 63.75,89.97 14.106,20.45 95.832,144.36 112.368,169.43 4.644,-16.39 9.164,-33.01 13.445,-50.17 l -113.66,-168.35 c -0.528,-0.62 -0.821,-1.05 -0.86,-1.27 -0.882,-5.01 17.672,-39.76 22.969,-54.19 5.305,-14.44 11.488,-37.11 5.895,-39.76 -0.821,-0.39 -1.629,-0.58 -2.43,-0.58 -4.652,0 -8.813,6.34 -10.828,15.89 -2.195,10.44 -14.125,23.18 -17.875,23.18 -0.27,0 -0.5,-0.07 -0.68,-0.21 -2.644,-2.06 -3.828,-30.92 -5.004,-43.88 -1.152,-12.69 -0.047,-39.8 -6.09,-39.8 -0.125,0 -0.257,0.02 -0.39,0.04 -6.481,1.18 -7.364,19.14 -9.129,33.28 -1.77,14.14 -1.469,36.82 -1.469,36.82 0,0 -3.242,-27.1 -5.598,-39.76 -2.359,-12.67 -0.589,-43.59 -8.246,-43.89 -0.086,0 -0.168,0 -0.25,0 -7.418,0 -8.004,13.02 -8.589,44.77 -0.586,32.1 5.011,44.17 5.011,44.17 0,0 -9.133,-17.08 -15.316,-42.7 -6.184,-25.62 -5.008,-47.41 -11.488,-47.71 -0.067,0 -0.133,0 -0.2,0 m 189,260.67 7.825,6.97 c 0.011,-0.08 0.023,-0.14 0.039,-0.22 -2.145,-1.84 -4.793,-4.12 -7.864,-6.75" />
    </clipPath>
    <linearGradient
       id="linearGradient40"
       spreadMethod="pad"
       gradientTransform="matrix(230.432,0,0,-230.432,481.187,2764.72)"
       gradientUnits="userSpaceOnUse"
       y2="0"
       x2="1"
       y1="0"
       x1="0">
      <stop
         id="stop36"
         offset="0"
         style="stop-opacity:1;stop-color:#ef373b" />
      <stop
         id="stop38"
         offset="1"
         style="stop-opacity:1;stop-color:#b91d24" />
    </linearGradient>
    <clipPath
       id="clipPath52"
       clipPathUnits="userSpaceOnUse">
      <path
         inkscape:connector-curvature="0"
         id="path50"
         d="m 579.262,2731.05 113.66,168.35 c 4.504,-18.05 8.746,-36.7 12.598,-56.31 l -7.825,-6.97 c -32.132,-27.64 -109.41,-94.42 -118.433,-105.07" />
    </clipPath>
    <linearGradient
       id="linearGradient58"
       spreadMethod="pad"
       gradientTransform="matrix(230.432,0,0,-230.432,481.187,2764.72)"
       gradientUnits="userSpaceOnUse"
       y2="0"
       x2="1"
       y1="0"
       x1="0">
      <stop
         id="stop54"
         offset="0"
         style="stop-opacity:1;stop-color:#de2526" />
      <stop
         id="stop56"
         offset="1"
         style="stop-opacity:1;stop-color:#b91d24" />
    </linearGradient>
    <clipPath
       id="clipPath68"
       clipPathUnits="userSpaceOnUse">
      <path
         inkscape:connector-curvature="0"
         id="path66"
         d="m 1363.87,2220.21 h -0.02 c 0.01,0.02 0.02,0.03 0.02,0.03 l -38.44,2.66 c 1.22,3.29 64.45,175.45 -3.97,234.53 -26.58,22.95 -60.6,28.7 -100,28.7 -19.8,0 -40.96,-1.45 -63.21,-2.91 -22.25,-1.45 -45.6,-2.9 -69.78,-2.9 -28.57,0 -58.31,2.03 -88.763,8.49 -133.164,28.27 -201.305,395.82 -304.977,572.44 -100.367,171.05 -54,395.07 -50.98,409.02 -24.559,-53.99 -33.68,-114.47 -33.68,-174.1 0,23.35 1.399,46.82 4.575,69.99 v 0 c 2.566,18.73 6.3,37.27 11.394,55.37 4.695,16.68 10.547,32.98 17.711,48.74 v 0.19 l 0.184,0.47 c 10.398,22.72 23.531,44.29 39.875,64.18 42.769,52.02 107.523,92.41 202.711,111.3 20.828,4.15 43.07,7.26 66.914,9.23 9.14,0.76 18.468,1.42 28.086,1.8 11.984,0.53 23.79,0.78 35.37,0.78 76.61,0 144.2,-11.12 200.41,-26.76 v 0 c 46.3,-12.88 84.87,-28.82 114.42,-44.14 v 0 c 33.07,-17.14 54.83,-33.51 63.44,-43.92 2.26,-2.73 3.67,-5.09 4.05,-6.88 5.46,-23.56 3.2,-58.52 -15.74,-127.6 -18.85,-69.08 -3.87,-188.12 73.04,-298.47 77,-110.27 59.75,-155.13 47.12,-266.62 -12.53,-111.49 -40.81,-229.3 -43.92,-365.95 -3.2,-136.65 -95.84,-257.67 -95.84,-257.67 m -230.9,495.21 c 0,0 40.37,-68.9 105.24,-72.65 2.47,-0.14 4.93,-0.21 7.33,-0.21 114.09,0 145.63,157.41 146.87,163.84 6.08,21.64 6.8,37.43 6.8,37.43 0,0 -11.78,-94.25 -102.18,-128.41 -30.13,-11.39 -58.4,-15.18 -82.71,-15.18 -48.61,0 -81.35,15.18 -81.35,15.18 0,0 22.39,-14.22 55.83,-23.02 -37.91,5.36 -55.83,23.02 -55.83,23.02 m 37.7,5.11 c 0,0 22.23,-5.15 51.92,-5.15 38.8,0 90.35,8.79 121.64,49.34 53.9,69.83 31.86,147.83 31.86,147.83 0,0 5.06,-73.43 -49.92,-133.91 -51,-56.1 -141.2,-58.12 -153.98,-58.12 -0.99,0 -1.52,0.01 -1.52,0.01 m 203.24,232.23 c -0.04,0 -0.08,0 -0.12,0 -2.81,-0.23 -4.43,-8.57 -3.62,-18.62 0.8,-9.92 3.66,-17.81 6.43,-17.81 0.04,0 0.08,0 0.12,0.01 2.82,0.22 4.43,8.56 3.62,18.62 -0.8,9.92 -3.66,17.8 -6.43,17.8 m -357.02,705.46 c -11.58,0 -23.386,-0.25 -35.37,-0.78 -9.618,-0.38 -18.946,-1.04 -28.086,-1.8 -23.844,-1.97 -46.086,-5.08 -66.914,-9.23 l -82.653,-29.69 c 0,0 92.36,-70.77 273.683,-91.41 33.92,-3.85 67.13,-5.42 98.72,-5.42 97.45,0 179.46,14.9 218.89,23.51 -25.64,31 -167.93,114.82 -378.27,114.82 m 373.97,-857.07 c 0.53,1.71 1.03,3.39 1.49,5.04 -0.19,-0.76 -0.65,-2.5 -1.49,-5.04" />
    </clipPath>
    <linearGradient
       id="linearGradient74"
       spreadMethod="pad"
       gradientTransform="matrix(0,-1491.35,-1491.35,0,1062.37,3658.22)"
       gradientUnits="userSpaceOnUse"
       y2="0"
       x2="1"
       y1="0"
       x1="0">
      <stop
         id="stop70"
         offset="0"
         style="stop-opacity:1;stop-color:#ef373b" />
      <stop
         id="stop72"
         offset="1"
         style="stop-opacity:1;stop-color:#b91d24" />
    </linearGradient>
    <clipPath
       id="clipPath96"
       clipPathUnits="userSpaceOnUse">
      <path
         inkscape:connector-curvature="0"
         id="path94"
         d="m 1132.97,3196.46 c 0,-64.27 -38.26,-116.36 -85.45,-116.36 -47.19,0 -85.446,52.09 -85.446,116.36 0,64.26 38.256,116.36 85.446,116.36 47.19,0 85.45,-52.1 85.45,-116.36 z" />
    </clipPath>
    <linearGradient
       id="linearGradient102"
       spreadMethod="pad"
       gradientTransform="matrix(170.891,0,0,-170.891,962.078,3196.46)"
       gradientUnits="userSpaceOnUse"
       y2="0"
       x2="1"
       y1="0"
       x1="0">
      <stop
         id="stop98"
         offset="0"
         style="stop-opacity:1;stop-color:#a02c1f" />
      <stop
         id="stop100"
         offset="1"
         style="stop-opacity:1;stop-color:#651317" />
    </linearGradient>
    <clipPath
       id="clipPath122"
       clipPathUnits="userSpaceOnUse">
      <path
         inkscape:connector-curvature="0"
         id="path120"
         d="m 1287.35,3217.45 c 0,-35.77 -21.29,-64.75 -47.55,-64.75 -26.26,0 -47.54,28.98 -47.54,64.75 0,35.76 21.28,64.74 47.54,64.74 26.26,0 47.55,-28.98 47.55,-64.74 z" />
    </clipPath>
    <linearGradient
       id="linearGradient128"
       spreadMethod="pad"
       gradientTransform="matrix(95.0917,0,0,-95.0917,1192.26,3217.45)"
       gradientUnits="userSpaceOnUse"
       y2="0"
       x2="1"
       y1="0"
       x1="0">
      <stop
         id="stop124"
         offset="0"
         style="stop-opacity:1;stop-color:#a02c1f" />
      <stop
         id="stop126"
         offset="1"
         style="stop-opacity:1;stop-color:#651317" />
    </linearGradient>
    <clipPath
       id="clipPath148"
       clipPathUnits="userSpaceOnUse">
      <path
         inkscape:connector-curvature="0"
         id="path146"
         d="m 800.098,2166.88 c 0,0 -74.024,155.52 -74,428.51 0,2.7 0.004,5.4 0.019,8.12 0.02,3.12 0.028,6.22 0.028,9.29 0.011,94.71 -8.293,167.44 -20.625,230.29 -3.852,19.61 -8.094,38.26 -12.598,56.31 -22.328,89.48 -51.109,164.28 -70.473,269 -7.406,40.16 -12.379,83.73 -12.379,127.77 0,59.63 9.121,120.11 33.68,174.1 -3.02,-13.95 -49.387,-237.97 50.98,-409.02 103.672,-176.62 171.813,-544.17 304.977,-572.44 30.453,-6.46 60.193,-8.49 88.763,-8.49 24.18,0 47.53,1.45 69.78,2.9 22.25,1.46 43.41,2.91 63.21,2.91 39.4,0 73.42,-5.75 100,-28.7 68.42,-59.08 5.19,-231.24 3.97,-234.53 h -0.01 c 0,0 0,0 -0.01,0 -1.05,15.86 -8.81,98.41 -52.58,160.73 -16.97,24.1 -54.81,33.49 -99.01,33.49 -82.51,0 -187.207,-32.68 -219.914,-63.36 -50.129,-47.03 -130.011,-173.82 -130.34,-174.35 -0.019,0 -0.031,0 -0.031,0 l -5.449,-2.93 -17.988,-9.6" />
    </clipPath>
    <clipPath
       id="clipPath154"
       clipPathUnits="userSpaceOnUse">
      <path
         inkscape:connector-curvature="0"
         id="path152"
         d="m 594.363,2166.88 h 795.516 V 3470.27 H 594.363 Z" />
    </clipPath>
    <linearGradient
       id="linearGradient160"
       spreadMethod="pad"
       gradientTransform="matrix(0,-1491.35,-1491.35,0,1062.37,3658.22)"
       gradientUnits="userSpaceOnUse"
       y2="0"
       x2="1"
       y1="0"
       x1="0">
      <stop
         id="stop156"
         offset="0"
         style="stop-opacity:1;stop-color:#c21e25" />
      <stop
         id="stop158"
         offset="1"
         style="stop-opacity:1;stop-color:#b91d24" />
    </linearGradient>
    <clipPath
       id="clipPath174"
       clipPathUnits="userSpaceOnUse">
      <path
         inkscape:connector-curvature="0"
         id="path172"
         d="m 1245.54,2642.56 c -2.4,0 -4.86,0.07 -7.33,0.21 -64.87,3.75 -105.24,72.65 -105.24,72.65 0,0 17.92,-17.66 55.83,-23.02 14.97,-3.94 32.15,-6.79 50.53,-6.79 21.57,0 44.78,3.93 67.99,14.62 50.41,23.24 73.25,67.62 83.54,100.92 0.84,2.54 1.3,4.28 1.49,5.04 0.02,0.07 0.04,0.14 0.06,0.21 -1.24,-6.43 -32.78,-163.84 -146.87,-163.84" />
    </clipPath>
    <linearGradient
       id="linearGradient180"
       spreadMethod="pad"
       gradientTransform="matrix(0,-1491.35,-1491.35,0,1062.37,3658.22)"
       gradientUnits="userSpaceOnUse"
       y2="0"
       x2="1"
       y1="0"
       x1="0">
      <stop
         id="stop176"
         offset="0"
         style="stop-opacity:1;stop-color:#de2526" />
      <stop
         id="stop178"
         offset="1"
         style="stop-opacity:1;stop-color:#b91d24" />
    </linearGradient>
    <clipPath
       id="clipPath192"
       clipPathUnits="userSpaceOnUse">
      <path
         inkscape:connector-curvature="0"
         id="path190"
         d="m 1222.59,2715.38 c -29.69,0 -51.92,5.15 -51.92,5.15 0,0 0.53,-0.01 1.52,-0.01 12.78,0 102.98,2.02 153.98,58.12 54.98,60.48 49.92,133.91 49.92,133.91 0,0 22.04,-78 -31.86,-147.83 -31.29,-40.55 -82.84,-49.34 -121.64,-49.34" />
    </clipPath>
    <linearGradient
       id="linearGradient198"
       spreadMethod="pad"
       gradientTransform="matrix(0,-1491.35,-1491.35,0,1062.37,3658.22)"
       gradientUnits="userSpaceOnUse"
       y2="0"
       x2="1"
       y1="0"
       x1="0">
      <stop
         id="stop194"
         offset="0"
         style="stop-opacity:1;stop-color:#f57780" />
      <stop
         id="stop196"
         offset="1"
         style="stop-opacity:1;stop-color:#d35c68" />
    </linearGradient>
    <clipPath
       id="clipPath208"
       clipPathUnits="userSpaceOnUse">
      <path
         inkscape:connector-curvature="0"
         id="path206"
         d="m 1376.6,2916.33 c -2.77,0 -5.63,7.89 -6.43,17.81 -0.81,10.05 0.81,18.39 3.62,18.62 0.04,0 0.08,0 0.12,0 2.77,0 5.63,-7.88 6.43,-17.8 0.81,-10.06 -0.8,-18.4 -3.62,-18.62 -0.04,-0.01 -0.08,-0.01 -0.12,-0.01" />
    </clipPath>
    <clipPath
       id="clipPath264"
       clipPathUnits="userSpaceOnUse">
      <path
         inkscape:connector-curvature="0"
         id="path262"
         d="m 1176.27,3519.89 c -31.59,0 -64.8,1.57 -98.72,5.42 -181.323,20.64 -273.683,91.41 -273.683,91.41 l 82.653,29.69 c 20.828,4.15 43.07,7.26 66.914,9.23 9.14,0.76 18.468,1.42 28.086,1.8 11.984,0.53 23.79,0.78 35.37,0.78 210.34,0 352.63,-83.82 378.27,-114.82 -39.43,-8.61 -121.44,-23.51 -218.89,-23.51" />
    </clipPath>
    <clipPath
       id="clipPath270"
       clipPathUnits="userSpaceOnUse">
      <path
         inkscape:connector-curvature="0"
         id="path268"
         d="m 803.867,3519.89 h 591.293 v 138.332 H 803.867 Z" />
    </clipPath>
    <linearGradient
       id="linearGradient276"
       spreadMethod="pad"
       gradientTransform="matrix(0,-1491.35,-1491.35,0,1062.37,3658.22)"
       gradientUnits="userSpaceOnUse"
       y2="0"
       x2="1"
       y1="0"
       x1="0">
      <stop
         id="stop272"
         offset="0"
         style="stop-opacity:1;stop-color:#f25861" />
      <stop
         id="stop274"
         offset="1"
         style="stop-opacity:1;stop-color:#c93b44" />
    </linearGradient>
    <linearGradient
       spreadMethod="pad"
       y2="0"
       x2="1"
       y1="0"
       x1="0"
       gradientTransform="matrix(0,-1491.35,-1491.35,0,1062.37,3658.22)"
       gradientUnits="userSpaceOnUse"
       id="linearGradient3062"
       xlink:href="#linearGradient198"
       inkscape:collect="always" />
    <linearGradient
       spreadMethod="pad"
       y2="0"
       x2="1"
       y1="0"
       x1="0"
       gradientTransform="matrix(0,-1491.35,-1491.35,0,1062.37,3658.22)"
       gradientUnits="userSpaceOnUse"
       id="linearGradient3064"
       xlink:href="#linearGradient198"
       inkscape:collect="always" />
  </defs>
  <sodipodi:namedview
     inkscape:window-maximized="0"
     inkscape:window-y="0"
     inkscape:window-x="128"
     inkscape:window-height="1030"
     inkscape:window-width="1424"
     showgrid="false"
     inkscape:document-rotation="0"
     inkscape:current-layer="layer1"
     inkscape:document-units="mm"
     inkscape:cy="115.50955"
     inkscape:cx="108.48521"
     inkscape:zoom="0.35"
     inkscape:pageshadow="2"
     inkscape:pageopacity="0.0"
     borderopacity="1.0"
     bordercolor="#666666"
     pagecolor="#ffffff"
     id="base" />
  <metadata
     id="metadata2788">
    <rdf:RDF>
      <cc:Work
         rdf:about="">
        <dc:format>image/svg+xml</dc:format>
        <dc:type
           rdf:resource="http://purl.org/dc/dcmitype/StillImage" />
        <dc:title></dc:title>
      </cc:Work>
    </rdf:RDF>
  </metadata>
  <g
     transform="translate(-77.129956,-117.60477)"
     id="layer1"
     inkscape:groupmode="layer"
     inkscape:label="Layer 1">
    <g
       id="g1489"
       transform="matrix(0.03527778,0,0,-0.03527778,64.756557,252.40551)">
      <path
         inkscape:connector-curvature="0"
         d="m 1164.38,2088.48 c -449.357,0 -813.638,27.74 -813.638,61.96 0,23.78 176,44.44 434.266,54.82 8.851,-25.27 15.09,-38.38 15.09,-38.38 l 17.988,9.6 -17.957,-9.64 c -0.883,-25.05 74.594,-67.22 92.434,-67.22 1.175,0 2.097,0.18 2.734,0.57 10.308,6.18 -40.938,41.52 -40.938,41.52 0,0 58.965,-14.86 81.481,-14.86 3.238,0 5.723,0.31 7.168,1.02 11.484,5.59 -50.07,34.75 -50.07,34.75 0,0 0.156,0 0.453,0 6.457,0 80.082,0.27 82.898,12.66 1.246,5.49 -25.918,7.07 -57.668,7.07 -42.676,0 -93.641,-2.86 -95.055,-2.94 0.094,0.16 7.051,11.2 18.106,27.92 98.93,3.26 208.068,5.06 322.708,5.06 20.19,0 40.22,-0.05 60.04,-0.16 -12.04,-2.14 -20.31,-4.48 -20.77,-6.91 -0.76,-4.04 16.93,-5.19 37.39,-5.19 27.28,0 59.49,2.05 59.49,2.05 0,0 -75.67,-23.56 -67.42,-35.34 1.27,-1.82 4.42,-2.59 8.83,-2.59 24.18,0 86.33,23.06 86.33,23.06 0,0 -35.68,-49.14 -20.36,-53.85 0.38,-0.12 0.79,-0.17 1.2,-0.17 12.79,-0.01 39.72,54.67 50.33,77.31 355.18,-6.65 618.58,-31.06 618.58,-60.16 0,-34.22 -364.28,-61.96 -813.64,-61.96"
         style="fill:#cacbc9;fill-opacity:1;fill-rule:nonzero;stroke:none"
         id="path16" />
      <path
         inkscape:connector-curvature="0"
         d="m 683.898,3535.11 -47.125,-121.57 -19.222,-49.58 c 0,0 -50.047,35.91 -77.754,93.58 -27.613,57.59 -41.75,163.61 -14.988,166.63 l 0.285,0.09 c 27.14,2.36 45.332,-45.33 80.105,-68.32 34.781,-23 78.699,-20.83 78.699,-20.83"
         style="fill:#f9b147;fill-opacity:1;fill-rule:nonzero;stroke:none"
         id="path18" />
      <path
         inkscape:connector-curvature="0"
         d="m 614.645,3366.16 c -11.067,8.61 -51.137,42.03 -74.848,91.38 -17.285,36.05 -29.289,91.08 -29.289,127.94 0.004,22.02 4.293,37.56 14.301,38.69 4.336,-19.6 19.418,-80.48 53.722,-138.72 21.141,-36 37.008,-54.46 47.508,-63.92 -5.094,-18.1 -8.828,-36.64 -11.394,-55.37"
         style="fill:#e79b40;fill-opacity:1;fill-rule:nonzero;stroke:none"
         id="path20" />
      <path
         inkscape:connector-curvature="0"
         d="m 1338.71,3621.15 c -1.33,-7.72 -2.55,-14.42 -3.78,-20.16 -2.16,-10.09 -4.14,-17.44 -5.75,-22.72 -2.73,-8.95 -4.52,-11.78 -4.52,-11.78 L 1183.95,3604 c 0,0 5.19,3.77 12.92,9.99 15.26,12.26 40.43,34.12 54.18,55.04 12.45,18.85 23.85,40.33 36.1,54.1 8.11,9.14 16.59,14.89 26.01,14.23 23.66,-1.61 32.99,-72.29 25.55,-116.21"
         style="fill:#f9b147;fill-opacity:1;fill-rule:nonzero;stroke:none"
         id="path22" />
      <path
         inkscape:connector-curvature="0"
         d="m 1331.72,3587.32 c -29.55,15.32 -68.12,31.26 -114.42,44.14 12.25,11.2 25.2,24.56 33.75,37.57 12.45,18.85 23.85,40.33 36.1,54.1 0.95,-10.84 3.49,-31.01 9.9,-61.73 7.54,-36.1 27.61,-53.63 37.88,-60.41 -1.13,-5.27 -2.21,-9.8 -3.21,-13.67"
         style="fill:#e79b40;fill-opacity:1;fill-rule:nonzero;stroke:none"
         id="path24" />
      <path
         inkscape:connector-curvature="0"
         d="m 1484.66,3061.25 c 0,0 99.58,-151.08 115.28,-173.86 15.71,-22.78 24.19,-29.35 63.76,-89.96 21.13,-32.39 25.97,-74.96 19.49,-77.32 -6.48,-2.36 -10.01,23.56 -16.49,36.52 -6.48,12.95 -15.02,23.27 -15.02,23.27 0,0 5.89,-11.78 12.07,-47.72 6.19,-35.93 0.89,-49.77 -5.59,-49.47 -6.48,0.29 -5.3,22.08 -11.49,47.71 -6.18,25.62 -15.31,42.7 -15.31,42.7 0,0 5.59,-12.08 5,-44.17 -0.58,-32.11 -1.17,-45.07 -8.83,-44.77 -7.66,0.29 -5.89,31.22 -8.25,43.88 -2.35,12.66 -5.59,39.76 -5.59,39.76 0,0 0.29,-22.68 -1.47,-36.81 -1.77,-14.14 -2.65,-32.1 -9.13,-33.29 -6.48,-1.17 -5.31,26.81 -6.48,39.77 -1.18,12.95 -2.36,41.82 -5.01,43.88 -2.65,2.06 -16.2,-11.79 -18.56,-22.98 -2.35,-11.19 -7.65,-17.96 -13.25,-15.31 -5.6,2.65 0.59,25.33 5.89,39.76 5.3,14.43 23.86,49.18 22.97,54.19 -0.88,5.01 -133.22,118.3 -133.22,118.3 0,0 5.06,92.86 29.23,105.92"
         style="fill:#b81d24;fill-opacity:1;fill-rule:nonzero;stroke:none"
         id="path26" />
      <g
         id="g28">
        <g
           id="g30"
           clip-path="url(#clipPath34)">
          <path
             inkscape:connector-curvature="0"
             d="m 508.695,2575.45 c -6.386,0 -11.515,13.92 -5.394,49.48 6.187,35.93 12.074,47.71 12.074,47.71 0,0 -8.539,-10.31 -15.02,-23.27 -6.199,-12.4 -9.703,-36.67 -15.671,-36.67 -0.27,0 -0.543,0.05 -0.821,0.15 -6.48,2.36 -1.644,44.94 19.496,77.32 39.567,60.62 48.047,67.19 63.75,89.97 14.106,20.45 95.832,144.36 112.368,169.43 4.644,-16.39 9.164,-33.01 13.445,-50.17 l -113.66,-168.35 c -0.528,-0.62 -0.821,-1.05 -0.86,-1.27 -0.882,-5.01 17.672,-39.76 22.969,-54.19 5.305,-14.44 11.488,-37.11 5.895,-39.76 -0.821,-0.39 -1.629,-0.58 -2.43,-0.58 -4.652,0 -8.813,6.34 -10.828,15.89 -2.195,10.44 -14.125,23.18 -17.875,23.18 -0.27,0 -0.5,-0.07 -0.68,-0.21 -2.644,-2.06 -3.828,-30.92 -5.004,-43.88 -1.152,-12.69 -0.047,-39.8 -6.09,-39.8 -0.125,0 -0.257,0.02 -0.39,0.04 -6.481,1.18 -7.364,19.14 -9.129,33.28 -1.77,14.14 -1.469,36.82 -1.469,36.82 0,0 -3.242,-27.1 -5.598,-39.76 -2.359,-12.67 -0.589,-43.59 -8.246,-43.89 -0.086,0 -0.168,0 -0.25,0 -7.418,0 -8.004,13.02 -8.589,44.77 -0.586,32.1 5.011,44.17 5.011,44.17 0,0 -9.133,-17.08 -15.316,-42.7 -6.184,-25.62 -5.008,-47.41 -11.488,-47.71 -0.067,0 -0.133,0 -0.2,0 m 189,260.67 7.825,6.97 c 0.011,-0.08 0.023,-0.14 0.039,-0.22 -2.145,-1.84 -4.793,-4.12 -7.864,-6.75"
             style="fill:url(#linearGradient40);fill-opacity:1;fill-rule:nonzero;stroke:none"
             id="path42" />
        </g>
      </g>
      <path
         inkscape:connector-curvature="0"
         d="m 578.402,2729.78 0.86,1.27 c 9.023,10.65 86.301,77.43 118.433,105.07 L 578.402,2729.78"
         style="fill:#d96b76;fill-opacity:1;fill-rule:nonzero;stroke:none"
         id="path44" />
      <g
         id="g46">
        <g
           id="g48"
           clip-path="url(#clipPath52)">
          <path
             inkscape:connector-curvature="0"
             d="m 579.262,2731.05 113.66,168.35 c 4.504,-18.05 8.746,-36.7 12.598,-56.31 l -7.825,-6.97 c -32.132,-27.64 -109.41,-94.42 -118.433,-105.07"
             style="fill:url(#linearGradient58);fill-opacity:1;fill-rule:nonzero;stroke:none"
             id="path60" />
        </g>
      </g>
      <g
         id="g62">
        <g
           id="g64"
           clip-path="url(#clipPath68)">
          <path
             inkscape:connector-curvature="0"
             d="m 1363.87,2220.21 h -0.02 c 0.01,0.02 0.02,0.03 0.02,0.03 l -38.44,2.66 c 1.22,3.29 64.45,175.45 -3.97,234.53 -26.58,22.95 -60.6,28.7 -100,28.7 -19.8,0 -40.96,-1.45 -63.21,-2.91 -22.25,-1.45 -45.6,-2.9 -69.78,-2.9 -28.57,0 -58.31,2.03 -88.763,8.49 -133.164,28.27 -201.305,395.82 -304.977,572.44 -100.367,171.05 -54,395.07 -50.98,409.02 -24.559,-53.99 -33.68,-114.47 -33.68,-174.1 0,23.35 1.399,46.82 4.575,69.99 v 0 c 2.566,18.73 6.3,37.27 11.394,55.37 4.695,16.68 10.547,32.98 17.711,48.74 v 0.19 l 0.184,0.47 c 10.398,22.72 23.531,44.29 39.875,64.18 42.769,52.02 107.523,92.41 202.711,111.3 20.828,4.15 43.07,7.26 66.914,9.23 9.14,0.76 18.468,1.42 28.086,1.8 11.984,0.53 23.79,0.78 35.37,0.78 76.61,0 144.2,-11.12 200.41,-26.76 v 0 c 46.3,-12.88 84.87,-28.82 114.42,-44.14 v 0 c 33.07,-17.14 54.83,-33.51 63.44,-43.92 2.26,-2.73 3.67,-5.09 4.05,-6.88 5.46,-23.56 3.2,-58.52 -15.74,-127.6 -18.85,-69.08 -3.87,-188.12 73.04,-298.47 77,-110.27 59.75,-155.13 47.12,-266.62 -12.53,-111.49 -40.81,-229.3 -43.92,-365.95 -3.2,-136.65 -95.84,-257.67 -95.84,-257.67 m -230.9,495.21 c 0,0 40.37,-68.9 105.24,-72.65 2.47,-0.14 4.93,-0.21 7.33,-0.21 114.09,0 145.63,157.41 146.87,163.84 6.08,21.64 6.8,37.43 6.8,37.43 0,0 -11.78,-94.25 -102.18,-128.41 -30.13,-11.39 -58.4,-15.18 -82.71,-15.18 -48.61,0 -81.35,15.18 -81.35,15.18 0,0 22.39,-14.22 55.83,-23.02 -37.91,5.36 -55.83,23.02 -55.83,23.02 m 37.7,5.11 c 0,0 22.23,-5.15 51.92,-5.15 38.8,0 90.35,8.79 121.64,49.34 53.9,69.83 31.86,147.83 31.86,147.83 0,0 5.06,-73.43 -49.92,-133.91 -51,-56.1 -141.2,-58.12 -153.98,-58.12 -0.99,0 -1.52,0.01 -1.52,0.01 m 203.24,232.23 c -0.04,0 -0.08,0 -0.12,0 -2.81,-0.23 -4.43,-8.57 -3.62,-18.62 0.8,-9.92 3.66,-17.81 6.43,-17.81 0.04,0 0.08,0 0.12,0.01 2.82,0.22 4.43,8.56 3.62,18.62 -0.8,9.92 -3.66,17.8 -6.43,17.8 m -357.02,705.46 c -11.58,0 -23.386,-0.25 -35.37,-0.78 -9.618,-0.38 -18.946,-1.04 -28.086,-1.8 -23.844,-1.97 -46.086,-5.08 -66.914,-9.23 l -82.653,-29.69 c 0,0 92.36,-70.77 273.683,-91.41 33.92,-3.85 67.13,-5.42 98.72,-5.42 97.45,0 179.46,14.9 218.89,23.51 -25.64,31 -167.93,114.82 -378.27,114.82 m 373.97,-857.07 c 0.53,1.71 1.03,3.39 1.49,5.04 -0.19,-0.76 -0.65,-2.5 -1.49,-5.04"
             style="fill:url(#linearGradient74);fill-opacity:1;fill-rule:nonzero;stroke:none"
             id="path76" />
        </g>
      </g>
      <path
         inkscape:connector-curvature="0"
         d="m 800.129,2166.84 c -0.941,-26.7 84.859,-72.84 95.168,-66.65 10.308,6.18 -40.938,41.52 -40.938,41.52 0,0 77.164,-19.44 88.649,-13.84 11.484,5.59 -50.07,34.75 -50.07,34.75 0,0 80.406,-0.3 83.351,12.66 2.945,12.96 -152.754,4.13 -152.754,4.13 l -23.406,-12.57"
         style="fill:#b81d24;fill-opacity:1;fill-rule:nonzero;stroke:none"
         id="path78" />
      <path
         inkscape:connector-curvature="0"
         d="m 1325.42,2222.9 c 0,0 -120,-8.15 -121.77,-17.58 -1.77,-9.42 96.88,-3.14 96.88,-3.14 0,0 -75.67,-23.56 -67.42,-35.34 8.24,-11.78 95.16,20.47 95.16,20.47 0,0 -35.68,-49.14 -20.36,-53.85 15.31,-4.71 55.96,86.78 55.96,86.78 l -38.45,2.66"
         style="fill:#b81d24;fill-opacity:1;fill-rule:nonzero;stroke:none"
         id="path80" />
      <path
         inkscape:connector-curvature="0"
         d="m 1151.51,3196.46 c 0,-131.91 -79.48,-238.85 -177.533,-238.85 -98.055,0 -177.536,106.94 -177.536,238.85 0,131.91 79.481,238.85 177.536,238.85 98.053,0 177.533,-106.94 177.533,-238.85"
         style="fill:#b81d24;fill-opacity:1;fill-rule:nonzero;stroke:none"
         id="path82" />
      <path
         inkscape:connector-curvature="0"
         d="m 1380.55,3246.64 c 0,-41.41 -13.09,-78.73 -33.98,-104.81 -3.27,-4.01 -6.64,-7.81 -10.2,-11.14 -5.59,-0.48 -11.75,-1.07 -18.29,-1.85 -1.74,-0.2 -3.47,-0.39 -5.3,-0.59 h -0.09 c -9.25,-1.17 -19.26,-2.64 -29.95,-4.5 -9.72,-1.66 -18.38,-3.22 -26.28,-4.68 -5,-0.88 -9.62,-1.76 -13.96,-2.54 -2.88,-0.49 -5.58,-0.98 -8.08,-1.47 -4.43,2.44 -8.76,5.37 -12.9,8.69 -31.1,24.82 -51.98,70.54 -51.98,122.89 0,78.74 47.26,142.63 105.5,142.63 58.25,0 105.51,-63.89 105.51,-142.63"
         style="fill:#b81d24;fill-opacity:1;fill-rule:nonzero;stroke:none"
         id="path84" />
      <path
         inkscape:connector-curvature="0"
         d="m 1139.57,3196.46 c 0,-118.85 -70.75,-215.19 -158.015,-215.19 -87.274,0 -158.02,96.34 -158.02,215.19 0,118.84 70.746,215.19 158.02,215.19 87.265,0 158.015,-96.35 158.015,-215.19"
         style="fill:#bfe9ea;fill-opacity:1;fill-rule:nonzero;stroke:none"
         id="path86" />
      <path
         inkscape:connector-curvature="0"
         d="m 1139.57,3196.46 c 0,-113.21 -67.39,-204.98 -150.523,-204.98 -83.129,0 -150.516,91.77 -150.516,204.98 0,113.21 67.387,204.98 150.516,204.98 83.133,0 150.523,-91.77 150.523,-204.98"
         style="fill:#ffffff;fill-opacity:1;fill-rule:nonzero;stroke:none"
         id="path88" />
      <g
         id="g90">
        <g
           id="g92"
           clip-path="url(#clipPath96)">
          <path
             inkscape:connector-curvature="0"
             d="m 1132.97,3196.46 c 0,-64.27 -38.26,-116.36 -85.45,-116.36 -47.19,0 -85.446,52.09 -85.446,116.36 0,64.26 38.256,116.36 85.446,116.36 47.19,0 85.45,-52.1 85.45,-116.36"
             style="fill:url(#linearGradient102);fill-opacity:1;fill-rule:nonzero;stroke:none"
             id="path104" />
        </g>
      </g>
      <path
         inkscape:connector-curvature="0"
         d="m 1122.01,3196.46 c 0,-45.98 -27.37,-83.25 -61.14,-83.25 -33.76,0 -61.128,37.27 -61.128,83.25 0,45.98 27.368,83.25 61.128,83.25 33.77,0 61.14,-37.27 61.14,-83.25"
         style="fill:#4c0e13;fill-opacity:1;fill-rule:nonzero;stroke:none"
         id="path106" />
      <path
         inkscape:connector-curvature="0"
         d="m 1015.17,3196.46 c 0,-26.68 -21.631,-48.3 -48.307,-48.3 -26.672,0 -48.3,21.62 -48.3,48.3 0,26.68 21.628,48.3 48.3,48.3 26.676,0 48.307,-21.62 48.307,-48.3"
         style="fill:#ffffff;fill-opacity:1;fill-rule:nonzero;stroke:none"
         id="path108" />
      <path
         inkscape:connector-curvature="0"
         d="m 1060.87,3173.48 c 0,-9.75 -7.91,-17.66 -17.67,-17.66 -9.76,0 -17.67,7.91 -17.67,17.66 0,9.77 7.91,17.68 17.67,17.68 9.76,0 17.67,-7.91 17.67,-17.68"
         style="fill:#ffffff;fill-opacity:1;fill-rule:nonzero;stroke:none"
         id="path110" />
      <path
         inkscape:connector-curvature="0"
         d="m 1356.61,3230.23 c 0,-9.9 -0.94,-19.51 -2.64,-28.65 -3.96,-22.62 -12.72,-42.69 -24.69,-58.15 -4.33,-5.66 -9.14,-10.74 -14.32,-15.08 -1.7,-0.19 -3.4,-0.38 -5.19,-0.57 h -0.09 c -9.05,-1.12 -18.85,-2.54 -29.31,-4.33 -9.52,-1.6 -18,-3.11 -25.73,-4.52 -4.9,-0.85 -9.43,-1.7 -13.67,-2.45 -5.56,2.54 -10.93,5.75 -15.93,9.7 -26.48,20.64 -44.29,59.57 -44.29,104.05 0,66.16 39.3,119.79 87.93,119.79 41.18,0 75.68,-38.56 85.2,-90.67 1.79,-9.24 2.73,-19.04 2.73,-29.12"
         style="fill:#bfe9ea;fill-opacity:1;fill-rule:nonzero;stroke:none"
         id="path112" />
      <path
         inkscape:connector-curvature="0"
         d="m 1356.61,3230.23 c 0,-9.9 -0.94,-19.51 -2.64,-28.65 -4.34,-22.9 -13.76,-42.88 -26.48,-57.87 -5.37,-6.21 -11.31,-11.59 -17.72,-15.93 h -0.09 c -9.05,-1.12 -18.85,-2.54 -29.31,-4.33 -9.52,-1.6 -18,-3.11 -25.73,-4.52 -7.82,2.26 -15.18,6.12 -21.96,11.21 -19.89,14.8 -34.87,40.25 -40.81,70.68 -1.04,5.29 -1.79,10.66 -2.26,16.22 v 0.09 c -0.38,4.33 -0.57,8.67 -0.57,13.1 0,62.95 37.51,114.03 83.79,114.03 38.83,0 71.53,-36 81.05,-84.91 1.79,-9.24 2.73,-19.04 2.73,-29.12"
         style="fill:#ffffff;fill-opacity:1;fill-rule:nonzero;stroke:none"
         id="path114" />
      <g
         id="g116">
        <g
           id="g118"
           clip-path="url(#clipPath122)">
          <path
             inkscape:connector-curvature="0"
             d="m 1287.35,3217.45 c 0,-35.77 -21.29,-64.75 -47.55,-64.75 -26.26,0 -47.54,28.98 -47.54,64.75 0,35.76 21.28,64.74 47.54,64.74 26.26,0 47.55,-28.98 47.55,-64.74"
             style="fill:url(#linearGradient128);fill-opacity:1;fill-rule:nonzero;stroke:none"
             id="path130" />
        </g>
      </g>
      <path
         inkscape:connector-curvature="0"
         d="m 1264.93,3214.71 c 0,-25.59 -15.23,-46.33 -34.02,-46.33 -18.79,0 -34.02,20.74 -34.02,46.33 0,25.58 15.23,46.32 34.02,46.32 18.79,0 34.02,-20.74 34.02,-46.32"
         style="fill:#4c0e13;fill-opacity:1;fill-rule:nonzero;stroke:none"
         id="path132" />
      <path
         inkscape:connector-curvature="0"
         d="m 1234.94,3212 c 0,-12.67 -10.27,-22.94 -22.94,-22.94 -12.67,0 -22.94,10.27 -22.94,22.94 0,12.67 10.27,22.94 22.94,22.94 12.67,0 22.94,-10.27 22.94,-22.94"
         style="fill:#ffffff;fill-opacity:1;fill-rule:nonzero;stroke:none"
         id="path134" />
      <path
         inkscape:connector-curvature="0"
         d="m 1262.57,3198.89 c 0,-5.43 -4.4,-9.83 -9.83,-9.83 -5.44,0 -9.83,4.4 -9.83,9.83 0,5.43 4.39,9.84 9.83,9.84 5.43,0 9.83,-4.41 9.83,-9.84"
         style="fill:#ffffff;fill-opacity:1;fill-rule:nonzero;stroke:none"
         id="path136" />
      <path
         inkscape:connector-curvature="0"
         d="m 1180.72,3352.16 c 0,0 16.27,54.78 87.93,107.79 71.66,53.01 119.37,65.38 119.37,65.38 l -37.11,-40.64 62.43,14.72 c 0,0 -3.93,-41.13 -29.84,-71.66 -28.67,-33.77 -118.57,-48.2 -167.29,-82.55 -19.06,-13.45 -32,-26.03 -32,-26.03 l 17.67,42.71 -21.16,-9.72"
         style="fill:#4c0e13;fill-opacity:1;fill-rule:nonzero;stroke:none"
         id="path138" />
      <path
         inkscape:connector-curvature="0"
         d="m 1135.72,3315.05 c 0,0 -64.01,42.16 -130.57,53.77 -66.56,11.61 -166.619,18.09 -166.619,18.09 l 35.856,16.49 c 0,0 -13.547,4.32 -30.625,23.56 -13.289,14.97 -34.168,64.8 -34.168,64.8 0,0 71.668,-9.72 152.48,-22.38 112.536,-17.64 167.356,-84.24 167.356,-84.24 l -22.97,1.18 c 0,0 26.12,-44.18 29.26,-71.27"
         style="fill:#4c0e13;fill-opacity:1;fill-rule:nonzero;stroke:none"
         id="path140" />
      <g
         id="g142">
        <g
           id="g144"
           clip-path="url(#clipPath148)">
          <g
             id="g150"
             clip-path="url(#clipPath154)">
            <path
               inkscape:connector-curvature="0"
               d="m 800,2166 v 1 h -1 v 2 h -1 v 2 h -1 v 2 h -1 v 3 h -1 v 2 h -1 v 3 h -1 v 2 h -1 v 3 h -1 v 2 h -1 v 3 h -1 v 3 h -1 v 2 h -1 v 3 h -1 v 3 h -1 v 3 h -1 v 3 h -1 v 3 h -1 v 3 h -1 v 3 h -1 v 3 h -1 v 3 h -1 v 3 h -1 v 3 h -1 v 3 h -1 v 4 h -1 v 3 h -1 v 3 h -1 v 4 h -1 v 3 h -1 v 3 h -1 v 4 h -1 v 4 h -1 v 4 h -1 v 3 h -1 v 4 h -1 v 4 h -1 v 4 h -1 v 4 h -1 v 4 h -1 v 4 h -1 v 4 h -1 v 5 h -1 v 4 h -1 v 4 h -1 v 5 h -1 v 5 h -1 v 5 h -1 v 4 h -1 v 5 h -1 v 5 h -1 v 5 h -1 v 6 h -1 v 5 h -1 v 6 h -1 v 6 h -1 v 5 h -1 v 6 h -1 v 7 h -1 v 7 h -1 v 7 h -1 v 7 h -1 v 6 h -1 v 8 h -1 v 9 h -1 v 9 h -1 v 9 h -1 v 8 h -1 v 12 h -1 v 12 h -1 v 12 h -1 v 15 h -1 v 20 h -1 v 20 h -1 v 87 h -1 v 39 h -1 v 21 h -1 v 17 h -1 v 13 h -1 v 12 h -1 v 11 h -1 v 9 h -1 v 9 h -1 v 9 h -1 v 7 h -1 v 8 h -1 v 7 h -1 v 6 h -1 v 7 h -1 v 6 h -1 v 6 h -1 v 6 h -1 v 5 h -1 v 6 h -1 v 5 h -1 v 5 h -1 v 5 h -1 v 5 h -1 v 4 h -1 v 5 h -1 v 5 h -1 v 4 h -1 v 5 h -1 v 4 h -1 v 4 h -1 v 4 h -1 v 5 h -1 v 4 h -1 v 4 h -1 v 4 h -1 v 3 h -1 v 4 h -1 v 4 h -1 v 4 h -1 v 3 h -1 v 4 h -1 v 4 h -1 v 3 h -1 v 4 h -1 v 3 h -1 v 4 h -1 v 4 h -1 v 3 h -1 v 4 h -1 v 3 h -1 v 4 h -1 v 3 h -1 v 4 h -1 v 3 h -1 v 3 h -1 v 4 h -1 v 3 h -1 v 4 h -1 v 3 h -1 v 3 h -1 v 4 h -1 v 3 h -1 v 4 h -1 v 3 h -1 v 4 h -1 v 3 h -1 v 3 h -1 v 4 h -1 v 3 h -1 v 4 h -1 v 3 h -1 v 4 h -1 v 3 h -1 v 4 h -1 v 3 h -1 v 4 h -1 v 4 h -1 v 3 h -1 v 4 h -1 v 4 h -1 v 3 h -1 v 4 h -1 v 4 h -1 v 4 h -1 v 4 h -1 v 4 h -1 v 3 h -1 v 4 h -1 v 5 h -1 v 4 h -1 v 4 h -1 v 4 h -1 v 5 h -1 v 4 h -1 v 4 h -1 v 5 h -1 v 4 h -1 v 5 h -1 v 5 h -1 v 5 h -1 v 5 h -1 v 5 h -1 v 5 h -1 v 5 h -1 v 6 h -1 v 6 h -1 v 6 h -1 v 7 h -1 v 7 h -1 v 8 h -1 v 8 h -1 v 8 h -1 v 11 h -1 v 12 h -1 v 13 h -1 v 65 h 1 v 16 h 1 v 9 h 1 v 9 h 1 v 8 h 1 v 6 h 1 v 6 h 1 v 6 h 1 v 5 h 1 v 5 h 1 v 4 h 1 v 5 h 1 v 4 h 1 v 4 h 1 v 4 h 1 v 3 h 1 v 4 h 1 v 4 h 1 v 3 h 1 v 3 h 1 v 3 h 1 v 3 h 1 v 3 h 1 v 3 h 1 v 2 h 1 v 3 h 1 v 3 h 1 v 2 h 1 v 3 h 1 v 2 h 1 v 3 h 1 v 2 h 1 v 2 h 1 v 2 h 1 v -5 h -1 v -5 h -1 v -6 h -1 v -5 h -1 v -7 h -1 v -7 h -1 v -7 h -1 v -8 h -1 v -8 h -1 v -10 h -1 v -11 h -1 v -14 h -1 v -20 h -1 v -55 h 1 v -19 h 1 v -13 h 1 v -11 h 1 v -9 h 1 v -8 h 1 v -7 h 1 v -7 h 1 v -6 h 1 v -6 h 1 v -6 h 1 v -5 h 1 v -5 h 1 v -5 h 1 v -4 h 1 v -5 h 1 v -4 h 1 v -4 h 1 v -4 h 1 v -4 h 1 v -4 h 1 v -3 h 1 v -4 h 1 v -3 h 1 v -3 h 1 v -4 h 1 v -3 h 1 v -3 h 1 v -3 h 1 v -3 h 1 v -3 h 1 v -3 h 1 v -2 h 1 v -3 h 1 v -3 h 1 v -2 h 1 v -3 h 1 v -2 h 1 v -3 h 1 v -2 h 1 v -3 h 1 v -2 h 1 v -2 h 1 v -3 h 1 v -2 h 1 v -2 h 1 v -2 h 1 v -2 h 1 v -2 h 1 v -2 h 1 v -3 h 1 v -2 h 1 v -2 h 1 v -2 h 1 v -2 h 1 v -2 h 1 v -1 h 1 v -2 h 1 v -2 h 1 v -2 h 1 v -2 h 1 v -2 h 1 v -1 h 1 v -2 h 1 v -2 h 1 v -1 h 1 v -2 h 1 v -2 h 1 v -2 h 1 v -2 h 1 v -1 h 1 v -2 h 1 v -2 h 1 v -2 h 1 v -2 h 1 v -2 h 1 v -1 h 1 v -2 h 1 v -2 h 1 v -2 h 1 v -2 h 1 v -2 h 1 v -2 h 1 v -2 h 1 v -2 h 1 v -2 h 1 v -2 h 1 v -2 h 1 v -2 h 1 v -2 h 1 v -2 h 1 v -2 h 1 v -2 h 1 v -3 h 1 v -2 h 1 v -2 h 1 v -2 h 1 v -2 h 1 v -3 h 1 v -2 h 1 v -2 h 1 v -2 h 1 v -2 h 1 v -3 h 1 v -2 h 1 v -2 h 1 v -3 h 1 v -2 h 1 v -2 h 1 v -2 h 1 v -3 h 1 v -2 h 1 v -3 h 1 v -2 h 1 v -2 h 1 v -3 h 1 v -2 h 1 v -3 h 1 v -2 h 1 v -2 h 1 v -3 h 1 v -2 h 1 v -3 h 1 v -2 h 1 v -3 h 1 v -2 h 1 v -3 h 1 v -2 h 1 v -3 h 1 v -2 h 1 v -3 h 1 v -2 h 1 v -3 h 1 v -3 h 1 v -2 h 1 v -3 h 1 v -2 h 1 v -3 h 1 v -2 h 1 v -3 h 1 v -3 h 1 v -2 h 1 v -3 h 1 v -3 h 1 v -2 h 1 v -3 h 1 v -2 h 1 v -3 h 1 v -3 h 1 v -2 h 1 v -3 h 1 v -3 h 1 v -2 h 1 v -3 h 1 v -3 h 1 v -2 h 1 v -3 h 1 v -3 h 1 v -2 h 1 v -3 h 1 v -3 h 1 v -3 h 1 v -2 h 1 v -3 h 1 v -3 h 1 v -2 h 1 v -3 h 1 v -3 h 1 v -2 h 1 v -3 h 1 v -3 h 1 v -2 h 1 v -3 h 1 v -3 h 1 v -2 h 1 v -3 h 1 v -3 h 1 v -3 h 1 v -2 h 1 v -3 h 1 v -3 h 1 v -2 h 1 v -3 h 1 v -3 h 1 v -2 h 1 v -3 h 1 v -2 h 1 v -3 h 1 v -3 h 1 v -2 h 1 v -3 h 1 v -3 h 1 v -2 h 1 v -3 h 1 v -2 h 1 v -3 h 1 v -3 h 1 v -2 h 1 v -3 h 1 v -2 h 1 v -3 h 1 v -2 h 1 v -3 h 1 v -3 h 1 v -2 h 1 v -3 h 1 v -2 h 1 v -3 h 1 v -2 h 1 v -3 h 1 v -2 h 1 v -3 h 1 v -2 h 1 v -3 h 1 v -2 h 1 v -2 h 1 v -3 h 1 v -2 h 1 v -3 h 1 v -2 h 1 v -2 h 1 v -3 h 1 v -2 h 1 v -3 h 1 v -2 h 1 v -2 h 1 v -2 h 1 v -3 h 1 v -2 h 1 v -2 h 1 v -3 h 1 v -2 h 1 v -2 h 1 v -2 h 1 v -2 h 1 v -3 h 1 v -2 h 1 v -2 h 1 v -2 h 1 v -2 h 1 v -2 h 1 v -3 h 1 v -2 h 1 v -2 h 1 v -2 h 1 v -2 h 1 v -2 h 1 v -2 h 1 v -2 h 1 v -2 h 1 v -2 h 1 v -2 h 1 v -2 h 1 v -2 h 1 v -2 h 1 v -2 h 1 v -2 h 1 v -2 h 1 v -1 h 1 v -2 h 1 v -2 h 1 v -2 h 1 v -2 h 1 v -2 h 1 v -1 h 1 v -2 h 1 v -2 h 1 v -2 h 1 v -1 h 1 v -2 h 1 v -2 h 1 v -1 h 1 v -2 h 1 v -2 h 1 v -1 h 1 v -2 h 1 v -2 h 1 v -1 h 1 v -2 h 1 v -1 h 1 v -2 h 1 v -1 h 1 v -2 h 1 v -1 h 1 v -2 h 1 v -1 h 1 v -2 h 1 v -1 h 1 v -2 h 1 v -1 h 1 v -2 h 1 v -1 h 1 v -1 h 1 v -1 h 1 v -2 h 1 v -1 h 1 v -1 h 1 v -2 h 1 v -1 h 1 v -1 h 1 v -2 h 1 v -1 h 1 v -1 h 1 v -1 h 1 v -1 h 1 v -1 h 1 v -1 h 1 v -1 h 1 v -2 h 1 v -1 h 1 v -1 h 1 v -1 h 1 v -1 h 1 v -1 h 1 v -1 h 1 v -1 h 1 v -1 h 1 v -1 h 1 v -1 h 1 v -1 h 1 v -1 h 1 v -1 h 1 v -1 h 2 v -1 h 1 v -1 h 1 v -1 h 1 v -1 h 2 v -1 h 1 v -1 h 1 v -1 h 1 v -1 h 2 v -1 h 1 v -1 h 2 v -1 h 2 v -1 h 1 v -1 h 2 v -1 h 1 v -1 h 2 v -1 h 2 v -1 h 2 v -1 h 2 v -1 h 3 v -1 h 2 v -1 h 2 v -1 h 3 v -1 h 3 v -1 h 4 v -1 h 5 v -1 h 6 v -1 h 5 v -1 h 6 v -1 h 8 v -1 h 9 v -1 h 10 v -1 h 15 v -1 h 54 v 1 h 20 v 1 h 17 v 1 h 16 v 1 h 17 v 1 h 23 v 1 h 20 v -1 h 19 v -1 h 8 v -1 h 7 v -1 h 5 v -1 h 5 v -1 h 4 v -1 h 3 v -1 h 3 v -1 h 4 v -1 h 2 v -1 h 3 v -1 h 2 v -1 h 2 v -1 h 3 v -1 h 2 v -1 h 1 v -1 h 2 v -1 h 2 v -1 h 2 v -1 h 1 v -1 h 2 v -1 h 1 v -1 h 2 v -1 h 1 v -1 h 1 v -1 h 2 v -1 h 1 v -1 h 1 v -1 h 1 v -1 h 2 v -1 h 1 v -1 h 1 v -1 h 1 v -2 h 1 v -1 h 1 v -1 h 1 v -1 h 1 v -1 h 1 v -1 h 1 v -2 h 1 v -1 h 1 v -2 h 1 v -2 h 1 v -2 h 1 v -1 h 1 v -2 h 1 v -2 h 1 v -1 h 1 v -3 h 1 v -3 h 1 v -2 h 1 v -3 h 1 v -3 h 1 v -2 h 1 v -5 h 1 v -4 h 1 v -5 h 1 v -5 h 1 v -9 h 1 v -17 h 1 v -15 h -1 v -16 h -1 v -9 h -1 v -9 h -1 v -7 h -1 v -6 h -1 v -5 h -1 v -6 h -1 v -5 h -1 v -4 h -1 v -5 h -1 v -5 h -1 v -4 h -1 v -4 h -1 v -4 h -1 v -4 h -1 v -3 h -1 v -4 h -1 v -4 h -1 v -3 h -1 v -3 h -1 v -4 h -1 v -3 h -1 v -3 h -1 v -3 h -1 v -3 h -1 v -3 h -1 v -3 h -1 v -2 h -1 v 6 h -1 v 9 h -1 v 8 h -1 v 6 h -1 v 6 h -1 v 6 h -1 v 5 h -1 v 5 h -1 v 4 h -1 v 5 h -1 v 4 h -1 v 4 h -1 v 3 h -1 v 4 h -1 v 3 h -1 v 4 h -1 v 3 h -1 v 3 h -1 v 3 h -1 v 3 h -1 v 3 h -1 v 3 h -1 v 3 h -1 v 2 h -1 v 3 h -1 v 2 h -1 v 3 h -1 v 2 h -1 v 2 h -1 v 3 h -1 v 2 h -1 v 2 h -1 v 2 h -1 v 2 h -1 v 2 h -1 v 2 h -1 v 2 h -1 v 2 h -1 v 2 h -1 v 2 h -1 v 2 h -1 v 1 h -1 v 2 h -1 v 2 h -1 v 2 h -1 v 1 h -1 v 2 h -1 v 1 h -1 v 2 h -1 v 1 h -1 v 2 h -1 v 1 h -1 v 2 h -1 v 1 h -1 v 2 h -1 v 1 h -1 v 1 h -1 v 1 h -1 v 1 h -1 v 1 h -1 v 1 h -1 v 1 h -2 v 1 h -1 v 1 h -1 v 1 h -1 v 1 h -2 v 1 h -1 v 1 h -2 v 1 h -2 v 1 h -2 v 1 h -1 v 1 h -2 v 1 h -2 v 1 h -3 v 1 h -3 v 1 h -2 v 1 h -3 v 1 h -3 v 1 h -4 v 1 h -4 v 1 h -4 v 1 h -6 v 1 h -6 v 1 h -10 v 1 h -16 v 1 h -14 v -1 h -19 v -1 h -12 v -1 h -9 v -1 h -7 v -1 h -7 v -1 h -6 v -1 h -6 v -1 h -5 v -1 h -6 v -1 h -4 v -1 h -5 v -1 h -5 v -1 h -4 v -1 h -4 v -1 h -4 v -1 h -4 v -1 h -3 v -1 h -4 v -1 h -4 v -1 h -3 v -1 h -3 v -1 h -4 v -1 h -3 v -1 h -3 v -1 h -3 v -1 h -3 v -1 h -3 v -1 h -3 v -1 h -2 v -1 h -3 v -1 h -3 v -1 h -2 v -1 h -3 v -1 h -2 v -1 h -3 v -1 h -2 v -1 h -2 v -1 h -3 v -1 h -2 v -1 h -2 v -1 h -2 v -1 h -2 v -1 h -2 v -1 h -2 v -1 h -2 v -1 h -2 v -1 h -2 v -1 h -2 v -1 h -1 v -1 h -2 v -1 h -2 v -1 h -2 v -1 h -1 v -1 h -2 v -1 h -1 v -1 h -1 v -1 h -2 v -1 h -1 v -1 h -2 v -1 h -1 v -1 h -1 v -1 h -1 v -1 h -1 v -1 h -1 v -1 h -1 v -1 h -2 v -2 h -1 v -1 h -1 v -1 h -1 v -1 h -1 v -1 h -1 v -1 h -1 v -1 h -1 v -1 h -1 v -1 h -1 v -1 h -1 v -1 h -1 v -1 h -1 v -1 h -1 v -1 h -1 v -1 h -1 v -2 h -1 v -1 h -1 v -1 h -1 v -1 h -1 v -1 h -1 v -1 h -1 v -2 h -1 v -1 h -1 v -1 h -1 v -1 h -1 v -1 h -1 v -1 h -1 v -2 h -1 v -1 h -1 v -1 h -1 v -1 h -1 v -2 h -1 v -1 h -1 v -1 h -1 v -1 h -1 v -2 h -1 v -1 h -1 v -1 h -1 v -1 h -1 v -2 h -1 v -1 h -1 v -1 h -1 v -2 h -1 v -1 h -1 v -1 h -1 v -1 h -1 v -2 h -1 v -1 h -1 v -1 h -1 v -2 h -1 v -1 h -1 v -1 h -1 v -2 h -1 v -1 h -1 v -1 h -1 v -2 h -1 v -1 h -1 v -1 h -1 v -2 h -1 v -1 h -1 v -1 h -1 v -2 h -1 v -1 h -1 v -2 h -1 v -1 h -1 v -1 h -1 v -2 h -1 v -1 h -1 v -1 h -1 v -2 h -1 v -1 h -1 v -2 h -1 v -1 h -1 v -2 h -1 v -1 h -1 v -1 h -1 v -2 h -1 v -1 h -1 v -2 h -1 v -1 h -1 v -1 h -1 v -2 h -1 v -1 h -1 v -2 h -1 v -1 h -1 v -2 h -1 v -1 h -1 v -2 h -1 v -1 h -1 v -1 h -1 v -2 h -1 v -1 h -1 v -2 h -1 v -1 h -1 v -2 h -1 v -1 h -1 v -2 h -1 v -1 h -1 v -2 h -1 v -1 h -1 v -2 h -1 v -1 h -1 v -2 h -1 v -1 h -1 v -2 h -1 v -1 h -1 v -2 h -1 v -1 h -1 v -2 h -1 v -1 h -1 v -2 h -1 v -1 h -1 v -2 h -1 v -1 h -1 v -2 h -1 v -1 h -1 v -2 h -1 v -1 h -1 v -2 h -1 v -1 h -1 v -2 h -1 v -2 h -1 v -1 h -1 v -2 h -1 v -1 h -1 v -2 h -1 v -1 h -1 v -1 h -1 v -1 h -2 v -1 h -1 v -1 h -2 v -1 h -2 v -1 h -2 v -1 h -2 v -1 h -2 v -1 h -2 v -1 h -2 v -1 h -1 v -1 h -2 v -1 h -2 v -1"
               style="fill:url(#linearGradient160);fill-opacity:1;fill-rule:nonzero;stroke:none"
               id="path162" />
          </g>
        </g>
      </g>
      <path
         inkscape:connector-curvature="0"
         d="m 818.086,2176.48 v 0 l 5.449,2.93 c 0,0 0.012,0 0.031,0 v 0 c -0.003,0 -0.003,0 -0.003,0 l -5.477,-2.93"
         style="fill:#b81d24;fill-opacity:1;fill-rule:nonzero;stroke:none"
         id="path164" />
      <path
         inkscape:connector-curvature="0"
         d="m 1325.41,2222.85 c 0,0.02 0,0.03 0,0.05 v 0 c 0.01,0 0.01,0 0.01,0 h 0.01 c -0.01,-0.03 -0.02,-0.05 -0.02,-0.05"
         style="fill:#b81d24;fill-opacity:1;fill-rule:nonzero;stroke:none"
         id="path166" />
      <g
         id="g168">
        <g
           id="g170"
           clip-path="url(#clipPath174)">
          <path
             inkscape:connector-curvature="0"
             d="m 1245.54,2642.56 c -2.4,0 -4.86,0.07 -7.33,0.21 -64.87,3.75 -105.24,72.65 -105.24,72.65 0,0 17.92,-17.66 55.83,-23.02 14.97,-3.94 32.15,-6.79 50.53,-6.79 21.57,0 44.78,3.93 67.99,14.62 50.41,23.24 73.25,67.62 83.54,100.92 0.84,2.54 1.3,4.28 1.49,5.04 0.02,0.07 0.04,0.14 0.06,0.21 -1.24,-6.43 -32.78,-163.84 -146.87,-163.84"
             style="fill:url(#linearGradient180);fill-opacity:1;fill-rule:nonzero;stroke:none"
             id="path182" />
        </g>
      </g>
      <path
         inkscape:connector-curvature="0"
         d="m 1132.97,2715.42 c 0,0 73.67,-34.16 164.06,0 90.4,34.16 102.18,128.41 102.18,128.41 0,0 -4.71,-103.41 -91.89,-143.6 -87.17,-40.18 -174.35,15.19 -174.35,15.19"
         style="fill:#4e1613;fill-opacity:1;fill-rule:nonzero;stroke:none"
         id="path184" />
      <g
         id="g186">
        <g
           id="g188"
           clip-path="url(#clipPath192)">
          <path
             inkscape:connector-curvature="0"
             d="m 1222.59,2715.38 c -29.69,0 -51.92,5.15 -51.92,5.15 0,0 0.53,-0.01 1.52,-0.01 12.78,0 102.98,2.02 153.98,58.12 54.98,60.48 49.92,133.91 49.92,133.91 0,0 22.04,-78 -31.86,-147.83 -31.29,-40.55 -82.84,-49.34 -121.64,-49.34"
             style="fill:url(#linearGradient3062);fill-opacity:1;fill-rule:nonzero;stroke:none"
             id="path200" />
        </g>
      </g>
      <g
         id="g202">
        <g
           id="g204"
           clip-path="url(#clipPath208)">
          <path
             inkscape:connector-curvature="0"
             d="m 1376.6,2916.33 c -2.77,0 -5.63,7.89 -6.43,17.81 -0.81,10.05 0.81,18.39 3.62,18.62 0.04,0 0.08,0 0.12,0 2.77,0 5.63,-7.88 6.43,-17.8 0.81,-10.06 -0.8,-18.4 -3.62,-18.62 -0.04,-0.01 -0.08,-0.01 -0.12,-0.01"
             style="fill:url(#linearGradient3064);fill-opacity:1;fill-rule:nonzero;stroke:none"
             id="path216" />
        </g>
      </g>
      <path
         inkscape:connector-curvature="0"
         d="m 1151.51,3049.68 5.8,76.49 43.11,-57.44 z"
         style="fill:#ffffff;fill-opacity:1;fill-rule:nonzero;stroke:none"
         id="path218" />
      <path
         inkscape:connector-curvature="0"
         d="m 1394.89,3099.94 18.85,52.76 17.17,-59.91 z"
         style="fill:#ffffff;fill-opacity:1;fill-rule:nonzero;stroke:none"
         id="path220" />
      <path
         inkscape:connector-curvature="0"
         d="m 953.906,2926.29 c 0,0 137.404,118.59 289.004,154.72 151.59,36.12 193.21,9.42 193.21,9.42 l -60.47,-113.09 30.28,83.91 c 0,0 -34.99,18.19 -158.3,-4.59 -121.51,-22.44 -293.724,-130.37 -293.724,-130.37"
         style="fill:#4c0e13;fill-opacity:1;fill-rule:nonzero;stroke:none"
         id="path222" />
      <path
         inkscape:connector-curvature="0"
         d="m 1205.13,3384.85 c 0,0 22.04,27.77 47.12,50.65 30.33,27.69 70.68,46.54 70.68,46.54 l -13.65,-20.13 58.51,13.36 c 0,0 -44.57,-17.09 -86.78,-44.97 -39.87,-26.34 -64.79,-60.28 -64.79,-60.28 l 3.53,18.07 -14.62,-3.24"
         style="fill:#86181c;fill-opacity:1;fill-rule:nonzero;stroke:none"
         id="path224" />
      <path
         inkscape:connector-curvature="0"
         d="m 1097.63,3403.4 c 0,0 -32.5,32.71 -97.888,51.05 -65.383,18.34 -144.398,23.95 -144.398,23.95 l 54.187,-22.38 -65.972,11.78 c 0,0 34.168,-21.59 100.527,-35.73 66.364,-14.14 148.834,-52.49 148.834,-52.49 l -16.1,29.71 20.81,-5.89"
         style="fill:#86181c;fill-opacity:1;fill-rule:nonzero;stroke:none"
         id="path226" />
      <path
         inkscape:connector-curvature="0"
         d="m 1374.05,3131.93 c 0,0 -15.46,0.38 -41.19,-1.79 -5.47,-0.47 -11.5,-1.03 -17.9,-1.79 -1.7,-0.19 -3.4,-0.38 -5.19,-0.57 h -0.09 c -9.05,-1.12 -18.85,-2.54 -29.31,-4.33 -9.52,-1.6 -18,-3.11 -25.73,-4.52 -4.9,-0.85 -9.43,-1.7 -13.67,-2.45 -2.83,-0.47 -5.46,-0.95 -7.91,-1.42 -22.34,-4.14 -32.43,-6.31 -32.43,-6.31 0,0 6.88,6.88 19.8,14.7 1.41,0.85 2.92,1.79 4.61,2.73 2.36,1.32 4.91,2.64 7.64,3.96 11.49,5.66 25.92,10.93 42.97,13.86 17.63,3.01 35.91,2.07 51.84,-0.29 l 1.79,-0.28 c 4.81,-0.75 9.33,-1.6 13.57,-2.55 18.57,-3.95 31.2,-8.95 31.2,-8.95"
         style="fill:#b81d24;fill-opacity:1;fill-rule:nonzero;stroke:none"
         id="path228" />
      <path
         inkscape:connector-curvature="0"
         d="m 750.652,3036.64 c 5.184,-36.19 -2.367,-67.21 -16.859,-69.29 -14.492,-2.07 -30.438,25.59 -35.613,61.79 -5.184,36.19 2.371,67.22 16.859,69.29 14.492,2.07 30.441,-25.59 35.613,-61.79"
         style="fill:#f14857;fill-opacity:1;fill-rule:nonzero;stroke:none"
         id="path230" />
      <path
         inkscape:connector-curvature="0"
         d="m 756.508,3037.48 c 5.18,-36.19 -2.367,-67.22 -16.86,-69.29 -14.492,-2.07 -30.437,25.59 -35.617,61.79 -5.179,36.19 2.375,67.21 16.864,69.29 14.492,2.07 30.437,-25.59 35.613,-61.79"
         style="fill:#86171c;fill-opacity:1;fill-rule:nonzero;stroke:none"
         id="path232" />
      <path
         inkscape:connector-curvature="0"
         d="m 792.336,2731.9 c 3.43,-23.99 -1.574,-44.56 -11.184,-45.93 -9.605,-1.38 -20.175,16.96 -23.609,40.95 -3.434,24 1.574,44.56 11.18,45.94 9.605,1.37 20.179,-16.97 23.613,-40.96"
         style="fill:#f14857;fill-opacity:1;fill-rule:nonzero;stroke:none"
         id="path234" />
      <path
         inkscape:connector-curvature="0"
         d="m 796.949,2732.15 c 3.434,-24 -1.574,-44.56 -11.179,-45.93 -9.61,-1.38 -20.18,16.96 -23.614,40.95 -3.429,24 1.574,44.56 11.184,45.94 9.605,1.37 20.176,-16.96 23.609,-40.96"
         style="fill:#86171c;fill-opacity:1;fill-rule:nonzero;stroke:none"
         id="path236" />
      <path
         inkscape:connector-curvature="0"
         d="m 784.566,2577.93 c 3.43,-23.99 -1.574,-44.56 -11.175,-45.93 -9.606,-1.38 -20.176,16.96 -23.61,40.96 -3.433,23.99 1.571,44.56 11.176,45.93 9.609,1.38 20.176,-16.96 23.609,-40.96"
         style="fill:#f14857;fill-opacity:1;fill-rule:nonzero;stroke:none"
         id="path238" />
      <path
         inkscape:connector-curvature="0"
         d="m 789.094,2577.93 c 3.429,-23.99 -1.574,-44.56 -11.18,-45.93 -9.601,-1.38 -20.176,16.96 -23.605,40.96 -3.434,23.99 1.57,44.56 11.175,45.93 9.61,1.38 20.176,-16.96 23.61,-40.96"
         style="fill:#86171c;fill-opacity:1;fill-rule:nonzero;stroke:none"
         id="path240" />
      <path
         inkscape:connector-curvature="0"
         d="m 832.555,2644.24 c 2.316,-16.21 -1.063,-30.11 -7.555,-31.04 -6.488,-0.92 -13.633,11.46 -15.953,27.68 -2.317,16.21 1.058,30.11 7.555,31.04 6.488,0.93 13.632,-11.46 15.953,-27.68"
         style="fill:#f14857;fill-opacity:1;fill-rule:nonzero;stroke:none"
         id="path242" />
      <path
         inkscape:connector-curvature="0"
         d="m 835.613,2644.24 c 2.321,-16.21 -1.062,-30.11 -7.55,-31.04 -6.497,-0.92 -13.637,11.46 -15.958,27.68 -2.32,16.21 1.063,30.11 7.551,31.04 6.496,0.93 13.641,-11.46 15.957,-27.68"
         style="fill:#86171c;fill-opacity:1;fill-rule:nonzero;stroke:none"
         id="path244" />
      <path
         inkscape:connector-curvature="0"
         d="m 666.129,3352.71 c -2.031,-16.25 -8.957,-28.77 -15.465,-27.95 -6.504,0.81 -10.133,14.64 -8.101,30.9 2.031,16.25 8.957,28.77 15.464,27.95 6.508,-0.81 10.133,-14.65 8.102,-30.9"
         style="fill:#f14857;fill-opacity:1;fill-rule:nonzero;stroke:none"
         id="path246" />
      <path
         inkscape:connector-curvature="0"
         d="m 669.078,3351.9 c -2.031,-16.25 -8.957,-28.76 -15.461,-27.95 -6.508,0.82 -10.137,14.65 -8.105,30.91 2.039,16.25 8.961,28.77 15.465,27.95 6.507,-0.82 10.136,-14.65 8.101,-30.91"
         style="fill:#86171c;fill-opacity:1;fill-rule:nonzero;stroke:none"
         id="path248" />
      <path
         inkscape:connector-curvature="0"
         d="m 842.945,2881.53 c 7.707,-53.9 -3.535,-100.1 -25.113,-103.19 -21.582,-3.08 -45.328,38.11 -53.043,92.02 -7.711,53.9 3.535,100.1 25.113,103.18 21.582,3.09 45.328,-38.1 53.043,-92.01"
         style="fill:#f14857;fill-opacity:1;fill-rule:nonzero;stroke:none"
         id="path250" />
      <path
         inkscape:connector-curvature="0"
         d="m 851.887,2882.81 c 7.707,-53.9 -3.532,-100.1 -25.114,-103.19 -21.582,-3.08 -45.328,38.11 -53.039,92.02 -7.711,53.9 3.532,100.1 25.114,103.18 21.582,3.09 45.328,-38.1 53.039,-92.01"
         style="fill:#86171c;fill-opacity:1;fill-rule:nonzero;stroke:none"
         id="path252" />
      <path
         inkscape:connector-curvature="0"
         d="m 698.598,3215.68 c 5.425,-37.93 -2.485,-70.44 -17.668,-72.61 -15.188,-2.18 -31.899,26.81 -37.325,64.75 -5.425,37.93 2.485,70.44 17.668,72.61 15.192,2.17 31.903,-26.82 37.325,-64.75"
         style="fill:#f14857;fill-opacity:1;fill-rule:nonzero;stroke:none"
         id="path254" />
      <path
         inkscape:connector-curvature="0"
         d="m 704.883,3215.93 c 5.43,-37.93 -2.485,-70.44 -17.672,-72.61 -15.184,-2.17 -31.895,26.82 -37.316,64.75 -5.43,37.93 2.484,70.44 17.668,72.61 15.187,2.18 31.894,-26.81 37.32,-64.75"
         style="fill:#86171c;fill-opacity:1;fill-rule:nonzero;stroke:none"
         id="path256" />
      <g
         id="g258">
        <g
           id="g260"
           clip-path="url(#clipPath264)">
          <g
             id="g266"
             clip-path="url(#clipPath270)">
            <path
               inkscape:connector-curvature="0"
               d="m 1160,3519 v 1 h -28 v 1 h -16 v 1 h -13 v 1 h -13 v 1 h -10 v 1 h -9 v 1 h -8 v 1 h -7 v 1 h -7 v 1 h -6 v 1 h -6 v 1 h -6 v 1 h -5 v 1 h -6 v 1 h -6 v 1 h -5 v 1 h -4 v 1 h -5 v 1 h -4 v 1 h -5 v 1 h -5 v 1 h -4 v 1 h -4 v 1 h -4 v 1 h -3 v 1 h -4 v 1 h -4 v 1 h -4 v 1 h -4 v 1 h -3 v 1 h -3 v 1 h -4 v 1 h -3 v 1 h -3 v 1 h -4 v 1 h -3 v 1 h -3 v 1 h -3 v 1 h -3 v 1 h -3 v 1 h -2 v 1 h -3 v 1 h -3 v 1 h -3 v 1 h -3 v 1 h -2 v 1 h -3 v 1 h -3 v 1 h -2 v 1 h -3 v 1 h -2 v 1 h -3 v 1 h -2 v 1 h -3 v 1 h -2 v 1 h -2 v 1 h -3 v 1 h -2 v 1 h -2 v 1 h -2 v 1 h -3 v 1 h -2 v 1 h -2 v 1 h -2 v 1 h -2 v 1 h -2 v 1 h -2 v 1 h -2 v 1 h -2 v 1 h -2 v 1 h -2 v 1 h -2 v 1 h -2 v 1 h -2 v 1 h -2 v 1 h -2 v 1 h -2 v 1 h -2 v 1 h -1 v 1 h -2 v 1 h -2 v 1 h -2 v 1 h -1 v 1 h -2 v 1 h -2 v 1 h -1 v 1 h -2 v 1 h -2 v 1 h -1 v 1 h -2 v 1 h -1 v 1 h -2 v 1 h -1 v 1 h -2 v 1 h -1 v 1 h -2 v 1 h -1 v 1 h 1 v 1 h 3 v 1 h 3 v 1 h 2 v 1 h 3 v 1 h 3 v 1 h 3 v 1 h 3 v 1 h 2 v 1 h 3 v 1 h 3 v 1 h 3 v 1 h 3 v 1 h 2 v 1 h 3 v 1 h 3 v 1 h 3 v 1 h 2 v 1 h 3 v 1 h 3 v 1 h 3 v 1 h 3 v 1 h 2 v 1 h 3 v 1 h 3 v 1 h 3 v 1 h 3 v 1 h 2 v 1 h 3 v 1 h 3 v 1 h 4 v 1 h 6 v 1 h 6 v 1 h 6 v 1 h 6 v 1 h 7 v 1 h 8 v 1 h 9 v 1 h 9 v 1 h 12 v 1 h 15 v 1 h 27 v 1 h 34 v -1 h 26 v -1 h 13 v -1 h 14 v -1 h 11 v -1 h 8 v -1 h 8 v -1 h 8 v -1 h 8 v -1 h 6 v -1 h 6 v -1 h 6 v -1 h 6 v -1 h 5 v -1 h 6 v -1 h 4 v -1 h 5 v -1 h 4 v -1 h 5 v -1 h 5 v -1 h 4 v -1 h 4 v -1 h 4 v -1 h 4 v -1 h 4 v -1 h 4 v -1 h 3 v -1 h 4 v -1 h 4 v -1 h 3 v -1 h 3 v -1 h 4 v -1 h 3 v -1 h 3 v -1 h 3 v -1 h 4 v -1 h 3 v -1 h 3 v -1 h 3 v -1 h 2 v -1 h 3 v -1 h 3 v -1 h 3 v -1 h 3 v -1 h 2 v -1 h 3 v -1 h 3 v -1 h 2 v -1 h 3 v -1 h 2 v -1 h 3 v -1 h 2 v -1 h 3 v -1 h 2 v -1 h 3 v -1 h 2 v -1 h 2 v -1 h 2 v -1 h 3 v -1 h 2 v -1 h 2 v -1 h 2 v -1 h 2 v -1 h 3 v -1 h 2 v -1 h 2 v -1 h 2 v -1 h 2 v -1 h 2 v -1 h 2 v -1 h 2 v -1 h 2 v -1 h 2 v -1 h 2 v -1 h 1 v -1 h 2 v -1 h 2 v -1 h 2 v -1 h 2 v -1 h 1 v -1 h 2 v -1 h 2 v -1 h 2 v -1 h 1 v -1 h 2 v -1 h 2 v -1 h 1 v -1 h 2 v -1 h 1 v -1 h 2 v -1 h 1 v -1 h 2 v -1 h 1 v -1 h 2 v -1 h 1 v -1 h 2 v -1 h 1 v -1 h 1 v -1 h 2 v -1 h 1 v -1 h 2 v -1 h 1 v -1 h 1 v -1 h 1 v -1 h 2 v -1 h 1 v -1 h 1 v -1 h 1 v -1 h 1 v -1 h 1 v -1 h 1 v -1 h 1 v -1 h 1 v -1 h 1 v -1 h 1 v -1 h 1 v -1 h -2 v -1 h -5 v -1 h -5 v -1 h -5 v -1 h -5 v -1 h -5 v -1 h -6 v -1 h -5 v -1 h -6 v -1 h -6 v -1 h -6 v -1 h -6 v -1 h -8 v -1 h -7 v -1 h -7 v -1 h -8 v -1 h -8 v -1 h -9 v -1 h -9 v -1 h -12 v -1 h -12 v -1 h -14 v -1 h -19 v -1 h -31 v -1"
               style="fill:url(#linearGradient276);fill-opacity:1;fill-rule:nonzero;stroke:none"
               id="path278" />
          </g>
        </g>
      </g>
      <path
         inkscape:connector-curvature="0"
         d="m 750.574,3594.14 c 0,0 51.891,100.9 153.856,160.72 132.53,77.75 217.58,65.57 217.58,65.57 l -98.9,-50.59 c 0,0 22.58,6.31 67.45,9.95 65.38,5.3 87.77,-5.89 87.77,-5.89 l -149.03,-49.48 c 0,0 19.31,3.78 68.33,1.18 46.53,-2.47 62.83,-9.62 62.83,-9.62 l -109.06,-58.5 c 0,0 -211.998,-12.01 -300.826,-63.34"
         style="fill:#4c0e13;fill-opacity:1;fill-rule:nonzero;stroke:none"
         id="path280" />
    </g>
  </g>
</svg>
